<svg xmlns="http://www.w3.org/2000/svg" xmlns:xlink="http://www.w3.org/1999/xlink" width="234.021" height="262.008" viewBox="0 0 234.021 262.008">
  <defs>
    <clipPath id="clip-path">
      <path id="Trazado_873129" data-name="Trazado 873129" d="M234.018,117V262.008H0V117q0-3.674.236-7.274c.087-1.654.224-3.3.4-4.937.037-.4.087-.8.137-1.181.236-2.151.535-4.29.908-6.4q.69-4.122,1.679-8.132a117.2,117.2,0,0,1,35.14-58.8c2.611-2.375,5.347-4.638,8.17-6.764A116.331,116.331,0,0,1,73.874,8.219c1.778-.709,3.594-1.38,5.421-2A116.661,116.661,0,0,1,186.431,22.83c.6.435,1.181.87,1.753,1.318a117.009,117.009,0,0,1,44.5,75.241A117.5,117.5,0,0,1,234.018,117" transform="translate(637 514)" fill="#ffedb1"/>
    </clipPath>
    <clipPath id="clip-path-2">
      <rect id="Rectángulo_455115" data-name="Rectángulo 455115" width="195.875" height="265.318" fill="none"/>
    </clipPath>
    <clipPath id="clip-path-4">
      <rect id="Rectángulo_455112" data-name="Rectángulo 455112" width="195.875" height="233.648" fill="none"/>
    </clipPath>
    <clipPath id="clip-path-5">
      <rect id="Rectángulo_455113" data-name="Rectángulo 455113" width="77.085" height="127.574" fill="none"/>
    </clipPath>
    <clipPath id="clip-path-6">
      <rect id="Rectángulo_455116" data-name="Rectángulo 455116" width="41.596" height="71.053" transform="translate(0 0)" fill="none"/>
    </clipPath>
  </defs>
  <g id="Grupo_1191398" data-name="Grupo 1191398" transform="translate(-636.854 -488)">
    <g id="Grupo_1099281" data-name="Grupo 1099281" transform="translate(636.855 488)">
      <path id="Trazado_873129-2" data-name="Trazado 873129" d="M234.018,117V262.008H0V117q0-3.674.236-7.274c.087-1.654.224-3.3.4-4.937.037-.4.087-.8.137-1.181.236-2.151.535-4.29.908-6.4q.69-4.122,1.679-8.132a117.2,117.2,0,0,1,35.14-58.8c2.611-2.375,5.347-4.638,8.17-6.764A116.331,116.331,0,0,1,73.874,8.219c1.778-.709,3.594-1.38,5.421-2A116.661,116.661,0,0,1,186.431,22.83c.6.435,1.181.87,1.753,1.318a117.009,117.009,0,0,1,44.5,75.241A117.5,117.5,0,0,1,234.018,117" fill="#ffedb1"/>
      <path id="Trazado_873131" data-name="Trazado 873131" d="M220.238,117v25.864c-1.268.485-2.562.92-3.855,1.331C197.794,150,177.4,148.344,159,142.015c-14.337-4.937-29.109-14.524-31.721-29.457-1.094-6.329.174-12.8.609-19.211s-.174-13.38-4.315-18.3c-3.531-4.178-9.052-6.168-14.474-6.914-11.577-1.592-23.949,1.529-34.68-3.084C62.667,60,56.189,46.393,56.624,33.611c.336-9.885,4.253-18.863,8.891-27.393A116.661,116.661,0,0,1,172.651,22.83c.6.435,1.181.87,1.753,1.318a117.009,117.009,0,0,1,44.5,75.241A117.5,117.5,0,0,1,220.238,117" transform="translate(13.782)" fill="#ffedb1"/>
    </g>
    <path id="Intersección_1" data-name="Intersección 1" d="M5554.718,11962.007V11817q0-3.671.238-7.273.028-.526.062-1.049l230.906-17.241q.876,3.93,1.485,7.957a117.682,117.682,0,0,1,1.329,17.606v145.012Z" transform="translate(-4917.864 -11212)" fill="#ffd54e"/>
    <g id="Enmascarar_grupo_1177435" data-name="Enmascarar grupo 1177435" transform="translate(-0.145 -26)" clip-path="url(#clip-path)">
      <g id="Grupo_1190334" data-name="Grupo 1190334" transform="translate(665.229 510.69)">
        <g id="Grupo_1190333" data-name="Grupo 1190333" transform="translate(0 3)" clip-path="url(#clip-path-2)">
          <g id="Grupo_1190332" data-name="Grupo 1190332">
            <g id="Grupo_1190331" data-name="Grupo 1190331" clip-path="url(#clip-path-2)">
              <path id="Trazado_998199" data-name="Trazado 998199" d="M173.21,107.61l-1.463-37.318L170.62,34.826c-.3-.313-.6-.613-.9-.913-2.179-2.166-4.45-4.267-6.786-6.251l-.248-.209a118.388,118.388,0,0,0-11.9-8.874,115.491,115.491,0,0,0-13.6-7.66q-3.68-1.781-7.5-3.3A118.671,118.671,0,0,0,113.49,2.49l-47.6.222L27.417,14.247q-2.74,1.546-5.389,3.21-4.15,2.6-8.064,5.546-4.111,3.073-7.921,6.512c-.326.287-.639.574-.953.861Q2.466,32.764,0,35.3L3.275,61.028c-.026.04-.055.078-.081.119L6.3,84.81l.072.569.026.2,3.954,31.083.117-.013h0l.435,3.312.125,116.182,184.847-15.526Z" transform="translate(0 0.759)" fill="#12263f"/>
              <path id="Trazado_998201" data-name="Trazado 998201" d="M166.677,102.254,14.313,113.516,6.927,55.068v-.013L3.9,31.136c.313-.287.626-.574.953-.861q3.817-3.445,7.921-6.512,3.915-2.936,8.064-5.546,2.642-1.664,5.389-3.21c1.775-.979,3.562-1.918,5.389-2.819,1.1-.535,2.192-1.057,3.315-1.566,1.161-.535,2.349-1.044,3.536-1.527A118,118,0,0,1,68.52,1L87.141,0a118.983,118.983,0,0,1,41.353,8.378q3.817,1.527,7.5,3.3a115.492,115.492,0,0,1,13.6,7.66,118.39,118.39,0,0,1,11.9,8.874l.248.209.209,2.532Z" transform="translate(1.189)" fill="#ffedb1"/>
              <line id="Línea_3265" data-name="Línea 3265" y1="12.885" x2="162.254" transform="translate(10.902 107.831)" fill="none" stroke="#becce3" stroke-linecap="round" stroke-linejoin="round" stroke-width="0.478"/>
              <path id="Trazado_998202" data-name="Trazado 998202" d="M178.156,161.95l-1.514-7.908-.117-.613-1.722-9.1-.131-.613-1.736-9.082-.1-.613-1.749-9.1-.117-.613-1.736-9.1-.117-.613-1.736-9.1-.117-.626-1.736-9.1-.131-.613-1.266-6.655a.309.309,0,0,0-.326-.261l-8.834.7-.613.052-14.028,1.135-.626.052L125.672,91.34l-.626.052L111,92.527l-.613.039L96.35,93.715l-.613.039L81.683,94.9l-.613.039L67.015,96.09l-.613.039L52.361,97.277l-.639.039L37.681,98.465l-.626.039L23,99.652l-.626.039-8.691.7a.293.293,0,0,0-.274.313l-.052,7.1v.626l-.065,9.448-.013.626-.052,9.448v.626l-.078,9.461v.613l-.065,9.448v.626l-.065,9.448v.626l-.065,9.448v.626l-.052,7.373a.3.3,0,0,0,.1.222.333.333,0,0,0,.17.078l.065.013,9.487-.822.626-.065,3.119-.274,12.175-1.044.613-.052,15.294-1.318.626-.065,15.307-1.318.613-.052,5.455-.47.287-.026,5.389-.47,4.176-.365.626-.039,9.513-.822,5.807-.509.626-.065,15.333-1.318.626-.052,15.333-1.331h.013l.613-.052,15.359-1.331.613-.052,15.359-1.331.639-.052,11.014-.953a.256.256,0,0,0,.222-.117.285.285,0,0,0,.052-.248m-11.392.718-.626.052-15.346,1.331h-.013l-.613.039-15.346,1.331-.626.052-15.32,1.331-.613.052-15.32,1.318-.639.052-5.585.483-9.722.835h-.013l-.613.065-3.863.339h-.013l-5.624.483-.274.026-5.52.47-.626.052L55.154,172.3l-.626.065-15.281,1.318h-.013l-.6.052-12.149,1.044-3.132.274-.626.052-9.2.8.039-7.086.013-.626.065-9.435v-.626l.065-9.461.013-.626.052-9.435v-.626l.065-9.435v-.626l.078-9.461v-.626l.052-9.448v-.613L14.022,101l8.339-.679.639-.039L37.067,99.13l.613-.039,14.067-1.148.626-.052,14.054-1.122.626-.052L81.1,95.581l.639-.065,14.054-1.122.626-.052,14.054-1.135.6-.052,14.054-1.135.626-.052,14.041-1.135.613-.052,14.041-1.135.626-.052,8.5-.679,1.214,6.3.117.626,1.736,9.1.13.613,1.736,9.108.1.613,1.736,9.1.13.626,1.736,9.069.117.626,1.736,9.082.117.626,1.736,9.1.117.613,1.462,7.634Z" transform="translate(3.934 26.913)" fill="#becce3"/>
              <path id="Trazado_998203" data-name="Trazado 998203" d="M20.788,96.985l0,.626-.632.047,0-.626Z" transform="translate(6.145 29.574)" fill="#becce3"/>
              <path id="Trazado_998204" data-name="Trazado 998204" d="M20.9,123.353l-.621.06-.009-.629-.046-9.439,0-.615-.047-9.426,0-.628.62-.047.01.616.046,9.427,0,.626.047,9.427Z" transform="translate(6.154 31.295)" fill="#becce3"/>
              <path id="Trazado_998205" data-name="Trazado 998205" d="M21.1,164.256l-.633.059,0-.639-.039-7.117,0-.628-.047-9.414-.009-.628-.035-9.426-.009-.628-.046-9.427v-.615l.621-.06.009.629.048,9.414,0,.626.047,9.427,0,.626.046,9.427.009.628.027,7.117Z" transform="translate(6.188 38.34)" fill="#becce3"/>
              <path id="Trazado_998206" data-name="Trazado 998206" d="M33.438,163.492l.009.628-.621.06-.009-.628-.188-9.392h-.013l-.009-.628-.188-9.392h-.013l-.009-.628-.189-9.379-.021-.63L32,124.11l-.021-.629-.189-9.392-.021-.629-.189-9.392-.021-.629-.134-6.688-.009-.629.62-.047.008.628.147,6.69.009.628.2,9.393.01.615.2,9.406.009.628.188,9.392.023.617.188,9.39.022.63.188,9.39.009.629Z" transform="translate(9.579 29.297)" fill="#becce3"/>
              <path id="Trazado_998207" data-name="Trazado 998207" d="M33.247,154.35l-.62.047-.009-.628.608-.048h.012Z" transform="translate(9.946 46.874)" fill="#becce3"/>
              <path id="Trazado_998208" data-name="Trazado 998208" d="M46.1,170.823l-.621.06-.021-.63-.279-7.229-.021-.63-.344-9.345-.034-.63-.342-9.358-.021-.629-.356-9.359-.022-.617-.355-9.359-.021-.629-.342-9.369-.023-.617-.354-9.371-.022-.617-.252-6.651-.021-.629.632-.046.022.616.239,6.662.035.619.342,9.358.022.629.355,9.359.021.63.355,9.358.022.63.343,9.345.022.629.355,9.359.021.629.355,9.359.023.617.266,7.229Z" transform="translate(13.006 29.019)" fill="#becce3"/>
              <path id="Trazado_998209" data-name="Trazado 998209" d="M58.133,161.19l.035.619-.621.06-.022-.617-.51-9.325-.034-.63-.509-9.325-.034-.63-.5-9.324-.035-.619-.509-9.324-.035-.619-.508-9.338-.034-.63-.5-9.324-.035-.619-.356-6.611L53.9,94.3l.62-.048.034.632.358,6.6.034.63.5,9.324.035.619.509,9.337.035.619.508,9.337.022.617.509,9.324.035.619.508,9.337.035.619Z" transform="translate(16.435 28.742)" fill="#becce3"/>
              <path id="Trazado_998210" data-name="Trazado 998210" d="M57.655,152.231l-.621.06-.034-.63.62-.048Z" transform="translate(17.381 46.231)" fill="#becce3"/>
              <path id="Trazado_998211" data-name="Trazado 998211" d="M70.489,160.034l.047.632-.62.048-.048-.62-.651-9.29-.047-.62-.662-9.3-.048-.62-.663-9.29-.035-.619-.662-9.3-.048-.62-.662-9.3-.047-.62-.651-9.288-.047-.633-.474-6.56-.034-.632.62-.047.047.62.461,6.572.048.62.662,9.3.047.62.663,9.3.035.619.663,9.291.047.62.651,9.289.046.633.664,9.29.047.62Z" transform="translate(19.862 28.464)" fill="#becce3"/>
              <path id="Trazado_998212" data-name="Trazado 998212" d="M69.86,151.185l-.62.047-.035-.617.609-.061h.012Z" transform="translate(21.103 45.908)" fill="#becce3"/>
              <path id="Trazado_998213" data-name="Trazado 998213" d="M82.869,158.881l.047.62-.62.06-.06-.621-.818-9.257-.06-.621-.817-9.256-.047-.633-.817-9.256-.06-.621-.817-9.257-.048-.62-.816-9.269h-.013l-.047-.62-.816-9.269L77,99.638l-.568-6.521-.059-.633.62-.048.059.634.568,6.519h.012l.047.62.818,9.257.06.621.816,9.269.06.621.817,9.269.047.62.817,9.257.06.621L81.992,149l.06.621Z" transform="translate(23.289 28.187)" fill="#becce3"/>
              <path id="Trazado_998214" data-name="Trazado 998214" d="M82.091,150.117l-.634.059-.047-.62.634-.059Z" transform="translate(24.824 45.586)" fill="#becce3"/>
              <path id="Trazado_998215" data-name="Trazado 998215" d="M95.236,157.739l.061.608-.621.06-.06-.621-.984-9.223-.06-.621-.971-9.223-.072-.634-.971-9.223-.074-.609-.97-9.236-.06-.621-.983-9.236-.06-.621-.984-9.223-.06-.621-.684-6.483-.07-.635.607-.048.07.634.684,6.483.061.609.983,9.236.06.621.983,9.236.06.621h.013l.971,9.223.06.621.984,9.223.06.621.984,9.225.06.621Z" transform="translate(26.716 27.909)" fill="#becce3"/>
              <path id="Trazado_998216" data-name="Trazado 998216" d="M94.316,149.058l-.621.06-.06-.621.62-.047Z" transform="translate(28.552 45.267)" fill="#becce3"/>
              <path id="Trazado_998217" data-name="Trazado 998217" d="M108.693,165.317l-.62.047h-.012l-.074-.609-.928-7.5-.072-.622-1.138-9.191-.073-.622-1.138-9.189-.072-.622-1.138-9.191-.073-.622-1.137-9.2-.073-.609h-.013l-1.124-9.2H101l-.072-.622-1.137-9.2-.074-.609-.8-6.445-.073-.622.621-.06.084.637.789,6.431.085.624,1.137,9.2.074.609,1.137,9.2.072.622,1.137,9.2.074.609,1.138,9.191.072.622,1.137,9.2.086.611,1.125,9.2.086.611.926,7.512Z" transform="translate(30.14 27.631)" fill="#becce3"/>
              <path id="Trazado_998218" data-name="Trazado 998218" d="M115.932,126.71l-.62.047-.086-.611-1.3-9.17-.085-.624-1.291-9.168-.1-.613L111.159,97.4l-.085-.624-.907-6.393-.1-.625.62-.048.085.624.906,6.394.1.625,1.292,9.168.086.611,1.3,9.17.086.612,1.3,9.17Z" transform="translate(33.564 27.356)" fill="#becce3"/>
              <path id="Trazado_998219" data-name="Trazado 998219" d="M118.465,144.633l.1.625-.621.06-.085-.624-1.3-9.158-.085-.624-1.292-9.155-.1-.625.621-.06.084.635h.013l1.292,9.157.086.611Z" transform="translate(35.091 38.138)" fill="#becce3"/>
              <path id="Trazado_998220" data-name="Trazado 998220" d="M118.788,146.936l-.608.061-.086-.612.607-.048h.013Z" transform="translate(36.01 44.623)" fill="#becce3"/>
              <path id="Trazado_998221" data-name="Trazado 998221" d="M121.919,88.8l.1.625-.619.047-.1-.625Z" transform="translate(36.988 27.078)" fill="#becce3"/>
              <path id="Trazado_998222" data-name="Trazado 998222" d="M133.554,161.477l-.632.046-.1-.6-1.216-7.618-.1-.613-1.459-9.123-.1-.625-1.459-9.124-.1-.625-1.459-9.124h-.012l-.1-.612-1.456-9.136-.1-.613-1.458-9.136-.1-.612-1.458-9.136h-.013l-.1-.625.632-.047.1.613,1.458,9.136.1.625,1.459,9.124.11.625,1.459,9.124.1.625,1.459,9.124.1.625,1.459,9.111.11.626,1.459,9.124.1.624,1.218,7.606Z" transform="translate(37.247 28.71)" fill="#becce3"/>
              <path id="Trazado_998223" data-name="Trazado 998223" d="M165.413,94.173l-.62.047-8.708.726-.621.06h-.012L141.3,96.184l-.619.047-14.162,1.178-.633.046-14.174,1.177-.609.061L96.93,99.87l-.62.047-14.174,1.177-.621.06-14.175,1.177-.62.047-14.174,1.177-.633.046L37.737,104.79l-.62.048L22.93,106.014l-.633.057-8.429.692-.621.06,0-.626.62-.047,8.429-.7.62-.047,14.177-1.19.632-.046,14.162-1.178.62-.047,14.174-1.177.621-.06,14.162-1.178.62-.047L96.25,99.3l.62-.047h.012l14.162-1.178.608-.048,14.162-1.178.621-.06L140.6,95.607l.607-.048,14.149-1.18.633-.047,8.683-.727.62-.047Z" transform="translate(4.04 28.529)" fill="#becce3"/>
              <path id="Trazado_998224" data-name="Trazado 998224" d="M167.289,101.62l-.62.047-9.013.769-.62.047-14.341,1.21-.607.05-14.341,1.208-.621.06h-.013l-14.341,1.21-.607.048-14.341,1.21-.621.06H97.19l-14.328,1.211-.633.046L67.888,110l-.621.06-14.341,1.21-.62.047-14.341,1.21-.621.06L22.99,113.795l-.633.047-8.532.731-.633.046,0-.626.632-.047,8.532-.718.633-.059,14.329-1.211.632-.046L52.283,110.7l.621-.06,14.328-1.211.62-.047,14.329-1.211.632-.046,14.329-1.211.621-.06,14.341-1.21.607-.048,14.329-1.211.632-.046,14.316-1.212.62-.047,14.329-1.211.621-.06,8.987-.758.62-.047Z" transform="translate(4.023 30.8)" fill="#becce3"/>
              <path id="Trazado_998225" data-name="Trazado 998225" d="M169.151,109.066l-.62.047-9.292.8-.632.047L144.1,111.2l-.621.06L128.97,112.5l-.62.048-14.508,1.254h-.013l-.607.048L98.714,115.1l-.633.059L83.573,116.4l-.62.047-14.508,1.242-.621.06-14.507,1.242-.634.057-14.5,1.244-.62.047-14.52,1.241-.621.06-8.66.743-.62.048,0-.628.62-.047,8.646-.744.634-.059,14.5-1.244.632-.046,14.483-1.245.633-.059,14.5-1.231.62-.06,14.5-1.244.632-.046,14.5-1.244.621-.06,14.508-1.242.607-.048,14.5-1.244h.013l.621-.06,14.5-1.244.62-.047,14.5-1.244.621-.06,9.291-.788.62-.047Z" transform="translate(4.009 33.07)" fill="#becce3"/>
              <path id="Trazado_998226" data-name="Trazado 998226" d="M145.5,118.211l-.62.047L130.2,119.531l-.621.06-14.686,1.274-.608.048L99.593,122.2l-.62.048L84.3,123.522l-.633.057-14.675,1.275-.607.05-14.675,1.287-.633.046-14.661,1.276-.621.06-14.675,1.275-.632.046-8.776.769-.619.047v-.615l.621-.06,8.774-.756.62-.06,14.662-1.275.62-.048,14.662-1.276.633-.059,14.662-1.275.62-.048,14.662-1.275.621-.06,14.662-1.276.632-.047,14.662-1.275.621-.06,14.674-1.275.62-.047,14.674-1.275.621-.06Z" transform="translate(3.993 35.856)" fill="#becce3"/>
              <path id="Trazado_998227" data-name="Trazado 998227" d="M136.682,116.5l-.621.06-9.6.831-.62.048h-.013l-.1-.613.633-.059,9.573-.834.62-.047Z" transform="translate(38.34 35.338)" fill="#becce3"/>
              <path id="Trazado_998228" data-name="Trazado 998228" d="M172.9,123.94l-.608.061-9.9.874-.62.048-14.854,1.318H146.9l-.607.048-14.866,1.3-.621.06-14.854,1.306-.608.061-14.853,1.3-.634.059-14.841,1.308-.62.047-14.84,1.308-.621.06-14.841,1.308-.621.06-14.829,1.309-.619.047H38.01l-14.828,1.309-.621.06-8.889.78-.634.059,0-.626.633-.059,8.877-.783.633-.059L38,135.2l.62-.047,14.828-1.309.621-.06L68.9,132.477l.62-.048,14.828-1.308.621-.06,14.841-1.308.62-.048,14.842-1.319.62-.047,14.841-1.308.62-.06,14.841-1.308.621-.06,14.854-1.3.62-.048,9.877-.877.62-.047Z" transform="translate(3.975 37.606)" fill="#becce3"/>
              <path id="Trazado_998229" data-name="Trazado 998229" d="M174.77,131.378l-.621.06-10.182.908-.633.059L148.3,133.741l-.621.06-15.02,1.339-.633.059-15.02,1.339-.621.06-15.008,1.339-.633.059-15.007,1.34-.621.06-15.008,1.34-.621.059-15.007,1.34-.621.06-15.008,1.34-.607.048h-.013l-14.995,1.341-.621.06-9,.806-.621.06,0-.628.621-.059,8.992-.808.633-.059,14.982-1.343.62-.047,14.983-1.343.633-.059,14.995-1.341.62-.047,14.995-1.341.621-.06,14.995-1.341.634-.059,15.007-1.339.621-.06,15.008-1.34.62-.047,15.021-1.352.619-.047,15.021-1.351.621-.06,10.171-.91.62-.047Z" transform="translate(3.962 39.874)" fill="#becce3"/>
              <path id="Trazado_998230" data-name="Trazado 998230" d="M176.636,138.815l-.621.06-10.475.953-.633.046-15.2,1.382-.621.06-15.2,1.37-.633.059-15.187,1.371-.621.06-15.187,1.37-.621.06-15.187,1.383-.62.048L70.659,148.41l-.621.059-15.162,1.374-.633.059-15.162,1.374-.621.06L23.311,152.71l-.632.047-9.12.831-.621.06,0-.626.621-.06,9.12-.831.62-.048,15.149-1.375.621-.06,15.149-1.374.633-.047,15.161-1.373.609-.061,15.161-1.374.621-.06,15.175-1.373.633-.059,15.174-1.371.62-.048,15.175-1.385.62-.047,15.2-1.383.609-.061,15.2-1.369.633-.059,10.462-.941.609-.061Z" transform="translate(3.945 42.141)" fill="#becce3"/>
              <path id="Trazado_998231" data-name="Trazado 998231" d="M55.579,157.424l1.155,21.406a.683.683,0,0,0,.74.643l63.818-5.374a.684.684,0,0,0,.612-.816l-4.338-21.765a.683.683,0,0,0-.735-.547L56.2,156.707a.684.684,0,0,0-.619.718" transform="translate(16.947 46.035)" fill="#cbcbcb"/>
              <path id="Trazado_998232" data-name="Trazado 998232" d="M99.576,140.35c-.261.966-.666,2.545-1.161,4.58-.013.026-.013.039-.026.065-.052.209-.1.431-.157.652-.091.365-.183.744-.3,1.135-.535,2.153-1.161,4.672-1.84,7.386-.091.339-.17.679-.261,1.031-.052.209-.1.431-.157.639-.613,2.427-1.253,4.985-1.892,7.595-.052.209-.117.431-.17.652-.326,1.318-.652,2.649-.992,3.98-2.453,9.9-4.815,19.548-5.729,23.619-.039.17-.065.326-.1.483A37.617,37.617,0,0,1,85,197.924c-2.636,6.681-6.773,12.449-8.991,14.106l-1.488,21.1h-52l.483-30,.535-33,.013-.626.117-7.138v-.626l.091-5.272c.039-1.4.091-2.793.13-4.176.013-.209.013-.418.026-.626.1-3.275.235-6.459.352-9.461.013-.209.026-.418.026-.626.157-3.445.287-6.642.418-9.448.013-.222.013-.431.026-.639.039-.679.065-1.318.091-1.944.157-2.975.287-5.363.365-6.89a.956.956,0,0,1,.17-.522,1.125,1.125,0,0,1,1.683-.287l.026.026a10.563,10.563,0,0,1,3.693,6.486l.183-1.044v-.026l.026-.13.953-5.7.117-.639.822-4.893v-.013l.783-4.632.1-.639.339-2.049.026-.144.2-1.135a.886.886,0,0,1,.091-.261,1.107,1.107,0,0,1,.613-.6,1.072,1.072,0,0,1,.731-.065,7.778,7.778,0,0,1,4.724,3.693,2.542,2.542,0,0,1,.313.587,9.738,9.738,0,0,1,.809,2.9c.013.1.026.222.039.339.144,1.331.287,3.458.418,6.068.013.209.026.418.026.626.144,2.753.261,5.99.378,9.369,0,.209.013.4.013.613.1,3.106.2,6.329.274,9.382,0,.209.013.418.013.626.091,3.471.157,6.72.222,9.382,0,.222,0,.431.013.626.039,2.127.065,3.823.078,4.88.026.7.039,1.135.039,1.214l.926-.091.913-.1v-.013s0-.17.013-.5a3.306,3.306,0,0,0,.013-.378,1.418,1.418,0,0,0,.013-.235c.013-.157.013-.326.013-.509a2.31,2.31,0,0,0,.013-.3l.026-.326V153.9c.039-.927.078-2.088.13-3.432l.013-.065.026-.639.365-9.422.026-.639.365-9.422.013-.626.378-9.422.013-.639.365-9.422.026-.626.052-1.227a.8.8,0,0,1,.013-.183v-.157a.222.222,0,0,0,.013-.091l.039-1.227a1.218,1.218,0,0,1,.157-.535,1.124,1.124,0,0,1,1.448-.457c.261.117.535.261.835.431.2.1.4.222.626.365a14.027,14.027,0,0,1,2.819,2.192l.026.026c.1.1.2.209.3.313q.254.274.509.587a10.957,10.957,0,0,1,2.036,3.719,1.5,1.5,0,0,1,.078.222,10.124,10.124,0,0,1,.418,1.97c.1.822.183,1.918.261,3.236.013.209.026.418.026.639.144,2.545.235,5.807.313,9.343.013.209.013.418.013.626.065,2.466.117,5.05.183,7.634,0,.3.013.587.013.861s.013.561.013.861c.013.209.013.418.013.626v.235c.078,3.249.157,6.381.261,9.135,0,.209.013.418.026.626a57.717,57.717,0,0,0,.7,8.573,1.535,1.535,0,0,0,.144.378.271.271,0,0,0,.078.13.234.234,0,0,0,.065.091h.013c.444.144,1.253-3.771,2.192-9.461.026-.209.065-.418.1-.639.326-2.1.692-4.424,1.044-6.851.026-.157.052-.3.065-.444.1-.731.209-1.462.313-2.218.026-.209.065-.418.091-.626.418-2.949.835-5.977,1.227-8.926v-.065c.013-.13.039-.248.052-.378a.444.444,0,0,0,.013-.131c.039-.209.065-.4.091-.613.365-2.7.692-5.324,1-7.673v-.052q.137-.9.235-1.762l.078-.626c.039-.287.078-.574.117-.848.157-1.292.313-2.453.431-3.458.026-.17.052-.326.065-.483.065-.522.131-1,.17-1.422v-.026c.026-.248.065-.457.091-.666a1.119,1.119,0,0,1,.47-.783l.013-.013h.013a1.121,1.121,0,0,1,1.253-.013,17.364,17.364,0,0,1,6.016,6.955c.091.183.183.365.261.561.013.013.013.026.026.052a2.4,2.4,0,0,1,.117.326,3.036,3.036,0,0,1,.144.365,21.24,21.24,0,0,1,1.462,7.229q.02.607.039,1.292v.626c.039,2.571-.052,5.807-.2,9.369-.013.209-.013.418-.026.626-.091,2.245-.222,4.593-.352,6.994-.039.6-.065,1.2-.091,1.814-.013.2-.026.4-.039.6l-.039.626c-.183,3.171-.391,6.355-.574,9.409l-.039.626c-.17,2.61-.313,5.115-.444,7.4l-.039.626c-.078,1.475-.144,2.845-.209,4.071a55.174,55.174,0,0,0-.039,6.251v.013a.078.078,0,0,0,.013.052,1.248,1.248,0,0,0,.117.457c1.018,1.723.77.274.77.274s1.54-3.445,3.262-7.438c.587-1.37,1.187-2.793,1.762-4.176.091-.222.183-.431.261-.639h.013c.809-1.97,1.527-3.8,1.984-5.128.222-.639.5-1.5.848-2.505.065-.209.13-.418.209-.639.065-.183.131-.391.209-.587.157-.47.339-.953.522-1.462v-.013a51.477,51.477,0,0,1,3.51-7.673c.117-.235.248-.444.378-.665,2.479-4.071,5.768-7.36,10-7.216a5.418,5.418,0,0,1,.639.039c.261.026.522.065.8.117a1.311,1.311,0,0,1,.626.365,1.158,1.158,0,0,1,.287,1.044" transform="translate(6.867 32.188)" fill="#ff8c9c"/>
              <g id="Grupo_1190330" data-name="Grupo 1190330" transform="translate(29.387 137.745)" opacity="0.49">
                <g id="Grupo_1190329" data-name="Grupo 1190329">
                  <g id="Grupo_1190328" data-name="Grupo 1190328" clip-path="url(#clip-path-5)">
                    <path id="Trazado_998233" data-name="Trazado 998233" d="M99.576,140.35c-.261.966-.666,2.545-1.161,4.58-.013.026-.013.039-.026.065-.052.209-.1.431-.157.652-.091.365-.183.744-.3,1.135-.535,2.153-1.161,4.672-1.84,7.386-.091.339-.17.679-.261,1.031-.052.209-.1.431-.157.639-.613,2.427-1.253,4.985-1.892,7.595-.052.209-.117.431-.17.652-.326,1.318-.652,2.649-.992,3.98-2.453,9.9-4.815,19.548-5.729,23.619-.039.17-.065.326-.1.483A37.617,37.617,0,0,1,85,197.924c-2.636,6.681-6.773,12.449-8.991,14.106l-1.488,21.1h-52l.483-30,.535-33,.013-.626.117-7.138v-.626l.091-5.272c.039-1.4.091-2.793.13-4.176.013-.209.013-.418.026-.626.1-3.275.235-6.459.352-9.461.013-.209.026-.418.026-.626.157-3.445.287-6.642.418-9.448.013-.222.013-.431.026-.639.039-.679.065-1.318.091-1.944.157-2.975.287-5.363.365-6.89a.956.956,0,0,1,.17-.522,1.125,1.125,0,0,1,1.683-.287l.026.026a10.563,10.563,0,0,1,3.693,6.486l.183-1.044v-.026l.026-.13.953-5.7.117-.639.822-4.893v-.013l.783-4.632.1-.639.339-2.049.026-.144.2-1.135a.886.886,0,0,1,.091-.261,1.107,1.107,0,0,1,.613-.6,1.072,1.072,0,0,1,.731-.065,7.778,7.778,0,0,1,4.724,3.693,2.542,2.542,0,0,1,.313.587,9.738,9.738,0,0,1,.809,2.9c.013.1.026.222.039.339.144,1.331.287,3.458.418,6.068.013.209.026.418.026.626.144,2.753.261,5.99.378,9.369,0,.209.013.4.013.613.1,3.106.2,6.329.274,9.382,0,.209.013.418.013.626.091,3.471.157,6.72.222,9.382,0,.222,0,.431.013.626.039,2.127.065,3.823.078,4.88.026.7.039,1.135.039,1.214l.926-.091.913-.1v-.013s0-.17.013-.5a3.306,3.306,0,0,0,.013-.378,1.418,1.418,0,0,0,.013-.235c.013-.157.013-.326.013-.509a2.31,2.31,0,0,0,.013-.3l.026-.326V153.9c.039-.927.078-2.088.13-3.432l.013-.065.026-.639.365-9.422.026-.639.365-9.422.013-.626.378-9.422.013-.639.365-9.422.026-.626.052-1.227a.8.8,0,0,1,.013-.183v-.157a.222.222,0,0,0,.013-.091l.039-1.227a1.218,1.218,0,0,1,.157-.535,1.124,1.124,0,0,1,1.448-.457c.261.117.535.261.835.431.2.1.4.222.626.365a14.027,14.027,0,0,1,2.819,2.192l.026.026c.1.1.2.209.3.313q.254.274.509.587a10.957,10.957,0,0,1,2.036,3.719,1.5,1.5,0,0,1,.078.222,10.124,10.124,0,0,1,.418,1.97c.1.822.183,1.918.261,3.236.013.209.026.418.026.639.144,2.545.235,5.807.313,9.343.013.209.013.418.013.626.065,2.466.117,5.05.183,7.634,0,.3.013.587.013.861s.013.561.013.861c.013.209.013.418.013.626v.235c.078,3.249.157,6.381.261,9.135,0,.209.013.418.026.626a57.717,57.717,0,0,0,.7,8.573,1.535,1.535,0,0,0,.144.378.271.271,0,0,0,.078.13.234.234,0,0,0,.065.091h.013c.444.144,1.253-3.771,2.192-9.461.026-.209.065-.418.1-.639.326-2.1.692-4.424,1.044-6.851.026-.157.052-.3.065-.444.1-.731.209-1.462.313-2.218.026-.209.065-.418.091-.626.418-2.949.835-5.977,1.227-8.926v-.065c.013-.13.039-.248.052-.378a.444.444,0,0,0,.013-.131c.039-.209.065-.4.091-.613.365-2.7.692-5.324,1-7.673v-.052q.137-.9.235-1.762l.078-.626c.039-.287.078-.574.117-.848.157-1.292.313-2.453.431-3.458.026-.17.052-.326.065-.483.065-.522.131-1,.17-1.422v-.026c.026-.248.065-.457.091-.666a1.119,1.119,0,0,1,.47-.783l.013-.013h.013a1.121,1.121,0,0,1,1.253-.013,17.364,17.364,0,0,1,6.016,6.955c.091.183.183.365.261.561.013.013.013.026.026.052a2.4,2.4,0,0,1,.117.326,3.036,3.036,0,0,1,.144.365,21.24,21.24,0,0,1,1.462,7.229q.02.607.039,1.292v.626c.039,2.571-.052,5.807-.2,9.369-.013.209-.013.418-.026.626-.091,2.245-.222,4.593-.352,6.994-.039.6-.065,1.2-.091,1.814-.013.2-.026.4-.039.6l-.039.626c-.183,3.171-.391,6.355-.574,9.409l-.039.626c-.17,2.61-.313,5.115-.444,7.4l-.039.626c-.078,1.475-.144,2.845-.209,4.071a55.174,55.174,0,0,0-.039,6.251v.013a.078.078,0,0,0,.013.052,1.248,1.248,0,0,0,.117.457c1.018,1.723.77.274.77.274s1.54-3.445,3.262-7.438c.587-1.37,1.187-2.793,1.762-4.176.091-.222.183-.431.261-.639h.013c.809-1.97,1.527-3.8,1.984-5.128.222-.639.5-1.5.848-2.505.065-.209.13-.418.209-.639.065-.183.131-.391.209-.587.157-.47.339-.953.522-1.462v-.013a51.477,51.477,0,0,1,3.51-7.673c.117-.235.248-.444.378-.665,2.479-4.071,5.768-7.36,10-7.216a5.418,5.418,0,0,1,.639.039c.261.026.522.065.8.117a1.311,1.311,0,0,1,.626.365,1.158,1.158,0,0,1,.287,1.044" transform="translate(-22.52 -105.557)" fill="#674a11"/>
                  </g>
                </g>
              </g>
              <path id="Trazado_998234" data-name="Trazado 998234" d="M56.1,110.459a1.3,1.3,0,0,1,.376-.565,1.47,1.47,0,0,1,1.661.128,2.718,2.718,0,0,1,.851,1.361,16.259,16.259,0,0,1,.27,8.66,4.14,4.14,0,0,1-.681,1.741,2.173,2.173,0,0,1-1.82.852,2.221,2.221,0,0,1-1.772-1.229,4.228,4.228,0,0,1-.32-1.978,25.428,25.428,0,0,1,1.435-8.969" transform="translate(16.667 33.448)" fill="#fc9d83"/>
              <path id="Trazado_998235" data-name="Trazado 998235" d="M41.719,107.557a1.427,1.427,0,0,1,.335-.667,1.594,1.594,0,0,1,1.819-.077,2.994,2.994,0,0,1,1.1,1.381,18.071,18.071,0,0,1,1.409,9.453,4.6,4.6,0,0,1-.514,2A2.373,2.373,0,0,1,44,120.813a2.432,2.432,0,0,1-2.083-1.117,4.71,4.71,0,0,1-.6-2.126,28.323,28.323,0,0,1,.4-10.013" transform="translate(12.522 32.496)" fill="#fc9d83"/>
              <path id="Trazado_998236" data-name="Trazado 998236" d="M31.835,107.73a1.523,1.523,0,0,1,.361-.63,1.235,1.235,0,0,1,1.575.1,2.984,2.984,0,0,1,.795,1.481,20.641,20.641,0,0,1,.172,9.534,5.171,5.171,0,0,1-.662,1.933,1.85,1.85,0,0,1-3.406-.337,5.281,5.281,0,0,1-.284-2.171,32.634,32.634,0,0,1,1.448-9.912" transform="translate(9.265 32.585)" fill="#fc9d83"/>
              <path id="Trazado_998237" data-name="Trazado 998237" d="M26.518,124.59a2.9,2.9,0,0,1-.305,1.109,1.042,1.042,0,0,1-1.918-.014c.153-2.982.278-5.365.364-6.9a.965.965,0,0,1,.168-.521.8.8,0,0,1,.7.124,1.668,1.668,0,0,1,.505.805,11.76,11.76,0,0,1,.484,5.4" transform="translate(7.408 36.052)" fill="#fc9d83"/>
              <path id="Trazado_998238" data-name="Trazado 998238" d="M29.017,161.2s-.7-28.261.091-34.262,2.488-20.558,3.964-20.883,6.458,1.536,6.7,8.395c.193,5.59,1.448,42.31,1.448,42.31l1.839-.209s.71-19.795,1.326-34.728c.367-8.871.432-15.98,1.03-16.334,1.764-1.041,8.841,4.647,9.342,12.142.518,7.742-.163,39.539,1.61,40.928,0,0,3.178-14.958,4.347-23s1.9-25.583,4.148-25.667,8.777,6.372,8.683,17.892-2.355,54.2-2.355,54.2" transform="translate(8.761 32.128)" fill="none" stroke="#502750" stroke-linecap="round" stroke-linejoin="round" stroke-width="0.478"/>
              <path id="Trazado_998239" data-name="Trazado 998239" d="M82.854,132.457c-.556,2.174-1.874,7.417-3.478,13.822a7.046,7.046,0,0,1-2-5.906,14.58,14.58,0,0,1,2.277-6.008c.637-1.036,1.528-2.473,2.751-2.884.065-.018.116-.038.17-.057a1.127,1.127,0,0,1,.279,1.034" transform="translate(23.582 40.075)" fill="#fc9d83"/>
            </g>
          </g>
        </g>
      </g>
    </g>
    <g id="Grupo_1099280" data-name="Grupo 1099280" transform="translate(791.855 499.404)">
      <path id="Trazado_873137" data-name="Trazado 873137" d="M159.539,42.632a38.193,38.193,0,0,0-20.082,68.935L126.023,133.74,148.566,116.5a38.2,38.2,0,1,0,10.973-73.866" transform="translate(-123.817 -42.55)" fill="#ff9581"/>
      <rect id="Rectángulo_401286" data-name="Rectángulo 401286" width="1.616" height="31.233" transform="translate(39.141 23.271)" fill="#502750"/>
      <path id="Trazado_873138" data-name="Trazado 873138" d="M152.484,94.427a1.257,1.257,0,0,1-1.258-1.256V58.058a1.258,1.258,0,0,1,2.516,0V93.171a1.257,1.257,0,0,1-1.258,1.256" transform="translate(-112.534 -36.684)" fill="#fff"/>
      <path id="Trazado_873139" data-name="Trazado 873139" d="M157.637,88.8a1.256,1.256,0,0,1-1.258-1.256V61.1a1.258,1.258,0,0,1,2.516,0V87.544a1.256,1.256,0,0,1-1.258,1.256" transform="translate(-110.414 -35.433)" fill="#fff"/>
      <path id="Trazado_873140" data-name="Trazado 873140" d="M146.726,88.8a1.256,1.256,0,0,1-1.258-1.256V61.1a1.258,1.258,0,0,1,2.516,0V87.544a1.256,1.256,0,0,1-1.258,1.256" transform="translate(-114.904 -35.433)" fill="#fff"/>
      <path id="Trazado_873141" data-name="Trazado 873141" d="M162.79,84.707a1.257,1.257,0,0,1-1.259-1.256V63.341a1.258,1.258,0,0,1,2.516,0V83.45a1.256,1.256,0,0,1-1.256,1.256" transform="translate(-108.291 -34.508)" fill="#fff"/>
      <path id="Trazado_873142" data-name="Trazado 873142" d="M141.876,84.707a1.257,1.257,0,0,1-1.258-1.256V63.341a1.258,1.258,0,0,1,2.516,0V83.45a1.257,1.257,0,0,1-1.258,1.256" transform="translate(-116.899 -34.508)" fill="#fff"/>
      <path id="Trazado_873143" data-name="Trazado 873143" d="M167.335,79.509a1.257,1.257,0,0,1-1.258-1.256V66.192a1.258,1.258,0,0,1,2.516,0v12.06a1.257,1.257,0,0,1-1.258,1.256" transform="translate(-106.42 -33.335)" fill="#fff"/>
      <path id="Trazado_873144" data-name="Trazado 873144" d="M136.724,79.509a1.257,1.257,0,0,1-1.258-1.256V66.192a1.258,1.258,0,0,1,2.516,0v12.06a1.257,1.257,0,0,1-1.258,1.256" transform="translate(-119.021 -33.335)" fill="#fff"/>
    </g>
    <g id="Grupo_1190336" data-name="Grupo 1190336" transform="translate(734.456 518.474)">
      <g id="Grupo_1190335" data-name="Grupo 1190335" transform="translate(-5.388 -13)" clip-path="url(#clip-path-6)">
        <path id="Trazado_998240" data-name="Trazado 998240" d="M22.957,14.872l.168,1.888,9.738-.875.286,3.183-9.738.875.169,1.888,9.738-.875.287,3.183-9.739.875.171,1.888,9.736-.875.42,4.662c.658,7.344-5.444,13.943-13.57,14.672S5.314,40.684,4.655,33.338l-.418-4.661L14.4,27.765l-.171-1.888L4.066,26.79,3.78,23.607l10.165-.913-.171-1.886L3.61,21.719l-.286-3.183,10.165-.913-.168-1.886-10.165.912-.169-1.888C2.328,7.417,8.428.795,16.555.066a15.576,15.576,0,0,1,10.794,3,12.794,12.794,0,0,1,5.174,9.047L32.693,14Z" transform="translate(1.578 -0.001)" fill="#12263f"/>
        <path id="Trazado_998241" data-name="Trazado 998241" d="M.807,22.128h0c1,11.126,10.017,19.407,20.142,18.5l2.355-.211c10.126-.91,17.526-10.666,16.527-21.792l-.138-1.536" transform="translate(0.433 9.178)" fill="none" stroke="#12263f" stroke-linecap="round" stroke-linejoin="round" stroke-width="2"/>
        <line id="Línea_3266" data-name="Línea 3266" x2="1.485" y2="16.541" transform="translate(22.775 49.681)" fill="none" stroke="#12263f" stroke-linecap="round" stroke-linejoin="round" stroke-width="2"/>
        <path id="Trazado_998242" data-name="Trazado 998242" d="M8.377,47.82c4.04-2.535,11.206-7.141,11.206-7.141l12.781,5.369c.644.269.54,1.382-.135,1.431L8.754,49.2c-.67.049-.964-1.013-.377-1.382" transform="translate(4.33 21.848)" fill="#12263f"/>
      </g>
    </g>
  </g>
</svg>
