<svg xmlns="http://www.w3.org/2000/svg" xmlns:xlink="http://www.w3.org/1999/xlink" width="128" height="128" viewBox="0 0 128 128">
  <defs>
    <clipPath id="clip-path">
      <rect id="Rectángulo_455993" data-name="Rectángulo 455993" width="71.412" height="71.467" fill="#5a5858"/>
    </clipPath>
  </defs>
  <g id="Grupo_1190719" data-name="Grupo 1190719" transform="translate(-305.186 -9426)">
    <g id="Grupo_1177670" data-name="Grupo 1177670" transform="translate(305.186 9426)">
      <path id="Trazado_997691" data-name="Trazado 997691" d="M64,0A64,64,0,1,1,0,64,64,64,0,0,1,64,0Z" transform="translate(128 0) rotate(90)" fill="#cbcbcb"/>
      <path id="Trazado_997692" data-name="Trazado 997692" d="M57.677,0A57.677,57.677,0,1,1,0,57.677,57.677,57.677,0,0,1,57.677,0Z" transform="translate(6.323 6.323)" fill="#fff"/>
      <g id="Grupo_1191333" data-name="Grupo 1191333" transform="translate(28.294 28.267)">
        <g id="Grupo_1191332" data-name="Grupo 1191332" clip-path="url(#clip-path)">
          <path id="Trazado_999852" data-name="Trazado 999852" d="M39.694,71.467l-35-.006A4.587,4.587,0,0,1,0,66.767L.031,55.145a13.521,13.521,0,0,1,3-8.5,1.09,1.09,0,0,1,1.345-.044c1.512,1.178-2.244,2.969-2.256,8.511L2.1,66.943C2.09,69.8,5.745,69.551,7.707,69.314l.036-8.59a1.041,1.041,0,1,1,2.075.007l.033,8.648,6.586-.011,3.169-19.794a4.206,4.206,0,0,0-1.392-1.888,3.937,3.937,0,0,1-3.148-1.158l-3.029-3.7c-2.139.319-4.713,3.336-5.6,1.768a1.071,1.071,0,0,1,.342-1.43,25.8,25.8,0,0,1,5.474-2.754A16.632,16.632,0,0,1,16.4,38.8a11.4,11.4,0,0,0,.054-2.841,10.194,10.194,0,0,1-4.37-7.149,3.181,3.181,0,0,1-3.906-3.127l-.013-2.677c0-.853.484-1.4.641-2.137.527-2.476-.609-3.791,1.054-6.891-.1-1.234-1.1-2.493-.942-3.928a1.83,1.83,0,0,1,1.99-1.815l9.406-.007a30.383,30.383,0,0,0,.089-3.252A5.039,5.039,0,0,1,25.232.047L56.225,0a3.794,3.794,0,0,1,2.889,1.175L70.363,12.438a3.5,3.5,0,0,1,1.038,2.52l.011,6.023a1.06,1.06,0,0,1-.973,1.179A1.032,1.032,0,0,1,69.333,21l-.023-5.979-7.923-.071a5.054,5.054,0,0,1-4.941-5.115L56.4,2.085l-30.9.01a2.98,2.98,0,0,0-2.969,2.8c-.063,1.143-.012,2.181,0,3.311l5.6.072c4.14.053,7.3,3.666,7.434,7.778.054,1.664-.121,3.2.08,4.79.068.535.652.963.637,1.565a23.758,23.758,0,0,1-.072,4.064,3.166,3.166,0,0,1-3.814,2.316,10.087,10.087,0,0,1-4.3,7.151,10.2,10.2,0,0,0,.031,2.878c1.584.183,2.783,1.078,4.182,1.624a23.746,23.746,0,0,1,6.778,3.72A14.444,14.444,0,0,1,44.5,55.375l.031,8.394,21.934-.006a2.783,2.783,0,0,0,2.845-2.7l.03-34.911a1,1,0,0,1,1.078-1.074,1.041,1.041,0,0,1,.993,1.077L71.4,60.94a4.835,4.835,0,0,1-4.889,4.9l-22.028.033a5.119,5.119,0,0,1-1.058,3.987,4.7,4.7,0,0,1-3.732,1.606m21.6-58.587a53.6,53.6,0,0,0,6.438-.108L58.651,3.69l-.1,6.126a3.125,3.125,0,0,0,2.748,3.065M33.462,19.405c.073-1.264.042-2.058.027-3.158-.041-2.937-2.3-5.854-5.443-5.865l-17.008-.063a5.363,5.363,0,0,0,5.341,4.993L27.663,15.3a4.788,4.788,0,0,1,4.822,4.059c.044.224.962.3.976.047m-20.7-2.841a3.941,3.941,0,0,0-1.34-.9c-.536.547-.6,3.813-.166,3.867,1.256.158.744-1.286,1.506-2.967M30.294,28.3c.168-3.08.031-5.756.03-8.645A2.429,2.429,0,0,0,27.9,17.409L16.279,17.4c-.533,0-.978-.142-1.493-.1a6.018,6.018,0,0,0-.62,2.714l.02,8.03a8.069,8.069,0,0,0,16.109.261m-18.4-1.73a20.09,20.09,0,0,0,.079-4.8c-.635-.37-1.624.3-1.677,1.025a19.227,19.227,0,0,0,.024,3.3c.053.562,1.421.908,1.574.471m22.354-1-.006-2.681c0-.774-1.267-1.585-1.617-1.079a18.883,18.883,0,0,0-.065,4.754c.017.3.846.184,1.094.075a1.106,1.106,0,0,0,.594-1.069m-7.945,14.2a7.75,7.75,0,0,1-.457-2.584,9.186,9.186,0,0,1-7.222.013,11.361,11.361,0,0,1-.368,2.619l4.021,3.127Zm-5.99,4.342c-1.4-.933-2.538-2.271-4.081-2.994-.707-.228-1.583.607-2.177.8l2.292,2.912c1.179,1.5,2.549.3,3.967-.72m7.714.873c.8-1.034,1.625-1.876,2.386-3.038-.581-.3-1.567-1.134-2.242-.782a33.089,33.089,0,0,0-3.964,2.973c1.22.827,2.77,2.2,3.82.847m8.754,15.865.025,8.5a18.442,18.442,0,0,0,3.5-.021,2.48,2.48,0,0,0,2.117-2.561L42.4,55.152c-.018-5.946-4.469-10.32-9.851-12.35l-3.037,3.684c-.813.987-1.932,1.078-3.1,1.251-.637.261-1.116,1.192-1.513,1.832l3.194,19.789,6.563.034.042-8.625a1.048,1.048,0,0,1,1.111-1.159c.6.033.979.435.981,1.24M24.247,46.675c-.651-.213-1.219-.98-1.939-1.019s-1.323.755-1.971,1.009A1.886,1.886,0,0,0,22.2,48.137a1.933,1.933,0,0,0,2.047-1.462m1.707,22.659-3.075-19.02c-.292-.221-1.195-.291-1.267.163L18.6,69.372Z" transform="translate(0 0)" fill="#5a5858"/>
          <path id="Trazado_999853" data-name="Trazado 999853" d="M202.234,94.776l-21.511-.008a1.763,1.763,0,0,1-1.8-1.8l0-5.163a1.745,1.745,0,0,1,1.8-1.759l21.186-.008a1.829,1.829,0,0,1,1.931,1.818v5.09a1.8,1.8,0,0,1-1.607,1.834m-.508-6.614H181v4.545h20.721Z" transform="translate(-138.974 -66.824)" fill="#5a5858"/>
          <path id="Trazado_999854" data-name="Trazado 999854" d="M202.928,140.009,180.111,140A1.049,1.049,0,0,1,179,138.936a1,1,0,0,1,1.107-1.032l22.737,0a1.018,1.018,0,0,1,1.025.848c.09.526-.171,1.017-.94,1.254" transform="translate(-139.033 -107.113)" fill="#5a5858"/>
          <path id="Trazado_999855" data-name="Trazado 999855" d="M202.842,161l-22.726.007a1.028,1.028,0,0,1-1.123-1.036.986.986,0,0,1,1.122-1.016l22.74,0a1.009,1.009,0,0,1,1.023,1.02A1.055,1.055,0,0,1,202.842,161" transform="translate(-139.027 -123.462)" fill="#5a5858"/>
          <path id="Trazado_999856" data-name="Trazado 999856" d="M191.26,181.878l-11.175-.006a1,1,0,0,1-1.1-1.026,1.033,1.033,0,0,1,1.108-1.045l11.163,0a1.059,1.059,0,0,1,1.183,1.048,1.038,1.038,0,0,1-1.178,1.032" transform="translate(-139.021 -139.653)" fill="#5a5858"/>
        </g>
      </g>
    </g>
    <path id="Trazado_997694" data-name="Trazado 997694" d="M23.405,2.713a2.708,2.708,0,1,1,2.713,2.72,2.711,2.711,0,0,1-2.713-2.72m-11.7,0a2.713,2.713,0,1,1,2.713,2.72A2.711,2.711,0,0,1,11.7,2.713M0,2.713a2.713,2.713,0,1,1,2.713,2.72A2.715,2.715,0,0,1,0,2.713" transform="translate(426.209 9430.353) rotate(90)" fill="#5a5858"/>
    <g id="Grupo_1177672" data-name="Grupo 1177672" transform="translate(323.685 9533.519) rotate(90)">
      <path id="Trazado_997699" data-name="Trazado 997699" d="M0,7.819l1.419,1.4L7.662,2.867,13.651,9.2,15.1,7.833,7.69,0Z" transform="translate(0 7.636)" fill="#636363"/>
      <path id="Trazado_997700" data-name="Trazado 997700" d="M7.69,0,0,7.818l1.419,1.4L7.662,2.867,13.651,9.2,15.1,7.832Z" transform="translate(0)" fill="#636363"/>
    </g>
  </g>
</svg>
