<svg xmlns="http://www.w3.org/2000/svg" xmlns:xlink="http://www.w3.org/1999/xlink" width="150.001" height="150.001" viewBox="0 0 150.001 150.001">
  <defs>
    <clipPath id="clip-path">
      <rect id="Rectángulo_455990" data-name="Rectángulo 455990" width="85.632" height="79.976" fill="#5a5858"/>
    </clipPath>
  </defs>
  <g id="Grupo_1190630" data-name="Grupo 1190630" transform="translate(-305.059 -9426)">
    <g id="Grupo_1177670" data-name="Grupo 1177670" transform="translate(0 0.001)">
      <path id="Trazado_997691" data-name="Trazado 997691" d="M75,0A75,75,0,1,1,0,75,75,75,0,0,1,75,0Z" transform="translate(455.059 9425.999) rotate(90)" fill="#cbcbcb"/>
      <path id="Sustracción_109" data-name="Sustracción 109" d="M21524.061,11862h0v-150a75,75,0,1,1,0,150Z" transform="translate(12167.058 -12023.059) rotate(90)" fill="#5a5858"/>
      <path id="Trazado_997692" data-name="Trazado 997692" d="M67.738,0A67.738,67.738,0,1,1,0,67.738,67.738,67.738,0,0,1,67.738,0Z" transform="translate(312.32 9433.262)" fill="#fff"/>
      <g id="Grupo_1191327" data-name="Grupo 1191327" transform="translate(337.244 9461.013)">
        <g id="Grupo_1191326" data-name="Grupo 1191326" clip-path="url(#clip-path)">
          <path id="Trazado_999825" data-name="Trazado 999825" d="M118.578,118.488l-8.695,0a1.45,1.45,0,0,1-1.415-1.439l-.026-7.124-7.131-.027a1.434,1.434,0,0,1-1.428-1.42V99.911a1.409,1.409,0,0,1,1.424-1.4l7.123-.025.04-7.145a1.393,1.393,0,0,1,1.409-1.411l8.571-.01a1.4,1.4,0,0,1,1.4,1.422l.041,7.143,7.126.017a1.416,1.416,0,0,1,1.42,1.411v8.563a1.434,1.434,0,0,1-1.423,1.419l-7.135.027-.028,7.124a1.465,1.465,0,0,1-1.277,1.442m-1.553-2.89.007-7.122a1.4,1.4,0,0,1,1.416-1.4l7.124-.023.018-5.708-7.14-.025a1.4,1.4,0,0,1-1.41-1.416l-.025-7.136h-5.7l-.027,7.135a1.392,1.392,0,0,1-1.4,1.415l-7.145.026.017,5.708,7.13.015a1.372,1.372,0,0,1,1.4,1.407l.039,7.151Z" transform="translate(-71.346 -64.229)" fill="#5a5858"/>
          <path id="Trazado_999826" data-name="Trazado 999826" d="M112.873,4.493a16.379,16.379,0,0,0-7.356-1.664L91.04,2.843l-12.2,5.133c-.589.426-.019,1.944.391,2.442,1.882,2.279,7.211.306,9.82-.583a1.458,1.458,0,0,1,2.045.954A1.557,1.557,0,0,1,89.867,12.6c-3.813,1.221-9.872,3.381-12.819-.35-1.7-2.147-1.867-5.931.684-6.989L90.425,0,106.384,0a18.115,18.115,0,0,1,7.963,2.021l9.777,4.738a16.811,16.811,0,0,0,7.393,1.758l6.585.017c.947,0,1.6.455,1.662,1.3a1.38,1.38,0,0,1-1.387,1.54l-6.57.011a19.618,19.618,0,0,1-8.673-1.941Z" transform="translate(-54.137 0.001)" fill="#5a5858"/>
          <path id="Trazado_999827" data-name="Trazado 999827" d="M1.263,232.58l6.136-.034a20.3,20.3,0,0,1,9.034,1.84l10.573,5.086a15.865,15.865,0,0,0,6.986,1.627l14.55.027,12.392-5.176c.586-.451.011-1.957-.385-2.443-1.856-2.283-7.228-.313-9.828.578a1.468,1.468,0,0,1-2.046-.96,1.526,1.526,0,0,1,1.231-1.8c3.8-1.2,9.675-3.309,12.681.171a5.6,5.6,0,0,1,1.2,5.15,3.081,3.081,0,0,1-1.922,2.113l-12.72,5.211-15.166,0A18.682,18.682,0,0,1,25.644,242l-9.778-4.752C7.908,233.381.228,237.222.012,234.079a1.306,1.306,0,0,1,1.251-1.5" transform="translate(-0.006 -163.99)" fill="#5a5858"/>
          <path id="Trazado_999828" data-name="Trazado 999828" d="M171.339,42.674l12.072,0a1.35,1.35,0,0,1,1.385,1.283,1.38,1.38,0,0,1-1.386,1.541l-11.394.038c-6.931,2.663-14.859,1.134-18.619-5.7l-8.653-3.659c-4.61-1.949-7.164-6.081-5.286-11.226A1.544,1.544,0,0,1,141.6,23.9l16.1,6.687a1.454,1.454,0,0,1,.937,1.725,1.4,1.4,0,0,1-1.842.974l-14.975-6.159A5.159,5.159,0,0,0,145,33.087l10.544,4.551c2.594,6.251,9.877,7.554,15.8,5.037" transform="translate(-99.17 -16.969)" fill="#5a5858"/>
          <path id="Trazado_999829" data-name="Trazado 999829" d="M28.337,189.074l14.646,6.044a5.247,5.247,0,0,0-3.346-6.061l-10.378-4.463c-2.655-6.395-10.069-7.466-15.917-5.018L1.4,179.581A1.386,1.386,0,0,1,0,178.287a1.354,1.354,0,0,1,1.387-1.525l11.388-.047c6.867-2.7,14.93-1.12,18.632,5.7l9,3.817a9.7,9.7,0,0,1,4.716,4.209c1.8,3.249.5,8.874-1.7,7.967l-16.31-6.753a1.438,1.438,0,0,1-.881-1.907,1.481,1.481,0,0,1,2.1-.675" transform="translate(0 -125.337)" fill="#5a5858"/>
          <path id="Trazado_999830" data-name="Trazado 999830" d="M48.3,99.2a1.415,1.415,0,0,1-1.044,1.77,1.4,1.4,0,0,1-1.726-1.1,29.84,29.84,0,0,1,5.335-24.183,1.422,1.422,0,0,1,2.256,1.729A27.148,27.148,0,0,0,48.3,99.2" transform="translate(-32.063 -53.692)" fill="#5a5858"/>
          <path id="Trazado_999831" data-name="Trazado 999831" d="M227.347,139.915a1.422,1.422,0,0,1-2.323-1.627,27.21,27.21,0,0,0,4.959-21.851,1.4,1.4,0,0,1,.98-1.723,1.417,1.417,0,0,1,1.828,1.194,29.884,29.884,0,0,1-5.444,24.006" transform="translate(-160.576 -81.907)" fill="#5a5858"/>
          <path id="Trazado_999832" data-name="Trazado 999832" d="M83.141,61.144a1.5,1.5,0,1,1-1.5-1.5,1.5,1.5,0,0,1,1.5,1.5" transform="translate(-57.247 -42.605)" fill="#5a5858"/>
          <path id="Trazado_999833" data-name="Trazado 999833" d="M213.077,211.5a1.452,1.452,0,1,1-1.452-1.452,1.452,1.452,0,0,1,1.452,1.452" transform="translate(-150.127 -150.039)" fill="#5a5858"/>
        </g>
      </g>
    </g>
    <path id="Trazado_997694" data-name="Trazado 997694" d="M471.93,424.642a3.111,3.111,0,1,1,3.115,3.124,3.113,3.113,0,0,1-3.115-3.124m-13.442,0a3.115,3.115,0,1,1,3.115,3.124,3.114,3.114,0,0,1-3.115-3.124m-13.44,0a3.115,3.115,0,1,1,3.115,3.124,3.118,3.118,0,0,1-3.115-3.124" transform="translate(868.572 8985.952) rotate(90)" fill="#5a5858"/>
    <g id="Grupo_1177672" data-name="Grupo 1177672" transform="translate(326.305 9552.477) rotate(90)">
      <path id="Trazado_997699" data-name="Trazado 997699" d="M0,24.325l1.629,1.6,7.17-7.29,6.879,7.274,1.661-1.571-8.507-9Z" transform="translate(0 -6.575)" fill="#636363"/>
      <path id="Trazado_997700" data-name="Trazado 997700" d="M8.832,0,0,8.979l1.629,1.6L8.8,3.293l6.879,7.273L17.34,9Z" fill="#636363"/>
    </g>
  </g>
</svg>
