<svg xmlns="http://www.w3.org/2000/svg" xmlns:xlink="http://www.w3.org/1999/xlink" width="96" height="96" viewBox="0 0 96 96">
  <defs>
    <clipPath id="clip-path">
      <rect id="Rectángulo_456045" data-name="Rectángulo 456045" width="56.572" height="47.057" fill="#12263f"/>
    </clipPath>
  </defs>
  <g id="Grupo_1177743" data-name="Grupo 1177743" transform="translate(-735.746 -9615)">
    <path id="Trazado_997400" data-name="Trazado 997400" d="M48,0A48,48,0,1,1,0,48,48,48,0,0,1,48,0Z" transform="translate(735.746 9615)" fill="#5a5858"/>
    <path id="Trazado_997743" data-name="Trazado 997743" d="M43.544,0A43.544,43.544,0,1,1,0,43.544,43.544,43.544,0,0,1,43.544,0Z" transform="translate(740.52 9619.772)" fill="#e2e2e2"/>
    <g id="Grupo_1191360" data-name="Grupo 1191360" transform="translate(755.46 9639.472)">
      <g id="Grupo_1191359" data-name="Grupo 1191359" clip-path="url(#clip-path)">
        <path id="Trazado_999930" data-name="Trazado 999930" d="M121.61,41.831a.864.864,0,0,1-.92-.823c-.013-1.183,1.727-.584,1.742-.991a27.168,27.168,0,0,0-.04-3.845c-.471.441-.9.724-1.358.4a.815.815,0,0,1-.135-1.2c.619-.728,1.207-1.432,1.857-2.12a.853.853,0,0,1,.929-.062.865.865,0,0,1,.382.791l.01,6.16c.649.124,1.755-.1,1.76.87a.832.832,0,0,1-.858.807Z" transform="translate(-98.679 -27.047)" fill="#12263f"/>
        <path id="Trazado_999931" data-name="Trazado 999931" d="M169.676,73.738l-10.471-.006a.819.819,0,1,1,.007-1.63l10.376.006a.811.811,0,0,1,.829.656.834.834,0,0,1-.74.974" transform="translate(-129.439 -58.951)" fill="#12263f"/>
        <path id="Trazado_999932" data-name="Trazado 999932" d="M169.685,51.815l-10.473.015a.837.837,0,0,1-.881-.689.807.807,0,0,1,.725-.913l10.545-.016a.835.835,0,0,1,.829.689.774.774,0,0,1-.744.914" transform="translate(-129.448 -41.054)" fill="#12263f"/>
        <path id="Trazado_999933" data-name="Trazado 999933" d="M164.13,33.161l-4.933.007a.8.8,0,0,1-.877-.682.79.79,0,0,1,.771-.889h5.15a.79.79,0,0,1,.72.745.774.774,0,0,1-.831.817" transform="translate(-129.44 -25.834)" fill="#12263f"/>
        <path id="Trazado_999934" data-name="Trazado 999934" d="M8.682,20.331c-.624-.118-.38-1.7-2.967-2.043-1.237-.164-.625,1.576-3.6-1.781-.611-.69.9-1.628-.77-3.772-.29-.372-1.1-.428-1.2-.948A7.762,7.762,0,0,1,.157,8.711c.123-.529.939-.587,1.221-.967,1.562-2.111.252-2.972.652-3.557a8.391,8.391,0,0,1,2.086-2.1c.566-.389,1.743.8,3.648-.734C8.123,1.06,8.2.272,8.717.155A7.758,7.758,0,0,1,11.771.149c.5.1.542.847.9,1.146,2.16,1.828,2.825.044,4.342,1.08l26.968-.009a.75.75,0,0,1,.781.76l0,14.2a.829.829,0,0,1-.81.859L17,18.178c-2.025,1.089-1.48-.894-4.245.938-.413.274-.429,1.1-.943,1.206a8.413,8.413,0,0,1-3.129.009m7.018-3.56c.381-.012,1.02-.743,1.108-1.107-.578-1.093.623-4.1,1.787-4.54.87-2.57-.444-.921-1.467-3.621a3.345,3.345,0,0,1-.289-2.715c-.232-.414-.738-1.138-1.118-1.084l-1.262.179c-.861.122-1.77-.667-2.62-1.069-.423-.2-.43-.785-.815-1.032-.342-.22-1.415-.307-1.613.052A3.369,3.369,0,0,1,7.4,3.4a3.16,3.16,0,0,1-2.591.263A2.361,2.361,0,0,0,3.674,4.8c.564,1.17-.625,4.2-1.86,4.618-.23.358-.342,1.487.031,1.681a3.285,3.285,0,0,1,1.53,1.982,3.3,3.3,0,0,1,.293,2.593A2.118,2.118,0,0,0,4.79,16.8a3.748,3.748,0,0,1,2.738.356,3.082,3.082,0,0,1,1.879,1.551,2.077,2.077,0,0,0,1.663.011c.378-1.28,3.377-2.405,4.63-1.951m2.783-.166,24.677-.012L43.147,3.974l-24.645,0c-.045,1.641-.618,2.1.6,3.768.382.524,1.972.094,1.254,4-.171.926-2.573.3-1.873,4.869" transform="translate(0 0)" fill="#12263f"/>
        <path id="Trazado_999935" data-name="Trazado 999935" d="M34.454,28.295a6.227,6.227,0,1,1-6.227-6.228,6.228,6.228,0,0,1,6.227,6.228m-1.6.006a4.631,4.631,0,1,0-4.631,4.631A4.631,4.631,0,0,0,32.857,28.3" transform="translate(-17.987 -18.042)" fill="#12263f"/>
        <path id="Trazado_999936" data-name="Trazado 999936" d="M44.238,40.893a3.419,3.419,0,1,1-3.419-3.419,3.419,3.419,0,0,1,3.419,3.419m-1.6,0a1.823,1.823,0,1,0-1.823,1.823A1.823,1.823,0,0,0,42.643,40.9" transform="translate(-30.579 -30.639)" fill="#12263f"/>
        <path id="Trazado_999937" data-name="Trazado 999937" d="M259.544,26.806a39.007,39.007,0,0,0-2.613-3.07,29.723,29.723,0,0,0-2.665,3.117c.645.056,1.632-.068,1.634.624l.043,18.2a.841.841,0,0,1-.73.874.811.811,0,0,1-.87-.759l-.025-17.232c-.98-.291-2.171.223-2.619-.471a.805.805,0,0,1,.073-.948l4.513-5.123a.881.881,0,0,1,1.328.058l4.5,5.139a.846.846,0,0,1,0,.9c-.364.649-1.846.161-2.618.431l-.007,17.124a.821.821,0,0,1-.784.879.838.838,0,0,1-.82-.894l.041-18.184c0-.666.931-.548,1.618-.666" transform="translate(-205.695 -17.777)" fill="#12263f"/>
        <path id="Trazado_999938" data-name="Trazado 999938" d="M89.1,139.819a.968.968,0,0,1-.876-.39c-.962-1.766,2.923-3.27,3.409-5.388a1.041,1.041,0,0,0-.735-1.335c-.77-.113-1.188.34-1.2,1.092a.963.963,0,0,1-.476.9.763.763,0,0,1-1.045-.421,2.575,2.575,0,0,1,4.962-1.371c.623,2.257-1.224,3.766-2.705,5.191.776.391,2.782-.428,2.8.892.006.53-.371.824-.941.825Z" transform="translate(-72.009 -107.166)" fill="#12263f"/>
        <path id="Trazado_999939" data-name="Trazado 999939" d="M151.279,150.76l-14.634-.013a.809.809,0,0,1-.813-.8.757.757,0,0,1,.806-.8l14.57,0a.777.777,0,0,1,.831.645.862.862,0,0,1-.76.975" transform="translate(-111.059 -121.94)" fill="#12263f"/>
        <path id="Trazado_999940" data-name="Trazado 999940" d="M145.819,131.817l-9.185.013a.8.8,0,1,1-.007-1.608l9.107,0a.827.827,0,0,1,.826.687.772.772,0,0,1-.741.911" transform="translate(-111.052 -106.47)" fill="#12263f"/>
        <path id="Trazado_999941" data-name="Trazado 999941" d="M108.787,138.242l-31.014.009a.927.927,0,0,1-1.036-.937l-.03-9.936-11-.013c-.474,0-.718-.355-.779-.8l.009-14.2a.8.8,0,0,1,.857-.824l31.193,0a.806.806,0,0,1,.853.823l.023,10.01,11.06.035c.435,0,.663.318.735.728v14.206a.854.854,0,0,1-.875.9M77.68,122.393H96.22l.029-9.266H66.543l.02,12.682,10.1.007c.351-1-.562-3.538,1.018-3.423m30.368,1.584H78.333v12.658h29.715Z" transform="translate(-53.091 -91.194)" fill="#12263f"/>
        <path id="Trazado_999942" data-name="Trazado 999942" d="M156.484,196.776c.278-1.593-1.726-.8-1.737-1.978-.012-1.253,1.759-.414,1.761-1.815a.951.951,0,0,0-.873-.963c-1.435-.162-.746,1.7-1.839,1.735a.8.8,0,0,1-.851-.875,2.591,2.591,0,1,1,4.484,1.889,2.661,2.661,0,0,1,.3,3.148,2.577,2.577,0,0,1-4.77-1.372.771.771,0,0,1,.848-.761c1.063.045.427,1.718,1.693,1.769a1.025,1.025,0,0,0,.989-.777" transform="translate(-125.05 -155.673)" fill="#12263f"/>
        <rect id="Rectángulo_456044" data-name="Rectángulo 456044" width="16.226" height="1.607" transform="translate(36.568 38.007)" fill="#12263f"/>
        <path id="Trazado_999943" data-name="Trazado 999943" d="M216.014,231.865l-14.637.013a.809.809,0,0,1-.87-.828.83.83,0,0,1,.868-.787l14.536,0a.822.822,0,0,1,.8.624.783.783,0,0,1-.7.975" transform="translate(-163.938 -188.267)" fill="#12263f"/>
        <path id="Trazado_999944" data-name="Trazado 999944" d="M210.295,191.364l-8.939,0a.8.8,0,0,1-.858-.722.785.785,0,0,1,.856-.84l9.3.032c.5,0,.586.552.576.832-.018.5-.395.7-.939.7" transform="translate(-163.929 -155.183)" fill="#12263f"/>
        <path id="Trazado_999945" data-name="Trazado 999945" d="M61.01,225.346a.831.831,0,0,1-1.3-.139c-.261-.421,0-.925.531-1.32-1.4-.44-5.126.646-5.089-.915.033-1.436,3.5-.487,5.145-.831-.269-.329-.582-.419-.65-.713a.8.8,0,0,1,.243-.847.784.784,0,0,1,1.045.016l1.937,1.679a.9.9,0,0,1,.027,1.411Z" transform="translate(-45.094 -180.194)" fill="#12263f"/>
        <path id="Trazado_999946" data-name="Trazado 999946" d="M35.118,224.53a3.088,3.088,0,0,1-2.618-.087c-.3-.291-.693-2.925.544-2.93a.838.838,0,0,1,.784,1.011c-.1,1.081,1.015.187,1.489.966.142.234.237.868-.2,1.04" transform="translate(-26.323 -181.113)" fill="#12263f"/>
        <path id="Trazado_999947" data-name="Trazado 999947" d="M35.411,151.41c-.057.989-1.452.58-1.543.806a1.507,1.507,0,0,0-.051.569c.005.6-.3.952-.8.935-1.264-.044-.793-2.734-.509-2.932.221-.154,2.987-.8,2.906.622" transform="translate(-26.31 -123.057)" fill="#12263f"/>
        <path id="Trazado_999948" data-name="Trazado 999948" d="M34.084,175.7c0,.616-.356.953-.819.942a.781.781,0,0,1-.772-.856v-1.644a.795.795,0,1,1,1.584-.009Z" transform="translate(-26.567 -141.674)" fill="#12263f"/>
        <path id="Trazado_999949" data-name="Trazado 999949" d="M33.939,197.682c.062,1.231.248,2.616-.8,2.6-1.018-.019-.778-1.268-.761-2.572a.779.779,0,0,1,1.558-.024" transform="translate(-26.446 -161.018)" fill="#12263f"/>
      </g>
    </g>
  </g>
</svg>
