<svg xmlns="http://www.w3.org/2000/svg" xmlns:xlink="http://www.w3.org/1999/xlink" width="127.941" height="127.941" viewBox="0 0 127.941 127.941">
  <defs>
    <clipPath id="clip-path">
      <rect id="Rectángulo_455754" data-name="Rectángulo 455754" width="75.292" height="75.292" fill="#5a5858"/>
    </clipPath>
  </defs>
  <g id="Grupo_1190991" data-name="Grupo 1190991" transform="translate(-305.059 -9426)">
    <g id="Grupo_1177670" data-name="Grupo 1177670" transform="translate(305.059 9426)">
      <path id="Trazado_997691" data-name="Trazado 997691" d="M63.971,0A63.971,63.971,0,1,1,0,63.971,63.971,63.971,0,0,1,63.971,0Z" transform="translate(127.941) rotate(90)" fill="#435494"/>
      <path id="Sustracción_109" data-name="Sustracción 109" d="M0,127.82H0V0A63.513,63.513,0,0,1,24.877,5.022a63.674,63.674,0,0,1,20.313,13.7,63.7,63.7,0,0,1,13.7,20.315,64.122,64.122,0,0,1,0,49.754A63.682,63.682,0,0,1,45.19,109.1a63.664,63.664,0,0,1-20.313,13.7A63.5,63.5,0,0,1,0,127.82Z" transform="translate(127.881 63.971) rotate(90)" fill="#002ac7"/>
      <path id="Trazado_997692" data-name="Trazado 997692" d="M56.089,0A56.089,56.089,0,1,1,0,56.089,56.089,56.089,0,0,1,56.089,0Z" transform="translate(7.881 7.882)" fill="#fff"/>
      <g id="Grupo_1191002" data-name="Grupo 1191002" transform="translate(26.03 25.834)">
        <g id="Grupo_1191001" data-name="Grupo 1191001" clip-path="url(#clip-path)">
          <path id="Trazado_999077" data-name="Trazado 999077" d="M75.292,37.646A37.646,37.646,0,1,1,37.646,0,37.646,37.646,0,0,1,75.292,37.646m-6.905-.021A30.739,30.739,0,1,0,37.648,68.363,30.739,30.739,0,0,0,68.387,37.625" fill="#5a5858"/>
          <path id="Trazado_999078" data-name="Trazado 999078" d="M102.531,102.143a16.586,16.586,0,0,0,1.581-8.006c.009-5.27-1.469-11.324-7.669-11.9-4.54-.421-8.7,1.586-9.233,6.511.9.218,1.59-.148,2.547.232l-7.268,7.308-7.36-7.283c.912-.413,1.742-.063,2.785-.227,1.413-9.039,7.657-14.524,17-14.467,7.473.046,13.966,3.851,17,10.816a24.061,24.061,0,0,1,1.312,14.782A18.733,18.733,0,0,1,101.431,113.6c-7.938,2.884-17.54.77-21.793-7.014a19.542,19.542,0,0,1-1.99-6.44l9.514-.005c.157,1.985.721,3.973,2.381,5.143a9.58,9.58,0,0,0,9.216.84,8.5,8.5,0,0,0,3.773-3.977" transform="translate(-57.066 -56.447)" fill="#5a5858"/>
        </g>
      </g>
    </g>
    <path id="Trazado_997694" data-name="Trazado 997694" d="M23,2.665a2.661,2.661,0,1,1,2.665,2.673A2.663,2.663,0,0,1,23,2.665m-11.5,0a2.665,2.665,0,1,1,2.665,2.673A2.664,2.664,0,0,1,11.5,2.665M0,2.665A2.665,2.665,0,1,1,2.665,5.338,2.668,2.668,0,0,1,0,2.665" transform="translate(426.165 9430.265) rotate(90)" fill="#fff"/>
    <g id="Grupo_1177672" data-name="Grupo 1177672" transform="translate(324.813 9532.415) rotate(90)">
      <path id="Trazado_997699" data-name="Trazado 997699" d="M0,8.417l1.527,1.5L8.248,3.087,14.7,9.905l1.557-1.473L8.279,0Z" transform="translate(0 8.22)" fill="#002ac7"/>
      <path id="Trazado_997700" data-name="Trazado 997700" d="M8.279,0,0,8.416l1.527,1.5L8.248,3.087,14.7,9.9l1.557-1.472Z" transform="translate(0 0)" fill="#002ac7"/>
    </g>
  </g>
</svg>
