<svg xmlns="http://www.w3.org/2000/svg" xmlns:xlink="http://www.w3.org/1999/xlink" width="183" height="183" viewBox="0 0 183 183">
  <defs>
    <clipPath id="clip-path">
      <rect id="Rectángulo_455749" data-name="Rectángulo 455749" width="65.199" height="65.199" fill="#5a5858"/>
    </clipPath>
    <clipPath id="clip-path-2">
      <rect id="Rectángulo_455750" data-name="Rectángulo 455750" width="65" height="65" transform="translate(0.103)" fill="#5a5858"/>
    </clipPath>
  </defs>
  <g id="Grupo_1191020" data-name="Grupo 1191020" transform="translate(-305.059 -9426)">
    <g id="Grupo_1177670" data-name="Grupo 1177670" transform="translate(305.059 9426)">
      <path id="Trazado_997691" data-name="Trazado 997691" d="M91.5,0A91.5,91.5,0,1,1,0,91.5,91.5,91.5,0,0,1,91.5,0Z" transform="translate(183 0) rotate(90)" fill="#cbcbcb"/>
      <path id="Trazado_997692" data-name="Trazado 997692" d="M82.519,0A82.519,82.519,0,1,1,0,82.519,82.519,82.519,0,0,1,82.519,0Z" transform="translate(8.981 8.982)" fill="#fff"/>
      <g id="Grupo_1191030" data-name="Grupo 1191030" transform="translate(21.407 58.901)">
        <g id="Grupo_1190992" data-name="Grupo 1190992" clip-path="url(#clip-path)">
          <path id="Trazado_999072" data-name="Trazado 999072" d="M65.2,32.6A32.6,32.6,0,1,1,32.6,0,32.6,32.6,0,0,1,65.2,32.6m-5.972,0A26.618,26.618,0,1,0,32.61,59.214,26.617,26.617,0,0,0,59.227,32.6" fill="#5a5858"/>
          <path id="Trazado_999073" data-name="Trazado 999073" d="M128.035,139l-10.175.055-.019-15.667-3.734-.157.016-13.351a2.106,2.106,0,0,1,2.1-2.014h13.3a2.239,2.239,0,0,1,2.214,2.285l-.02,13.115-3.659.066Z" transform="translate(-90.357 -85.412)" fill="#5a5858"/>
          <path id="Trazado_999074" data-name="Trazado 999074" d="M143.178,59.869a4.716,4.716,0,1,1-4.715-4.715,4.715,4.715,0,0,1,4.715,4.715" transform="translate(-105.908 -43.674)" fill="#5a5858"/>
        </g>
      </g>
      <g id="Grupo_1191032" data-name="Grupo 1191032" transform="translate(96.897 59)">
        <g id="Grupo_1190995" data-name="Grupo 1190995" clip-path="url(#clip-path-2)">
          <path id="Trazado_999075" data-name="Trazado 999075" d="M65.114,32.557A32.557,32.557,0,1,1,32.557,0,32.557,32.557,0,0,1,65.114,32.557M42.869,20.888l-4.236,4.4a10.293,10.293,0,0,0-5.407-1.935,7.531,7.531,0,0,0-2.9.624c-.78.263-1.774,2.223-.7,2.7L58.255,39.5C61.366,26.234,55.626,14.443,43.791,8.37a27.077,27.077,0,0,0-23.362.492A28.581,28.581,0,0,0,10.319,18.1L22.574,23.6a8.67,8.67,0,0,1,3.77-4.455,12.274,12.274,0,0,1,4.571-1.305l.092-4.884a24.04,24.04,0,0,1,3.794.006l.094,4.875a14.6,14.6,0,0,1,7.976,3.047m-7.99,26.43-.125,4.946-3.783,0-.058-4.931a14.892,14.892,0,0,1-9.784-3.991l4.456-4.507a10.4,10.4,0,0,0,8.081,2.911,3.582,3.582,0,0,0,2.851-1.62c.389-.759.714-2.836-.342-3.31L7.394,23.9a25.993,25.993,0,0,0,6.431,27.351,26.348,26.348,0,0,0,37.095.359,22.816,22.816,0,0,0,4.907-6.156L43.734,40.11c-1.1,4.431-4.6,6.645-8.855,7.208" fill="#5a5858"/>
        </g>
      </g>
    </g>
    <path id="Trazado_997694" data-name="Trazado 997694" d="M33.245,3.853A3.847,3.847,0,1,1,37.1,7.717a3.85,3.85,0,0,1-3.853-3.864m-16.623,0a3.853,3.853,0,1,1,3.853,3.864,3.851,3.851,0,0,1-3.853-3.864M0,3.853A3.853,3.853,0,1,1,3.853,7.717,3.856,3.856,0,0,1,0,3.853" transform="translate(478.148 9432.184) rotate(90)" fill="#5a5858"/>
    <g id="Grupo_1177672" data-name="Grupo 1177672" transform="translate(331.334 9579.908) rotate(90)">
      <path id="Trazado_997699" data-name="Trazado 997699" d="M0,11.106l2.015,1.982,8.868-9.015,8.507,9,2.054-1.943L10.923,0Z" transform="translate(0 10.846)" fill="#636363"/>
      <path id="Trazado_997700" data-name="Trazado 997700" d="M10.923,0,0,11.1l2.015,1.983,8.868-9.015,8.507,8.995,2.054-1.942Z" transform="translate(0 0)" fill="#636363"/>
    </g>
  </g>
</svg>
