<svg xmlns="http://www.w3.org/2000/svg" xmlns:xlink="http://www.w3.org/1999/xlink" width="250" height="250" viewBox="0 0 250 250">
  <defs>
    <clipPath id="clip-path">
      <rect id="Rectángulo_456043" data-name="Rectángulo 456043" width="136.159" height="136.16" fill="#674a11"/>
    </clipPath>
  </defs>
  <g id="Grupo_1190585" data-name="Grupo 1190585" transform="translate(-383.746 -8400)">
    <circle id="Elipse_13609" data-name="Elipse 13609" cx="125" cy="125" r="125" transform="translate(383.746 8400)" fill="#fff"/>
    <g id="Grupo_1191358" data-name="Grupo 1191358" transform="translate(454.695 8453.974)">
      <g id="Grupo_1191357" data-name="Grupo 1191357" clip-path="url(#clip-path)">
        <path id="Trazado_999926" data-name="Trazado 999926" d="M116.331,115.189l-11.8,8.392a26.188,26.188,0,0,0-.113,4.879c.18,4.047-2.49,7.7-6.9,7.7l-90.665-.007A6.761,6.761,0,0,1,0,129.279V6.844A6.607,6.607,0,0,1,6.39.049L87.162,0,104.33,17.184l.125,22.162,30.191,12.96a2.387,2.387,0,0,1,1.512,2.14l-.03,22.711a46.58,46.58,0,0,1-19.8,38.031M34.221,68.905c-.688.682-1.832.333-2.306.158A2.2,2.2,0,0,1,30.7,67.358l-1.5-12.621L16.944,53.348a2.47,2.47,0,0,1-2.189-1.624,2.4,2.4,0,0,1,.567-2.364L28.969,35.629a5.287,5.287,0,0,1-.072-7.691c1.293-1.394,3.177-2.268,4.2-3.91,1.231-1.983-1.665-7.049,1.567-10.039,3.068-2.84,7.935-.105,9.822-1.325,1.52-.983,2.425-2.721,3.66-3.971a5.332,5.332,0,0,1,7.869-.228c1.369,1.282,2.278,3.142,3.889,4.195,1.881,1.23,6.74-1.513,9.821,1.331,3.228,2.98.35,8.085,1.561,10.042.955,1.542,2.724,2.414,3.976,3.674,2.267,2.278,2.59,5.419.151,7.919l9.9,9.9,14.5-6.158-.026-18.959-13.546-.024A2.231,2.231,0,0,1,84,18.129L83.948,4.538,6.867,4.546A2.222,2.222,0,0,0,4.536,6.884V129.24a2.3,2.3,0,0,0,2.352,2.384l90.6,0c3.5,0,2.191-5.683,2.231-8.06L85.634,113.484l-71.9,0a18.414,18.414,0,0,1-.061-4.538l66.985-.029L77.045,104.4l-63.312.009a19.007,19.007,0,0,1-.059-4.531L74,99.8a15.5,15.5,0,0,0-2.231-4.48l-58.036.005a19.438,19.438,0,0,1-.059-4.543l56.484-.008a21.068,21.068,0,0,0-1.2-4.536l-55.229.01a19.831,19.831,0,0,1-.056-4.545l54.672,0c-.394-5.015-.262-9.605-.237-14.683L56.144,54.978a5.4,5.4,0,0,1-7.884.015ZM96.246,15.578,88.661,8.006a68.129,68.129,0,0,0-.136,7.885c2.812-.134,5.209.329,7.72-.314M52.257,51.872c1.144-.06,2.043-1.781,2.536-2.461,4.54-6.273,10.914-1.763,11.794-3.476.944-1.835-2.629-7.579,3.535-11.777.712-.485,2.285-1.437,2.236-2.406-.056-1.138-1.695-2.032-2.526-2.631-6.243-4.5-1.748-10.947-3.449-11.766-1.926-.927-7.613,2.614-11.779-3.537-.517-.764-1.4-2.2-2.411-2.254-.879-.047-1.805,1.339-2.222,1.983-4.543,7.017-11.325,2.3-12.182,4.014-.941,1.883,2.64,7.561-3.531,11.777-7.085,4.84,5.274,3.332,3.639,13.167-.161.967-.689,2.854.092,3.56,1.131.663,2.978.052,4.281-.108,6.539-.8,7.82,6.029,9.987,5.915m-6.944-.488c-2.171-2.494-8.071,1.725-11.159-2.457-2.828-3.83.993-8.937-1.778-10.177L22.014,49.135c3.121,1.214,11.081-.035,11.5,3.1l1.291,9.7ZM67.835,60.09c.664-3.068-.235-4.931.653-7.128l12.2-5.526-8.92-8.767c-2.359,2.069,1.59,7.691-2.167,10.914s-9.273-.842-10.411,1.99Zm46.3,51.072A42.835,42.835,0,0,0,131.6,76.7l-.023-20.792L102.119,43.327,72.673,55.92l-.047,20.325a43.144,43.144,0,0,0,17.348,34.8l12.151,8.663Z" fill="#674a11"/>
        <path id="Trazado_999927" data-name="Trazado 999927" d="M196.434,172.805a2.421,2.421,0,0,1-2.882.081l-9.819-7.905a36.957,36.957,0,0,1-13.741-28.834l-.032-15a2.488,2.488,0,0,1,1.491-2.127l23.478-9.34,23.5,9.34a2.532,2.532,0,0,1,1.478,2.124l-.034,15A36.993,36.993,0,0,1,206.123,165Zm7.329-11.777a31.981,31.981,0,0,0,11.576-25.334l-.059-13.068-20.347-8.077L174.59,122.64l-.064,13.055a32.45,32.45,0,0,0,11.94,25.645l8.481,6.782Z" transform="translate(-92.812 -59.894)" fill="#674a11"/>
        <path id="Trazado_999928" data-name="Trazado 999928" d="M112.67,56.3a11.337,11.337,0,1,1-11.337-11.337A11.337,11.337,0,0,1,112.67,56.3m-4.558.006a6.785,6.785,0,1,0-6.786,6.786,6.786,6.786,0,0,0,6.786-6.786" transform="translate(-49.145 -24.554)" fill="#674a11"/>
        <path id="Trazado_999929" data-name="Trazado 999929" d="M203.051,172.8c-2.127-2.375-4.415-4.157-6.268-6.536a20.781,20.781,0,0,1,2.968-2.982c1.952,1.276,3.065,3.049,5.139,4.831l14.258-16.066a13.407,13.407,0,0,1,3.4,2.883l-15.627,17.9a2.506,2.506,0,0,1-3.873-.029" transform="translate(-107.46 -83.027)" fill="#674a11"/>
      </g>
    </g>
  </g>
</svg>
