<svg xmlns="http://www.w3.org/2000/svg" xmlns:xlink="http://www.w3.org/1999/xlink" width="83.078" height="91.657" viewBox="0 0 83.078 91.657">
  <defs>
    <clipPath id="clip-path">
      <rect id="Rectángulo_454819" data-name="Rectángulo 454819" width="83.078" height="91.657" fill="none"/>
    </clipPath>
    <clipPath id="clip-path-2">
      <rect id="Rectángulo_454821" data-name="Rectángulo 454821" width="30.394" height="58.99" fill="#674a11"/>
    </clipPath>
  </defs>
  <g id="Grupo_1177798" data-name="Grupo 1177798" transform="translate(-1266.399 -137.968)">
    <g id="Grupo_1177514" data-name="Grupo 1177514" transform="translate(1266.399 137.968)" clip-path="url(#clip-path)">
      <path id="Trazado_997541" data-name="Trazado 997541" d="M54.388,0a33.72,33.72,0,1,1-33.72,33.72A33.72,33.72,0,0,1,54.388,0" transform="translate(-5.03 0)" fill="#fff"/>
    </g>
    <g id="Grupo_1177524" data-name="Grupo 1177524">
      <g id="Grupo_1177520" data-name="Grupo 1177520" transform="translate(1285.414 144.642)">
        <g id="Grupo_1177519" data-name="Grupo 1177519" clip-path="url(#clip-path-2)">
          <path id="Trazado_997546" data-name="Trazado 997546" d="M43.418,230.577v8.4a16.3,16.3,0,0,1-.745,2.988,13.922,13.922,0,0,1-24.194,3.783c-3.544-4.7-2.778-9.612-2.811-15.17Z" transform="translate(-13.024 -192.246)" fill="#674a11"/>
          <path id="Trazado_997547" data-name="Trazado 997547" d="M28.618,126.53v3.733a8.679,8.679,0,0,0-.814.493c-1.078,1.05-1.072,5.554-.48,6.836.291.629,1.294,1.106,1.294,1.195v3.3H15.553A14.1,14.1,0,0,1,28.618,126.53" transform="translate(-12.907 -105.496)" fill="#674a11"/>
          <path id="Trazado_997548" data-name="Trazado 997548" d="M117.93,142.084H104.989v-3.3c0-.118,1.233-.8,1.438-1.8a26.829,26.829,0,0,0,.026-4.893c-.184-1.1-1.464-1.774-1.464-1.9V126.53a14.076,14.076,0,0,1,12.073,8.894,16.107,16.107,0,0,1,.868,3.363Z" transform="translate(-87.536 -105.496)" fill="#674a11"/>
          <path id="Trazado_997549" data-name="Trazado 997549" d="M17.454,19.292c-.38-.076-1.719.193-1.849-.2a18.265,18.265,0,0,1-.016-2.719c.22-3.535,2.016-5.693,5.538-6.284.3-.051.655.035.981-.015a4.2,4.2,0,0,0,.012-8.322l-21.282,0A.919.919,0,0,1,.409.069L22.373,0c5.825.734,7.159,8.911,1.72,11.311-2.161.953-4.378.026-5.944,2.393a6.405,6.405,0,0,0-.7,1.545Z" transform="translate(0)" fill="#674a11"/>
        </g>
      </g>
      <path id="Trazado_997555" data-name="Trazado 997555" d="M65.722,50.813A31.861,31.861,0,1,0,21.993,80.381l9.352,13.693a3.1,3.1,0,0,0,5.261-.238L43.7,81.119A31.868,31.868,0,0,0,65.722,50.813Z" transform="translate(1267.352 130.961)" fill="none" stroke="#231f20" stroke-miterlimit="10" stroke-width="4"/>
    </g>
  </g>
</svg>
