<svg xmlns="http://www.w3.org/2000/svg" xmlns:xlink="http://www.w3.org/1999/xlink" width="110.425" height="86.325" viewBox="0 0 110.425 86.325">
  <defs>
    <clipPath id="clip-path">
      <rect id="Rectángulo_454822" data-name="Rectángulo 454822" width="39.802" height="32.608" fill="#674a11"/>
    </clipPath>
  </defs>
  <g id="Grupo_1177799" data-name="Grupo 1177799" transform="translate(-857 -340.983)">
    <path id="Trazado_997556" data-name="Trazado 997556" d="M42.163,149.4A42.163,42.163,0,1,1,0,191.561,42.162,42.162,0,0,1,42.163,149.4" transform="translate(857 191.585)" fill="#fff"/>
    <g id="Grupo_1177523" data-name="Grupo 1177523">
      <g id="Grupo_1177522" data-name="Grupo 1177522" transform="translate(922.833 488.109)">
        <g id="Grupo_1177521" data-name="Grupo 1177521" transform="translate(-6.973 -119.785)" clip-path="url(#clip-path)">
          <path id="Trazado_997550" data-name="Trazado 997550" d="M0,3.146a1.5,1.5,0,0,1,.912-.837c.541-.112,1.525-.033,2.159-.1,5.348-.528,9.035-4.306,14.212-.607.51.365.969.793,1.453,1.191V28.411a12.012,12.012,0,0,0-4.293-2.587c-2.832-.748-5.417.662-8.068,1.382A21.033,21.033,0,0,1,0,27.944ZM4.487,8.139a1.179,1.179,0,0,0,.065,2.31l9.636.007a1.177,1.177,0,0,0,.071-2.329Zm0,4.664a1.179,1.179,0,0,0,.065,2.31l9.636.007a1.177,1.177,0,0,0,.071-2.329Zm0,4.664a1.179,1.179,0,0,0,.065,2.31l9.636.007a1.177,1.177,0,0,0,.071-2.329Z" transform="translate(0 0)" fill="#674a11"/>
          <path id="Trazado_997551" data-name="Trazado 997551" d="M0,271.3a22.443,22.443,0,0,0,6.624-.722c1.934-.507,4.67-1.8,6.62-1.6,1.6.166,3.559,1.768,4.637,2.9.493.52,1.017.976.853,1.751H.894c-.266,0-.791-.6-.894-.855Z" transform="translate(0 -241.028)" fill="#674a11"/>
          <path id="Trazado_997552" data-name="Trazado 997552" d="M221.589,27.945a20.383,20.383,0,0,1-6.374-.739c-2.794-.764-5.307-2.2-8.3-1.3a12.285,12.285,0,0,0-4.061,2.508V2.8c.484-.4.942-.827,1.452-1.191,5.194-3.7,8.854.078,14.212.607.637.063,1.612-.015,2.159.1a2.212,2.212,0,0,1,.564.292,3.8,3.8,0,0,1,.348.585ZM207.264,8.14a1.179,1.179,0,0,0,.065,2.31l9.636.007a1.177,1.177,0,0,0,.071-2.329Zm0,4.664a1.179,1.179,0,0,0,.065,2.31l9.636.007a1.177,1.177,0,0,0,.071-2.329Zm0,4.664a1.179,1.179,0,0,0,.065,2.31l9.636.007a1.177,1.177,0,0,0,.071-2.329Z" transform="translate(-181.787 -0.001)" fill="#674a11"/>
          <path id="Trazado_997553" data-name="Trazado 997553" d="M221.324,271.561V273a3.783,3.783,0,0,1-.348.585,4.306,4.306,0,0,1-.546.309H202.59c-.154-.772.3-1.153.775-1.673a10.59,10.59,0,0,1,4.081-2.838c2.154-.586,5.125.889,7.254,1.457a22.372,22.372,0,0,0,6.624.722" transform="translate(-181.523 -241.284)" fill="#674a11"/>
        </g>
      </g>
      <path id="Trazado_997554" data-name="Trazado 997554" d="M49.388,177.665v34.553a11.45,11.45,0,0,0,11.45,11.45H71.69l6.557,9.894a2.388,2.388,0,0,0,3.981,0l6.558-9.894H99.639a11.45,11.45,0,0,0,11.45-11.45V177.665a11.45,11.45,0,0,0-11.45-11.45h-38.8A11.45,11.45,0,0,0,49.388,177.665Z" transform="translate(854.336 190.678)" fill="none" stroke="#231f20" stroke-miterlimit="10" stroke-width="4"/>
    </g>
  </g>
</svg>
