<svg xmlns="http://www.w3.org/2000/svg" xmlns:xlink="http://www.w3.org/1999/xlink" width="1020" height="480" viewBox="0 0 1020 480">
  <defs>
    <linearGradient id="linear-gradient" x1="0.5" x2="0.5" y2="1" gradientUnits="objectBoundingBox">
      <stop offset="0" stop-color="#ffedb1"/>
      <stop offset="1" stop-color="#fecec1"/>
    </linearGradient>
    <clipPath id="clip-path">
      <path id="Trazado_611005" data-name="Trazado 611005" d="M0,0H1020V479H0Z" fill="#ffedb1"/>
    </clipPath>
    <clipPath id="clip-path-2">
      <rect id="Rectángulo_455581" data-name="Rectángulo 455581" width="865.299" height="408.577" fill="none"/>
    </clipPath>
    <clipPath id="clip-path-3">
      <rect id="Rectángulo_455589" data-name="Rectángulo 455589" width="46.036" height="46.031" fill="#12263f"/>
    </clipPath>
    <clipPath id="clip-path-4">
      <rect id="Rectángulo_455591" data-name="Rectángulo 455591" width="44.784" height="44.787" fill="#12263f"/>
    </clipPath>
    <clipPath id="clip-path-5">
      <rect id="Rectángulo_455592" data-name="Rectángulo 455592" width="45.43" height="45.469" fill="#12263f"/>
    </clipPath>
    <clipPath id="clip-path-6">
      <rect id="Rectángulo_455593" data-name="Rectángulo 455593" width="53.947" height="53.95" fill="#12263f"/>
    </clipPath>
    <clipPath id="clip-path-7">
      <rect id="Rectángulo_455594" data-name="Rectángulo 455594" width="45.41" height="45.437" fill="#12263f"/>
    </clipPath>
    <clipPath id="clip-path-8">
      <rect id="Rectángulo_455595" data-name="Rectángulo 455595" width="48.72" height="45.008" fill="#12263f"/>
    </clipPath>
    <clipPath id="clip-path-9">
      <rect id="Rectángulo_455596" data-name="Rectángulo 455596" width="50.932" height="45.623" fill="#12263f"/>
    </clipPath>
  </defs>
  <g id="Grupo_1191396" data-name="Grupo 1191396" transform="translate(-290 -1867)">
    <path id="Trazado_608309" data-name="Trazado 608309" d="M0,0H1020V479H0Z" transform="translate(290 1867)" fill="url(#linear-gradient)"/>
    <path id="Trazado_998973" data-name="Trazado 998973" d="M316.833,68.961l36,36-83.781,83.781-84-84,35.775-35.775H200.854l-35.777,35.775,103.97,103.97L372.8,104.958l-36-36Z" transform="translate(534.863 1972.969)" fill="#674a11"/>
    <path id="Trazado_998974" data-name="Trazado 998974" d="M206.833,68.961l36,36-83.781,83.781-84-84,35.775-35.775H90.854L55.077,104.736l103.97,103.97L262.8,104.958l-36-36Z" transform="translate(423.007 1972.969)" fill="#674a11"/>
    <path id="Trazado_998975" data-name="Trazado 998975" d="M426.833,68.961l36,36-83.783,83.781-84-84,35.777-35.775H310.854l-35.777,35.775,103.968,103.97L482.8,104.958l-36-36Z" transform="translate(646.72 1972.969)" fill="#674a11"/>
    <g id="Grupo_1190852" data-name="Grupo 1190852" transform="translate(367 1902.844)">
      <g id="Grupo_1190851" data-name="Grupo 1190851" clip-path="url(#clip-path-2)">
        <path id="Trazado_998976" data-name="Trazado 998976" d="M291.884,177.42l-64.53,37.258a35.183,35.183,0,0,1-35.182,0l-64.53-37.258a35.184,35.184,0,0,1-17.591-30.469V72.437A35.18,35.18,0,0,1,127.641,41.97l64.53-37.258a35.183,35.183,0,0,1,35.182,0l64.53,37.258a35.18,35.18,0,0,1,17.591,30.467v74.514a35.184,35.184,0,0,1-17.591,30.469" transform="translate(111.907 -0.001)" fill="#8dcdc1"/>
        <path id="Trazado_998977" data-name="Trazado 998977" d="M401.935,177.42,337.4,214.678a35.183,35.183,0,0,1-35.182,0l-64.53-37.258A35.184,35.184,0,0,1,220.1,146.951V72.437A35.18,35.18,0,0,1,237.692,41.97l64.53-37.258a35.183,35.183,0,0,1,35.182,0l64.53,37.258a35.18,35.18,0,0,1,17.591,30.467v74.514a35.184,35.184,0,0,1-17.591,30.469" transform="translate(223.816 -0.001)" fill="#bbb"/>
        <path id="Trazado_998978" data-name="Trazado 998978" d="M236.859,271.222l-64.53,37.258a35.183,35.183,0,0,1-35.182,0l-64.53-37.258a35.184,35.184,0,0,1-17.591-30.469V166.239a35.177,35.177,0,0,1,17.591-30.465l64.53-37.258a35.173,35.173,0,0,1,35.182,0l64.53,37.258a35.177,35.177,0,0,1,17.591,30.465v74.514a35.184,35.184,0,0,1-17.591,30.469" transform="translate(55.954 95.384)" fill="#bbb"/>
        <path id="Trazado_998979" data-name="Trazado 998979" d="M346.91,271.222l-64.532,37.258a35.183,35.183,0,0,1-35.182,0l-64.528-37.258a35.179,35.179,0,0,1-17.591-30.469V166.239a35.173,35.173,0,0,1,17.591-30.465L247.2,98.516a35.173,35.173,0,0,1,35.182,0l64.532,37.258A35.179,35.179,0,0,1,364.5,166.239v74.514a35.186,35.186,0,0,1-17.589,30.469" transform="translate(167.862 95.384)" fill="#ffdc6b"/>
        <path id="Trazado_998980" data-name="Trazado 998980" d="M511.985,177.42l-64.53,37.258a35.183,35.183,0,0,1-35.182,0l-64.53-37.258a35.184,35.184,0,0,1-17.591-30.469V72.437A35.18,35.18,0,0,1,347.742,41.97l64.53-37.258a35.183,35.183,0,0,1,35.182,0l64.53,37.258a35.18,35.18,0,0,1,17.591,30.467v74.514a35.184,35.184,0,0,1-17.591,30.469" transform="translate(335.723 -0.001)" fill="#ffdc6b"/>
        <path id="Trazado_998981" data-name="Trazado 998981" d="M456.96,271.222l-64.53,37.258a35.183,35.183,0,0,1-35.182,0l-64.53-37.258a35.184,35.184,0,0,1-17.591-30.469V166.239a35.177,35.177,0,0,1,17.591-30.465l64.53-37.258a35.173,35.173,0,0,1,35.182,0l64.53,37.258a35.177,35.177,0,0,1,17.591,30.465v74.514a35.184,35.184,0,0,1-17.591,30.469" transform="translate(279.77 95.384)" fill="#8dcdc1"/>
        <path id="Trazado_998982" data-name="Trazado 998982" d="M181.834,177.42,117.3,214.678a35.183,35.183,0,0,1-35.182,0L17.591,177.42A35.184,35.184,0,0,1,0,146.951V72.437A35.18,35.18,0,0,1,17.591,41.97L82.121,4.712a35.183,35.183,0,0,1,35.182,0l64.53,37.258a35.18,35.18,0,0,1,17.591,30.467v74.514a35.184,35.184,0,0,1-17.591,30.469" transform="translate(0 -0.001)" fill="#ffdc6b"/>
      </g>
    </g>
    <rect id="Rectángulo_455235" data-name="Rectángulo 455235" width="154.068" height="68" rx="17" transform="translate(389.964 1956.844)" fill="#12263f"/>
    <rect id="Rectángulo_455586" data-name="Rectángulo 455586" width="154.068" height="68" rx="17" transform="translate(501 2189.844)" fill="#12263f"/>
    <rect id="Rectángulo_455587" data-name="Rectángulo 455587" width="154.068" height="68" rx="17" transform="translate(722.966 2189.844)" fill="#12263f"/>
    <rect id="Rectángulo_455582" data-name="Rectángulo 455582" width="154.068" height="67.633" rx="17" transform="translate(611.768 1957.211)" fill="#12263f"/>
    <rect id="Rectángulo_455583" data-name="Rectángulo 455583" width="154.068" height="67.633" rx="17" transform="translate(833.627 1957.211)" fill="#12263f"/>
    <rect id="Rectángulo_455584" data-name="Rectángulo 455584" width="154.068" height="67.633" rx="17" transform="translate(1055.932 1957.211)" fill="#12263f"/>
    <path id="Trazado_999978" data-name="Trazado 999978" d="M10.285,15.773h5.391V17h-6.9V5.625h1.508ZM16.777,12.7a4.993,4.993,0,0,1,.488-2.234A3.643,3.643,0,0,1,18.625,8.93a3.7,3.7,0,0,1,1.988-.539,3.565,3.565,0,0,1,2.793,1.2,4.6,4.6,0,0,1,1.066,3.18v.1A5.036,5.036,0,0,1,24,15.082a3.589,3.589,0,0,1-1.352,1.527,3.743,3.743,0,0,1-2.02.547,3.556,3.556,0,0,1-2.785-1.2A4.575,4.575,0,0,1,16.777,12.8Zm1.453.172a3.616,3.616,0,0,0,.652,2.258,2.211,2.211,0,0,0,3.5-.012,3.955,3.955,0,0,0,.648-2.418,3.61,3.61,0,0,0-.66-2.254,2.1,2.1,0,0,0-1.754-.863,2.075,2.075,0,0,0-1.727.852A3.925,3.925,0,0,0,18.23,12.867Zm11.445,3.109a2.082,2.082,0,0,0,1.352-.469,1.649,1.649,0,0,0,.641-1.172h1.367a2.621,2.621,0,0,1-.5,1.383,3.293,3.293,0,0,1-1.23,1.047,3.55,3.55,0,0,1-1.629.391A3.482,3.482,0,0,1,26.93,16a4.59,4.59,0,0,1-1.02-3.152v-.242a5.089,5.089,0,0,1,.453-2.2,3.451,3.451,0,0,1,1.3-1.492,3.7,3.7,0,0,1,2-.531,3.39,3.39,0,0,1,2.363.852,3.043,3.043,0,0,1,1,2.211H31.668a1.992,1.992,0,0,0-.621-1.348,1.932,1.932,0,0,0-1.379-.527,2.023,2.023,0,0,0-1.707.793,3.724,3.724,0,0,0-.605,2.293v.273a3.65,3.65,0,0,0,.6,2.25A2.033,2.033,0,0,0,29.676,15.977ZM39.879,17a3.036,3.036,0,0,1-.2-.891,3.225,3.225,0,0,1-2.406,1.047,2.984,2.984,0,0,1-2.051-.707,2.287,2.287,0,0,1-.8-1.793,2.39,2.39,0,0,1,1-2.051,4.733,4.733,0,0,1,2.824-.73h1.406v-.664A1.623,1.623,0,0,0,39.2,10a1.821,1.821,0,0,0-1.336-.449,2.107,2.107,0,0,0-1.3.391,1.151,1.151,0,0,0-.523.945H34.59a2,2,0,0,1,.449-1.223,3.066,3.066,0,0,1,1.219-.934,4.1,4.1,0,0,1,1.691-.344,3.342,3.342,0,0,1,2.289.73,2.635,2.635,0,0,1,.859,2.012v3.891a4.757,4.757,0,0,0,.3,1.852V17Zm-2.4-1.1a2.54,2.54,0,0,0,1.289-.352,2.127,2.127,0,0,0,.883-.914V12.9H38.519q-2.656,0-2.656,1.555a1.316,1.316,0,0,0,.453,1.063A1.742,1.742,0,0,0,37.48,15.9ZM44.933,17H43.488V5h1.445Zm3.883,0H47.371V8.547h1.445ZM47.254,6.3a.863.863,0,0,1,.215-.594.807.807,0,0,1,.637-.242.819.819,0,0,1,.641.242.854.854,0,0,1,.219.594.826.826,0,0,1-.219.586.834.834,0,0,1-.641.234.821.821,0,0,1-.637-.234A.834.834,0,0,1,47.254,6.3Zm5.234,9.516h4.945V17H50.723V15.938l4.664-6.2H50.793v-1.2H57.2V9.57ZM64.277,17a3.036,3.036,0,0,1-.2-.891,3.225,3.225,0,0,1-2.406,1.047,2.984,2.984,0,0,1-2.051-.707,2.287,2.287,0,0,1-.8-1.793,2.39,2.39,0,0,1,1-2.051,4.733,4.733,0,0,1,2.824-.73h1.406v-.664A1.623,1.623,0,0,0,63.6,10a1.821,1.821,0,0,0-1.336-.449,2.107,2.107,0,0,0-1.3.391,1.151,1.151,0,0,0-.523.945H58.988a2,2,0,0,1,.449-1.223,3.066,3.066,0,0,1,1.219-.934,4.1,4.1,0,0,1,1.691-.344,3.342,3.342,0,0,1,2.289.73,2.635,2.635,0,0,1,.859,2.012v3.891a4.757,4.757,0,0,0,.3,1.852V17Zm-2.4-1.1a2.54,2.54,0,0,0,1.289-.352,2.127,2.127,0,0,0,.883-.914V12.9H62.918q-2.656,0-2.656,1.555a1.316,1.316,0,0,0,.453,1.063A1.742,1.742,0,0,0,61.879,15.9Zm9.969-6.055a4.331,4.331,0,0,0-.711-.055A1.9,1.9,0,0,0,69.207,11v6H67.762V8.547h1.406l.023.977a2.251,2.251,0,0,1,2.016-1.133,1.477,1.477,0,0,1,.641.109ZM78.707,17H77.262V5h1.445Zm7.531,0a3.036,3.036,0,0,1-.2-.891,3.225,3.225,0,0,1-2.406,1.047,2.984,2.984,0,0,1-2.051-.707,2.288,2.288,0,0,1-.8-1.793,2.39,2.39,0,0,1,1-2.051,4.733,4.733,0,0,1,2.824-.73h1.406v-.664A1.623,1.623,0,0,0,85.558,10a1.821,1.821,0,0,0-1.336-.449,2.108,2.108,0,0,0-1.3.391,1.151,1.151,0,0,0-.523.945H80.949A2,2,0,0,1,81.4,9.668a3.066,3.066,0,0,1,1.219-.934,4.1,4.1,0,0,1,1.691-.344,3.342,3.342,0,0,1,2.289.73,2.635,2.635,0,0,1,.859,2.012v3.891a4.757,4.757,0,0,0,.3,1.852V17Zm-2.4-1.1a2.54,2.54,0,0,0,1.289-.352,2.127,2.127,0,0,0,.883-.914V12.9H84.879q-2.656,0-2.656,1.555a1.316,1.316,0,0,0,.453,1.063A1.742,1.742,0,0,0,83.84,15.9ZM95.254,17H93.808V8.547h1.445ZM93.691,6.3a.863.863,0,0,1,.215-.594.807.807,0,0,1,.637-.242.819.819,0,0,1,.641.242A.854.854,0,0,1,95.4,6.3a.826.826,0,0,1-.219.586.834.834,0,0,1-.641.234.821.821,0,0,1-.637-.234A.834.834,0,0,1,93.691,6.3Zm3.523,6.4a4.952,4.952,0,0,1,.922-3.129,3.137,3.137,0,0,1,4.766-.168V5h1.445V17h-1.328l-.07-.906a2.943,2.943,0,0,1-2.414,1.063,2.887,2.887,0,0,1-2.395-1.2,5.008,5.008,0,0,1-.926-3.141Zm1.445.164a3.749,3.749,0,0,0,.594,2.25,1.92,1.92,0,0,0,1.641.813A2.108,2.108,0,0,0,102.9,14.7V10.813a2.125,2.125,0,0,0-1.992-1.2,1.929,1.929,0,0,0-1.656.82A4.128,4.128,0,0,0,98.66,12.867ZM110.1,17.156a3.693,3.693,0,0,1-2.8-1.129,4.19,4.19,0,0,1-1.078-3.02v-.266a5.073,5.073,0,0,1,.48-2.246,3.748,3.748,0,0,1,1.344-1.547,3.378,3.378,0,0,1,1.871-.559,3.166,3.166,0,0,1,2.563,1.086,4.7,4.7,0,0,1,.914,3.109v.6h-5.727a3,3,0,0,0,.73,2.02,2.3,2.3,0,0,0,1.777.77,2.517,2.517,0,0,0,1.3-.312,3.259,3.259,0,0,0,.93-.828l.883.688A3.55,3.55,0,0,1,110.1,17.156Zm-.18-7.578a1.928,1.928,0,0,0-1.469.637A3.1,3.1,0,0,0,107.715,12h4.234v-.109a2.753,2.753,0,0,0-.594-1.707A1.815,1.815,0,0,0,109.918,9.578ZM120.285,17a3.036,3.036,0,0,1-.2-.891,3.225,3.225,0,0,1-2.406,1.047,2.984,2.984,0,0,1-2.051-.707,2.288,2.288,0,0,1-.8-1.793,2.39,2.39,0,0,1,1-2.051,4.733,4.733,0,0,1,2.824-.73h1.406v-.664A1.623,1.623,0,0,0,119.605,10a1.821,1.821,0,0,0-1.336-.449,2.108,2.108,0,0,0-1.3.391,1.151,1.151,0,0,0-.523.945H115a2,2,0,0,1,.449-1.223,3.066,3.066,0,0,1,1.219-.934,4.1,4.1,0,0,1,1.691-.344,3.342,3.342,0,0,1,2.289.73,2.635,2.635,0,0,1,.859,2.012v3.891a4.757,4.757,0,0,0,.3,1.852V17Zm-2.4-1.1a2.54,2.54,0,0,0,1.289-.352,2.127,2.127,0,0,0,.883-.914V12.9h-1.133q-2.656,0-2.656,1.555a1.316,1.316,0,0,0,.453,1.063A1.742,1.742,0,0,0,117.887,15.9ZM42.84,36.867a5.062,5.062,0,0,1-.883,3.109,2.829,2.829,0,0,1-2.391,1.18,3.1,3.1,0,0,1-2.422-.977v4.07H35.7v-11.7h1.32l.07.938a2.977,2.977,0,0,1,2.453-1.094,2.882,2.882,0,0,1,2.41,1.148,5.117,5.117,0,0,1,.887,3.2ZM41.394,36.7a3.735,3.735,0,0,0-.609-2.258,1.963,1.963,0,0,0-1.672-.828,2.125,2.125,0,0,0-1.969,1.164V38.82a2.129,2.129,0,0,0,1.984,1.156,1.954,1.954,0,0,0,1.652-.824A4.077,4.077,0,0,0,41.394,36.7Zm7.367-2.859a4.331,4.331,0,0,0-.711-.055A1.9,1.9,0,0,0,46.121,35v6H44.676V32.547h1.406l.023.977a2.251,2.251,0,0,1,2.016-1.133,1.477,1.477,0,0,1,.641.109ZM51.66,41H50.215V32.547H51.66ZM50.1,30.3a.863.863,0,0,1,.215-.594.807.807,0,0,1,.637-.242.819.819,0,0,1,.641.242.854.854,0,0,1,.219.594.826.826,0,0,1-.219.586.834.834,0,0,1-.641.234.821.821,0,0,1-.637-.234A.834.834,0,0,1,50.1,30.3Zm5.242,2.242.047,1.063a3.08,3.08,0,0,1,2.531-1.219q2.68,0,2.7,3.023V41H59.176V35.406a1.946,1.946,0,0,0-.418-1.352,1.675,1.675,0,0,0-1.277-.437,2.086,2.086,0,0,0-1.234.375,2.546,2.546,0,0,0-.828.984V41H53.973V32.547Zm10.852,7.43a2.082,2.082,0,0,0,1.352-.469,1.649,1.649,0,0,0,.641-1.172h1.367a2.621,2.621,0,0,1-.5,1.383,3.293,3.293,0,0,1-1.23,1.047,3.55,3.55,0,0,1-1.629.391A3.482,3.482,0,0,1,63.445,40a4.59,4.59,0,0,1-1.02-3.152v-.242a5.089,5.089,0,0,1,.453-2.2,3.451,3.451,0,0,1,1.3-1.492,3.7,3.7,0,0,1,2-.531,3.39,3.39,0,0,1,2.363.852,3.043,3.043,0,0,1,1,2.211H68.183a1.992,1.992,0,0,0-.621-1.348,1.932,1.932,0,0,0-1.379-.527,2.023,2.023,0,0,0-1.707.793,3.724,3.724,0,0,0-.605,2.293v.273a3.65,3.65,0,0,0,.6,2.25A2.033,2.033,0,0,0,66.191,39.977ZM72.746,41H71.3V32.547h1.445ZM71.183,30.3a.863.863,0,0,1,.215-.594.807.807,0,0,1,.637-.242.819.819,0,0,1,.641.242.854.854,0,0,1,.219.594.826.826,0,0,1-.219.586.834.834,0,0,1-.641.234.821.821,0,0,1-.637-.234A.834.834,0,0,1,71.183,30.3ZM82.2,36.867a5.062,5.062,0,0,1-.883,3.109,2.829,2.829,0,0,1-2.391,1.18A3.1,3.1,0,0,1,76.5,40.18v4.07H75.058v-11.7h1.32l.07.938A2.977,2.977,0,0,1,78.9,32.391a2.882,2.882,0,0,1,2.41,1.148,5.117,5.117,0,0,1,.887,3.2ZM80.754,36.7a3.735,3.735,0,0,0-.609-2.258,1.963,1.963,0,0,0-1.672-.828A2.125,2.125,0,0,0,76.5,34.781V38.82a2.129,2.129,0,0,0,1.984,1.156,1.954,1.954,0,0,0,1.652-.824A4.077,4.077,0,0,0,80.754,36.7Zm8.5,4.3a3.036,3.036,0,0,1-.2-.891,3.225,3.225,0,0,1-2.406,1.047,2.984,2.984,0,0,1-2.051-.707,2.288,2.288,0,0,1-.8-1.793,2.39,2.39,0,0,1,1-2.051,4.733,4.733,0,0,1,2.824-.73h1.406v-.664A1.623,1.623,0,0,0,88.574,34a1.821,1.821,0,0,0-1.336-.449,2.107,2.107,0,0,0-1.3.391,1.151,1.151,0,0,0-.523.945H83.965a2,2,0,0,1,.449-1.223,3.066,3.066,0,0,1,1.219-.934,4.1,4.1,0,0,1,1.691-.344,3.342,3.342,0,0,1,2.289.73,2.635,2.635,0,0,1,.859,2.012v3.891a4.757,4.757,0,0,0,.3,1.852V41Zm-2.4-1.1a2.54,2.54,0,0,0,1.289-.352,2.127,2.127,0,0,0,.883-.914V36.9H87.894q-2.656,0-2.656,1.555a1.316,1.316,0,0,0,.453,1.063A1.742,1.742,0,0,0,86.855,39.9ZM94.308,41H92.863V29h1.445Z" transform="translate(401.965 1967.844)" fill="#fff"/>
    <path id="Trazado_999984" data-name="Trazado 999984" d="M18.113,17V5.625h3.211a5.169,5.169,0,0,1,2.625.656,4.438,4.438,0,0,1,1.762,1.867,6.078,6.078,0,0,1,.629,2.781v.727a6.1,6.1,0,0,1-.621,2.82,4.369,4.369,0,0,1-1.773,1.859A5.5,5.5,0,0,1,21.262,17Zm1.5-10.148v8.922h1.578a3.434,3.434,0,0,0,2.7-1.079,4.458,4.458,0,0,0,.965-3.073v-.665a4.529,4.529,0,0,0-.91-3.014,3.239,3.239,0,0,0-2.582-1.091Zm12.273,10.3a3.693,3.693,0,0,1-2.8-1.129,4.19,4.19,0,0,1-1.078-3.02v-.266a5.073,5.073,0,0,1,.48-2.246,3.748,3.748,0,0,1,1.344-1.547,3.378,3.378,0,0,1,1.871-.559,3.166,3.166,0,0,1,2.563,1.086,4.7,4.7,0,0,1,.914,3.109v.6H29.457a3,3,0,0,0,.73,2.02,2.3,2.3,0,0,0,1.777.77,2.517,2.517,0,0,0,1.3-.312,3.259,3.259,0,0,0,.93-.828l.883.688A3.55,3.55,0,0,1,31.887,17.156Zm-.18-7.578a1.928,1.928,0,0,0-1.469.637A3.1,3.1,0,0,0,29.5,12h4.234v-.109a2.753,2.753,0,0,0-.594-1.707A1.815,1.815,0,0,0,31.707,9.578ZM37.34,17V9.664H36V8.547H37.34V7.828a2.937,2.937,0,0,1,.809-2.2,3.136,3.136,0,0,1,2.285-.789,6.881,6.881,0,0,1,2.211.477L42.4,6.531a5.008,5.008,0,0,0-1.859-.391,1.819,1.819,0,0,0-1.34.418,1.723,1.723,0,0,0-.41,1.254v.734h1.727V9.664H38.793V17Zm6.023,0H41.91V8.547h1.453Zm3.719-8.453.047,1.063A3.08,3.08,0,0,1,49.66,8.391q2.68,0,2.7,3.023V17H50.918V11.406a1.946,1.946,0,0,0-.418-1.352,1.675,1.675,0,0,0-1.277-.437,2.086,2.086,0,0,0-1.234.375,2.546,2.546,0,0,0-.828.984V17H45.715V8.547ZM56.113,17H54.668V8.547h1.445ZM54.551,6.3a.863.863,0,0,1,.215-.594.807.807,0,0,1,.637-.242.819.819,0,0,1,.641.242.854.854,0,0,1,.219.594.826.826,0,0,1-.219.586.834.834,0,0,1-.641.234.821.821,0,0,1-.637-.234A.834.834,0,0,1,54.551,6.3Zm7.961,3.539a4.331,4.331,0,0,0-.711-.055A1.9,1.9,0,0,0,59.871,11v6H58.426V8.547h1.406l.023.977a2.251,2.251,0,0,1,2.016-1.133,1.477,1.477,0,0,1,.641.109ZM69.371,17H67.926V5h1.445ZM76.9,17a3.036,3.036,0,0,1-.2-.891,3.225,3.225,0,0,1-2.406,1.047,2.984,2.984,0,0,1-2.051-.707,2.288,2.288,0,0,1-.8-1.793,2.39,2.39,0,0,1,1-2.051,4.733,4.733,0,0,1,2.824-.73h1.406v-.664A1.623,1.623,0,0,0,76.223,10a1.821,1.821,0,0,0-1.336-.449,2.108,2.108,0,0,0-1.3.391,1.151,1.151,0,0,0-.523.945H71.613a2,2,0,0,1,.449-1.223,3.066,3.066,0,0,1,1.219-.934,4.1,4.1,0,0,1,1.691-.344,3.342,3.342,0,0,1,2.289.73,2.635,2.635,0,0,1,.859,2.012v3.891a4.757,4.757,0,0,0,.3,1.852V17Zm-2.4-1.1a2.54,2.54,0,0,0,1.289-.352,2.127,2.127,0,0,0,.883-.914V12.9H75.543q-2.656,0-2.656,1.555a1.316,1.316,0,0,0,.453,1.063A1.742,1.742,0,0,0,74.5,15.9ZM85.918,17H84.473V8.547h1.445ZM84.355,6.3a.863.863,0,0,1,.215-.594.807.807,0,0,1,.637-.242.819.819,0,0,1,.641.242.854.854,0,0,1,.219.594.826.826,0,0,1-.219.586.834.834,0,0,1-.641.234.821.821,0,0,1-.637-.234A.834.834,0,0,1,84.355,6.3Zm3.523,6.4A4.952,4.952,0,0,1,88.8,9.574a3.137,3.137,0,0,1,4.766-.168V5h1.445V17H93.683l-.07-.906A2.943,2.943,0,0,1,91.2,17.156a2.887,2.887,0,0,1-2.395-1.2,5.008,5.008,0,0,1-.926-3.141Zm1.445.164a3.749,3.749,0,0,0,.594,2.25,1.92,1.92,0,0,0,1.641.813A2.108,2.108,0,0,0,93.566,14.7V10.813a2.125,2.125,0,0,0-1.992-1.2,1.929,1.929,0,0,0-1.656.82A4.128,4.128,0,0,0,89.324,12.867Zm11.438,4.289a3.693,3.693,0,0,1-2.8-1.129,4.19,4.19,0,0,1-1.078-3.02v-.266a5.073,5.073,0,0,1,.48-2.246,3.748,3.748,0,0,1,1.344-1.547,3.378,3.378,0,0,1,1.871-.559,3.166,3.166,0,0,1,2.563,1.086,4.7,4.7,0,0,1,.914,3.109v.6H98.332a3,3,0,0,0,.73,2.02,2.3,2.3,0,0,0,1.777.77,2.517,2.517,0,0,0,1.3-.312,3.259,3.259,0,0,0,.93-.828l.883.688A3.55,3.55,0,0,1,100.762,17.156Zm-.18-7.578a1.928,1.928,0,0,0-1.469.637A3.1,3.1,0,0,0,98.379,12h4.234v-.109a2.753,2.753,0,0,0-.594-1.707A1.815,1.815,0,0,0,100.582,9.578ZM110.949,17a3.036,3.036,0,0,1-.2-.891,3.225,3.225,0,0,1-2.406,1.047,2.984,2.984,0,0,1-2.051-.707,2.288,2.288,0,0,1-.8-1.793,2.39,2.39,0,0,1,1-2.051,4.733,4.733,0,0,1,2.824-.73h1.406v-.664A1.623,1.623,0,0,0,110.269,10a1.821,1.821,0,0,0-1.336-.449,2.108,2.108,0,0,0-1.3.391,1.151,1.151,0,0,0-.523.945H105.66a2,2,0,0,1,.449-1.223,3.066,3.066,0,0,1,1.219-.934,4.1,4.1,0,0,1,1.691-.344,3.342,3.342,0,0,1,2.289.73,2.635,2.635,0,0,1,.859,2.012v3.891a4.757,4.757,0,0,0,.3,1.852V17Zm-2.4-1.1a2.54,2.54,0,0,0,1.289-.352,2.127,2.127,0,0,0,.883-.914V12.9H109.59q-2.656,0-2.656,1.555a1.316,1.316,0,0,0,.453,1.063A1.742,1.742,0,0,0,108.551,15.9ZM42.84,36.867a5.062,5.062,0,0,1-.883,3.109,2.829,2.829,0,0,1-2.391,1.18,3.1,3.1,0,0,1-2.422-.977v4.07H35.7v-11.7h1.32l.07.938a2.977,2.977,0,0,1,2.453-1.094,2.882,2.882,0,0,1,2.41,1.148,5.117,5.117,0,0,1,.887,3.2ZM41.394,36.7a3.735,3.735,0,0,0-.609-2.258,1.963,1.963,0,0,0-1.672-.828,2.125,2.125,0,0,0-1.969,1.164V38.82a2.129,2.129,0,0,0,1.984,1.156,1.954,1.954,0,0,0,1.652-.824A4.077,4.077,0,0,0,41.394,36.7Zm7.367-2.859a4.331,4.331,0,0,0-.711-.055A1.9,1.9,0,0,0,46.121,35v6H44.676V32.547h1.406l.023.977a2.251,2.251,0,0,1,2.016-1.133,1.477,1.477,0,0,1,.641.109ZM51.66,41H50.215V32.547H51.66ZM50.1,30.3a.863.863,0,0,1,.215-.594.807.807,0,0,1,.637-.242.819.819,0,0,1,.641.242.854.854,0,0,1,.219.594.826.826,0,0,1-.219.586.834.834,0,0,1-.641.234.821.821,0,0,1-.637-.234A.834.834,0,0,1,50.1,30.3Zm5.242,2.242.047,1.063a3.08,3.08,0,0,1,2.531-1.219q2.68,0,2.7,3.023V41H59.176V35.406a1.946,1.946,0,0,0-.418-1.352,1.675,1.675,0,0,0-1.277-.437,2.086,2.086,0,0,0-1.234.375,2.546,2.546,0,0,0-.828.984V41H53.973V32.547Zm10.852,7.43a2.082,2.082,0,0,0,1.352-.469,1.649,1.649,0,0,0,.641-1.172h1.367a2.621,2.621,0,0,1-.5,1.383,3.293,3.293,0,0,1-1.23,1.047,3.55,3.55,0,0,1-1.629.391A3.482,3.482,0,0,1,63.445,40a4.59,4.59,0,0,1-1.02-3.152v-.242a5.089,5.089,0,0,1,.453-2.2,3.451,3.451,0,0,1,1.3-1.492,3.7,3.7,0,0,1,2-.531,3.39,3.39,0,0,1,2.363.852,3.043,3.043,0,0,1,1,2.211H68.183a1.992,1.992,0,0,0-.621-1.348,1.932,1.932,0,0,0-1.379-.527,2.023,2.023,0,0,0-1.707.793,3.724,3.724,0,0,0-.605,2.293v.273a3.65,3.65,0,0,0,.6,2.25A2.033,2.033,0,0,0,66.191,39.977ZM72.746,41H71.3V32.547h1.445ZM71.183,30.3a.863.863,0,0,1,.215-.594.807.807,0,0,1,.637-.242.819.819,0,0,1,.641.242.854.854,0,0,1,.219.594.826.826,0,0,1-.219.586.834.834,0,0,1-.641.234.821.821,0,0,1-.637-.234A.834.834,0,0,1,71.183,30.3ZM82.2,36.867a5.062,5.062,0,0,1-.883,3.109,2.829,2.829,0,0,1-2.391,1.18A3.1,3.1,0,0,1,76.5,40.18v4.07H75.058v-11.7h1.32l.07.938A2.977,2.977,0,0,1,78.9,32.391a2.882,2.882,0,0,1,2.41,1.148,5.117,5.117,0,0,1,.887,3.2ZM80.754,36.7a3.735,3.735,0,0,0-.609-2.258,1.963,1.963,0,0,0-1.672-.828A2.125,2.125,0,0,0,76.5,34.781V38.82a2.129,2.129,0,0,0,1.984,1.156,1.954,1.954,0,0,0,1.652-.824A4.077,4.077,0,0,0,80.754,36.7Zm8.5,4.3a3.036,3.036,0,0,1-.2-.891,3.225,3.225,0,0,1-2.406,1.047,2.984,2.984,0,0,1-2.051-.707,2.288,2.288,0,0,1-.8-1.793,2.39,2.39,0,0,1,1-2.051,4.733,4.733,0,0,1,2.824-.73h1.406v-.664A1.623,1.623,0,0,0,88.574,34a1.821,1.821,0,0,0-1.336-.449,2.107,2.107,0,0,0-1.3.391,1.151,1.151,0,0,0-.523.945H83.965a2,2,0,0,1,.449-1.223,3.066,3.066,0,0,1,1.219-.934,4.1,4.1,0,0,1,1.691-.344,3.342,3.342,0,0,1,2.289.73,2.635,2.635,0,0,1,.859,2.012v3.891a4.757,4.757,0,0,0,.3,1.852V41Zm-2.4-1.1a2.54,2.54,0,0,0,1.289-.352,2.127,2.127,0,0,0,.883-.914V36.9H87.894q-2.656,0-2.656,1.555a1.316,1.316,0,0,0,.453,1.063A1.742,1.742,0,0,0,86.855,39.9ZM94.308,41H92.863V29h1.445Z" transform="translate(513 2201.844)" fill="#fff"/>
    <path id="Trazado_999983" data-name="Trazado 999983" d="M32.426,17h-1.5V5.625h1.5Zm2.164-4.3a4.952,4.952,0,0,1,.922-3.129,3.137,3.137,0,0,1,4.766-.168V5h1.445V17H40.394l-.07-.906a2.943,2.943,0,0,1-2.414,1.063,2.887,2.887,0,0,1-2.395-1.2,5.008,5.008,0,0,1-.926-3.141Zm1.445.164a3.749,3.749,0,0,0,.594,2.25,1.92,1.92,0,0,0,1.641.813A2.108,2.108,0,0,0,40.277,14.7V10.813a2.125,2.125,0,0,0-1.992-1.2,1.929,1.929,0,0,0-1.656.82A4.128,4.128,0,0,0,36.035,12.867Zm11.438,4.289a3.693,3.693,0,0,1-2.8-1.129,4.19,4.19,0,0,1-1.078-3.02v-.266a5.073,5.073,0,0,1,.48-2.246,3.748,3.748,0,0,1,1.344-1.547,3.378,3.378,0,0,1,1.871-.559,3.166,3.166,0,0,1,2.563,1.086,4.7,4.7,0,0,1,.914,3.109v.6H45.043a3,3,0,0,0,.73,2.02,2.3,2.3,0,0,0,1.777.77,2.517,2.517,0,0,0,1.3-.312,3.259,3.259,0,0,0,.93-.828l.883.688A3.55,3.55,0,0,1,47.473,17.156Zm-.18-7.578a1.928,1.928,0,0,0-1.469.637A3.1,3.1,0,0,0,45.09,12h4.234v-.109a2.753,2.753,0,0,0-.594-1.707A1.815,1.815,0,0,0,47.293,9.578Zm6.516-1.031.047,1.063a3.08,3.08,0,0,1,2.531-1.219q2.68,0,2.7,3.023V17H57.644V11.406a1.946,1.946,0,0,0-.418-1.352,1.675,1.675,0,0,0-1.277-.437,2.086,2.086,0,0,0-1.234.375,2.546,2.546,0,0,0-.828.984V17H52.441V8.547ZM63.23,6.5V8.547h1.578V9.664H63.23v5.249a1.173,1.173,0,0,0,.211.763.888.888,0,0,0,.719.254,3.5,3.5,0,0,0,.688-.094V17a4.215,4.215,0,0,1-1.109.155,1.8,1.8,0,0,1-1.461-.586,2.517,2.517,0,0,1-.492-1.664V9.664H60.246V8.547h1.539V6.5ZM68.066,17H66.621V8.547h1.445ZM66.5,6.3a.863.863,0,0,1,.215-.594.807.807,0,0,1,.637-.242A.819.819,0,0,1,68,5.711a.854.854,0,0,1,.219.594A.826.826,0,0,1,68,6.891a.834.834,0,0,1-.641.234.821.821,0,0,1-.637-.234A.834.834,0,0,1,66.5,6.3ZM70.863,17V9.664H69.527V8.547h1.336V7.828a2.937,2.937,0,0,1,.809-2.2,3.136,3.136,0,0,1,2.285-.789,6.881,6.881,0,0,1,2.211.477l-.242,1.219a5.008,5.008,0,0,0-1.859-.391,1.819,1.819,0,0,0-1.34.418,1.723,1.723,0,0,0-.41,1.254v.734h1.727V9.664H72.316V17Zm6.023,0H75.433V8.547h1.453Zm5.742-1.023a2.082,2.082,0,0,0,1.352-.469,1.649,1.649,0,0,0,.641-1.172h1.367a2.621,2.621,0,0,1-.5,1.383,3.293,3.293,0,0,1-1.23,1.047,3.55,3.55,0,0,1-1.629.391A3.482,3.482,0,0,1,79.883,16a4.59,4.59,0,0,1-1.02-3.152v-.242a5.089,5.089,0,0,1,.453-2.2,3.451,3.451,0,0,1,1.3-1.492,3.7,3.7,0,0,1,2-.531,3.39,3.39,0,0,1,2.363.852,3.043,3.043,0,0,1,1,2.211H84.621A1.992,1.992,0,0,0,84,10.105a1.932,1.932,0,0,0-1.379-.527,2.023,2.023,0,0,0-1.707.793,3.724,3.724,0,0,0-.605,2.293v.273a3.65,3.65,0,0,0,.6,2.25A2.033,2.033,0,0,0,82.629,15.977ZM92.832,17a3.036,3.036,0,0,1-.2-.891,3.225,3.225,0,0,1-2.406,1.047,2.984,2.984,0,0,1-2.051-.707,2.288,2.288,0,0,1-.8-1.793,2.39,2.39,0,0,1,1-2.051,4.733,4.733,0,0,1,2.824-.73h1.406v-.664A1.623,1.623,0,0,0,92.152,10a1.821,1.821,0,0,0-1.336-.449,2.108,2.108,0,0,0-1.3.391,1.151,1.151,0,0,0-.523.945H87.543a2,2,0,0,1,.449-1.223,3.066,3.066,0,0,1,1.219-.934A4.1,4.1,0,0,1,90.9,8.391a3.342,3.342,0,0,1,2.289.73,2.635,2.635,0,0,1,.859,2.012v3.891a4.757,4.757,0,0,0,.3,1.852V17Zm-2.4-1.1a2.54,2.54,0,0,0,1.289-.352,2.127,2.127,0,0,0,.883-.914V12.9H91.473q-2.656,0-2.656,1.555a1.316,1.316,0,0,0,.453,1.063A1.742,1.742,0,0,0,90.433,15.9ZM100.4,9.844a4.331,4.331,0,0,0-.711-.055A1.9,1.9,0,0,0,97.762,11v6H96.316V8.547h1.406l.023.977a2.251,2.251,0,0,1,2.016-1.133,1.477,1.477,0,0,1,.641.109ZM17.332,36.7a4.952,4.952,0,0,1,.922-3.129,3.137,3.137,0,0,1,4.766-.168V29h1.445V41H23.137l-.07-.906a2.943,2.943,0,0,1-2.414,1.063,2.887,2.887,0,0,1-2.395-1.2,5.008,5.008,0,0,1-.926-3.141Zm1.445.164a3.749,3.749,0,0,0,.594,2.25,1.92,1.92,0,0,0,1.641.813A2.108,2.108,0,0,0,23.019,38.7V34.813a2.125,2.125,0,0,0-1.992-1.2,1.929,1.929,0,0,0-1.656.82A4.128,4.128,0,0,0,18.777,36.867Zm11.438,4.289a3.693,3.693,0,0,1-2.8-1.129,4.19,4.19,0,0,1-1.078-3.02v-.266a5.073,5.073,0,0,1,.48-2.246,3.748,3.748,0,0,1,1.344-1.547,3.378,3.378,0,0,1,1.871-.559A3.166,3.166,0,0,1,32.6,33.477a4.7,4.7,0,0,1,.914,3.109v.6H27.785a3,3,0,0,0,.73,2.02,2.3,2.3,0,0,0,1.777.77,2.517,2.517,0,0,0,1.3-.312,3.259,3.259,0,0,0,.93-.828l.883.688A3.55,3.55,0,0,1,30.215,41.156Zm-.18-7.578a1.928,1.928,0,0,0-1.469.637A3.1,3.1,0,0,0,27.832,36h4.234v-.109a2.753,2.753,0,0,0-.594-1.707A1.815,1.815,0,0,0,30.035,33.578ZM37.144,30.5v2.047h1.578v1.117H37.144v5.249a1.173,1.173,0,0,0,.211.763.888.888,0,0,0,.719.254,3.5,3.5,0,0,0,.688-.094V41a4.215,4.215,0,0,1-1.109.155,1.8,1.8,0,0,1-1.461-.586,2.517,2.517,0,0,1-.492-1.664V33.664H34.16V32.547H35.7V30.5ZM45.629,41a3.036,3.036,0,0,1-.2-.891,3.225,3.225,0,0,1-2.406,1.047,2.984,2.984,0,0,1-2.051-.707,2.287,2.287,0,0,1-.8-1.793,2.39,2.39,0,0,1,1-2.051A4.733,4.733,0,0,1,44,35.875H45.4v-.664A1.623,1.623,0,0,0,44.949,34a1.821,1.821,0,0,0-1.336-.449,2.107,2.107,0,0,0-1.3.391,1.151,1.151,0,0,0-.523.945H40.34a2,2,0,0,1,.449-1.223,3.066,3.066,0,0,1,1.219-.934,4.1,4.1,0,0,1,1.691-.344,3.342,3.342,0,0,1,2.289.73,2.635,2.635,0,0,1,.859,2.012v3.891a4.757,4.757,0,0,0,.3,1.852V41Zm-2.4-1.1a2.54,2.54,0,0,0,1.289-.352,2.127,2.127,0,0,0,.883-.914V36.9H44.269q-2.656,0-2.656,1.555a1.316,1.316,0,0,0,.453,1.063A1.742,1.742,0,0,0,43.23,39.9ZM50.683,41H49.238V29h1.445Zm3.883,0H53.121V29h1.445Zm5.82.156a3.693,3.693,0,0,1-2.8-1.129,4.19,4.19,0,0,1-1.078-3.02v-.266a5.073,5.073,0,0,1,.48-2.246,3.748,3.748,0,0,1,1.344-1.547,3.378,3.378,0,0,1,1.871-.559,3.166,3.166,0,0,1,2.563,1.086,4.7,4.7,0,0,1,.914,3.109v.6H57.957a3,3,0,0,0,.73,2.02,2.3,2.3,0,0,0,1.777.77,2.517,2.517,0,0,0,1.3-.312,3.258,3.258,0,0,0,.93-.828l.883.688A3.55,3.55,0,0,1,60.387,41.156Zm-.18-7.578a1.928,1.928,0,0,0-1.469.637A3.1,3.1,0,0,0,58,36h4.234v-.109a2.753,2.753,0,0,0-.594-1.707A1.815,1.815,0,0,0,60.207,33.578Zm10.07,5.18a1.064,1.064,0,0,0-.441-.91,4.249,4.249,0,0,0-1.539-.559,7.277,7.277,0,0,1-1.742-.562,2.479,2.479,0,0,1-.953-.781,1.869,1.869,0,0,1-.309-1.078,2.193,2.193,0,0,1,.879-1.758,3.432,3.432,0,0,1,2.246-.719,3.532,3.532,0,0,1,2.332.742,2.357,2.357,0,0,1,.895,1.9H70.191a1.3,1.3,0,0,0-.5-1.023,1.888,1.888,0,0,0-1.27-.43,1.976,1.976,0,0,0-1.234.344,1.082,1.082,0,0,0-.445.9.877.877,0,0,0,.414.789,5.1,5.1,0,0,0,1.5.508A7.8,7.8,0,0,1,70.4,36.7a2.558,2.558,0,0,1,1,.809,1.988,1.988,0,0,1,.324,1.152,2.163,2.163,0,0,1-.906,1.816,3.8,3.8,0,0,1-2.352.684,4.257,4.257,0,0,1-1.8-.359,2.922,2.922,0,0,1-1.223-1A2.42,2.42,0,0,1,65,38.4h1.445a1.5,1.5,0,0,0,.582,1.152,2.258,2.258,0,0,0,1.434.426,2.331,2.331,0,0,0,1.316-.332A1.02,1.02,0,0,0,70.277,38.758Zm10.68,1.219a2.082,2.082,0,0,0,1.352-.469,1.649,1.649,0,0,0,.641-1.172h1.367a2.621,2.621,0,0,1-.5,1.383,3.293,3.293,0,0,1-1.23,1.047,3.55,3.55,0,0,1-1.629.391A3.482,3.482,0,0,1,78.211,40a4.59,4.59,0,0,1-1.02-3.152v-.242a5.089,5.089,0,0,1,.453-2.2,3.451,3.451,0,0,1,1.3-1.492,3.7,3.7,0,0,1,2-.531,3.39,3.39,0,0,1,2.363.852,3.043,3.043,0,0,1,1,2.211H82.949a1.992,1.992,0,0,0-.621-1.348,1.932,1.932,0,0,0-1.379-.527,2.023,2.023,0,0,0-1.707.793,3.724,3.724,0,0,0-.605,2.293v.273a3.65,3.65,0,0,0,.6,2.25A2.033,2.033,0,0,0,80.957,39.977ZM87.512,41H86.066V29h1.445Zm7.531,0a3.036,3.036,0,0,1-.2-.891,3.225,3.225,0,0,1-2.406,1.047,2.984,2.984,0,0,1-2.051-.707,2.288,2.288,0,0,1-.8-1.793,2.39,2.39,0,0,1,1-2.051,4.733,4.733,0,0,1,2.824-.73h1.406v-.664A1.623,1.623,0,0,0,94.363,34a1.821,1.821,0,0,0-1.336-.449,2.107,2.107,0,0,0-1.3.391,1.151,1.151,0,0,0-.523.945H89.754a2,2,0,0,1,.449-1.223,3.066,3.066,0,0,1,1.219-.934,4.1,4.1,0,0,1,1.691-.344,3.342,3.342,0,0,1,2.289.73,2.635,2.635,0,0,1,.859,2.012v3.891a4.757,4.757,0,0,0,.3,1.852V41Zm-2.4-1.1a2.54,2.54,0,0,0,1.289-.352,2.127,2.127,0,0,0,.883-.914V36.9H93.683q-2.656,0-2.656,1.555a1.316,1.316,0,0,0,.453,1.063A1.742,1.742,0,0,0,92.644,39.9Zm8.555-.859,2.094-6.492h1.477L101.738,41h-1.1l-3.062-8.453h1.477Zm8.469,2.117a3.693,3.693,0,0,1-2.8-1.129,4.19,4.19,0,0,1-1.078-3.02v-.266a5.073,5.073,0,0,1,.48-2.246,3.748,3.748,0,0,1,1.344-1.547,3.378,3.378,0,0,1,1.871-.559,3.166,3.166,0,0,1,2.563,1.086,4.7,4.7,0,0,1,.914,3.109v.6h-5.727a3,3,0,0,0,.73,2.02,2.3,2.3,0,0,0,1.777.77,2.517,2.517,0,0,0,1.3-.312,3.259,3.259,0,0,0,.93-.828l.883.688A3.55,3.55,0,0,1,109.668,41.156Zm-.18-7.578a1.928,1.928,0,0,0-1.469.637A3.1,3.1,0,0,0,107.285,36h4.234v-.109a2.753,2.753,0,0,0-.594-1.707A1.815,1.815,0,0,0,109.488,33.578Z" transform="translate(734.966 2201.844)" fill="#fff"/>
    <path id="Trazado_999979" data-name="Trazado 999979" d="M32.859,11.742H27.93v4.031h5.727V17H26.43V5.625h7.148V6.852H27.93v3.664h4.93Zm3.8-3.2.047,1.063a3.08,3.08,0,0,1,2.531-1.219q2.68,0,2.7,3.023V17H40.5V11.406a1.946,1.946,0,0,0-.418-1.352A1.675,1.675,0,0,0,38.8,9.617a2.086,2.086,0,0,0-1.234.375,2.546,2.546,0,0,0-.828.984V17H35.3V8.547ZM46.086,6.5V8.547h1.578V9.664H46.086v5.249a1.173,1.173,0,0,0,.211.763.888.888,0,0,0,.719.254,3.5,3.5,0,0,0,.688-.094V17a4.215,4.215,0,0,1-1.109.155,1.8,1.8,0,0,1-1.461-.586,2.517,2.517,0,0,1-.492-1.664V9.664H43.1V8.547h1.539V6.5Zm6.773,10.656a3.693,3.693,0,0,1-2.8-1.129,4.19,4.19,0,0,1-1.078-3.02v-.266a5.073,5.073,0,0,1,.48-2.246,3.748,3.748,0,0,1,1.344-1.547,3.378,3.378,0,0,1,1.871-.559,3.166,3.166,0,0,1,2.563,1.086,4.7,4.7,0,0,1,.914,3.109v.6H50.43a3,3,0,0,0,.73,2.02,2.3,2.3,0,0,0,1.777.77,2.517,2.517,0,0,0,1.3-.312,3.259,3.259,0,0,0,.93-.828l.883.688A3.55,3.55,0,0,1,52.859,17.156Zm-.18-7.578a1.928,1.928,0,0,0-1.469.637A3.1,3.1,0,0,0,50.476,12h4.234v-.109a2.753,2.753,0,0,0-.594-1.707A1.815,1.815,0,0,0,52.68,9.578ZM59.2,8.547l.047,1.063a3.08,3.08,0,0,1,2.531-1.219q2.68,0,2.7,3.023V17H63.031V11.406a1.946,1.946,0,0,0-.418-1.352,1.675,1.675,0,0,0-1.277-.437,2.086,2.086,0,0,0-1.234.375,2.546,2.546,0,0,0-.828.984V17H57.828V8.547ZM66.3,12.7a4.952,4.952,0,0,1,.922-3.129,3.137,3.137,0,0,1,4.766-.168V5h1.445V17H72.109l-.07-.906a2.943,2.943,0,0,1-2.414,1.063,2.887,2.887,0,0,1-2.395-1.2,5.008,5.008,0,0,1-.926-3.141Zm1.445.164a3.749,3.749,0,0,0,.594,2.25,1.92,1.92,0,0,0,1.641.813A2.108,2.108,0,0,0,71.992,14.7V10.813A2.125,2.125,0,0,0,70,9.617a1.929,1.929,0,0,0-1.656.82A4.128,4.128,0,0,0,67.75,12.867Zm11.438,4.289a3.693,3.693,0,0,1-2.8-1.129,4.19,4.19,0,0,1-1.078-3.02v-.266a5.073,5.073,0,0,1,.48-2.246,3.748,3.748,0,0,1,1.344-1.547,3.378,3.378,0,0,1,1.871-.559A3.166,3.166,0,0,1,81.57,9.477a4.7,4.7,0,0,1,.914,3.109v.6H76.758a3,3,0,0,0,.73,2.02,2.3,2.3,0,0,0,1.777.77,2.517,2.517,0,0,0,1.3-.312,3.259,3.259,0,0,0,.93-.828l.883.688A3.55,3.55,0,0,1,79.187,17.156Zm-.18-7.578a1.928,1.928,0,0,0-1.469.637A3.1,3.1,0,0,0,76.8,12h4.234v-.109a2.753,2.753,0,0,0-.594-1.707A1.815,1.815,0,0,0,79.008,9.578Zm9.234.266a4.331,4.331,0,0,0-.711-.055A1.9,1.9,0,0,0,85.6,11v6H84.156V8.547h1.406l.023.977A2.251,2.251,0,0,1,87.6,8.391a1.477,1.477,0,0,1,.641.109ZM95.1,17H93.656V5H95.1Zm7.531,0a3.036,3.036,0,0,1-.2-.891,3.225,3.225,0,0,1-2.406,1.047,2.984,2.984,0,0,1-2.051-.707,2.288,2.288,0,0,1-.8-1.793,2.39,2.39,0,0,1,1-2.051,4.733,4.733,0,0,1,2.824-.73h1.406v-.664A1.623,1.623,0,0,0,101.953,10a1.821,1.821,0,0,0-1.336-.449,2.108,2.108,0,0,0-1.3.391,1.151,1.151,0,0,0-.523.945H97.344a2,2,0,0,1,.449-1.223,3.066,3.066,0,0,1,1.219-.934,4.1,4.1,0,0,1,1.691-.344,3.342,3.342,0,0,1,2.289.73,2.635,2.635,0,0,1,.859,2.012v3.891a4.757,4.757,0,0,0,.3,1.852V17Zm-2.4-1.1a2.54,2.54,0,0,0,1.289-.352,2.127,2.127,0,0,0,.883-.914V12.9h-1.133q-2.656,0-2.656,1.555a1.316,1.316,0,0,0,.453,1.063A1.742,1.742,0,0,0,100.234,15.9ZM24.965,41H23.519V32.547h1.445ZM23.4,30.3a.863.863,0,0,1,.215-.594.807.807,0,0,1,.637-.242.819.819,0,0,1,.641.242.854.854,0,0,1,.219.594.826.826,0,0,1-.219.586.834.834,0,0,1-.641.234.821.821,0,0,1-.637-.234A.834.834,0,0,1,23.4,30.3Zm5.234,2.242.039.938a3.122,3.122,0,0,1,2.508-1.094A2.417,2.417,0,0,1,33.6,33.75a3.2,3.2,0,0,1,1.1-.984,3.242,3.242,0,0,1,1.6-.375q2.781,0,2.828,2.945V41H37.676V35.422a1.941,1.941,0,0,0-.414-1.355,1.823,1.823,0,0,0-1.391-.449,1.916,1.916,0,0,0-1.336.48,1.949,1.949,0,0,0-.617,1.293V41H32.465V35.461a1.613,1.613,0,0,0-1.8-1.844,1.934,1.934,0,0,0-1.945,1.211V41H27.269V32.547Zm19.8,4.32a5.062,5.062,0,0,1-.883,3.109,2.829,2.829,0,0,1-2.391,1.18,3.1,3.1,0,0,1-2.422-.977v4.07H41.3v-11.7h1.32l.07.938a2.977,2.977,0,0,1,2.453-1.094,2.882,2.882,0,0,1,2.41,1.148,5.117,5.117,0,0,1,.887,3.2ZM47,36.7a3.735,3.735,0,0,0-.609-2.258,1.963,1.963,0,0,0-1.672-.828,2.125,2.125,0,0,0-1.969,1.164V38.82a2.129,2.129,0,0,0,1.984,1.156,1.954,1.954,0,0,0,1.652-.824A4.077,4.077,0,0,0,47,36.7Zm2.9-.008a4.993,4.993,0,0,1,.488-2.234,3.643,3.643,0,0,1,1.359-1.531,3.7,3.7,0,0,1,1.988-.539,3.565,3.565,0,0,1,2.793,1.2,4.6,4.6,0,0,1,1.066,3.18v.1a5.036,5.036,0,0,1-.473,2.215,3.589,3.589,0,0,1-1.352,1.527,3.743,3.743,0,0,1-2.02.547,3.556,3.556,0,0,1-2.785-1.2A4.575,4.575,0,0,1,49.894,36.8Zm1.453.172A3.616,3.616,0,0,0,52,39.125a2.211,2.211,0,0,0,3.5-.012,3.955,3.955,0,0,0,.648-2.418,3.61,3.61,0,0,0-.66-2.254,2.1,2.1,0,0,0-1.754-.863A2.075,2.075,0,0,0,52,34.43,3.925,3.925,0,0,0,51.348,36.867Zm12.141-3.023a4.331,4.331,0,0,0-.711-.055A1.9,1.9,0,0,0,60.848,35v6H59.4V32.547h1.406l.023.977a2.251,2.251,0,0,1,2.016-1.133,1.477,1.477,0,0,1,.641.109Zm3.68-3.344v2.047h1.578v1.117H67.168v5.249a1.173,1.173,0,0,0,.211.763.888.888,0,0,0,.719.254,3.5,3.5,0,0,0,.688-.094V41a4.215,4.215,0,0,1-1.109.155,1.8,1.8,0,0,1-1.461-.586,2.517,2.517,0,0,1-.492-1.664V33.664H64.183V32.547h1.539V30.5ZM75.652,41a3.036,3.036,0,0,1-.2-.891,3.225,3.225,0,0,1-2.406,1.047,2.984,2.984,0,0,1-2.051-.707,2.288,2.288,0,0,1-.8-1.793,2.39,2.39,0,0,1,1-2.051,4.733,4.733,0,0,1,2.824-.73h1.406v-.664A1.623,1.623,0,0,0,74.973,34a1.821,1.821,0,0,0-1.336-.449,2.107,2.107,0,0,0-1.3.391,1.151,1.151,0,0,0-.523.945H70.363a2,2,0,0,1,.449-1.223,3.066,3.066,0,0,1,1.219-.934,4.1,4.1,0,0,1,1.691-.344,3.342,3.342,0,0,1,2.289.73,2.635,2.635,0,0,1,.859,2.012v3.891a4.757,4.757,0,0,0,.3,1.852V41Zm-2.4-1.1a2.54,2.54,0,0,0,1.289-.352,2.127,2.127,0,0,0,.883-.914V36.9H74.293q-2.656,0-2.656,1.555a1.316,1.316,0,0,0,.453,1.063A1.742,1.742,0,0,0,73.254,39.9Zm7.25-7.352.047,1.063a3.08,3.08,0,0,1,2.531-1.219q2.68,0,2.7,3.023V41H84.34V35.406a1.946,1.946,0,0,0-.418-1.352,1.675,1.675,0,0,0-1.277-.437,2.086,2.086,0,0,0-1.234.375,2.546,2.546,0,0,0-.828.984V41H79.137V32.547Zm10.852,7.43a2.082,2.082,0,0,0,1.352-.469,1.649,1.649,0,0,0,.641-1.172h1.367a2.621,2.621,0,0,1-.5,1.383,3.293,3.293,0,0,1-1.23,1.047,3.55,3.55,0,0,1-1.629.391A3.482,3.482,0,0,1,88.609,40a4.59,4.59,0,0,1-1.02-3.152v-.242a5.089,5.089,0,0,1,.453-2.2,3.451,3.451,0,0,1,1.3-1.492,3.7,3.7,0,0,1,2-.531,3.39,3.39,0,0,1,2.363.852,3.043,3.043,0,0,1,1,2.211H93.348a1.992,1.992,0,0,0-.621-1.348,1.932,1.932,0,0,0-1.379-.527,2.023,2.023,0,0,0-1.707.793,3.724,3.724,0,0,0-.605,2.293v.273a3.65,3.65,0,0,0,.6,2.25A2.033,2.033,0,0,0,91.355,39.977ZM97.91,41H96.465V32.547H97.91ZM96.348,30.3a.863.863,0,0,1,.215-.594.807.807,0,0,1,.637-.242.819.819,0,0,1,.641.242.854.854,0,0,1,.219.594.826.826,0,0,1-.219.586.834.834,0,0,1-.641.234.821.821,0,0,1-.637-.234A.834.834,0,0,1,96.348,30.3ZM105.441,41a3.036,3.036,0,0,1-.2-.891,3.225,3.225,0,0,1-2.406,1.047,2.984,2.984,0,0,1-2.051-.707,2.288,2.288,0,0,1-.8-1.793,2.39,2.39,0,0,1,1-2.051,4.733,4.733,0,0,1,2.824-.73h1.406v-.664A1.623,1.623,0,0,0,104.762,34a1.821,1.821,0,0,0-1.336-.449,2.107,2.107,0,0,0-1.3.391,1.151,1.151,0,0,0-.523.945h-1.453a2,2,0,0,1,.449-1.223,3.066,3.066,0,0,1,1.219-.934,4.1,4.1,0,0,1,1.691-.344,3.342,3.342,0,0,1,2.289.73,2.635,2.635,0,0,1,.859,2.012v3.891a4.757,4.757,0,0,0,.3,1.852V41Zm-2.4-1.1a2.54,2.54,0,0,0,1.289-.352,2.127,2.127,0,0,0,.883-.914V36.9h-1.133q-2.656,0-2.656,1.555a1.316,1.316,0,0,0,.453,1.063A1.742,1.742,0,0,0,103.043,39.9Z" transform="translate(623.768 1968.211)" fill="#fff"/>
    <path id="Trazado_999980" data-name="Trazado 999980" d="M5.641,15.773h5.391V17h-6.9V5.625H5.641ZM12.133,12.7a4.993,4.993,0,0,1,.488-2.234A3.643,3.643,0,0,1,13.98,8.93a3.7,3.7,0,0,1,1.988-.539,3.565,3.565,0,0,1,2.793,1.2,4.6,4.6,0,0,1,1.066,3.18v.1a5.036,5.036,0,0,1-.473,2.215A3.589,3.589,0,0,1,18,16.609a3.743,3.743,0,0,1-2.02.547,3.556,3.556,0,0,1-2.785-1.2A4.575,4.575,0,0,1,12.133,12.8Zm1.453.172a3.616,3.616,0,0,0,.652,2.258,2.211,2.211,0,0,0,3.5-.012,3.955,3.955,0,0,0,.648-2.418,3.61,3.61,0,0,0-.66-2.254,2.1,2.1,0,0,0-1.754-.863,2.075,2.075,0,0,0-1.727.852A3.925,3.925,0,0,0,13.586,12.867Zm11.445,3.109a2.082,2.082,0,0,0,1.352-.469,1.649,1.649,0,0,0,.641-1.172h1.367a2.621,2.621,0,0,1-.5,1.383,3.293,3.293,0,0,1-1.23,1.047,3.55,3.55,0,0,1-1.629.391A3.482,3.482,0,0,1,22.285,16a4.59,4.59,0,0,1-1.02-3.152v-.242a5.089,5.089,0,0,1,.453-2.2,3.451,3.451,0,0,1,1.3-1.492,3.7,3.7,0,0,1,2-.531,3.39,3.39,0,0,1,2.363.852,3.043,3.043,0,0,1,1,2.211H27.023a1.992,1.992,0,0,0-.621-1.348,1.932,1.932,0,0,0-1.379-.527,2.023,2.023,0,0,0-1.707.793,3.724,3.724,0,0,0-.605,2.293v.273a3.65,3.65,0,0,0,.6,2.25A2.033,2.033,0,0,0,25.031,15.977ZM35.234,17a3.036,3.036,0,0,1-.2-.891,3.225,3.225,0,0,1-2.406,1.047,2.984,2.984,0,0,1-2.051-.707,2.287,2.287,0,0,1-.8-1.793,2.39,2.39,0,0,1,1-2.051,4.733,4.733,0,0,1,2.824-.73h1.406v-.664A1.623,1.623,0,0,0,34.555,10a1.821,1.821,0,0,0-1.336-.449,2.107,2.107,0,0,0-1.3.391,1.151,1.151,0,0,0-.523.945H29.945a2,2,0,0,1,.449-1.223,3.066,3.066,0,0,1,1.219-.934A4.1,4.1,0,0,1,33.3,8.391a3.342,3.342,0,0,1,2.289.73,2.635,2.635,0,0,1,.859,2.012v3.891a4.757,4.757,0,0,0,.3,1.852V17Zm-2.4-1.1a2.54,2.54,0,0,0,1.289-.352,2.127,2.127,0,0,0,.883-.914V12.9H33.875q-2.656,0-2.656,1.555a1.316,1.316,0,0,0,.453,1.063A1.742,1.742,0,0,0,32.836,15.9ZM40.289,17H38.844V5h1.445Zm3.883,0H42.726V8.547h1.445ZM42.609,6.3a.863.863,0,0,1,.215-.594.807.807,0,0,1,.637-.242.819.819,0,0,1,.641.242.854.854,0,0,1,.219.594.826.826,0,0,1-.219.586.834.834,0,0,1-.641.234.821.821,0,0,1-.637-.234A.834.834,0,0,1,42.609,6.3Zm5.234,9.516h4.945V17H46.078V15.938l4.664-6.2H46.148v-1.2h6.406V9.57ZM59.633,17a3.036,3.036,0,0,1-.2-.891,3.225,3.225,0,0,1-2.406,1.047,2.984,2.984,0,0,1-2.051-.707,2.287,2.287,0,0,1-.8-1.793,2.39,2.39,0,0,1,1-2.051A4.733,4.733,0,0,1,58,11.875h1.406v-.664A1.623,1.623,0,0,0,58.953,10a1.821,1.821,0,0,0-1.336-.449,2.107,2.107,0,0,0-1.3.391,1.151,1.151,0,0,0-.523.945H54.344a2,2,0,0,1,.449-1.223,3.066,3.066,0,0,1,1.219-.934A4.1,4.1,0,0,1,57.7,8.391a3.342,3.342,0,0,1,2.289.73,2.635,2.635,0,0,1,.859,2.012v3.891a4.757,4.757,0,0,0,.3,1.852V17Zm-2.4-1.1a2.54,2.54,0,0,0,1.289-.352,2.127,2.127,0,0,0,.883-.914V12.9H58.273q-2.656,0-2.656,1.555a1.316,1.316,0,0,0,.453,1.063A1.742,1.742,0,0,0,57.234,15.9ZM67.2,9.844a4.331,4.331,0,0,0-.711-.055A1.9,1.9,0,0,0,64.562,11v6H63.117V8.547h1.406l.023.977a2.251,2.251,0,0,1,2.016-1.133A1.477,1.477,0,0,1,67.2,8.5ZM72.141,12.7a4.952,4.952,0,0,1,.922-3.129,3.137,3.137,0,0,1,4.766-.168V5h1.445V17H77.945l-.07-.906a2.943,2.943,0,0,1-2.414,1.063,2.887,2.887,0,0,1-2.395-1.2,5.008,5.008,0,0,1-.926-3.141Zm1.445.164a3.749,3.749,0,0,0,.594,2.25,1.92,1.92,0,0,0,1.641.813A2.108,2.108,0,0,0,77.828,14.7V10.813a2.125,2.125,0,0,0-1.992-1.2,1.929,1.929,0,0,0-1.656.82A4.128,4.128,0,0,0,73.586,12.867Zm11.438,4.289a3.693,3.693,0,0,1-2.8-1.129,4.19,4.19,0,0,1-1.078-3.02v-.266a5.073,5.073,0,0,1,.48-2.246,3.748,3.748,0,0,1,1.344-1.547,3.378,3.378,0,0,1,1.871-.559,3.166,3.166,0,0,1,2.563,1.086,4.7,4.7,0,0,1,.914,3.109v.6H82.594a3,3,0,0,0,.73,2.02,2.3,2.3,0,0,0,1.777.77,2.517,2.517,0,0,0,1.3-.312,3.259,3.259,0,0,0,.93-.828l.883.688A3.55,3.55,0,0,1,85.023,17.156Zm-.18-7.578a1.928,1.928,0,0,0-1.469.637A3.1,3.1,0,0,0,82.641,12h4.234v-.109a2.753,2.753,0,0,0-.594-1.707A1.815,1.815,0,0,0,84.844,9.578ZM91.953,6.5V8.547h1.578V9.664H91.953v5.249a1.173,1.173,0,0,0,.211.763.888.888,0,0,0,.719.254,3.5,3.5,0,0,0,.688-.094V17a4.215,4.215,0,0,1-1.109.155A1.8,1.8,0,0,1,91,16.57a2.517,2.517,0,0,1-.492-1.664V9.664H88.969V8.547h1.539V6.5ZM100.437,17a3.036,3.036,0,0,1-.2-.891,3.225,3.225,0,0,1-2.406,1.047,2.984,2.984,0,0,1-2.051-.707,2.288,2.288,0,0,1-.8-1.793,2.39,2.39,0,0,1,1-2.051,4.733,4.733,0,0,1,2.824-.73h1.406v-.664A1.623,1.623,0,0,0,99.758,10a1.821,1.821,0,0,0-1.336-.449,2.108,2.108,0,0,0-1.3.391,1.151,1.151,0,0,0-.523.945H95.148A2,2,0,0,1,95.6,9.668a3.066,3.066,0,0,1,1.219-.934,4.1,4.1,0,0,1,1.691-.344,3.342,3.342,0,0,1,2.289.73,2.635,2.635,0,0,1,.859,2.012v3.891a4.757,4.757,0,0,0,.3,1.852V17Zm-2.4-1.1a2.54,2.54,0,0,0,1.289-.352,2.127,2.127,0,0,0,.883-.914V12.9H99.078q-2.656,0-2.656,1.555a1.316,1.316,0,0,0,.453,1.063A1.742,1.742,0,0,0,98.039,15.9Zm7.453,1.1h-1.445V5h1.445Zm3.883,0H107.93V5h1.445Zm5.82.156a3.693,3.693,0,0,1-2.8-1.129,4.19,4.19,0,0,1-1.078-3.02v-.266a5.073,5.073,0,0,1,.48-2.246,3.748,3.748,0,0,1,1.344-1.547,3.378,3.378,0,0,1,1.871-.559,3.166,3.166,0,0,1,2.563,1.086,4.7,4.7,0,0,1,.914,3.109v.6h-5.727a3,3,0,0,0,.73,2.02,2.3,2.3,0,0,0,1.777.77,2.517,2.517,0,0,0,1.3-.312,3.259,3.259,0,0,0,.93-.828l.883.688A3.55,3.55,0,0,1,115.2,17.156Zm-.18-7.578a1.928,1.928,0,0,0-1.469.637A3.1,3.1,0,0,0,112.812,12h4.234v-.109a2.753,2.753,0,0,0-.594-1.707A1.815,1.815,0,0,0,115.016,9.578Zm10.07,5.18a1.064,1.064,0,0,0-.441-.91,4.249,4.249,0,0,0-1.539-.559,7.277,7.277,0,0,1-1.742-.562,2.479,2.479,0,0,1-.953-.781,1.869,1.869,0,0,1-.309-1.078,2.193,2.193,0,0,1,.879-1.758,3.432,3.432,0,0,1,2.246-.719,3.532,3.532,0,0,1,2.332.742,2.357,2.357,0,0,1,.895,1.9H125a1.3,1.3,0,0,0-.5-1.023,1.888,1.888,0,0,0-1.27-.43,1.976,1.976,0,0,0-1.234.344,1.082,1.082,0,0,0-.445.9.877.877,0,0,0,.414.789,5.1,5.1,0,0,0,1.5.508,7.8,7.8,0,0,1,1.754.578,2.558,2.558,0,0,1,1,.809,1.988,1.988,0,0,1,.324,1.152,2.163,2.163,0,0,1-.906,1.816,3.8,3.8,0,0,1-2.352.684,4.257,4.257,0,0,1-1.8-.359,2.922,2.922,0,0,1-1.223-1,2.42,2.42,0,0,1-.441-1.395h1.445a1.5,1.5,0,0,0,.582,1.152,2.258,2.258,0,0,0,1.434.426,2.331,2.331,0,0,0,1.316-.332A1.02,1.02,0,0,0,125.086,14.758Z" transform="translate(845.627 1979.633)" fill="#fff"/>
    <path id="Trazado_999981" data-name="Trazado 999981" d="M38.519,11.742H33.59v4.031h5.727V17H32.09V5.625h7.148V6.852H33.59v3.664h4.93Zm5.023,3.3,2.094-6.492h1.477L44.082,17h-1.1L39.918,8.547h1.477ZM53.605,17a3.036,3.036,0,0,1-.2-.891A3.225,3.225,0,0,1,51,17.156a2.984,2.984,0,0,1-2.051-.707,2.287,2.287,0,0,1-.8-1.793,2.39,2.39,0,0,1,1-2.051,4.733,4.733,0,0,1,2.824-.73h1.406v-.664A1.623,1.623,0,0,0,52.926,10a1.821,1.821,0,0,0-1.336-.449,2.107,2.107,0,0,0-1.3.391,1.151,1.151,0,0,0-.523.945H48.316a2,2,0,0,1,.449-1.223,3.066,3.066,0,0,1,1.219-.934,4.1,4.1,0,0,1,1.691-.344,3.342,3.342,0,0,1,2.289.73,2.635,2.635,0,0,1,.859,2.012v3.891a4.757,4.757,0,0,0,.3,1.852V17Zm-2.4-1.1a2.54,2.54,0,0,0,1.289-.352,2.127,2.127,0,0,0,.883-.914V12.9H52.246q-2.656,0-2.656,1.555a1.316,1.316,0,0,0,.453,1.063A1.742,1.742,0,0,0,51.207,15.9ZM58.66,17H57.215V5H58.66Zm7.531-.836a3.07,3.07,0,0,1-2.477.992,2.628,2.628,0,0,1-2.059-.785,3.4,3.4,0,0,1-.715-2.324v-5.5h1.445v5.461q0,1.922,1.563,1.922a2.163,2.163,0,0,0,2.2-1.234V8.547H67.6V17H66.223Zm8.82.836a3.036,3.036,0,0,1-.2-.891A3.225,3.225,0,0,1,72.4,17.156a2.984,2.984,0,0,1-2.051-.707,2.288,2.288,0,0,1-.8-1.793,2.39,2.39,0,0,1,1-2.051,4.733,4.733,0,0,1,2.824-.73h1.406v-.664A1.623,1.623,0,0,0,74.332,10,1.821,1.821,0,0,0,73,9.555a2.108,2.108,0,0,0-1.3.391,1.151,1.151,0,0,0-.523.945H69.723a2,2,0,0,1,.449-1.223,3.066,3.066,0,0,1,1.219-.934,4.1,4.1,0,0,1,1.691-.344,3.342,3.342,0,0,1,2.289.73,2.635,2.635,0,0,1,.859,2.012v3.891a4.757,4.757,0,0,0,.3,1.852V17Zm-2.4-1.1a2.54,2.54,0,0,0,1.289-.352,2.127,2.127,0,0,0,.883-.914V12.9H73.652Q71,12.9,71,14.453a1.316,1.316,0,0,0,.453,1.063A1.742,1.742,0,0,0,72.613,15.9Zm9.969-6.055a4.331,4.331,0,0,0-.711-.055A1.9,1.9,0,0,0,79.941,11v6H78.5V8.547H79.9l.023.977a2.251,2.251,0,0,1,2.016-1.133,1.477,1.477,0,0,1,.641.109ZM89.441,17H88V5h1.445Zm7.531,0a3.036,3.036,0,0,1-.2-.891,3.225,3.225,0,0,1-2.406,1.047,2.984,2.984,0,0,1-2.051-.707,2.288,2.288,0,0,1-.8-1.793,2.39,2.39,0,0,1,1-2.051,4.733,4.733,0,0,1,2.824-.73h1.406v-.664A1.623,1.623,0,0,0,96.293,10a1.821,1.821,0,0,0-1.336-.449,2.108,2.108,0,0,0-1.3.391,1.151,1.151,0,0,0-.523.945H91.683a2,2,0,0,1,.449-1.223,3.066,3.066,0,0,1,1.219-.934,4.1,4.1,0,0,1,1.691-.344,3.342,3.342,0,0,1,2.289.73,2.635,2.635,0,0,1,.859,2.012v3.891a4.757,4.757,0,0,0,.3,1.852V17Zm-2.4-1.1a2.54,2.54,0,0,0,1.289-.352,2.127,2.127,0,0,0,.883-.914V12.9H95.613q-2.656,0-2.656,1.555a1.316,1.316,0,0,0,.453,1.063A1.742,1.742,0,0,0,94.574,15.9ZM30.316,39.977a2.082,2.082,0,0,0,1.352-.469,1.649,1.649,0,0,0,.641-1.172h1.367a2.621,2.621,0,0,1-.5,1.383,3.293,3.293,0,0,1-1.23,1.047,3.55,3.55,0,0,1-1.629.391A3.482,3.482,0,0,1,27.57,40a4.59,4.59,0,0,1-1.02-3.152v-.242a5.089,5.089,0,0,1,.453-2.2,3.451,3.451,0,0,1,1.3-1.492,3.7,3.7,0,0,1,2-.531,3.39,3.39,0,0,1,2.363.852,3.043,3.043,0,0,1,1,2.211H32.308a1.992,1.992,0,0,0-.621-1.348,1.932,1.932,0,0,0-1.379-.527,2.023,2.023,0,0,0-1.707.793A3.724,3.724,0,0,0,28,36.664v.273a3.65,3.65,0,0,0,.6,2.25A2.033,2.033,0,0,0,30.316,39.977Zm4.6-3.281a4.993,4.993,0,0,1,.488-2.234,3.643,3.643,0,0,1,1.359-1.531,3.7,3.7,0,0,1,1.988-.539,3.565,3.565,0,0,1,2.793,1.2,4.6,4.6,0,0,1,1.066,3.18v.1a5.036,5.036,0,0,1-.473,2.215,3.589,3.589,0,0,1-1.352,1.527,3.743,3.743,0,0,1-2.02.547,3.556,3.556,0,0,1-2.785-1.2A4.575,4.575,0,0,1,34.918,36.8Zm1.453.172a3.616,3.616,0,0,0,.652,2.258,2.211,2.211,0,0,0,3.5-.012,3.955,3.955,0,0,0,.648-2.418,3.61,3.61,0,0,0-.66-2.254,2.1,2.1,0,0,0-1.754-.863,2.075,2.075,0,0,0-1.727.852A3.925,3.925,0,0,0,36.371,36.867Zm9.5-3.3a3.073,3.073,0,0,1,2.5-1.18q2.68,0,2.7,3.023V41H49.629V35.406a1.946,1.946,0,0,0-.418-1.352,1.675,1.675,0,0,0-1.277-.437,2.086,2.086,0,0,0-1.234.375,2.546,2.546,0,0,0-.828.984V41H44.426V29h1.445Zm10.875,7.586a3.693,3.693,0,0,1-2.8-1.129,4.19,4.19,0,0,1-1.078-3.02v-.266a5.073,5.073,0,0,1,.48-2.246A3.748,3.748,0,0,1,54.7,32.949a3.378,3.378,0,0,1,1.871-.559,3.166,3.166,0,0,1,2.563,1.086,4.7,4.7,0,0,1,.914,3.109v.6H54.316a3,3,0,0,0,.73,2.02,2.3,2.3,0,0,0,1.777.77,2.517,2.517,0,0,0,1.3-.312,3.258,3.258,0,0,0,.93-.828l.883.688A3.55,3.55,0,0,1,56.746,41.156Zm-.18-7.578a1.928,1.928,0,0,0-1.469.637A3.1,3.1,0,0,0,54.363,36H58.6v-.109A2.753,2.753,0,0,0,58,34.184,1.815,1.815,0,0,0,56.566,33.578Zm9.234.266a4.331,4.331,0,0,0-.711-.055A1.9,1.9,0,0,0,63.16,35v6H61.715V32.547h1.406l.023.977a2.251,2.251,0,0,1,2.016-1.133,1.477,1.477,0,0,1,.641.109Zm4.836,7.313a3.693,3.693,0,0,1-2.8-1.129,4.19,4.19,0,0,1-1.078-3.02v-.266a5.073,5.073,0,0,1,.48-2.246,3.748,3.748,0,0,1,1.344-1.547,3.378,3.378,0,0,1,1.871-.559,3.166,3.166,0,0,1,2.563,1.086,4.7,4.7,0,0,1,.914,3.109v.6H68.207a3,3,0,0,0,.73,2.02,2.3,2.3,0,0,0,1.777.77,2.517,2.517,0,0,0,1.3-.312,3.259,3.259,0,0,0,.93-.828l.883.688A3.55,3.55,0,0,1,70.637,41.156Zm-.18-7.578a1.928,1.928,0,0,0-1.469.637A3.1,3.1,0,0,0,68.254,36h4.234v-.109a2.753,2.753,0,0,0-.594-1.707A1.815,1.815,0,0,0,70.457,33.578Zm6.516-1.031.047,1.063a3.08,3.08,0,0,1,2.531-1.219q2.68,0,2.7,3.023V41H80.808V35.406a1.946,1.946,0,0,0-.418-1.352,1.675,1.675,0,0,0-1.277-.437,2.086,2.086,0,0,0-1.234.375,2.546,2.546,0,0,0-.828.984V41H75.605V32.547Zm10.852,7.43a2.082,2.082,0,0,0,1.352-.469,1.649,1.649,0,0,0,.641-1.172h1.367a2.621,2.621,0,0,1-.5,1.383,3.293,3.293,0,0,1-1.23,1.047,3.55,3.55,0,0,1-1.629.391A3.482,3.482,0,0,1,85.078,40a4.59,4.59,0,0,1-1.02-3.152v-.242a5.089,5.089,0,0,1,.453-2.2,3.451,3.451,0,0,1,1.3-1.492,3.7,3.7,0,0,1,2-.531,3.39,3.39,0,0,1,2.363.852,3.043,3.043,0,0,1,1,2.211H89.816a1.992,1.992,0,0,0-.621-1.348,1.932,1.932,0,0,0-1.379-.527,2.023,2.023,0,0,0-1.707.793,3.724,3.724,0,0,0-.605,2.293v.273a3.65,3.65,0,0,0,.6,2.25A2.033,2.033,0,0,0,87.824,39.977ZM94.379,41H92.933V32.547h1.445ZM92.816,30.3a.863.863,0,0,1,.215-.594.807.807,0,0,1,.637-.242.819.819,0,0,1,.641.242.854.854,0,0,1,.219.594.826.826,0,0,1-.219.586.834.834,0,0,1-.641.234.821.821,0,0,1-.637-.234A.834.834,0,0,1,92.816,30.3ZM101.91,41a3.036,3.036,0,0,1-.2-.891A3.225,3.225,0,0,1,99.3,41.156a2.984,2.984,0,0,1-2.051-.707,2.288,2.288,0,0,1-.8-1.793,2.39,2.39,0,0,1,1-2.051,4.733,4.733,0,0,1,2.824-.73h1.406v-.664A1.623,1.623,0,0,0,101.23,34a1.821,1.821,0,0,0-1.336-.449,2.107,2.107,0,0,0-1.3.391,1.151,1.151,0,0,0-.523.945H96.621a2,2,0,0,1,.449-1.223,3.066,3.066,0,0,1,1.219-.934,4.1,4.1,0,0,1,1.691-.344,3.342,3.342,0,0,1,2.289.73,2.635,2.635,0,0,1,.859,2.012v3.891a4.757,4.757,0,0,0,.3,1.852V41Zm-2.4-1.1a2.54,2.54,0,0,0,1.289-.352,2.127,2.127,0,0,0,.883-.914V36.9h-1.133q-2.656,0-2.656,1.555a1.316,1.316,0,0,0,.453,1.063A1.742,1.742,0,0,0,99.512,39.9Z" transform="translate(1067.932 1968.211)" fill="#fff"/>
    <g id="Elipse_13688" data-name="Elipse 13688" transform="translate(424 2016.844)" fill="#fff" stroke="#12263f" stroke-width="7">
      <circle cx="43.5" cy="43.5" r="43.5" stroke="none"/>
      <circle cx="43.5" cy="43.5" r="40" fill="none"/>
    </g>
    <g id="Elipse_13692" data-name="Elipse 13692" transform="translate(535 2110.844)" fill="#fff" stroke="#12263f" stroke-width="7">
      <circle cx="43.5" cy="43.5" r="43.5" stroke="none"/>
      <circle cx="43.5" cy="43.5" r="40" fill="none"/>
    </g>
    <g id="Elipse_13693" data-name="Elipse 13693" transform="translate(756.966 2110.844)" fill="#fff" stroke="#12263f" stroke-width="7">
      <circle cx="43.5" cy="43.5" r="43.5" stroke="none"/>
      <circle cx="43.5" cy="43.5" r="40" fill="none"/>
    </g>
    <rect id="Rectángulo_455588" data-name="Rectángulo 455588" width="154.068" height="68" rx="17" transform="translate(944 2189.844)" fill="#12263f"/>
    <path id="Trazado_999982" data-name="Trazado 999982" d="M35.5,14.023H30.738L29.668,17H28.121L32.465,5.625h1.313L38.129,17H36.59ZM31.191,12.8h3.867l-1.937-5.32ZM40.8,8.547l.047,1.063a3.08,3.08,0,0,1,2.531-1.219q2.68,0,2.7,3.023V17H44.637V11.406a1.946,1.946,0,0,0-.418-1.352,1.675,1.675,0,0,0-1.277-.437,2.086,2.086,0,0,0-1.234.375,2.546,2.546,0,0,0-.828.984V17H39.433V8.547ZM53.48,17a3.036,3.036,0,0,1-.2-.891,3.225,3.225,0,0,1-2.406,1.047,2.984,2.984,0,0,1-2.051-.707,2.287,2.287,0,0,1-.8-1.793,2.39,2.39,0,0,1,1-2.051,4.733,4.733,0,0,1,2.824-.73h1.406v-.664A1.623,1.623,0,0,0,52.8,10a1.821,1.821,0,0,0-1.336-.449,2.107,2.107,0,0,0-1.3.391,1.151,1.151,0,0,0-.523.945H48.191a2,2,0,0,1,.449-1.223,3.066,3.066,0,0,1,1.219-.934,4.1,4.1,0,0,1,1.691-.344,3.342,3.342,0,0,1,2.289.73,2.635,2.635,0,0,1,.859,2.012v3.891a4.757,4.757,0,0,0,.3,1.852V17Zm-2.4-1.1a2.54,2.54,0,0,0,1.289-.352,2.127,2.127,0,0,0,.883-.914V12.9H52.121q-2.656,0-2.656,1.555a1.316,1.316,0,0,0,.453,1.063A1.742,1.742,0,0,0,51.082,15.9ZM58.535,17H57.09V5h1.445Zm3.883,0H60.973V8.547h1.445ZM60.855,6.3a.863.863,0,0,1,.215-.594.807.807,0,0,1,.637-.242.819.819,0,0,1,.641.242.854.854,0,0,1,.219.594.826.826,0,0,1-.219.586.834.834,0,0,1-.641.234.821.821,0,0,1-.637-.234A.834.834,0,0,1,60.855,6.3ZM66.09,15.82h4.945V17H64.324V15.938l4.664-6.2H64.394v-1.2H70.8V9.57ZM77.879,17a3.036,3.036,0,0,1-.2-.891,3.225,3.225,0,0,1-2.406,1.047,2.984,2.984,0,0,1-2.051-.707,2.288,2.288,0,0,1-.8-1.793,2.39,2.39,0,0,1,1-2.051,4.733,4.733,0,0,1,2.824-.73h1.406v-.664A1.623,1.623,0,0,0,77.2,10a1.821,1.821,0,0,0-1.336-.449,2.108,2.108,0,0,0-1.3.391,1.151,1.151,0,0,0-.523.945H72.59a2,2,0,0,1,.449-1.223,3.066,3.066,0,0,1,1.219-.934,4.1,4.1,0,0,1,1.691-.344,3.342,3.342,0,0,1,2.289.73,2.635,2.635,0,0,1,.859,2.012v3.891a4.757,4.757,0,0,0,.3,1.852V17Zm-2.4-1.1a2.54,2.54,0,0,0,1.289-.352,2.127,2.127,0,0,0,.883-.914V12.9H76.519q-2.656,0-2.656,1.555a1.316,1.316,0,0,0,.453,1.063A1.742,1.742,0,0,0,75.48,15.9Zm9.969-6.055a4.331,4.331,0,0,0-.711-.055A1.9,1.9,0,0,0,82.808,11v6H81.363V8.547h1.406l.023.977a2.251,2.251,0,0,1,2.016-1.133,1.477,1.477,0,0,1,.641.109ZM92.308,17H90.863V5h1.445Zm7.531,0a3.036,3.036,0,0,1-.2-.891,3.225,3.225,0,0,1-2.406,1.047,2.984,2.984,0,0,1-2.051-.707,2.288,2.288,0,0,1-.8-1.793,2.39,2.39,0,0,1,1-2.051,4.733,4.733,0,0,1,2.824-.73h1.406v-.664A1.623,1.623,0,0,0,99.16,10a1.821,1.821,0,0,0-1.336-.449,2.108,2.108,0,0,0-1.3.391,1.151,1.151,0,0,0-.523.945H94.551A2,2,0,0,1,95,9.668a3.066,3.066,0,0,1,1.219-.934,4.1,4.1,0,0,1,1.691-.344,3.342,3.342,0,0,1,2.289.73,2.635,2.635,0,0,1,.859,2.012v3.891a4.757,4.757,0,0,0,.3,1.852V17Zm-2.4-1.1a2.54,2.54,0,0,0,1.289-.352,2.127,2.127,0,0,0,.883-.914V12.9H98.48q-2.656,0-2.656,1.555a1.316,1.316,0,0,0,.453,1.063A1.742,1.742,0,0,0,97.441,15.9ZM19.891,36.7a4.993,4.993,0,0,1,.488-2.234,3.643,3.643,0,0,1,1.359-1.531,3.7,3.7,0,0,1,1.988-.539,3.565,3.565,0,0,1,2.793,1.2,4.6,4.6,0,0,1,1.066,3.18v.1a5.036,5.036,0,0,1-.473,2.215,3.589,3.589,0,0,1-1.352,1.527,3.743,3.743,0,0,1-2.02.547,3.556,3.556,0,0,1-2.785-1.2A4.575,4.575,0,0,1,19.891,36.8Zm1.453.172A3.616,3.616,0,0,0,22,39.125a2.211,2.211,0,0,0,3.5-.012,3.955,3.955,0,0,0,.648-2.418,3.61,3.61,0,0,0-.66-2.254,2.1,2.1,0,0,0-1.754-.863A2.075,2.075,0,0,0,22,34.43,3.925,3.925,0,0,0,21.344,36.867Zm12.141-3.023a4.331,4.331,0,0,0-.711-.055A1.9,1.9,0,0,0,30.844,35v6H29.4V32.547H30.8l.023.977a2.251,2.251,0,0,1,2.016-1.133,1.477,1.477,0,0,1,.641.109Zm.984,2.859a4.968,4.968,0,0,1,.914-3.145,3.151,3.151,0,0,1,4.836-.074l.07-.937h1.32V40.8a3.439,3.439,0,0,1-.973,2.586,3.589,3.589,0,0,1-2.613.945,4.348,4.348,0,0,1-1.789-.391,3.08,3.08,0,0,1-1.336-1.07l.75-.867a2.826,2.826,0,0,0,2.273,1.148,2.214,2.214,0,0,0,1.645-.594,2.269,2.269,0,0,0,.59-1.672v-.727a2.971,2.971,0,0,1-2.367,1,2.887,2.887,0,0,1-2.4-1.2A5.224,5.224,0,0,1,34.469,36.7Zm1.453.164a3.79,3.79,0,0,0,.586,2.246,1.9,1.9,0,0,0,1.641.816,2.117,2.117,0,0,0,2.008-1.242V34.828a2.142,2.142,0,0,0-1.992-1.211,1.921,1.921,0,0,0-1.648.82A4.128,4.128,0,0,0,35.922,36.867ZM49.008,41a3.036,3.036,0,0,1-.2-.891A3.225,3.225,0,0,1,46.4,41.156a2.984,2.984,0,0,1-2.051-.707,2.287,2.287,0,0,1-.8-1.793,2.39,2.39,0,0,1,1-2.051,4.733,4.733,0,0,1,2.824-.73h1.406v-.664A1.623,1.623,0,0,0,48.328,34a1.821,1.821,0,0,0-1.336-.449,2.107,2.107,0,0,0-1.3.391,1.151,1.151,0,0,0-.523.945H43.719a2,2,0,0,1,.449-1.223,3.066,3.066,0,0,1,1.219-.934,4.1,4.1,0,0,1,1.691-.344,3.342,3.342,0,0,1,2.289.73,2.635,2.635,0,0,1,.859,2.012v3.891a4.757,4.757,0,0,0,.3,1.852V41Zm-2.4-1.1a2.54,2.54,0,0,0,1.289-.352,2.127,2.127,0,0,0,.883-.914V36.9H47.648q-2.656,0-2.656,1.555a1.316,1.316,0,0,0,.453,1.063A1.742,1.742,0,0,0,46.609,39.9Zm7.25-7.352.047,1.063a3.08,3.08,0,0,1,2.531-1.219q2.68,0,2.7,3.023V41H57.7V35.406a1.946,1.946,0,0,0-.418-1.352A1.675,1.675,0,0,0,56,33.617a2.086,2.086,0,0,0-1.234.375,2.546,2.546,0,0,0-.828.984V41H52.492V32.547ZM62.891,41H61.445V32.547h1.445ZM61.328,30.3a.863.863,0,0,1,.215-.594.807.807,0,0,1,.637-.242.819.819,0,0,1,.641.242.854.854,0,0,1,.219.594.826.826,0,0,1-.219.586.834.834,0,0,1-.641.234.821.821,0,0,1-.637-.234A.834.834,0,0,1,61.328,30.3Zm5.234,9.516h4.945V41H64.8V39.938l4.664-6.2H64.867v-1.2h6.406V33.57ZM78.351,41a3.036,3.036,0,0,1-.2-.891,3.225,3.225,0,0,1-2.406,1.047,2.984,2.984,0,0,1-2.051-.707,2.288,2.288,0,0,1-.8-1.793,2.39,2.39,0,0,1,1-2.051,4.733,4.733,0,0,1,2.824-.73h1.406v-.664A1.623,1.623,0,0,0,77.672,34a1.821,1.821,0,0,0-1.336-.449,2.107,2.107,0,0,0-1.3.391,1.151,1.151,0,0,0-.523.945H73.062a2,2,0,0,1,.449-1.223,3.066,3.066,0,0,1,1.219-.934,4.1,4.1,0,0,1,1.691-.344,3.342,3.342,0,0,1,2.289.73,2.635,2.635,0,0,1,.859,2.012v3.891a4.757,4.757,0,0,0,.3,1.852V41Zm-2.4-1.1a2.54,2.54,0,0,0,1.289-.352,2.127,2.127,0,0,0,.883-.914V36.9H76.992q-2.656,0-2.656,1.555a1.316,1.316,0,0,0,.453,1.063A1.742,1.742,0,0,0,75.953,39.9Zm9.273.078a2.082,2.082,0,0,0,1.352-.469,1.649,1.649,0,0,0,.641-1.172h1.367a2.621,2.621,0,0,1-.5,1.383,3.293,3.293,0,0,1-1.23,1.047,3.55,3.55,0,0,1-1.629.391A3.482,3.482,0,0,1,82.48,40a4.59,4.59,0,0,1-1.02-3.152v-.242a5.089,5.089,0,0,1,.453-2.2,3.451,3.451,0,0,1,1.3-1.492,3.7,3.7,0,0,1,2-.531,3.39,3.39,0,0,1,2.363.852,3.043,3.043,0,0,1,1,2.211H87.219a1.992,1.992,0,0,0-.621-1.348,1.932,1.932,0,0,0-1.379-.527,2.023,2.023,0,0,0-1.707.793,3.724,3.724,0,0,0-.605,2.293v.273a3.65,3.65,0,0,0,.6,2.25A2.033,2.033,0,0,0,85.226,39.977ZM91.781,41H90.336V32.547h1.445ZM90.219,30.3a.863.863,0,0,1,.215-.594.807.807,0,0,1,.637-.242.819.819,0,0,1,.641.242.854.854,0,0,1,.219.594.826.826,0,0,1-.219.586.834.834,0,0,1-.641.234.821.821,0,0,1-.637-.234A.834.834,0,0,1,90.219,30.3ZM93.711,36.7a4.993,4.993,0,0,1,.488-2.234,3.643,3.643,0,0,1,1.359-1.531,3.7,3.7,0,0,1,1.988-.539,3.565,3.565,0,0,1,2.793,1.2,4.6,4.6,0,0,1,1.066,3.18v.1a5.036,5.036,0,0,1-.473,2.215,3.589,3.589,0,0,1-1.352,1.527,3.743,3.743,0,0,1-2.02.547,3.556,3.556,0,0,1-2.785-1.2A4.575,4.575,0,0,1,93.711,36.8Zm1.453.172a3.616,3.616,0,0,0,.652,2.258,2.211,2.211,0,0,0,3.5-.012,3.955,3.955,0,0,0,.648-2.418,3.61,3.61,0,0,0-.66-2.254,2.1,2.1,0,0,0-1.754-.863,2.075,2.075,0,0,0-1.727.852A3.925,3.925,0,0,0,95.164,36.867ZM98.2,29h1.75l-2.094,2.3-1.164,0Zm6.383,3.547.047,1.063a3.08,3.08,0,0,1,2.531-1.219q2.68,0,2.7,3.023V41h-1.445V35.406A1.946,1.946,0,0,0,108,34.055a1.675,1.675,0,0,0-1.277-.437,2.086,2.086,0,0,0-1.234.375,2.546,2.546,0,0,0-.828.984V41h-1.445V32.547Z" transform="translate(956 2201.844)" fill="#fff"/>
    <g id="Elipse_13694" data-name="Elipse 13694" transform="translate(978 2110.844)" fill="#fff" stroke="#12263f" stroke-width="7">
      <circle cx="43.5" cy="43.5" r="43.5" stroke="none"/>
      <circle cx="43.5" cy="43.5" r="40" fill="none"/>
    </g>
    <g id="Elipse_13689" data-name="Elipse 13689" transform="translate(645 2016.844)" fill="#fff" stroke="#12263f" stroke-width="7">
      <circle cx="43.5" cy="43.5" r="43.5" stroke="none"/>
      <circle cx="43.5" cy="43.5" r="40" fill="none"/>
    </g>
    <g id="Elipse_13690" data-name="Elipse 13690" transform="translate(867 2016.844)" fill="#fff" stroke="#12263f" stroke-width="7">
      <circle cx="43.5" cy="43.5" r="43.5" stroke="none"/>
      <circle cx="43.5" cy="43.5" r="40" fill="none"/>
    </g>
    <g id="Elipse_13691" data-name="Elipse 13691" transform="translate(1089 2016.844)" fill="#fff" stroke="#12263f" stroke-width="7">
      <circle cx="43.5" cy="43.5" r="43.5" stroke="none"/>
      <circle cx="43.5" cy="43.5" r="40" fill="none"/>
    </g>
    <g id="Grupo_1190860" data-name="Grupo 1190860" transform="translate(441.98 2037.328)">
      <g id="Grupo_1190859" data-name="Grupo 1190859" clip-path="url(#clip-path-3)">
        <path id="Trazado_998983" data-name="Trazado 998983" d="M74.313,33.664l18.329-.022a26.355,26.355,0,0,0,0-2.859l-15.006-.011a16.528,16.528,0,0,0,1.949-3.86l13.054-.025.011-2.815-12.489-.035A12.462,12.462,0,0,0,63.918,11.22L63.9,3.826A3.765,3.765,0,0,1,67.5.112L81.174.089l.005,13.287a3.83,3.83,0,0,0,3.771,3.955H98.419l.01,24.8A3.855,3.855,0,0,1,94.455,46.1l-26.942-.037a3.722,3.722,0,0,1-3.593-3.716l-.009-7.4a12.615,12.615,0,0,0,10.4-1.291m18.36,3.8H69.654v2.875H92.673Z" transform="translate(-52.409 -0.073)" fill="#12263f"/>
        <path id="Trazado_998984" data-name="Trazado 998984" d="M3.267,99.078a1.913,1.913,0,1,1-2.707-2.7l6.769-6.8a9.588,9.588,0,1,1,2.731,2.732ZM21.081,84.306a5.746,5.746,0,1,0-5.746,5.746,5.746,5.746,0,0,0,5.746-5.746" transform="translate(0 -61.293)" fill="#12263f"/>
        <path id="Trazado_998985" data-name="Trazado 998985" d="M194.748,13.434l-13.437.018,0-13.452Z" transform="translate(-148.712)" fill="#12263f"/>
      </g>
    </g>
    <g id="Grupo_1190863" data-name="Grupo 1190863" transform="translate(556.216 2128.95)">
      <rect id="Rectángulo_455590" data-name="Rectángulo 455590" width="11.383" height="2.757" transform="translate(16.698 25.633)" fill="#12263f"/>
      <g id="Grupo_1190862" data-name="Grupo 1190862">
        <g id="Grupo_1190861" data-name="Grupo 1190861" clip-path="url(#clip-path-4)">
          <path id="Trazado_998986" data-name="Trazado 998986" d="M138.747,221.1l-4.79.025a1.575,1.575,0,0,1-1.6-1.285,6.407,6.407,0,0,1,0-1.548l7.809,0c.2,1.071,0,2.8-1.423,2.811" transform="translate(-113.799 -187.744)" fill="#12263f"/>
          <path id="Trazado_998987" data-name="Trazado 998987" d="M98.143,23.467l-11.366.016a5.971,5.971,0,0,0-1.725-3.889,13.231,13.231,0,0,1-3.439-6.917,10.976,10.976,0,1,1,21.7-.116A13.426,13.426,0,0,1,99.868,19.6a5.936,5.936,0,0,0-1.725,3.871m1.016-11.952a1.05,1.05,0,0,0,1.175,1.039,1.073,1.073,0,0,0,.956-1.079,8.611,8.611,0,0,0-6.4-9.008,1.092,1.092,0,0,0-1.443.69,1.1,1.1,0,0,0,.862,1.385,6.525,6.525,0,0,1,4.851,6.973" transform="translate(-70.067 0.001)" fill="#12263f"/>
          <path id="Trazado_998988" data-name="Trazado 998988" d="M51.468,120.331c.2.184.112.772.1,1.04a3.752,3.752,0,0,0,3.373,4.047l1.564.043-.012,7.707-15.576-6.512v-22.13l4.722,1.945a17.022,17.022,0,0,0,3.059,4.606,3.64,3.64,0,0,1,1.048,2.325l.022,4.612a2.7,2.7,0,0,0,1.7,2.317" transform="translate(-35.188 -89.9)" fill="#12263f"/>
          <path id="Trazado_998989" data-name="Trazado 998989" d="M169.373,125.472c2.7-.309,3.614-2.616,3.4-5.152a2.66,2.66,0,0,0,1.636-2.383l.015-4.485a3.508,3.508,0,0,1,1.044-2.32,17.469,17.469,0,0,0,3.06-4.61l4.717-1.934.012,22.106-15.581,6.532-.028-7.67a11.4,11.4,0,0,1,1.72-.085" transform="translate(-144.195 -89.954)" fill="#12263f"/>
          <path id="Trazado_998990" data-name="Trazado 998990" d="M4.328,153.239,19.181,159.5,0,159.541l.009-26.117,3.537,0,.014,18.783a1.054,1.054,0,0,0,.767,1.031" transform="translate(0 -114.755)" fill="#12263f"/>
          <path id="Trazado_998991" data-name="Trazado 998991" d="M183.01,159.495l14.907-6.271a1.1,1.1,0,0,0,.71-1.044l.009-18.754h3.542l.009,26.118Z" transform="translate(-157.403 -114.756)" fill="#12263f"/>
        </g>
      </g>
    </g>
    <g id="Grupo_1190865" data-name="Grupo 1190865" transform="translate(669.112 2037.392)">
      <g id="Grupo_1190864" data-name="Grupo 1190864" clip-path="url(#clip-path-5)">
        <path id="Trazado_998992" data-name="Trazado 998992" d="M167.244,181.191l-12.356,0a5.135,5.135,0,0,1-4.343-2.323,4.969,4.969,0,0,1-.267-5.133l6.165-11.111a5.379,5.379,0,0,1,9.219-.089l6.108,11a5.149,5.149,0,0,1-4.525,7.651m-4.638-10.81,0-4.491a1.513,1.513,0,1,0-3.025,0l.012,4.554a1.5,1.5,0,0,0,1.561,1.462,1.519,1.519,0,0,0,1.449-1.526m.046,4.524c0-1.082-.657-1.9-1.619-1.856-1.011.048-1.5.95-1.488,1.937.008,1.039.591,1.886,1.631,1.844.937-.038,1.478-.842,1.476-1.925" transform="translate(-126.995 -135.724)" fill="#12263f"/>
        <path id="Trazado_998993" data-name="Trazado 998993" d="M27,25.136,20.858,36.178a8.063,8.063,0,0,0-1.128,4.765L3.791,40.926A3.749,3.749,0,0,1,0,37.124V3.81A3.789,3.789,0,0,1,3.941,0L19.7.009l0,8.331a3.807,3.807,0,0,0,3.944,3.794h8.187l-.013,9.373A8.214,8.214,0,0,0,27,25.136M7.158,4.61a3.579,3.579,0,0,0-1.383-.016A1.5,1.5,0,0,0,4.586,6.4,1.676,1.676,0,0,0,6.358,7.612,1.726,1.726,0,0,0,8.284,6.4,1.487,1.487,0,0,0,7.158,4.61m6.064,0a3.579,3.579,0,0,0-1.383-.016A1.5,1.5,0,0,0,10.65,6.4a1.677,1.677,0,0,0,1.771,1.212A1.726,1.726,0,0,0,14.348,6.4,1.487,1.487,0,0,0,13.222,4.61m8.063,16.6a1.506,1.506,0,0,0-.072-3.011H6.061A1.5,1.5,0,0,0,4.553,19.78a1.531,1.531,0,0,0,1.513,1.447Zm0,6.822a1.506,1.506,0,0,0-.072-3.011H6.061A1.5,1.5,0,0,0,4.553,26.6a1.531,1.531,0,0,0,1.513,1.447Zm-4.541,6.818a1.5,1.5,0,0,0-.073-3.007H6.055a1.507,1.507,0,0,0-1.5,1.576A1.531,1.531,0,0,0,6.06,34.869Z" transform="translate(0 0)" fill="#12263f"/>
        <path id="Trazado_998994" data-name="Trazado 998994" d="M150.778,14.378a.835.835,0,0,1-.847-.784l.038-7.394,8.123,8.123Z" transform="translate(-127.202 -5.26)" fill="#12263f"/>
      </g>
    </g>
    <g id="Grupo_1190867" data-name="Grupo 1190867" transform="translate(773.027 2127.369)">
      <g id="Grupo_1190866" data-name="Grupo 1190866" clip-path="url(#clip-path-6)">
        <path id="Trazado_998995" data-name="Trazado 998995" d="M42.368,21.184A21.184,21.184,0,1,1,21.184,0,21.184,21.184,0,0,1,42.368,21.184m-3.855,0a17.331,17.331,0,1,0-17.33,17.33,17.331,17.331,0,0,0,17.33-17.33" fill="#12263f"/>
        <path id="Trazado_998996" data-name="Trazado 998996" d="M173.281,183.733l-9.983-9.939a23.331,23.331,0,0,0,10.423-10.435l10.006,10.021a7.355,7.355,0,0,1-10.446,10.352" transform="translate(-131.84 -131.89)" fill="#12263f"/>
        <path id="Trazado_998997" data-name="Trazado 998997" d="M109.122,69.635a13.939,13.939,0,0,1-1.994,7.688l-6.586.022a.949.949,0,0,0,0,1.9l5.215.063a15.284,15.284,0,0,1-15.815,5.228V60l15.859,0a14.884,14.884,0,0,1,3.262,7.673l-8.52.036a.927.927,0,0,0-.937,1.033c.036.558.493.877,1.124.886Zm-15.1-.345a1.014,1.014,0,0,0,1.432.04l3.9-3.929a.97.97,0,0,0-.111-1.3.981.981,0,0,0-1.328.055l-3.128,3.078c-.8-.437-1.55-2.073-2.585-1.2-1.068.9.759,2.165,1.819,3.266m0,9.632a1.015,1.015,0,0,0,1.432.04l3.9-3.929a.97.97,0,0,0-.111-1.305.981.981,0,0,0-1.327.055l-3.128,3.076c-.8-.431-1.55-2.073-2.586-1.2-1.068.9.761,2.167,1.819,3.266" transform="translate(-72.616 -48.443)" fill="#12263f"/>
        <path id="Trazado_998998" data-name="Trazado 998998" d="M40.664,33.842c-.783,0-1.071.476-1.071,1.159l-.013,24.653A15.4,15.4,0,1,1,55.468,33.773Z" transform="translate(-24.188 -24.2)" fill="#12263f"/>
      </g>
    </g>
    <g id="Grupo_1190869" data-name="Grupo 1190869" transform="translate(887.988 2037.111)">
      <g id="Grupo_1190868" data-name="Grupo 1190868" clip-path="url(#clip-path-7)">
        <path id="Trazado_998999" data-name="Trazado 998999" d="M88.07,33.151a3.355,3.355,0,0,1-5.59,0c-2.656-4.284-9.3-15.564-9.541-20.221a12.349,12.349,0,1,1,24.671,0c-.238,4.647-6.89,15.946-9.54,20.222m2.171-21.634a4.966,4.966,0,1,0-4.967,4.967,4.967,4.967,0,0,0,4.967-4.967" transform="translate(-62.57 -0.001)" fill="#12263f"/>
        <path id="Trazado_999000" data-name="Trazado 999000" d="M42.3,227.32c-1.315-1.507-3.479-1.781-2.524-3.424a1.363,1.363,0,0,1,1.865-.424,9.414,9.414,0,0,1,2.871,2.369,4.106,4.106,0,0,1,0,5.137c-2.111,2.73-6.853,4.214-10.188,4.891a59.738,59.738,0,0,1-20.968.419c-3.893-.6-9.638-2.049-12.25-5.058a4.138,4.138,0,0,1-.262-5.305,9.288,9.288,0,0,1,2.84-2.405,1.4,1.4,0,0,1,1.9.3,1.354,1.354,0,0,1-.478,1.968,7.272,7.272,0,0,0-1.993,1.537,1.6,1.6,0,0,0,.065,2.25c2.209,2.392,7.592,3.64,10.81,4.122a58.719,58.719,0,0,0,17.557-.017c3.182-.481,8.505-1.74,10.687-4.105a1.6,1.6,0,0,0,.065-2.249" transform="translate(0 -191.577)" fill="#12263f"/>
        <path id="Trazado_999001" data-name="Trazado 999001" d="M76.749,212.843c2.212.367,5.295,1.169,6.712,2.811a2.626,2.626,0,0,1-.215,3.7,7.525,7.525,0,0,1-2.775,1.612c-4.763,1.712-11.426,1.861-16.443,1.345-2.723-.28-7.211-1.054-9.148-3.034a2.6,2.6,0,0,1-.205-3.553c1.389-1.711,4.571-2.5,6.746-2.891l1.433,2.431c-1.627.325-5.1.895-6.1,2.173a9.224,9.224,0,0,0,3.688,1.574,40.667,40.667,0,0,0,17.206.029,9.5,9.5,0,0,0,3.8-1.6c-.963-1.277-4.506-1.864-6.1-2.171Z" transform="translate(-46.393 -182.624)" fill="#12263f"/>
      </g>
    </g>
    <g id="Grupo_1190871" data-name="Grupo 1190871" transform="translate(997 2128.834)">
      <g id="Grupo_1190870" data-name="Grupo 1190870" clip-path="url(#clip-path-8)">
        <path id="Trazado_999002" data-name="Trazado 999002" d="M27.89,44.927c-2.144.133-4.157.072-6.233.025a3.764,3.764,0,0,1-3.68-3.734l0-4.582a3.771,3.771,0,0,1,4.088-3.69,4.441,4.441,0,0,0,1.165-.058V26.326L13.246,26.3a4.96,4.96,0,0,0-5.049,4.1A14.207,14.207,0,0,0,8.2,32.925l1.7.035a3.714,3.714,0,0,1,3.515,3.818l0,4.3A3.8,3.8,0,0,1,9.85,44.94c-2.06.1-4.088.067-6.155.012A3.815,3.815,0,0,1,0,41.065L0,36.78a3.8,3.8,0,0,1,3.949-3.836,7.673,7.673,0,0,0,1.3-.041c.065-.646.015-1.227.033-1.907a7.633,7.633,0,0,1,7.54-7.531l10.408-.045,0-6.574-4.371-.009A3.826,3.826,0,0,1,15.2,13.031l.005-9.288A3.759,3.759,0,0,1,19.033,0l11.4.013A3.764,3.764,0,0,1,34.159,3.9l0,8.984a3.862,3.862,0,0,1-4.018,3.954l-4.045.014v6.573l9.812.039A7.661,7.661,0,0,1,43.5,30.99a18.823,18.823,0,0,0,.042,1.922c.588.081,1.116,0,1.7.05a3.791,3.791,0,0,1,3.477,3.816l0,4.288a3.819,3.819,0,0,1-3.7,3.885c-2.066.059-4.093.088-6.155-.01A3.8,3.8,0,0,1,35.3,41.074l0-4.3a3.789,3.789,0,0,1,3.671-3.828c.572-.02,1.08.022,1.658-.029.044-.592.032-1.156.02-1.773A4.917,4.917,0,0,0,35.631,26.3l-9.528.023v6.562a3.922,3.922,0,0,0,1.158.059,3.775,3.775,0,0,1,4.11,3.673l.013,4.442a3.783,3.783,0,0,1-3.494,3.867" transform="translate(0 0)" fill="#12263f"/>
      </g>
    </g>
    <g id="Grupo_1190873" data-name="Grupo 1190873" transform="translate(1107.034 2037.532)">
      <g id="Grupo_1190872" data-name="Grupo 1190872" clip-path="url(#clip-path-9)">
        <path id="Trazado_999003" data-name="Trazado 999003" d="M17.051,17.022l-5.319.041c-1.967.015,1.251-2.5-1.254-4.672a2.944,2.944,0,0,0-3.785-.085c-2.654,2.077.554,4.7-1.337,4.763L0,17.033,0,0,17.048.008l.015,5.278c.155,2.014,2.485-1.19,4.682,1.262a2.959,2.959,0,0,1,.116,3.82c-2.16,2.726-4.788-.693-4.795,1.462Z" fill="#12263f"/>
        <path id="Trazado_999004" data-name="Trazado 999004" d="M72.383,131.928c-2.11,2.672-4.621-.511-4.777,1.28l-.063,5.433-17.038-.018L50.5,121.651l5.265-.085c2.093-.106-1.226-2.593,1.415-4.777a3.007,3.007,0,0,1,3.621-.09c2.868,2.1-.607,4.864,1.534,4.874l5.22.024L67.6,126.9c.018,1.861,2.625-1.2,4.712,1.273a2.952,2.952,0,0,1,.067,3.752" transform="translate(-40.448 -93.022)" fill="#12263f"/>
        <path id="Trazado_999005" data-name="Trazado 999005" d="M159.822,133.21l-.031,5.378-17.039.037,0-4.455A4.266,4.266,0,0,0,147.3,132.6a4.2,4.2,0,0,0,.159-4.82,4.276,4.276,0,0,0-4.655-1.81,34.289,34.289,0,0,1-.078-4.4l5.2-.021c2.225-.009-1.228-2.478,1.446-4.761a2.971,2.971,0,0,1,3.7-.068c2.736,2.079-.577,4.828,1.423,4.83l5.274,0,.06,5.384c.02,1.777,2.595-1.245,4.687,1.194a2.98,2.98,0,0,1,.066,3.793c-2.138,2.66-4.741-.587-4.752,1.282" transform="translate(-114.291 -93.002)" fill="#12263f"/>
        <path id="Trazado_999006" data-name="Trazado 999006" d="M155.483,46.292a4.49,4.49,0,0,0-1.673-4.618,4.23,4.23,0,0,0-4.9-.039,4.277,4.277,0,0,0-1.683,4.613,37.909,37.909,0,0,1-4.434.023l-.012-5.231c0-2.1,2.522,1.194,4.715-1.367a2.959,2.959,0,0,0,.1-3.708c-2.039-2.7-4.791.443-4.8-1.288l-.014-5.441,5.4-.051c1.827-.017-1.316-2.505,1.211-4.688a2.945,2.945,0,0,1,3.757-.077c2.72,2.147-.627,4.77,1.394,4.781l5.283.03.049,5.257c.019,2.1,2.515-1.24,4.724,1.372a2.98,2.98,0,0,1,.082,3.7c-2.132,2.774-4.8-.632-4.809,1.487l-.019,5.209Z" transform="translate(-114.368 -19.047)" fill="#12263f"/>
      </g>
    </g>
  </g>
</svg>
