<svg xmlns="http://www.w3.org/2000/svg" xmlns:xlink="http://www.w3.org/1999/xlink" width="1020" height="442.212" viewBox="0 0 1020 442.212">
  <defs>
    <linearGradient id="linear-gradient" x1="0.5" x2="0.5" y2="1" gradientUnits="objectBoundingBox">
      <stop offset="0" stop-color="#ffedb1"/>
      <stop offset="1" stop-color="#fecec1"/>
    </linearGradient>
    <clipPath id="clip-path">
      <rect id="Rectángulo_455591" data-name="Rectángulo 455591" width="44.784" height="44.787" fill="#12263f"/>
    </clipPath>
    <clipPath id="clip-path-2">
      <rect id="Rectángulo_455654" data-name="Rectángulo 455654" width="47.782" height="47.755" fill="#12263f"/>
    </clipPath>
    <clipPath id="clip-path-3">
      <rect id="Rectángulo_455655" data-name="Rectángulo 455655" width="49.393" height="51.271" fill="#12263f"/>
    </clipPath>
    <clipPath id="clip-path-4">
      <rect id="Rectángulo_455656" data-name="Rectángulo 455656" width="52.031" height="50.346" fill="#12263f"/>
    </clipPath>
    <clipPath id="clip-path-5">
      <rect id="Rectángulo_455657" data-name="Rectángulo 455657" width="46.652" height="53.371" fill="#12263f"/>
    </clipPath>
    <clipPath id="clip-path-6">
      <rect id="Rectángulo_455658" data-name="Rectángulo 455658" width="59.544" height="59.546" fill="#12263f"/>
    </clipPath>
  </defs>
  <g id="Grupo_1191399" data-name="Grupo 1191399" transform="translate(-290 -1566)">
    <path id="Trazado_608309" data-name="Trazado 608309" d="M0,0H1020V442.212H0Z" transform="translate(290 1566)" fill="url(#linear-gradient)"/>
    <rect id="Rectángulo_455648" data-name="Rectángulo 455648" width="154.068" height="43.077" rx="17" transform="translate(721.966 1593.77)" fill="#674a11"/>
    <rect id="Rectángulo_455649" data-name="Rectángulo 455649" width="154.068" height="43.077" rx="17" transform="translate(1012 1737.217)" fill="#674a11"/>
    <rect id="Rectángulo_455652" data-name="Rectángulo 455652" width="154.068" height="43.077" rx="17" transform="translate(433.932 1737.217)" fill="#674a11"/>
    <rect id="Rectángulo_455650" data-name="Rectángulo 455650" width="154.068" height="43.077" rx="17" transform="translate(1080 1875.11)" fill="#674a11"/>
    <rect id="Rectángulo_455653" data-name="Rectángulo 455653" width="154.068" height="43.077" rx="17" transform="translate(364.933 1875.11)" fill="#674a11"/>
    <path id="Trazado_1000010" data-name="Trazado 1000010" d="M34.629,14.023H29.863L28.793,17H27.246L31.59,5.625H32.9L37.254,17H35.715ZM30.316,12.8h3.867l-1.937-5.32Zm11.633,3.18a2.082,2.082,0,0,0,1.352-.469,1.649,1.649,0,0,0,.641-1.172h1.367a2.621,2.621,0,0,1-.5,1.383,3.293,3.293,0,0,1-1.23,1.047,3.55,3.55,0,0,1-1.629.391A3.482,3.482,0,0,1,39.2,16a4.59,4.59,0,0,1-1.02-3.152v-.242a5.089,5.089,0,0,1,.453-2.2,3.451,3.451,0,0,1,1.3-1.492,3.7,3.7,0,0,1,2-.531,3.39,3.39,0,0,1,2.363.852,3.043,3.043,0,0,1,1,2.211H43.941a1.992,1.992,0,0,0-.621-1.348,1.932,1.932,0,0,0-1.379-.527,2.023,2.023,0,0,0-1.707.793,3.724,3.724,0,0,0-.605,2.293v.273a3.65,3.65,0,0,0,.6,2.25A2.033,2.033,0,0,0,41.949,15.977ZM48.894,6.5V8.547h1.578V9.664H48.894v5.249a1.173,1.173,0,0,0,.211.763.888.888,0,0,0,.719.254,3.5,3.5,0,0,0,.688-.094V17a4.215,4.215,0,0,1-1.109.155,1.8,1.8,0,0,1-1.461-.586,2.517,2.517,0,0,1-.492-1.664V9.664H45.91V8.547h1.539V6.5Zm8.484,9.664a3.07,3.07,0,0,1-2.477.992,2.628,2.628,0,0,1-2.059-.785,3.4,3.4,0,0,1-.715-2.324v-5.5h1.445v5.461q0,1.922,1.563,1.922a2.163,2.163,0,0,0,2.2-1.234V8.547h1.445V17H57.41ZM66.2,17a3.036,3.036,0,0,1-.2-.891,3.225,3.225,0,0,1-2.406,1.047,2.984,2.984,0,0,1-2.051-.707,2.287,2.287,0,0,1-.8-1.793,2.39,2.39,0,0,1,1-2.051,4.733,4.733,0,0,1,2.824-.73h1.406v-.664A1.623,1.623,0,0,0,65.519,10a1.821,1.821,0,0,0-1.336-.449,2.107,2.107,0,0,0-1.3.391,1.151,1.151,0,0,0-.523.945H60.91a2,2,0,0,1,.449-1.223,3.066,3.066,0,0,1,1.219-.934,4.1,4.1,0,0,1,1.691-.344,3.342,3.342,0,0,1,2.289.73,2.635,2.635,0,0,1,.859,2.012v3.891a4.757,4.757,0,0,0,.3,1.852V17Zm-2.4-1.1a2.54,2.54,0,0,0,1.289-.352,2.127,2.127,0,0,0,.883-.914V12.9H64.84q-2.656,0-2.656,1.555a1.316,1.316,0,0,0,.453,1.063A1.742,1.742,0,0,0,63.8,15.9ZM71.254,17H69.808V5h1.445Zm3.883,0H73.691V8.547h1.445ZM73.574,6.3a.863.863,0,0,1,.215-.594.807.807,0,0,1,.637-.242.819.819,0,0,1,.641.242.854.854,0,0,1,.219.594.826.826,0,0,1-.219.586.834.834,0,0,1-.641.234.821.821,0,0,1-.637-.234A.834.834,0,0,1,73.574,6.3ZM77.1,12.7a4.952,4.952,0,0,1,.922-3.129,3.137,3.137,0,0,1,4.766-.168V5H84.23V17H82.9l-.07-.906a2.943,2.943,0,0,1-2.414,1.063,2.887,2.887,0,0,1-2.395-1.2,5.008,5.008,0,0,1-.926-3.141Zm1.445.164a3.749,3.749,0,0,0,.594,2.25,1.92,1.92,0,0,0,1.641.813A2.108,2.108,0,0,0,82.785,14.7V10.813a2.125,2.125,0,0,0-1.992-1.2,1.929,1.929,0,0,0-1.656.82A4.128,4.128,0,0,0,78.543,12.867ZM91.691,17a3.036,3.036,0,0,1-.2-.891,3.225,3.225,0,0,1-2.406,1.047,2.984,2.984,0,0,1-2.051-.707,2.288,2.288,0,0,1-.8-1.793,2.39,2.39,0,0,1,1-2.051,4.733,4.733,0,0,1,2.824-.73h1.406v-.664A1.623,1.623,0,0,0,91.012,10a1.821,1.821,0,0,0-1.336-.449,2.108,2.108,0,0,0-1.3.391,1.151,1.151,0,0,0-.523.945H86.4a2,2,0,0,1,.449-1.223,3.066,3.066,0,0,1,1.219-.934,4.1,4.1,0,0,1,1.691-.344,3.342,3.342,0,0,1,2.289.73,2.635,2.635,0,0,1,.859,2.012v3.891a4.757,4.757,0,0,0,.3,1.852V17Zm-2.4-1.1a2.54,2.54,0,0,0,1.289-.352,2.127,2.127,0,0,0,.883-.914V12.9H90.332q-2.656,0-2.656,1.555a1.316,1.316,0,0,0,.453,1.063A1.742,1.742,0,0,0,89.293,15.9Zm5.531-3.2a4.952,4.952,0,0,1,.922-3.129,3.137,3.137,0,0,1,4.766-.168V5h1.445V17h-1.328l-.07-.906a2.943,2.943,0,0,1-2.414,1.063,2.887,2.887,0,0,1-2.395-1.2,5.008,5.008,0,0,1-.926-3.141Zm1.445.164a3.749,3.749,0,0,0,.594,2.25,1.92,1.92,0,0,0,1.641.813,2.108,2.108,0,0,0,2.008-1.234V10.813a2.125,2.125,0,0,0-1.992-1.2,1.929,1.929,0,0,0-1.656.82A4.128,4.128,0,0,0,96.269,12.867Z" transform="translate(733.967 1604.77)" fill="#fff"/>
    <path id="Trazado_1000011" data-name="Trazado 1000011" d="M32.2,12.4H29.531V17H28.023V5.625h3.766a4.457,4.457,0,0,1,2.957.875,3.148,3.148,0,0,1,1.035,2.547,3.062,3.062,0,0,1-.574,1.852,3.428,3.428,0,0,1-1.6,1.18l2.672,4.828V17H34.672Zm-2.672-1.227h2.3a2.6,2.6,0,0,0,1.777-.579,1.959,1.959,0,0,0,.66-1.55,2.062,2.062,0,0,0-.629-1.62,2.663,2.663,0,0,0-1.816-.571h-2.3Zm11.633,5.984a3.693,3.693,0,0,1-2.8-1.129,4.19,4.19,0,0,1-1.078-3.02v-.266a5.073,5.073,0,0,1,.48-2.246,3.748,3.748,0,0,1,1.344-1.547,3.378,3.378,0,0,1,1.871-.559,3.166,3.166,0,0,1,2.563,1.086,4.7,4.7,0,0,1,.914,3.109v.6H38.734a3,3,0,0,0,.73,2.02,2.3,2.3,0,0,0,1.777.77,2.517,2.517,0,0,0,1.3-.312,3.259,3.259,0,0,0,.93-.828l.883.688A3.55,3.55,0,0,1,41.164,17.156Zm-.18-7.578a1.928,1.928,0,0,0-1.469.637A3.1,3.1,0,0,0,38.781,12h4.234v-.109a2.753,2.753,0,0,0-.594-1.707A1.815,1.815,0,0,0,40.984,9.578ZM47.7,17H46.258V5H47.7Zm5.82.156a3.693,3.693,0,0,1-2.8-1.129,4.19,4.19,0,0,1-1.078-3.02v-.266a5.073,5.073,0,0,1,.48-2.246,3.748,3.748,0,0,1,1.344-1.547,3.378,3.378,0,0,1,1.871-.559,3.166,3.166,0,0,1,2.563,1.086,4.7,4.7,0,0,1,.914,3.109v.6H51.094a3,3,0,0,0,.73,2.02,2.3,2.3,0,0,0,1.777.77,2.517,2.517,0,0,0,1.3-.312,3.259,3.259,0,0,0,.93-.828l.883.688A3.55,3.55,0,0,1,53.523,17.156Zm-.18-7.578a1.928,1.928,0,0,0-1.469.637A3.1,3.1,0,0,0,51.14,12h4.234v-.109a2.753,2.753,0,0,0-.594-1.707A1.815,1.815,0,0,0,53.344,9.578Zm7.836,5.461,2.094-6.492H64.75L61.719,17h-1.1L57.555,8.547h1.477ZM71.242,17a3.036,3.036,0,0,1-.2-.891,3.225,3.225,0,0,1-2.406,1.047,2.984,2.984,0,0,1-2.051-.707,2.288,2.288,0,0,1-.8-1.793,2.39,2.39,0,0,1,1-2.051,4.733,4.733,0,0,1,2.824-.73h1.406v-.664A1.623,1.623,0,0,0,70.562,10a1.821,1.821,0,0,0-1.336-.449,2.108,2.108,0,0,0-1.3.391,1.151,1.151,0,0,0-.523.945H65.953A2,2,0,0,1,66.4,9.668a3.066,3.066,0,0,1,1.219-.934,4.1,4.1,0,0,1,1.691-.344,3.342,3.342,0,0,1,2.289.73,2.635,2.635,0,0,1,.859,2.012v3.891a4.757,4.757,0,0,0,.3,1.852V17Zm-2.4-1.1a2.54,2.54,0,0,0,1.289-.352,2.127,2.127,0,0,0,.883-.914V12.9H69.883q-2.656,0-2.656,1.555a1.316,1.316,0,0,0,.453,1.063A1.742,1.742,0,0,0,68.844,15.9Zm7.25-7.352.047,1.063a3.08,3.08,0,0,1,2.531-1.219q2.68,0,2.7,3.023V17H79.93V11.406a1.946,1.946,0,0,0-.418-1.352,1.675,1.675,0,0,0-1.277-.437A2.086,2.086,0,0,0,77,9.992a2.546,2.546,0,0,0-.828.984V17H74.726V8.547Zm10.852,7.43a2.082,2.082,0,0,0,1.352-.469,1.649,1.649,0,0,0,.641-1.172H90.3a2.621,2.621,0,0,1-.5,1.383,3.293,3.293,0,0,1-1.23,1.047,3.55,3.55,0,0,1-1.629.391A3.482,3.482,0,0,1,84.2,16a4.59,4.59,0,0,1-1.02-3.152v-.242a5.089,5.089,0,0,1,.453-2.2,3.451,3.451,0,0,1,1.3-1.492,3.7,3.7,0,0,1,2-.531,3.39,3.39,0,0,1,2.363.852,3.043,3.043,0,0,1,1,2.211H88.937a1.992,1.992,0,0,0-.621-1.348,1.932,1.932,0,0,0-1.379-.527,2.023,2.023,0,0,0-1.707.793,3.724,3.724,0,0,0-.605,2.293v.273a3.65,3.65,0,0,0,.6,2.25A2.033,2.033,0,0,0,86.945,15.977ZM93.5,17H92.055V8.547H93.5ZM91.937,6.3a.863.863,0,0,1,.215-.594.807.807,0,0,1,.637-.242.819.819,0,0,1,.641.242.854.854,0,0,1,.219.594.826.826,0,0,1-.219.586.834.834,0,0,1-.641.234.821.821,0,0,1-.637-.234A.834.834,0,0,1,91.937,6.3ZM101.031,17a3.036,3.036,0,0,1-.2-.891,3.225,3.225,0,0,1-2.406,1.047,2.984,2.984,0,0,1-2.051-.707,2.288,2.288,0,0,1-.8-1.793,2.39,2.39,0,0,1,1-2.051,4.733,4.733,0,0,1,2.824-.73H100.8v-.664A1.623,1.623,0,0,0,100.351,10a1.821,1.821,0,0,0-1.336-.449,2.108,2.108,0,0,0-1.3.391,1.151,1.151,0,0,0-.523.945H95.742a2,2,0,0,1,.449-1.223,3.066,3.066,0,0,1,1.219-.934A4.1,4.1,0,0,1,99.1,8.391a3.342,3.342,0,0,1,2.289.73,2.635,2.635,0,0,1,.859,2.012v3.891a4.757,4.757,0,0,0,.3,1.852V17Zm-2.4-1.1a2.54,2.54,0,0,0,1.289-.352,2.127,2.127,0,0,0,.883-.914V12.9H99.672q-2.656,0-2.656,1.555a1.316,1.316,0,0,0,.453,1.063A1.742,1.742,0,0,0,98.633,15.9Z" transform="translate(1024.001 1748.217)" fill="#fff"/>
    <path id="Trazado_1000009" data-name="Trazado 1000009" d="M33.433,12.547V17h-1.5V5.625h4.2a4.215,4.215,0,0,1,2.926.953A3.231,3.231,0,0,1,40.113,9.1a3.189,3.189,0,0,1-1.035,2.551,4.4,4.4,0,0,1-2.965.895Zm0-1.227h2.7a2.7,2.7,0,0,0,1.844-.567,2.075,2.075,0,0,0,.641-1.64,2.143,2.143,0,0,0-.641-1.628,2.525,2.525,0,0,0-1.758-.634H33.433ZM45.887,9.844a4.331,4.331,0,0,0-.711-.055A1.9,1.9,0,0,0,43.246,11v6H41.8V8.547h1.406l.023.977a2.251,2.251,0,0,1,2.016-1.133,1.477,1.477,0,0,1,.641.109Zm.789,2.852a4.993,4.993,0,0,1,.488-2.234A3.643,3.643,0,0,1,48.523,8.93a3.7,3.7,0,0,1,1.988-.539,3.565,3.565,0,0,1,2.793,1.2,4.6,4.6,0,0,1,1.066,3.18v.1a5.036,5.036,0,0,1-.473,2.215,3.589,3.589,0,0,1-1.352,1.527,3.743,3.743,0,0,1-2.02.547,3.556,3.556,0,0,1-2.785-1.2A4.575,4.575,0,0,1,46.676,12.8Zm1.453.172a3.616,3.616,0,0,0,.652,2.258,2.211,2.211,0,0,0,3.5-.012,3.955,3.955,0,0,0,.648-2.418,3.61,3.61,0,0,0-.66-2.254,2.1,2.1,0,0,0-1.754-.863,2.075,2.075,0,0,0-1.727.852A3.925,3.925,0,0,0,48.129,12.867Zm15.2,0a5.062,5.062,0,0,1-.883,3.109,2.829,2.829,0,0,1-2.391,1.18,3.1,3.1,0,0,1-2.422-.977v4.07H56.183V8.547H57.5l.07.938a2.977,2.977,0,0,1,2.453-1.094,2.882,2.882,0,0,1,2.41,1.148,5.117,5.117,0,0,1,.887,3.2ZM61.879,12.7a3.735,3.735,0,0,0-.609-2.258A1.963,1.963,0,0,0,59.6,9.617a2.125,2.125,0,0,0-1.969,1.164V14.82a2.129,2.129,0,0,0,1.984,1.156,1.954,1.954,0,0,0,1.652-.824A4.077,4.077,0,0,0,61.879,12.7Zm2.9-.008a4.993,4.993,0,0,1,.488-2.234A3.643,3.643,0,0,1,66.625,8.93a3.7,3.7,0,0,1,1.988-.539,3.565,3.565,0,0,1,2.793,1.2,4.6,4.6,0,0,1,1.066,3.18v.1A5.036,5.036,0,0,1,72,15.082a3.589,3.589,0,0,1-1.352,1.527,3.743,3.743,0,0,1-2.02.547,3.556,3.556,0,0,1-2.785-1.2A4.575,4.575,0,0,1,64.777,12.8Zm1.453.172a3.616,3.616,0,0,0,.652,2.258,2.211,2.211,0,0,0,3.5-.012,3.955,3.955,0,0,0,.648-2.418,3.61,3.61,0,0,0-.66-2.254,2.1,2.1,0,0,0-1.754-.863,2.075,2.075,0,0,0-1.727.852A3.925,3.925,0,0,0,66.23,12.867ZM69.269,5h1.75L68.926,7.3l-1.164,0Zm9.938,9.758a1.064,1.064,0,0,0-.441-.91,4.249,4.249,0,0,0-1.539-.559,7.277,7.277,0,0,1-1.742-.562,2.479,2.479,0,0,1-.953-.781,1.869,1.869,0,0,1-.309-1.078A2.193,2.193,0,0,1,75.1,9.109a3.432,3.432,0,0,1,2.246-.719,3.532,3.532,0,0,1,2.332.742,2.357,2.357,0,0,1,.895,1.9H79.121a1.3,1.3,0,0,0-.5-1.023,1.888,1.888,0,0,0-1.27-.43,1.976,1.976,0,0,0-1.234.344,1.082,1.082,0,0,0-.445.9.877.877,0,0,0,.414.789,5.1,5.1,0,0,0,1.5.508,7.8,7.8,0,0,1,1.754.578,2.558,2.558,0,0,1,1,.809,1.988,1.988,0,0,1,.324,1.152,2.163,2.163,0,0,1-.906,1.816,3.8,3.8,0,0,1-2.352.684,4.257,4.257,0,0,1-1.8-.359,2.922,2.922,0,0,1-1.223-1,2.42,2.42,0,0,1-.441-1.395h1.445a1.5,1.5,0,0,0,.582,1.152,2.258,2.258,0,0,0,1.434.426,2.331,2.331,0,0,0,1.316-.332A1.02,1.02,0,0,0,79.207,14.758ZM84.105,17H82.66V8.547h1.445ZM82.543,6.3a.863.863,0,0,1,.215-.594.807.807,0,0,1,.637-.242.819.819,0,0,1,.641.242.854.854,0,0,1,.219.594.826.826,0,0,1-.219.586.834.834,0,0,1-.641.234.821.821,0,0,1-.637-.234A.834.834,0,0,1,82.543,6.3Zm5.836.2V8.547h1.578V9.664H88.379v5.249a1.173,1.173,0,0,0,.211.763.888.888,0,0,0,.719.254A3.5,3.5,0,0,0,90,15.836V17a4.215,4.215,0,0,1-1.109.155,1.8,1.8,0,0,1-1.461-.586,2.517,2.517,0,0,1-.492-1.664V9.664H85.394V8.547h1.539V6.5Zm2.727,6.2a4.993,4.993,0,0,1,.488-2.234A3.643,3.643,0,0,1,92.953,8.93a3.7,3.7,0,0,1,1.988-.539,3.565,3.565,0,0,1,2.793,1.2,4.6,4.6,0,0,1,1.066,3.18v.1a5.036,5.036,0,0,1-.473,2.215,3.589,3.589,0,0,1-1.352,1.527,3.743,3.743,0,0,1-2.02.547,3.556,3.556,0,0,1-2.785-1.2A4.575,4.575,0,0,1,91.105,12.8Zm1.453.172a3.616,3.616,0,0,0,.652,2.258,2.211,2.211,0,0,0,3.5-.012,3.955,3.955,0,0,0,.648-2.418,3.61,3.61,0,0,0-.66-2.254,2.1,2.1,0,0,0-1.754-.863,2.075,2.075,0,0,0-1.727.852A3.925,3.925,0,0,0,92.558,12.867Z" transform="translate(445.933 1748.217)" fill="#fff"/>
    <path id="Trazado_1000006" data-name="Trazado 1000006" d="M37.961,14.023H33.2L32.125,17H30.578L34.922,5.625h1.313L40.586,17H39.047ZM33.648,12.8h3.867l-1.937-5.32Zm13.375,3.367a3.07,3.07,0,0,1-2.477.992,2.628,2.628,0,0,1-2.059-.785,3.4,3.4,0,0,1-.715-2.324v-5.5h1.445v5.461q0,1.922,1.563,1.922a2.163,2.163,0,0,0,2.2-1.234V8.547H48.43V17H47.055ZM52.586,6.5V8.547h1.578V9.664H52.586v5.249a1.173,1.173,0,0,0,.211.763.888.888,0,0,0,.719.254,3.5,3.5,0,0,0,.688-.094V17a4.215,4.215,0,0,1-1.109.155,1.8,1.8,0,0,1-1.461-.586,2.517,2.517,0,0,1-.492-1.664V9.664H49.6V8.547H51.14V6.5Zm2.727,6.2a4.993,4.993,0,0,1,.488-2.234A3.643,3.643,0,0,1,57.16,8.93a3.7,3.7,0,0,1,1.988-.539,3.565,3.565,0,0,1,2.793,1.2,4.6,4.6,0,0,1,1.066,3.18v.1a5.036,5.036,0,0,1-.473,2.215,3.589,3.589,0,0,1-1.352,1.527,3.743,3.743,0,0,1-2.02.547,3.556,3.556,0,0,1-2.785-1.2A4.575,4.575,0,0,1,55.312,12.8Zm1.453.172a3.616,3.616,0,0,0,.652,2.258,2.211,2.211,0,0,0,3.5-.012,3.955,3.955,0,0,0,.648-2.418,3.61,3.61,0,0,0-.66-2.254,2.1,2.1,0,0,0-1.754-.863,2.075,2.075,0,0,0-1.727.852A3.925,3.925,0,0,0,56.765,12.867ZM68.906,9.844a4.331,4.331,0,0,0-.711-.055A1.9,1.9,0,0,0,66.265,11v6H64.82V8.547h1.406l.023.977a2.251,2.251,0,0,1,2.016-1.133,1.477,1.477,0,0,1,.641.109ZM71.8,17H70.359V8.547H71.8ZM70.242,6.3a.863.863,0,0,1,.215-.594.807.807,0,0,1,.637-.242.819.819,0,0,1,.641.242.854.854,0,0,1,.219.594.826.826,0,0,1-.219.586.834.834,0,0,1-.641.234.821.821,0,0,1-.637-.234A.834.834,0,0,1,70.242,6.3Zm3.523,6.4a4.952,4.952,0,0,1,.922-3.129,3.137,3.137,0,0,1,4.766-.168V5H80.9V17H79.57l-.07-.906a2.943,2.943,0,0,1-2.414,1.063,2.887,2.887,0,0,1-2.395-1.2,5.008,5.008,0,0,1-.926-3.141Zm1.445.164a3.749,3.749,0,0,0,.594,2.25,1.92,1.92,0,0,0,1.641.813A2.108,2.108,0,0,0,79.453,14.7V10.813a2.125,2.125,0,0,0-1.992-1.2,1.929,1.929,0,0,0-1.656.82A4.128,4.128,0,0,0,75.211,12.867ZM88.359,17a3.036,3.036,0,0,1-.2-.891,3.225,3.225,0,0,1-2.406,1.047,2.984,2.984,0,0,1-2.051-.707,2.288,2.288,0,0,1-.8-1.793,2.39,2.39,0,0,1,1-2.051,4.733,4.733,0,0,1,2.824-.73h1.406v-.664A1.623,1.623,0,0,0,87.68,10a1.821,1.821,0,0,0-1.336-.449,2.108,2.108,0,0,0-1.3.391,1.151,1.151,0,0,0-.523.945H83.07a2,2,0,0,1,.449-1.223,3.066,3.066,0,0,1,1.219-.934,4.1,4.1,0,0,1,1.691-.344,3.342,3.342,0,0,1,2.289.73,2.635,2.635,0,0,1,.859,2.012v3.891a4.757,4.757,0,0,0,.3,1.852V17Zm-2.4-1.1a2.54,2.54,0,0,0,1.289-.352,2.127,2.127,0,0,0,.883-.914V12.9H87q-2.656,0-2.656,1.555a1.316,1.316,0,0,0,.453,1.063A1.742,1.742,0,0,0,85.961,15.9Zm5.531-3.2a4.952,4.952,0,0,1,.922-3.129,3.137,3.137,0,0,1,4.766-.168V5h1.445V17H97.3l-.07-.906a2.943,2.943,0,0,1-2.414,1.063,2.887,2.887,0,0,1-2.395-1.2,5.008,5.008,0,0,1-.926-3.141Zm1.445.164a3.749,3.749,0,0,0,.594,2.25,1.92,1.92,0,0,0,1.641.813A2.108,2.108,0,0,0,97.18,14.7V10.813a2.125,2.125,0,0,0-1.992-1.2,1.929,1.929,0,0,0-1.656.82A4.128,4.128,0,0,0,92.937,12.867Z" transform="translate(1092.001 1886.11)" fill="#fff"/>
    <path id="Trazado_1000008" data-name="Trazado 1000008" d="M34.418,15.008l3.25-9.383h1.641L35.09,17H33.762L29.551,5.625h1.633Zm9.7,2.148a3.693,3.693,0,0,1-2.8-1.129,4.19,4.19,0,0,1-1.078-3.02v-.266a5.073,5.073,0,0,1,.48-2.246,3.748,3.748,0,0,1,1.344-1.547,3.378,3.378,0,0,1,1.871-.559A3.166,3.166,0,0,1,46.5,9.477a4.7,4.7,0,0,1,.914,3.109v.6H41.683a3,3,0,0,0,.73,2.02,2.3,2.3,0,0,0,1.777.77,2.517,2.517,0,0,0,1.3-.312,3.259,3.259,0,0,0,.93-.828l.883.688A3.55,3.55,0,0,1,44.113,17.156Zm-.18-7.578a1.928,1.928,0,0,0-1.469.637A3.1,3.1,0,0,0,41.73,12h4.234v-.109a2.753,2.753,0,0,0-.594-1.707A1.815,1.815,0,0,0,43.933,9.578Zm9.234.266a4.331,4.331,0,0,0-.711-.055A1.9,1.9,0,0,0,50.527,11v6H49.082V8.547h1.406l.023.977a2.251,2.251,0,0,1,2.016-1.133,1.477,1.477,0,0,1,.641.109ZM59.4,17a3.036,3.036,0,0,1-.2-.891,3.225,3.225,0,0,1-2.406,1.047,2.984,2.984,0,0,1-2.051-.707,2.287,2.287,0,0,1-.8-1.793,2.39,2.39,0,0,1,1-2.051,4.733,4.733,0,0,1,2.824-.73h1.406v-.664A1.623,1.623,0,0,0,58.722,10a1.821,1.821,0,0,0-1.336-.449,2.107,2.107,0,0,0-1.3.391,1.151,1.151,0,0,0-.523.945H54.113a2,2,0,0,1,.449-1.223,3.066,3.066,0,0,1,1.219-.934,4.1,4.1,0,0,1,1.691-.344,3.342,3.342,0,0,1,2.289.73,2.635,2.635,0,0,1,.859,2.012v3.891a4.757,4.757,0,0,0,.3,1.852V17ZM57,15.9a2.54,2.54,0,0,0,1.289-.352,2.127,2.127,0,0,0,.883-.914V12.9H58.043q-2.656,0-2.656,1.555a1.316,1.316,0,0,0,.453,1.063A1.742,1.742,0,0,0,57,15.9Zm9.273.078a2.082,2.082,0,0,0,1.352-.469,1.649,1.649,0,0,0,.641-1.172h1.367a2.621,2.621,0,0,1-.5,1.383,3.293,3.293,0,0,1-1.23,1.047,3.55,3.55,0,0,1-1.629.391A3.482,3.482,0,0,1,63.531,16a4.59,4.59,0,0,1-1.02-3.152v-.242a5.089,5.089,0,0,1,.453-2.2,3.451,3.451,0,0,1,1.3-1.492,3.7,3.7,0,0,1,2-.531,3.39,3.39,0,0,1,2.363.852,3.043,3.043,0,0,1,1,2.211H68.269a1.992,1.992,0,0,0-.621-1.348,1.932,1.932,0,0,0-1.379-.527,2.023,2.023,0,0,0-1.707.793,3.724,3.724,0,0,0-.605,2.293v.273a3.65,3.65,0,0,0,.6,2.25A2.033,2.033,0,0,0,66.277,15.977ZM72.832,17H71.387V8.547h1.445ZM71.269,6.3a.863.863,0,0,1,.215-.594.807.807,0,0,1,.637-.242.819.819,0,0,1,.641.242.854.854,0,0,1,.219.594.826.826,0,0,1-.219.586.834.834,0,0,1-.641.234.821.821,0,0,1-.637-.234A.834.834,0,0,1,71.269,6.3Zm3.523,6.4a4.952,4.952,0,0,1,.922-3.129,3.137,3.137,0,0,1,4.766-.168V5h1.445V17H80.6l-.07-.906a2.943,2.943,0,0,1-2.414,1.063,2.887,2.887,0,0,1-2.395-1.2,5.008,5.008,0,0,1-.926-3.141Zm1.445.164a3.749,3.749,0,0,0,.594,2.25,1.92,1.92,0,0,0,1.641.813A2.108,2.108,0,0,0,80.48,14.7V10.813a2.125,2.125,0,0,0-1.992-1.2,1.929,1.929,0,0,0-1.656.82A4.128,4.128,0,0,0,76.238,12.867ZM89.387,17a3.036,3.036,0,0,1-.2-.891,3.225,3.225,0,0,1-2.406,1.047,2.984,2.984,0,0,1-2.051-.707,2.288,2.288,0,0,1-.8-1.793,2.39,2.39,0,0,1,1-2.051,4.733,4.733,0,0,1,2.824-.73H89.16v-.664A1.623,1.623,0,0,0,88.707,10a1.821,1.821,0,0,0-1.336-.449,2.108,2.108,0,0,0-1.3.391,1.151,1.151,0,0,0-.523.945H84.1a2,2,0,0,1,.449-1.223,3.066,3.066,0,0,1,1.219-.934,4.1,4.1,0,0,1,1.691-.344,3.342,3.342,0,0,1,2.289.73,2.635,2.635,0,0,1,.859,2.012v3.891a4.757,4.757,0,0,0,.3,1.852V17Zm-2.4-1.1a2.54,2.54,0,0,0,1.289-.352,2.127,2.127,0,0,0,.883-.914V12.9H88.027q-2.656,0-2.656,1.555a1.316,1.316,0,0,0,.453,1.063A1.742,1.742,0,0,0,86.988,15.9Zm5.531-3.2a4.952,4.952,0,0,1,.922-3.129,3.137,3.137,0,0,1,4.766-.168V5h1.445V17H98.324l-.07-.906a2.943,2.943,0,0,1-2.414,1.063,2.887,2.887,0,0,1-2.395-1.2,5.008,5.008,0,0,1-.926-3.141Zm1.445.164a3.749,3.749,0,0,0,.594,2.25,1.92,1.92,0,0,0,1.641.813A2.108,2.108,0,0,0,98.207,14.7V10.813a2.125,2.125,0,0,0-1.992-1.2,1.929,1.929,0,0,0-1.656.82A4.128,4.128,0,0,0,93.965,12.867Z" transform="translate(376.934 1886.11)" fill="#fff"/>
    <path id="Trazado_999013" data-name="Trazado 999013" d="M451.321,321a1.086,1.086,0,0,1-.352-.06,1.065,1.065,0,0,1-.653-1.356A212.968,212.968,0,0,0,462.351,248.8c0-117.753-95.8-213.552-213.552-213.552S35.248,131.047,35.248,248.8a212.94,212.94,0,0,0,12.035,70.784,1.064,1.064,0,0,1-2.008.705A215.12,215.12,0,0,1,33.12,248.8c0-118.926,96.753-215.679,215.679-215.679s215.68,96.753,215.68,215.679a215.169,215.169,0,0,1-12.154,71.491,1.065,1.065,0,0,1-1,.712" transform="translate(551.917 1669.709)" fill="#674a11"/>
    <path id="Trazado_999014" data-name="Trazado 999014" d="M269.408,194.337a4,4,0,1,1-2.467-5.088,4,4,0,0,1,2.467,5.088" transform="translate(737.627 1796.413)" fill="#674a11"/>
    <path id="Trazado_999015" data-name="Trazado 999015" d="M38.383,194.337a4,4,0,1,0,2.467-5.088,4,4,0,0,0-2.467,5.088" transform="translate(556.014 1796.413)" fill="#674a11"/>
    <path id="Trazado_999016" data-name="Trazado 999016" d="M240.6,61.1A61.1,61.1,0,1,1,179.5,0a61.1,61.1,0,0,1,61.1,61.1" transform="translate(621.22 1642.791)" fill="#fff"/>
    <path id="Trazado_999017" data-name="Trazado 999017" d="M220.608,54.914a47.3,47.3,0,1,1-47.3-47.3,47.3,47.3,0,0,1,47.3,47.3" transform="translate(627.407 1648.979)" fill="#ffd54e"/>
    <path id="Trazado_999018" data-name="Trazado 999018" d="M122.2,167.7a61.1,61.1,0,1,1-61.1-61.1,61.1,61.1,0,0,1,61.1,61.1" transform="translate(525 1729.423)" fill="#fff"/>
    <path id="Trazado_999019" data-name="Trazado 999019" d="M102.212,161.512a47.3,47.3,0,1,1-47.3-47.3,47.3,47.3,0,0,1,47.3,47.3" transform="translate(531.187 1735.61)" fill="#ffd54e"/>
    <path id="Trazado_999020" data-name="Trazado 999020" d="M357.446,167.7a61.1,61.1,0,1,1-61.1-61.1,61.1,61.1,0,0,1,61.1,61.1" transform="translate(716.182 1729.423)" fill="#fff"/>
    <path id="Trazado_999021" data-name="Trazado 999021" d="M337.456,161.512a47.3,47.3,0,1,1-47.3-47.3,47.3,47.3,0,0,1,47.3,47.3" transform="translate(722.37 1735.61)" fill="#ffd54e"/>
    <path id="Trazado_999022" data-name="Trazado 999022" d="M160.438,91.488a61.1,61.1,0,1,1-61.1-61.1,61.1,61.1,0,0,1,61.1,61.1" transform="translate(556.075 1667.486)" fill="#fff"/>
    <path id="Trazado_999023" data-name="Trazado 999023" d="M140.45,85.3A47.3,47.3,0,1,1,93.15,38a47.3,47.3,0,0,1,47.3,47.3" transform="translate(562.263 1673.674)" fill="#8dcdc1"/>
    <path id="Trazado_999024" data-name="Trazado 999024" d="M320.054,91.628a61.1,61.1,0,1,1-61.1-61.1,61.1,61.1,0,0,1,61.1,61.1" transform="translate(685.795 1667.601)" fill="#fff"/>
    <path id="Trazado_999025" data-name="Trazado 999025" d="M300.066,85.441a47.3,47.3,0,1,1-47.3-47.3,47.3,47.3,0,0,1,47.3,47.3" transform="translate(691.983 1673.787)" fill="#8dcdc1"/>
    <rect id="Rectángulo_455647" data-name="Rectángulo 455647" width="154.068" height="68" rx="17" transform="translate(722 1885)" fill="#12263f"/>
    <path id="Trazado_1000007" data-name="Trazado 1000007" d="M22.258,11.406l.656-5.781h6.375V7.508H24.766l-.281,2.445a3.58,3.58,0,0,1,1.711-.43,3.279,3.279,0,0,1,2.547,1.008,4.026,4.026,0,0,1,.922,2.82,4.124,4.124,0,0,1-.465,1.973,3.281,3.281,0,0,1-1.332,1.352,4.158,4.158,0,0,1-2.047.48,4.416,4.416,0,0,1-1.914-.418,3.4,3.4,0,0,1-1.395-1.176,3.2,3.2,0,0,1-.543-1.727H24.2a1.669,1.669,0,0,0,.5,1.105,1.573,1.573,0,0,0,1.113.395,1.388,1.388,0,0,0,1.18-.551,2.551,2.551,0,0,0,.414-1.559,2.11,2.11,0,0,0-.477-1.484,1.749,1.749,0,0,0-1.352-.516,1.954,1.954,0,0,0-1.3.422l-.219.2Zm20.531,1.445A5.07,5.07,0,0,1,41.9,15.98a2.843,2.843,0,0,1-2.395,1.176,2.633,2.633,0,0,1-2.07-.891V20.25H35.18V8.547h2.094l.078.828a2.654,2.654,0,0,1,2.141-.984,2.862,2.862,0,0,1,2.43,1.156,5.207,5.207,0,0,1,.867,3.188Zm-2.258-.164a3.327,3.327,0,0,0-.418-1.82,1.361,1.361,0,0,0-1.215-.641,1.479,1.479,0,0,0-1.461.813V14.5a1.5,1.5,0,0,0,1.477.836Q40.531,15.336,40.531,12.688ZM46.57,17H44.3V8.547H46.57Zm-2.4-10.641a1.112,1.112,0,0,1,.34-.836,1.465,1.465,0,0,1,1.848,0,1.105,1.105,0,0,1,.344.836,1.108,1.108,0,0,1-.348.844,1.448,1.448,0,0,1-1.836,0A1.108,1.108,0,0,1,44.172,6.359ZM50.812,17H48.547V5h2.266Zm6.758,0a2.507,2.507,0,0,1-.227-.758,2.732,2.732,0,0,1-2.133.914,3,3,0,0,1-2.059-.719,2.312,2.312,0,0,1-.816-1.812,2.389,2.389,0,0,1,1-2.062,4.915,4.915,0,0,1,2.879-.727H57.25v-.484a1.393,1.393,0,0,0-.3-.937A1.183,1.183,0,0,0,56,10.063a1.345,1.345,0,0,0-.895.273.929.929,0,0,0-.324.75H52.523a2.268,2.268,0,0,1,.453-1.359,3,3,0,0,1,1.281-.98,4.669,4.669,0,0,1,1.859-.355,3.689,3.689,0,0,1,2.48.785,2.747,2.747,0,0,1,.918,2.207v3.664a4.041,4.041,0,0,0,.336,1.82V17ZM55.7,15.43a1.945,1.945,0,0,0,.922-.223,1.462,1.462,0,0,0,.625-.6V13.156h-.844q-1.7,0-1.8,1.172l-.008.133a.9.9,0,0,0,.3.7A1.153,1.153,0,0,0,55.7,15.43ZM66,10.664a6.134,6.134,0,0,0-.812-.062,1.654,1.654,0,0,0-1.68.867V17H61.25V8.547h2.133l.063,1.008a2.092,2.092,0,0,1,1.883-1.164,2.366,2.366,0,0,1,.7.1Zm4.977,6.492a4.15,4.15,0,0,1-3.027-1.141,4.054,4.054,0,0,1-1.168-3.039v-.219a5.106,5.106,0,0,1,.492-2.277,3.612,3.612,0,0,1,1.395-1.547,3.914,3.914,0,0,1,2.059-.543,3.508,3.508,0,0,1,2.73,1.094,4.444,4.444,0,0,1,1,3.1v.922H69.07a2.1,2.1,0,0,0,.66,1.328,2,2,0,0,0,1.395.5,2.437,2.437,0,0,0,2.039-.945l1.109,1.242A3.389,3.389,0,0,1,72.9,16.754,4.511,4.511,0,0,1,70.976,17.156Zm-.258-6.945a1.411,1.411,0,0,0-1.09.455,2.357,2.357,0,0,0-.535,1.3h3.141v-.181a1.681,1.681,0,0,0-.406-1.165A1.456,1.456,0,0,0,70.719,10.211Zm9.594,4.453a.727.727,0,0,0-.41-.652,4.659,4.659,0,0,0-1.316-.426q-3.016-.633-3.016-2.562A2.323,2.323,0,0,1,76.5,9.145a3.766,3.766,0,0,1,2.441-.754,4.053,4.053,0,0,1,2.574.758,2.388,2.388,0,0,1,.965,1.969H80.226a1.092,1.092,0,0,0-.312-.8A1.322,1.322,0,0,0,78.937,10a1.351,1.351,0,0,0-.883.258.814.814,0,0,0-.312.656.7.7,0,0,0,.355.605,3.657,3.657,0,0,0,1.2.4,9.8,9.8,0,0,1,1.422.379,2.336,2.336,0,0,1,1.789,2.273,2.2,2.2,0,0,1-.992,1.871,4.28,4.28,0,0,1-2.562.715,4.47,4.47,0,0,1-1.887-.379,3.166,3.166,0,0,1-1.293-1.039,2.414,2.414,0,0,1-.469-1.426h2.141a1.179,1.179,0,0,0,.445.922,1.766,1.766,0,0,0,1.109.32,1.635,1.635,0,0,0,.98-.246A.766.766,0,0,0,80.312,14.664Zm7.281-1.953a5.094,5.094,0,0,1,.887-3.148,2.877,2.877,0,0,1,2.426-1.172,2.589,2.589,0,0,1,2.039.922V5h2.266V17H93.172l-.109-.9a2.657,2.657,0,0,1-2.172,1.055A2.869,2.869,0,0,1,88.5,15.98,5.258,5.258,0,0,1,87.594,12.711Zm2.258.168a3.337,3.337,0,0,0,.414,1.823,1.349,1.349,0,0,0,1.2.634,1.511,1.511,0,0,0,1.477-.884V11.111a1.489,1.489,0,0,0-1.461-.884Q89.851,10.227,89.851,12.879Zm11,4.277a4.15,4.15,0,0,1-3.027-1.141,4.054,4.054,0,0,1-1.168-3.039v-.219a5.106,5.106,0,0,1,.492-2.277,3.612,3.612,0,0,1,1.395-1.547,3.914,3.914,0,0,1,2.059-.543,3.508,3.508,0,0,1,2.73,1.094,4.444,4.444,0,0,1,1,3.1v.922H98.945a2.1,2.1,0,0,0,.66,1.328,2,2,0,0,0,1.395.5,2.437,2.437,0,0,0,2.039-.945l1.109,1.242a3.389,3.389,0,0,1-1.375,1.121A4.511,4.511,0,0,1,100.851,17.156Zm-.258-6.945a1.411,1.411,0,0,0-1.09.455,2.357,2.357,0,0,0-.535,1.3h3.141v-.181a1.681,1.681,0,0,0-.406-1.165A1.456,1.456,0,0,0,100.594,10.211Zm7.4,6.789h-2.266V5h2.266ZM43.183,41a2.507,2.507,0,0,1-.227-.758,2.732,2.732,0,0,1-2.133.914,3,3,0,0,1-2.059-.719,2.312,2.312,0,0,1-.816-1.812,2.389,2.389,0,0,1,1-2.062,4.915,4.915,0,0,1,2.879-.727h1.039v-.484a1.393,1.393,0,0,0-.3-.937,1.183,1.183,0,0,0-.949-.352,1.345,1.345,0,0,0-.895.273.929.929,0,0,0-.324.75H38.137a2.268,2.268,0,0,1,.453-1.359,3,3,0,0,1,1.281-.98,4.669,4.669,0,0,1,1.859-.355,3.689,3.689,0,0,1,2.48.785,2.747,2.747,0,0,1,.918,2.207v3.664a4.041,4.041,0,0,0,.336,1.82V41Zm-1.867-1.57a1.945,1.945,0,0,0,.922-.223,1.462,1.462,0,0,0,.625-.6V37.156h-.844q-1.7,0-1.8,1.172l-.008.133a.9.9,0,0,0,.3.7A1.153,1.153,0,0,0,41.316,39.43Zm7.625-6.883.07.977a2.951,2.951,0,0,1,2.43-1.133,2.453,2.453,0,0,1,2,.789,3.682,3.682,0,0,1,.672,2.359V41H51.855V35.594a1.465,1.465,0,0,0-.312-1.043,1.4,1.4,0,0,0-1.039-.324,1.553,1.553,0,0,0-1.43.813V41H46.816V32.547ZM60.723,41a2.507,2.507,0,0,1-.227-.758,2.732,2.732,0,0,1-2.133.914,3,3,0,0,1-2.059-.719,2.312,2.312,0,0,1-.816-1.812,2.389,2.389,0,0,1,1-2.062,4.915,4.915,0,0,1,2.879-.727H60.4v-.484a1.393,1.393,0,0,0-.3-.937,1.183,1.183,0,0,0-.949-.352,1.345,1.345,0,0,0-.895.273.929.929,0,0,0-.324.75H55.676a2.268,2.268,0,0,1,.453-1.359,3,3,0,0,1,1.281-.98,4.669,4.669,0,0,1,1.859-.355,3.689,3.689,0,0,1,2.48.785,2.747,2.747,0,0,1,.918,2.207v3.664A4.041,4.041,0,0,0,63,40.867V41Zm-1.867-1.57a1.945,1.945,0,0,0,.922-.223,1.462,1.462,0,0,0,.625-.6V37.156h-.844q-1.7,0-1.8,1.172l-.008.133a.9.9,0,0,0,.3.7A1.153,1.153,0,0,0,58.855,39.43ZM59.715,29h2.461l-2.164,2.422H58.176Zm7.07,12H64.519V29h2.266Zm4.242,0H68.762V32.547h2.266Zm-2.4-10.641a1.112,1.112,0,0,1,.34-.836,1.465,1.465,0,0,1,1.848,0,1.193,1.193,0,0,1,0,1.68,1.448,1.448,0,0,1-1.836,0A1.108,1.108,0,0,1,68.629,30.359Zm8.836,8.3a.727.727,0,0,0-.41-.652,4.659,4.659,0,0,0-1.316-.426q-3.016-.633-3.016-2.562a2.323,2.323,0,0,1,.934-1.879,3.766,3.766,0,0,1,2.441-.754,4.053,4.053,0,0,1,2.574.758,2.388,2.388,0,0,1,.965,1.969H77.379a1.092,1.092,0,0,0-.312-.8A1.322,1.322,0,0,0,76.09,34a1.351,1.351,0,0,0-.883.258.814.814,0,0,0-.312.656.7.7,0,0,0,.355.605,3.657,3.657,0,0,0,1.2.4,9.8,9.8,0,0,1,1.422.379A2.336,2.336,0,0,1,79.66,38.57a2.2,2.2,0,0,1-.992,1.871,4.28,4.28,0,0,1-2.562.715,4.47,4.47,0,0,1-1.887-.379,3.166,3.166,0,0,1-1.293-1.039,2.414,2.414,0,0,1-.469-1.426H74.6a1.179,1.179,0,0,0,.445.922,1.766,1.766,0,0,0,1.109.32,1.635,1.635,0,0,0,.98-.246A.766.766,0,0,0,77.465,38.664ZM83.5,41H81.23V32.547H83.5ZM81.1,30.359a1.112,1.112,0,0,1,.34-.836,1.465,1.465,0,0,1,1.848,0,1.193,1.193,0,0,1,0,1.68,1.448,1.448,0,0,1-1.836,0A1.108,1.108,0,0,1,81.1,30.359Zm8.836,8.3a.727.727,0,0,0-.41-.652,4.659,4.659,0,0,0-1.316-.426q-3.016-.633-3.016-2.562a2.323,2.323,0,0,1,.934-1.879,3.766,3.766,0,0,1,2.441-.754,4.053,4.053,0,0,1,2.574.758,2.388,2.388,0,0,1,.965,1.969H89.848a1.092,1.092,0,0,0-.312-.8A1.322,1.322,0,0,0,88.558,34a1.351,1.351,0,0,0-.883.258.814.814,0,0,0-.312.656.7.7,0,0,0,.355.605,3.657,3.657,0,0,0,1.2.4,9.8,9.8,0,0,1,1.422.379,2.336,2.336,0,0,1,1.789,2.273,2.2,2.2,0,0,1-.992,1.871,4.28,4.28,0,0,1-2.562.715,4.47,4.47,0,0,1-1.887-.379,3.166,3.166,0,0,1-1.293-1.039,2.414,2.414,0,0,1-.469-1.426h2.141a1.179,1.179,0,0,0,.445.922,1.766,1.766,0,0,0,1.109.32,1.635,1.635,0,0,0,.98-.246A.766.766,0,0,0,89.933,38.664Z" transform="translate(734 1897)" fill="#fff"/>
    <g id="Elipse_13710" data-name="Elipse 13710" transform="translate(756 1806)" fill="#fff" stroke="#12263f" stroke-width="7">
      <circle cx="43.5" cy="43.5" r="43.5" stroke="none"/>
      <circle cx="43.5" cy="43.5" r="40" fill="none"/>
    </g>
    <g id="Grupo_1190922" data-name="Grupo 1190922" transform="translate(777.216 1824.106)">
      <rect id="Rectángulo_455590" data-name="Rectángulo 455590" width="11.383" height="2.757" transform="translate(16.698 25.633)" fill="#12263f"/>
      <g id="Grupo_1190862" data-name="Grupo 1190862">
        <g id="Grupo_1190861" data-name="Grupo 1190861" clip-path="url(#clip-path)">
          <path id="Trazado_998986" data-name="Trazado 998986" d="M138.747,221.1l-4.79.025a1.575,1.575,0,0,1-1.6-1.285,6.407,6.407,0,0,1,0-1.548l7.809,0c.2,1.071,0,2.8-1.423,2.811" transform="translate(-113.799 -187.744)" fill="#12263f"/>
          <path id="Trazado_998987" data-name="Trazado 998987" d="M98.143,23.467l-11.366.016a5.971,5.971,0,0,0-1.725-3.889,13.231,13.231,0,0,1-3.439-6.917,10.976,10.976,0,1,1,21.7-.116A13.426,13.426,0,0,1,99.868,19.6a5.936,5.936,0,0,0-1.725,3.871m1.016-11.952a1.05,1.05,0,0,0,1.175,1.039,1.073,1.073,0,0,0,.956-1.079,8.611,8.611,0,0,0-6.4-9.008,1.092,1.092,0,0,0-1.443.69,1.1,1.1,0,0,0,.862,1.385,6.525,6.525,0,0,1,4.851,6.973" transform="translate(-70.067 0.001)" fill="#12263f"/>
          <path id="Trazado_998988" data-name="Trazado 998988" d="M51.468,120.331c.2.184.112.772.1,1.04a3.752,3.752,0,0,0,3.373,4.047l1.564.043-.012,7.707-15.576-6.512v-22.13l4.722,1.945a17.022,17.022,0,0,0,3.059,4.606,3.64,3.64,0,0,1,1.048,2.325l.022,4.612a2.7,2.7,0,0,0,1.7,2.317" transform="translate(-35.188 -89.9)" fill="#12263f"/>
          <path id="Trazado_998989" data-name="Trazado 998989" d="M169.373,125.472c2.7-.309,3.614-2.616,3.4-5.152a2.66,2.66,0,0,0,1.636-2.383l.015-4.485a3.508,3.508,0,0,1,1.044-2.32,17.469,17.469,0,0,0,3.06-4.61l4.717-1.934.012,22.106-15.581,6.532-.028-7.67a11.4,11.4,0,0,1,1.72-.085" transform="translate(-144.195 -89.954)" fill="#12263f"/>
          <path id="Trazado_998990" data-name="Trazado 998990" d="M4.328,153.239,19.181,159.5,0,159.541l.009-26.117,3.537,0,.014,18.783a1.054,1.054,0,0,0,.767,1.031" transform="translate(0 -114.755)" fill="#12263f"/>
          <path id="Trazado_998991" data-name="Trazado 998991" d="M183.01,159.495l14.907-6.271a1.1,1.1,0,0,0,.71-1.044l.009-18.754h3.542l.009,26.118Z" transform="translate(-157.403 -114.756)" fill="#12263f"/>
        </g>
      </g>
    </g>
    <g id="Grupo_1190930" data-name="Grupo 1190930" transform="translate(777.825 1678.953)">
      <g id="Grupo_1190929" data-name="Grupo 1190929" clip-path="url(#clip-path-2)">
        <path id="Trazado_999026" data-name="Trazado 999026" d="M29.044,119.519c.817,4.487,3.713,8.717,6.624,12.282l-27.478.013a7.96,7.96,0,0,1-7.98-7.988l0-23.854,44.569,0-.011,7.416a11.161,11.161,0,0,0-15.721,12.129m-14.525-8.412a1.581,1.581,0,1,0-1.581,1.581,1.581,1.581,0,0,0,1.581-1.581m9.551,0a1.581,1.581,0,1,0-1.581,1.581,1.581,1.581,0,0,0,1.581-1.581m-9.551,9.551a1.581,1.581,0,1,0-1.581,1.581,1.581,1.581,0,0,0,1.581-1.581m9.551,0a1.581,1.581,0,1,0-1.581,1.581,1.581,1.581,0,0,0,1.581-1.581" transform="translate(-0.173 -84.059)" fill="#12263f"/>
        <path id="Trazado_999027" data-name="Trazado 999027" d="M208.18,182.2c-3.241-3.3-6.855-8.14-7.791-12.563a7.964,7.964,0,1,1,15.547,0,17.509,17.509,0,0,1-2.049,5.125,39.887,39.887,0,0,1-5.708,7.439m3.161-14.3a3.176,3.176,0,1,0-3.176,3.176,3.176,3.176,0,0,0,3.176-3.176" transform="translate(-168.339 -134.478)" fill="#12263f"/>
        <path id="Trazado_999028" data-name="Trazado 999028" d="M53.378,3.173H50.194l0-1.6a1.587,1.587,0,0,1,3.174,0Z" transform="translate(-42.204 -0.001)" fill="#12263f"/>
        <path id="Trazado_999029" data-name="Trazado 999029" d="M213.378,3.172h-3.184l.006-1.6a1.587,1.587,0,0,1,3.174,0Z" transform="translate(-176.735 -0.001)" fill="#12263f"/>
        <path id="Trazado_999030" data-name="Trazado 999030" d="M7.99,19.925,8,23.118a1.585,1.585,0,0,0,3.17,0l.006-3.192H33.459l.007,3.192a1.585,1.585,0,0,0,3.17,0l.007-3.193A7.938,7.938,0,0,1,44.6,27.713a14.2,14.2,0,0,1-.024,1.772H.088c-.7-5.2,2.826-9.477,7.9-9.562" transform="translate(0 -16.753)" fill="#12263f"/>
      </g>
    </g>
    <g id="Grupo_1190932" data-name="Grupo 1190932" transform="translate(920.052 1733.594)">
      <g id="Grupo_1190931" data-name="Grupo 1190931" clip-path="url(#clip-path-3)">
        <path id="Trazado_999031" data-name="Trazado 999031" d="M34.295,37.214a14.876,14.876,0,1,0-19.137.053c1.032.883,1.135,2.543,1.008,3.713-.478-.093-.821-.369-1.174-.116L9.715,44.642l-4.96-4.95,3.721-5.183a.848.848,0,0,0,.057-.9,18.265,18.265,0,0,1-1.55-3.735.9.9,0,0,0-.8-.654L0,28.2l.007-7,6.136-1.009a.9.9,0,0,0,.835-.655A18.1,18.1,0,0,1,8.5,15.851.925.925,0,0,0,8.422,14.8l-3.664-5.1L9.695,4.752l5.025,3.6a.959.959,0,0,0,1.054.192A18.435,18.435,0,0,1,19.52,6.987a.893.893,0,0,0,.635-.652L21.188,0,28.21,0l1.029,6.335a.885.885,0,0,0,.636.653A17.3,17.3,0,0,1,33.4,8.437a.981.981,0,0,0,1.1.048l5.2-3.727L44.63,9.668,40.91,14.913a.791.791,0,0,0-.068.827,18.107,18.107,0,0,1,1.531,3.678,1.05,1.05,0,0,0,1.014.8l6,.979.007,7-6.312,1.044a.829.829,0,0,0-.668.621A18.11,18.11,0,0,1,40.866,33.6a.853.853,0,0,0,.054.9L44.64,39.69,39.7,44.649l-5.3-3.787c-.35-.25-.7.027-1.174.119a4.332,4.332,0,0,1,1.066-3.768" transform="translate(-0.001)" fill="#12263f"/>
        <path id="Trazado_999032" data-name="Trazado 999032" d="M164.073,94.932c-1.876-1.2.141-3.313-1.542-3.316l-3.717-.006a18.674,18.674,0,0,1,0-2.884,3.511,3.511,0,0,0,3.609-3.435,3.441,3.441,0,0,0-3.586-3.51,27.647,27.647,0,0,1-.023-3.936,13.4,13.4,0,0,1,12.6,13.735l-3.626.037c-1.692.017.225,1.871-1.387,3.181a2.018,2.018,0,0,1-2.328.134" transform="translate(-133.338 -65.38)" fill="#12263f"/>
        <path id="Trazado_999033" data-name="Trazado 999033" d="M83.359,87.722l-.033,3.849a26.132,26.132,0,0,1-2.883.018,3.479,3.479,0,1,0-6.953.013l-2.787.023A13.383,13.383,0,0,1,83.294,77.847l.046,4.789c.016,1.641,2.038-.254,3.254,1.418a2.055,2.055,0,0,1,.087,2.234c-1.121,1.847-3.309-.008-3.322,1.434" transform="translate(-59.375 -65.382)" fill="#12263f"/>
        <path id="Trazado_999034" data-name="Trazado 999034" d="M84.057,167.745l-6.257.012-.038-2.1a5.055,5.055,0,0,0-1.805-3.639,13.358,13.358,0,0,1-4.4-8.133l3.624-.064c1.443-.025-.344-2.033,1.311-3.244a2.019,2.019,0,0,1,2.367-.009c1.39,1,.391,2.382.82,3.014.357.526,3.53.082,4.372.312l-.034,2.838a3.486,3.486,0,1,0,.012,6.967Z" transform="translate(-60.101 -126.137)" fill="#12263f"/>
        <path id="Trazado_999035" data-name="Trazado 999035" d="M146.041,186.827l-6.248.007-.026-4.948a.762.762,0,0,0-.358-.65c-.537-.365-1.846.658-2.9-.768a2.033,2.033,0,0,1-.082-2.225c1.206-1.926,3.315.116,3.334-1.561l.043-3.741a21.561,21.561,0,0,1,2.86.013,3.478,3.478,0,1,0,6.951,0,16.317,16.317,0,0,1,2.645,0,13.155,13.155,0,0,1-4.306,8.057,5.146,5.146,0,0,0-1.886,3.725Z" transform="translate(-114.338 -145.213)" fill="#12263f"/>
        <path id="Trazado_999036" data-name="Trazado 999036" d="M122.15,271.806l-9.5-.006a2.285,2.285,0,0,1-2.188-2.817l13.906-.011a2.257,2.257,0,0,1-2.221,2.834" transform="translate(-92.737 -225.903)" fill="#12263f"/>
        <path id="Trazado_999037" data-name="Trazado 999037" d="M132.454,295.8a5.306,5.306,0,0,1-10.236,0Z" transform="translate(-102.648 -248.437)" fill="#12263f"/>
      </g>
    </g>
    <g id="Grupo_1190934" data-name="Grupo 1190934" transform="translate(986.511 1871.477)">
      <g id="Grupo_1190933" data-name="Grupo 1190933" clip-path="url(#clip-path-4)">
        <path id="Trazado_999038" data-name="Trazado 999038" d="M45.567,49.847l-10.1-9.825c-.732-.712-.3-1.753.2-2.424l-5.5-5.437a19.882,19.882,0,0,1-2.8,1.912,12.71,12.71,0,0,0-1.907-2.6,15.038,15.038,0,1,0-14.4-.015A11.851,11.851,0,0,0,9.19,34.108a18.26,18.26,0,1,1,24.064-5.4L38.9,34.235c.766-.561,1.776-1.008,2.6-.211L51.5,43.746a1.685,1.685,0,0,1,.021,2.438l-3.494,3.6a1.69,1.69,0,0,1-2.458.064" transform="translate(0 -0.001)" fill="#12263f"/>
        <path id="Trazado_999039" data-name="Trazado 999039" d="M51.645,51.027a9.961,9.961,0,0,0-19.408.033,13.3,13.3,0,1,1,19.408-.033M46.927,37.235a5,5,0,1,0-5,5,5,5,0,0,0,5-5" transform="translate(-23.666 -23.694)" fill="#12263f"/>
        <path id="Trazado_999040" data-name="Trazado 999040" d="M73.714,182.564a8.388,8.388,0,1,1-8.388-8.388,8.388,8.388,0,0,1,8.388,8.388M63.333,185.92a1.225,1.225,0,0,0,1.758.031l4.989-5.044a1.244,1.244,0,0,0-.038-1.729,1.216,1.216,0,0,0-1.692-.019l-4.111,4.1c-1.053-.728-2.372-3.175-3.671-1.785a1.259,1.259,0,0,0,.108,1.8Z" transform="translate(-47.061 -143.962)" fill="#12263f"/>
      </g>
    </g>
    <g id="Grupo_1190936" data-name="Grupo 1190936" transform="translate(562.774 1870.437)">
      <g id="Grupo_1190935" data-name="Grupo 1190935" clip-path="url(#clip-path-5)">
        <path id="Trazado_999041" data-name="Trazado 999041" d="M202.725,17.583l-6.921-.022a1.721,1.721,0,0,1-1.719-1.711l-.019-6.771A8.6,8.6,0,0,0,193,5.021a8.063,8.063,0,0,1,2.993,1.988l8.81,8.821a7.618,7.618,0,0,1,1.811,2.789,8.734,8.734,0,0,0-3.888-1.037" transform="translate(-160.805 -4.183)" fill="#12263f"/>
        <path id="Trazado_999042" data-name="Trazado 999042" d="M113.524,21.4l-.013,13.79a4.8,4.8,0,0,1-4.82,4.765l-23.636-.011a4.862,4.862,0,0,1-4.794-4.976l.01-30.089A4.861,4.861,0,0,1,85.182,0l7.032.009A4.767,4.767,0,0,1,97,4.658l.067,7.367a4.678,4.678,0,0,0,4.628,4.471l7.2.047a4.778,4.778,0,0,1,4.634,4.858M90.6,27.576l3.359,5.038a1.5,1.5,0,0,0,1.33.627,1.462,1.462,0,0,0,1.207-.63l6.727-10.1a1.555,1.555,0,0,0-2.578-1.74l-5.4,8.069-2.123-3.1A1.558,1.558,0,0,0,90.6,27.576" transform="translate(-66.872 0)" fill="#12263f"/>
        <path id="Trazado_999043" data-name="Trazado 999043" d="M73.171,77.566a4.816,4.816,0,0,1-4.6,3.532l-23.5.01A4.9,4.9,0,0,1,40.1,76.123l.011-30.16a4.8,4.8,0,0,1,3.546-4.623l.017,28.107a8.029,8.029,0,0,0,8.073,8.093Z" transform="translate(-33.412 -34.445)" fill="#12263f"/>
        <path id="Trazado_999044" data-name="Trazado 999044" d="M33.017,117.8a4.777,4.777,0,0,1-4.7,3.55L4.815,121.34a4.793,4.793,0,0,1-4.794-4.675L0,86.17A4.783,4.783,0,0,1,3.524,81.6l.054,28.293a8.017,8.017,0,0,0,7.784,7.9Z" transform="translate(0 -67.984)" fill="#12263f"/>
      </g>
    </g>
    <g id="Grupo_1190938" data-name="Grupo 1190938" transform="translate(625.456 1729.561)">
      <g id="Grupo_1190937" data-name="Grupo 1190937" clip-path="url(#clip-path-6)">
        <path id="Trazado_999045" data-name="Trazado 999045" d="M42.186,11.314A22.236,22.236,0,1,0,48.2,17.329a14.758,14.758,0,0,1,2.44.559l4.219-4.158a29.765,29.765,0,1,1-9.041-9.052L41.689,8.834Z" transform="translate(0 0)" fill="#12263f"/>
        <path id="Trazado_999046" data-name="Trazado 999046" d="M58.137,78.666,61.5,82.091,63.9,79.783a13.224,13.224,0,0,0,3.748,1.551l.048,3.3,4.8.056.063-3.323a15.584,15.584,0,0,0,3.776-1.586,27.8,27.8,0,0,0,2.453,2.282L82.1,78.7l-2.3-2.375a13.982,13.982,0,0,0,1.552-3.752l3.35-.089,0-4.754-3.283-.022-.838-2.367,6.266-6.263a20.028,20.028,0,1,1-5.7-5.708l-6.21,6.244-2.38-.792-.06-3.3h-4.76l-.06,3.316A15.243,15.243,0,0,0,63.9,60.43l-2.391-2.3L58.132,61.5l2.3,2.39a15.283,15.283,0,0,0-1.6,3.819l-3.307.021v4.757l3.316.061a15.189,15.189,0,0,0,1.594,3.775Z" transform="translate(-40.341 -40.337)" fill="#12263f"/>
        <path id="Trazado_999047" data-name="Trazado 999047" d="M186.846,27.513a24.342,24.342,0,0,1-2.679-.667l-11.8,11.779a8.284,8.284,0,0,0-2.574-2.579L181.518,24.3l-.637-2.689,6.4-6.428a.751.751,0,0,1,.692-.142.659.659,0,0,1,.423.5l.971,3.513,3.5.96a.654.654,0,0,1,.5.42.742.742,0,0,1-.141.691Z" transform="translate(-136.772 -12.097)" fill="#12263f"/>
        <path id="Trazado_999048" data-name="Trazado 999048" d="M124.475,124.546a1.81,1.81,0,0,0,2.509,2.6l4.584-4.51a6.578,6.578,0,1,1-2.626-2.63Z" transform="translate(-96.022 -96.019)" fill="#12263f"/>
      </g>
    </g>
  </g>
</svg>
