<svg xmlns="http://www.w3.org/2000/svg" xmlns:xlink="http://www.w3.org/1999/xlink" width="327" height="401" viewBox="0 0 327 401">
  <defs>
    <clipPath id="clip-path">
      <rect id="Rectángulo_378415" data-name="Rectángulo 378415" width="327" height="401" rx="20" transform="translate(-24522.496 -5724)" fill="#ffedb1"/>
    </clipPath>
    <clipPath id="clip-path-2">
      <rect id="Rectángulo_378459" data-name="Rectángulo 378459" width="327" height="401" rx="20" transform="translate(284.668 5976)" fill="#ffdc6b"/>
    </clipPath>
  </defs>
  <g id="Grupo_1190716" data-name="Grupo 1190716" transform="translate(-284.668 -5976)">
    <g id="Enmascarar_grupo_1073331" data-name="Enmascarar grupo 1073331" transform="translate(24807.164 11700)" clip-path="url(#clip-path)">
      <g id="Grupo_1177688" data-name="Grupo 1177688" transform="translate(-24536.242 -5786.591)">
        <path id="Trazado_997730" data-name="Trazado 997730" d="M0,0H350.92V475.85H0Z" transform="translate(0 0.001)" fill="#ffdc6b"/>
        <path id="Trazado_997701" data-name="Trazado 997701" d="M43.609,0l54.24,15.222L93.4,0Z" transform="translate(106.001 0)" fill="#efbd41"/>
        <path id="Trazado_997702" data-name="Trazado 997702" d="M0,96.948,22.163,61.265,0,59.776Z" transform="translate(0 145.301)" fill="#ffd962"/>
        <path id="Trazado_997703" data-name="Trazado 997703" d="M86.9,40.047l44.929,48.5V35.789Z" transform="translate(211.242 86.995)" fill="#efbd41"/>
        <path id="Trazado_997704" data-name="Trazado 997704" d="M86.9,45l44.929-4.258V33.751Z" transform="translate(211.242 82.041)" fill="#eab43b"/>
        <path id="Trazado_997705" data-name="Trazado 997705" d="M65.571,0,28.783,151.731l60.11-36.284L67.163,0Z" transform="translate(69.965 0)" fill="#efbd41"/>
        <path id="Trazado_997706" data-name="Trazado 997706" d="M166.591,73.793,72.747,21.906l-18.626,24.1Z" transform="translate(131.555 53.249)" fill="#ffd962"/>
        <path id="Trazado_997707" data-name="Trazado 997707" d="M109.269,122.2l22.564-7.03V85.534L86.9,37.03Z" transform="translate(211.241 90.011)" fill="#efc449"/>
        <path id="Trazado_997708" data-name="Trazado 997708" d="M93.423,66.836l22.564,23.01V59.807Z" transform="translate(227.087 145.376)" fill="#efbd41"/>
        <path id="Trazado_997709" data-name="Trazado 997709" d="M0,85.522l22.163,23.521L98.751,54.209,0,40.119Z" transform="translate(0 97.521)" fill="#ffd962"/>
        <path id="Trazado_997710" data-name="Trazado 997710" d="M0,75.386l22.163,1.489L0,53.354Z" transform="translate(0 129.691)" fill="#efc449"/>
        <path id="Trazado_997711" data-name="Trazado 997711" d="M75.4,0l39.481,127.044L103.939,0Z" transform="translate(183.268 0)" fill="#ffd962"/>
        <path id="Trazado_997712" data-name="Trazado 997712" d="M110.542,0,59.551,75.157l93.841,51.887L113.911,0Z" transform="translate(144.753 0)" fill="#f7cc52"/>
        <path id="Trazado_997713" data-name="Trazado 997713" d="M58.12,0l4.457,15.222L106.483,0Z" transform="translate(141.275 0)" fill="#ffd962"/>
        <path id="Trazado_997714" data-name="Trazado 997714" d="M198.628,122.2,176.263,37.03,50.142,108.507Z" transform="translate(121.882 90.013)" fill="#f7cc52"/>
        <path id="Trazado_997715" data-name="Trazado 997715" d="M176.266,56.714,63.8,28.932,50.141,128.191Z" transform="translate(121.881 70.328)" fill="#efbd41"/>
        <path id="Trazado_997716" data-name="Trazado 997716" d="M115.709,28.933,28.784,81.4l73.27,46.789Z" transform="translate(69.967 70.329)" fill="#ffd962"/>
        <path id="Trazado_997720" data-name="Trazado 997720" d="M83.716,0,94.653,127.044l44.929-31.35V30.478L102.009,0Z" transform="translate(203.493 0)" fill="#f7cc52"/>
        <path id="Trazado_997721" data-name="Trazado 997721" d="M89.048,0l37.574,30.479V0Z" transform="translate(216.453 0)" fill="#ffd962"/>
        <path id="Trazado_997722" data-name="Trazado 997722" d="M86.9,59.242l44.929-11.249v-20.1Z" transform="translate(211.242 67.8)" fill="#f7cc52"/>
        <path id="Trazado_997723" data-name="Trazado 997723" d="M113,0,58.018,52.435l5.259,22.722L114.269,0Z" transform="translate(141.027 0)" fill="#eab43b"/>
        <path id="Trazado_997724" data-name="Trazado 997724" d="M106.731,0,62.824,15.222,58.018,52.435,113,0Z" transform="translate(141.027 0)" fill="#f7cc52"/>
        <path id="Trazado_997725" data-name="Trazado 997725" d="M40.967,0l58.5,52.436,4.806-37.213L50.028,0Z" transform="translate(99.581 0)" fill="#ffd962"/>
        <path id="Trazado_997726" data-name="Trazado 997726" d="M73.122,62.11,46.3,78.3,86.488,15.284Z" transform="translate(112.554 37.151)" fill="#efbd41"/>
        <path id="Trazado_997727" data-name="Trazado 997727" d="M39.971,0,61.7,115.448l40.188-63.013L43.388,0Z" transform="translate(97.159 0)" fill="#f7cc52"/>
        <path id="Trazado_997728" data-name="Trazado 997728" d="M0,0V12.529l98.751,139.2L135.535,0Z" transform="translate(0 0)" fill="#ffd962"/>
        <path id="Trazado_997729" data-name="Trazado 997729" d="M0,128.761l98.751,14.094L0,3.652Z" transform="translate(0 8.878)" fill="#f7cc52"/>
      </g>
    </g>
  </g>
</svg>
