<svg id="Grupo_1191219" data-name="Grupo 1191219" xmlns="http://www.w3.org/2000/svg" xmlns:xlink="http://www.w3.org/1999/xlink" width="289.403" height="243.613" viewBox="0 0 289.403 243.613">
  <defs>
    <clipPath id="clip-path">
      <rect id="Rectángulo_455937" data-name="Rectángulo 455937" width="289.403" height="243.613" fill="none"/>
    </clipPath>
  </defs>
  <g id="Grupo_1191218" data-name="Grupo 1191218" clip-path="url(#clip-path)">
    <path id="Trazado_999534" data-name="Trazado 999534" d="M1.54,172.879A2.936,2.936,0,0,0,4,170.3s.32,2.42,2.352,2.367c-.107.161-2.192.268-2.3,2.363a2.13,2.13,0,0,0-2.512-2.149" transform="translate(-0.483 -53.407)" fill="#fff"/>
    <path id="Trazado_999535" data-name="Trazado 999535" d="M290.692,128.9c-.666-16.044-4.6-31.321-8.321-46.878C275.1,51.614,259.648,14.78,228.156,2.892a46.077,46.077,0,0,0-30.485-.583c-9.795,3.111-17.246,10.116-25.809,15.481-9.329,5.843-19.486,11.18-30.8,9.982-11.74-1.242-22.137-8.521-33.365-11.821C81.136,8.145,55.13,15.691,34.9,34.233,17.566,50.127,7.394,72.245,10.537,95.953a48.778,48.778,0,0,0,9.634,23.766c3.568,4.707,8.18,8.99,9.89,14.812,2.172,7.4.019,15.493-.89,22.917-1.018,8.311-1.937,16.705-.1,24.99,3.8,17.119,19.73,28.472,37,27.462,15.626-.913,29.96-8.436,44.023-14.836,9.3,7.25,18.634,13.644,30.778,17.059,20.282,5.7,40.778,5.048,61.618,3.355,20.867-1.7,43.111-9.425,61.026-20.246,11.943-7.215,23.882-17.563,27.723-31.531,2.984-10.857-.089-23.727-.549-34.8" transform="translate(-3.127 0)" fill="#ffedb1"/>
    <path id="Trazado_999536" data-name="Trazado 999536" d="M118.043,36.255s5.987-.86,6.556-6.878c0,0,.855,6.449,6.272,6.305-.286.431-5.845.717-6.129,6.305,0,0,.142-6.162-6.7-5.732" transform="translate(-37.019 -9.213)" fill="#fff"/>
    <path id="Trazado_999537" data-name="Trazado 999537" d="M130.091,52.745a3.822,3.822,0,0,0,3.2-3.361s.419,3.151,3.065,3.081c-.139.209-2.855.349-3,3.08a2.774,2.774,0,0,0-3.273-2.8" transform="translate(-40.798 -15.487)" fill="#fff"/>
    <path id="Trazado_999538" data-name="Trazado 999538" d="M114.54,57.878A2.935,2.935,0,0,0,117,55.3s.32,2.42,2.352,2.366c-.108.161-2.193.268-2.3,2.363a2.13,2.13,0,0,0-2.511-2.149" transform="translate(-35.921 -17.342)" fill="#fff"/>
    <path id="Trazado_999539" data-name="Trazado 999539" d="M56.043,201.256s5.987-.861,6.556-6.879c0,0,.855,6.449,6.272,6.305-.286.431-5.845.717-6.129,6.305,0,0,.142-6.162-6.7-5.731" transform="translate(-17.576 -60.959)" fill="#fff"/>
    <path id="Trazado_999540" data-name="Trazado 999540" d="M68.091,217.745a3.822,3.822,0,0,0,3.2-3.361s.419,3.15,3.065,3.081c-.139.209-2.855.349-3,3.08a2.774,2.774,0,0,0-3.273-2.8" transform="translate(-21.354 -67.233)" fill="#fff"/>
    <path id="Trazado_999541" data-name="Trazado 999541" d="M52.54,222.879A2.936,2.936,0,0,0,55,220.3s.32,2.42,2.352,2.367c-.108.161-2.193.268-2.3,2.363a2.13,2.13,0,0,0-2.512-2.149" transform="translate(-16.477 -69.088)" fill="#fff"/>
    <path id="Trazado_999542" data-name="Trazado 999542" d="M394.043,161.256s5.987-.861,6.557-6.879c0,0,.855,6.449,6.272,6.305-.286.43-5.845.716-6.129,6.305,0,0,.142-6.162-6.7-5.731" transform="translate(-123.576 -48.414)" fill="#fff"/>
    <path id="Trazado_999543" data-name="Trazado 999543" d="M396.092,183.745a3.822,3.822,0,0,0,3.2-3.361s.418,3.151,3.065,3.081c-.14.209-2.856.349-3,3.08a2.774,2.774,0,0,0-3.272-2.8" transform="translate(-124.218 -56.57)" fill="#fff"/>
    <path id="Trazado_999544" data-name="Trazado 999544" d="M389.54,205.879A2.936,2.936,0,0,0,392,203.3s.32,2.42,2.352,2.367c-.108.161-2.193.268-2.3,2.363a2.13,2.13,0,0,0-2.511-2.149" transform="translate(-122.164 -63.756)" fill="#fff"/>
    <path id="Trazado_999545" data-name="Trazado 999545" d="M404.54,238.879A2.936,2.936,0,0,0,407,236.3s.32,2.42,2.352,2.367c-.108.161-2.193.268-2.3,2.363a2.13,2.13,0,0,0-2.512-2.149" transform="translate(-126.868 -74.105)" fill="#fff"/>
    <path id="Trazado_999546" data-name="Trazado 999546" d="M54.54,74.879A2.936,2.936,0,0,0,57,72.3s.32,2.42,2.352,2.367c-.108.161-2.193.268-2.3,2.363a2.13,2.13,0,0,0-2.512-2.149" transform="translate(-17.104 -22.673)" fill="#fff"/>
    <path id="Trazado_999547" data-name="Trazado 999547" d="M59.036,250.014s4.488-.646,4.917-5.162c0,0,.64,4.84,4.7,4.733-.215.322-4.385.536-4.6,4.727,0,0,.106-4.62-5.023-4.3" transform="translate(-18.514 -76.788)" fill="#fff"/>
    <path id="Trazado_999548" data-name="Trazado 999548" d="M297.4,345.9c0,2.6-59.47,4.713-132.831,4.713S31.732,348.5,31.732,345.9s59.471-4.713,132.832-4.713S297.4,343.3,297.4,345.9" transform="translate(-9.951 -107)" fill="#ffedb1"/>
    <path id="Trazado_999549" data-name="Trazado 999549" d="M309.074,245.47c0,4.513-3.75,7.47-8.24,7.47H157.978c-4.49,0-8.146-2.957-8.146-7.47V56.515a8.119,8.119,0,0,1,8.146-8.119H300.834a8.2,8.2,0,0,1,8.24,8.119Z" transform="translate(-46.989 -15.177)" fill="#674a11"/>
    <rect id="Rectángulo_455931" data-name="Rectángulo 455931" width="174.689" height="135.472" transform="matrix(0.038, -0.999, 0.999, 0.038, 112.202, 225.516)" fill="#7d5d1c"/>
    <rect id="Rectángulo_455932" data-name="Rectángulo 455932" width="174.69" height="135.472" transform="translate(112.202 222.585) rotate(-87.831)" fill="#e6e6e6"/>
    <rect id="Rectángulo_455933" data-name="Rectángulo 455933" width="135.472" height="174.689" transform="matrix(0.997, -0.083, 0.083, 0.997, 107.776, 52.996)" fill="#e6e6e6"/>
    <rect id="Rectángulo_455934" data-name="Rectángulo 455934" width="135.905" height="173.657" transform="translate(116.571 45.574)" fill="#fff"/>
    <path id="Trazado_999550" data-name="Trazado 999550" d="M335.542,122.106h-24.71V97.4h24.71Zm-24.024-.686h23.337V98.082H311.518Z" transform="translate(-97.48 -30.544)" fill="#ab9f9f"/>
    <path id="Trazado_999551" data-name="Trazado 999551" d="M338.3,97.4c-1.816,2.191-3.509,4.474-5.124,6.7a146.893,146.893,0,0,0-10.106,15.934c-1.116-2.875-2.034-5.817-2.948-8.774a88.3,88.3,0,0,0-3-9.463q-1.271.64-2.516,1.322c.5,3.1,1.391,6.229,2.088,9.2a72.381,72.381,0,0,0,4.494,13.4c.642,1.414,2.816,1.123,3.457-.095a157.436,157.436,0,0,1,11.988-19.343c1.507-2.07,3.107-4.079,4.723-6.077-1.037-.917-2.066-1.842-3.055-2.8" transform="translate(-98.663 -30.545)" fill="#5a5858"/>
    <path id="Trazado_999552" data-name="Trazado 999552" d="M335.542,178.106h-24.71V153.4h24.71Zm-24.024-.686h23.337V154.082H311.518Z" transform="translate(-97.48 -48.107)" fill="#ab9f9f"/>
    <path id="Trazado_999553" data-name="Trazado 999553" d="M338.3,152.191c-1.816,2.19-3.509,4.473-5.124,6.694a146.885,146.885,0,0,0-10.106,15.933c-1.116-2.874-2.034-5.816-2.948-8.774a88.458,88.458,0,0,0-3-9.463q-1.271.641-2.516,1.323c.5,3.1,1.391,6.229,2.088,9.2a72.4,72.4,0,0,0,4.494,13.4c.642,1.413,2.816,1.123,3.457-.1a156.5,156.5,0,0,1,11.988-19.341c1.507-2.072,3.107-4.08,4.723-6.079-1.037-.917-2.066-1.842-3.055-2.8" transform="translate(-98.663 -47.729)" fill="#5a5858"/>
    <path id="Trazado_999554" data-name="Trazado 999554" d="M335.542,234.106h-24.71V209.4h24.71Zm-24.024-.686h23.337V210.082H311.518Z" transform="translate(-97.48 -65.669)" fill="#ab9f9f"/>
    <path id="Trazado_999555" data-name="Trazado 999555" d="M338.3,212.264c-1.816,2.19-3.509,4.473-5.124,6.694a146.884,146.884,0,0,0-10.106,15.933c-1.116-2.874-2.034-5.816-2.948-8.773a88.419,88.419,0,0,0-3-9.464q-1.271.641-2.516,1.323c.5,3.1,1.391,6.23,2.088,9.2a72.4,72.4,0,0,0,4.494,13.4c.642,1.413,2.816,1.123,3.457-.1a157.412,157.412,0,0,1,11.988-19.341c1.507-2.072,3.107-4.081,4.723-6.078-1.037-.918-2.066-1.842-3.055-2.8" transform="translate(-98.663 -66.568)" fill="#5a5858"/>
    <path id="Trazado_999556" data-name="Trazado 999556" d="M335.542,289.42h-24.71V265.4h24.71Zm-24.024-.686h23.337V266.082H311.518Z" transform="translate(-97.48 -83.231)" fill="#ab9f9f"/>
    <path id="Trazado_999557" data-name="Trazado 999557" d="M338.3,267.482c-1.816,2.19-3.509,4.473-5.124,6.694a146.952,146.952,0,0,0-10.106,15.933c-1.116-2.875-2.034-5.817-2.948-8.774a88.361,88.361,0,0,0-3-9.463q-1.271.641-2.516,1.323c.5,3.1,1.391,6.229,2.088,9.2a72.385,72.385,0,0,0,4.494,13.4c.642,1.414,2.816,1.124,3.457-.095a157.42,157.42,0,0,1,11.988-19.342c1.507-2.072,3.107-4.079,4.723-6.079-1.037-.917-2.066-1.842-3.055-2.8" transform="translate(-98.663 -83.885)" fill="#5a5858"/>
    <path id="Trazado_999558" data-name="Trazado 999558" d="M261.06,128.955H190.7a1.03,1.03,0,1,1,0-2.059H261.06a1.03,1.03,0,0,1,0,2.059" transform="translate(-59.484 -39.796)" fill="#ab9f9f"/>
    <path id="Trazado_999559" data-name="Trazado 999559" d="M248.361,120.788H190.7a1.03,1.03,0,1,1,0-2.059h57.657a1.03,1.03,0,0,1,0,2.059" transform="translate(-59.484 -37.235)" fill="#ab9f9f"/>
    <path id="Trazado_999560" data-name="Trazado 999560" d="M198.255,112.621H190.7a1.03,1.03,0,1,1,0-2.059h7.55a1.03,1.03,0,1,1,0,2.059" transform="translate(-59.484 -34.673)" fill="#ab9f9f"/>
    <path id="Trazado_999561" data-name="Trazado 999561" d="M261.057,112.621H208.2a1.03,1.03,0,1,1,0-2.059h52.852a1.03,1.03,0,0,1,0,2.059" transform="translate(-64.972 -34.673)" fill="#ab9f9f"/>
    <path id="Trazado_999562" data-name="Trazado 999562" d="M196.882,104.455H190.7a1.03,1.03,0,1,1,0-2.059h6.178a1.03,1.03,0,1,1,0,2.059" transform="translate(-59.484 -32.112)" fill="#ab9f9f"/>
    <path id="Trazado_999563" data-name="Trazado 999563" d="M212.882,104.455H206.7a1.03,1.03,0,1,1,0-2.059h6.178a1.03,1.03,0,1,1,0,2.059" transform="translate(-64.502 -32.112)" fill="#ab9f9f"/>
    <path id="Trazado_999564" data-name="Trazado 999564" d="M283.882,104.455H277.7a1.03,1.03,0,0,1,0-2.059h6.178a1.03,1.03,0,0,1,0,2.059" transform="translate(-86.768 -32.112)" fill="#ab9f9f"/>
    <path id="Trazado_999565" data-name="Trazado 999565" d="M257.465,104.455H225.2a1.03,1.03,0,1,1,0-2.059h32.26a1.03,1.03,0,1,1,0,2.059" transform="translate(-70.304 -32.112)" fill="#ab9f9f"/>
    <path id="Trazado_999566" data-name="Trazado 999566" d="M261.06,296.455H190.7a1.03,1.03,0,1,1,0-2.059H261.06a1.03,1.03,0,0,1,0,2.059" transform="translate(-59.484 -92.326)" fill="#ab9f9f"/>
    <path id="Trazado_999567" data-name="Trazado 999567" d="M248.361,288.289H190.7a1.03,1.03,0,1,1,0-2.059h57.657a1.03,1.03,0,1,1,0,2.059" transform="translate(-59.484 -89.765)" fill="#ab9f9f"/>
    <path id="Trazado_999568" data-name="Trazado 999568" d="M198.255,280.121H190.7a1.03,1.03,0,1,1,0-2.059h7.55a1.03,1.03,0,1,1,0,2.059" transform="translate(-59.484 -87.203)" fill="#ab9f9f"/>
    <path id="Trazado_999569" data-name="Trazado 999569" d="M261.057,280.121H208.2a1.03,1.03,0,1,1,0-2.059h52.852a1.03,1.03,0,0,1,0,2.059" transform="translate(-64.972 -87.203)" fill="#ab9f9f"/>
    <path id="Trazado_999570" data-name="Trazado 999570" d="M196.882,271.955H190.7a1.03,1.03,0,1,1,0-2.059h6.178a1.03,1.03,0,1,1,0,2.059" transform="translate(-59.484 -84.642)" fill="#ab9f9f"/>
    <path id="Trazado_999571" data-name="Trazado 999571" d="M212.882,271.955H206.7a1.03,1.03,0,1,1,0-2.059h6.178a1.03,1.03,0,1,1,0,2.059" transform="translate(-64.502 -84.642)" fill="#ab9f9f"/>
    <path id="Trazado_999572" data-name="Trazado 999572" d="M283.882,271.955H277.7a1.03,1.03,0,0,1,0-2.059h6.178a1.03,1.03,0,0,1,0,2.059" transform="translate(-86.768 -84.642)" fill="#ab9f9f"/>
    <path id="Trazado_999573" data-name="Trazado 999573" d="M257.465,271.955H225.2a1.03,1.03,0,1,1,0-2.059h32.26a1.03,1.03,0,1,1,0,2.059" transform="translate(-70.304 -84.642)" fill="#ab9f9f"/>
    <path id="Trazado_999574" data-name="Trazado 999574" d="M260.03,158.4H190.7a1.03,1.03,0,1,0,0,2.059H260.03a1.03,1.03,0,1,0,0-2.059" transform="translate(-59.484 -49.675)" fill="#ab9f9f"/>
    <path id="Trazado_999575" data-name="Trazado 999575" d="M190.7,168.955h32.6a1.03,1.03,0,1,0,0-2.059H190.7a1.03,1.03,0,1,0,0,2.059" transform="translate(-59.484 -52.34)" fill="#ab9f9f"/>
    <path id="Trazado_999576" data-name="Trazado 999576" d="M242.527,175.4H190.7a1.03,1.03,0,1,0,0,2.059h51.822a1.03,1.03,0,1,0,0-2.059" transform="translate(-59.484 -55.006)" fill="#ab9f9f"/>
    <path id="Trazado_999577" data-name="Trazado 999577" d="M198.382,237.9H192.2a1.03,1.03,0,1,0,0,2.059h6.178a1.03,1.03,0,0,0,0-2.059" transform="translate(-59.954 -74.607)" fill="#ab9f9f"/>
    <path id="Trazado_999578" data-name="Trazado 999578" d="M214.382,237.9H208.2a1.03,1.03,0,1,0,0,2.059h6.178a1.03,1.03,0,0,0,0-2.059" transform="translate(-64.972 -74.607)" fill="#ab9f9f"/>
    <path id="Trazado_999579" data-name="Trazado 999579" d="M285.382,237.9H279.2a1.03,1.03,0,0,0,0,2.059h6.178a1.03,1.03,0,0,0,0-2.059" transform="translate(-87.238 -74.607)" fill="#ab9f9f"/>
    <path id="Trazado_999580" data-name="Trazado 999580" d="M258.965,237.9H226.7a1.03,1.03,0,1,0,0,2.059h32.26a1.03,1.03,0,1,0,0-2.059" transform="translate(-70.774 -74.607)" fill="#ab9f9f"/>
    <path id="Trazado_999581" data-name="Trazado 999581" d="M190.7,216.455h61.089a1.03,1.03,0,0,0,0-2.059H190.7a1.03,1.03,0,1,0,0,2.059" transform="translate(-59.484 -67.237)" fill="#ab9f9f"/>
    <path id="Trazado_999582" data-name="Trazado 999582" d="M190.7,224.288h61.089a1.03,1.03,0,0,0,0-2.059H190.7a1.03,1.03,0,1,0,0,2.059" transform="translate(-59.484 -69.693)" fill="#ab9f9f"/>
    <path id="Trazado_999583" data-name="Trazado 999583" d="M251.793,232.122a1.03,1.03,0,0,0,0-2.059H190.7a1.03,1.03,0,1,0,0,2.059Z" transform="translate(-59.484 -72.15)" fill="#ab9f9f"/>
    <path id="Trazado_999584" data-name="Trazado 999584" d="M276.5,26.834c0-3.326-6.933-3.518-6.538-6.611.719-5.619-5.527-10.915-12.487-11.3V8.9c-.095,0-.189.008-.283.011s-.189-.01-.284-.011v.022c-6.961.383-13.206,5.679-12.488,11.3.4,3.094-6.537,3.286-6.537,6.611,0,9.664,8.448,17.534,19.025,17.915v.019c.1,0,.189-.008.284-.01s.188.008.283.01v-.019C268.055,44.368,276.5,36.5,276.5,26.834m-19.309-2.788a4.93,4.93,0,0,1-4.554-4.815,4.561,4.561,0,1,1,9.108,0,4.93,4.93,0,0,1-4.553,4.815" transform="translate(-74.603 -2.792)" fill="#a5a9b0"/>
    <rect id="Rectángulo_455935" data-name="Rectángulo 455935" width="89.917" height="26.769" transform="translate(137.849 26.355)" fill="#a5a9b0"/>
    <rect id="Rectángulo_455936" data-name="Rectángulo 455936" width="89.917" height="11.669" transform="translate(137.849 32.532)" fill="#bdc2c9"/>
    <path id="Trazado_999585" data-name="Trazado 999585" d="M123.971,131.638s25.166-5.735,30.085-15.175C161.6,101.99,152.14,100.4,152.14,100.4h-8.384s3.748,6.736-1.325,11.122c-3.044,2.632-12.073,4.55-19.228,4.55,0,0,1.1-.949.768,15.57" transform="translate(-38.638 -31.485)" fill="#355b72"/>
    <path id="Trazado_999586" data-name="Trazado 999586" d="M0,111.953l134.966-19.26L137.126,108,2.16,127.262Z" transform="translate(0 -29.069)" fill="#ffd54e"/>
    <path id="Trazado_999587" data-name="Trazado 999587" d="M217.2,97.248l-7.783,4.543-1.172.688L198.79,108l-2.157-15.309,10.577,2.336.73.161Z" transform="translate(-61.666 -29.069)" fill="#e6d9c2"/>
    <path id="Trazado_999588" data-name="Trazado 999588" d="M23.912,132.627l-2.161-15.31,5.076-.724,2.161,15.31Z" transform="translate(-6.821 -36.565)" fill="#fff"/>
    <path id="Trazado_999589" data-name="Trazado 999589" d="M0,119.76l15.227-2.173L17.389,132.9,2.16,135.069Z" transform="translate(0 -36.876)" fill="#7d5d1c"/>
    <path id="Trazado_999590" data-name="Trazado 999590" d="M222.362,98.389l-7.783,4.543-1.473-6.6Z" transform="translate(-66.832 -30.21)" fill="#5a5858"/>
    <path id="Trazado_999591" data-name="Trazado 999591" d="M118.646,335.053,119,324.811l3.672.127,2.98,11.771s-2.417,1.876-7-1.656" transform="translate(-37.209 -101.864)" fill="#8d725d"/>
    <path id="Trazado_999592" data-name="Trazado 999592" d="M134.245,348.3c-.318-.262-.671-.539-1.048-.824-3.077-2.317-7.777-5.13-7.777-5.13l-.161-.957a8.776,8.776,0,0,1-3.17-.03,10.871,10.871,0,0,1-3.833-1.625c-.137.836-.272,1.579-.394,2.441-.146,1.025-.272,1.889-.356,2.686-.119,1.143-.153,1.829-.03,1.92.5.38,19.671,3.926,16.77,1.52" transform="translate(-36.817 -106.544)" fill="#c7a13c"/>
    <path id="Trazado_999593" data-name="Trazado 999593" d="M117.475,349.075c.5.38,19.671,3.926,16.77,1.52-.318-.262-.671-.539-1.048-.824-2.285.105-7.015-.2-15.692-2.719a5.172,5.172,0,0,0-.03,2.023" transform="translate(-36.817 -108.839)" fill="#7d5d1c"/>
    <path id="Trazado_999594" data-name="Trazado 999594" d="M126.655,340.748a1.785,1.785,0,0,0,1.073.62.112.112,0,0,0-.056.133c.215.632,1.176.474,1.827.553a8.3,8.3,0,0,0-1.076.866.247.247,0,0,0,.106.408c.848.154,1.817-.294,2.484.272a.22.22,0,0,0-.041.351,2.714,2.714,0,0,0,1.665.568.152.152,0,0,0,.075-.281c-.325-.156-.685-.23-1.012-.375a.216.216,0,0,0-.017-.194c-.668-1.08-1.536-.748-2.52-.765a6.654,6.654,0,0,0,.988-.8.245.245,0,0,0-.049-.38,5.6,5.6,0,0,0-1.784-.276c1.65-.414,2.584-3.231,1.819-4.63-.483-.882-1.069-.524-1.44.239a11.166,11.166,0,0,0-.831,3.171,8.031,8.031,0,0,0-.266-2.139,4.709,4.709,0,0,0-.737-1.351c-.379-.461-1.126-.859-1.277.032a5.077,5.077,0,0,0,1.069,3.979m1.424.426a24.08,24.08,0,0,1,.679-3.256,3.216,3.216,0,0,1,.409-1.014c.483-.688.8.277.824.745.053,1.308-.455,3.22-1.912,3.525m-2.185-3.65c.008-.3.009-1.288.509-.75a3.7,3.7,0,0,1,.99,2.2,10.217,10.217,0,0,0,.246,2.007c-.555.1-1.439-1.746-1.49-1.915a4.969,4.969,0,0,1-.255-1.544" transform="translate(-39.364 -105.447)" fill="#7d5d1c"/>
    <path id="Trazado_999595" data-name="Trazado 999595" d="M74.746,336.322l2.179-10.452-3.546-.507-5.719,9.706s1.476,2.678,7.086,1.253" transform="translate(-21.219 -102.037)" fill="#8d725d"/>
    <path id="Trazado_999596" data-name="Trazado 999596" d="M51.441,342.288c.4-.115.83-.229,1.289-.342,3.743-.907,9.174-1.628,9.174-1.628l.527-.815a8.764,8.764,0,0,0,2.922,1.227,10.864,10.864,0,0,0,4.164.027c-.205.822-.375,1.558-.605,2.4-.272,1-.5,1.842-.737,2.6-.344,1.1-.584,1.741-.734,1.775-.612.15-19.616-4.188-16-5.247" transform="translate(-15.989 -106.472)" fill="#c7a13c"/>
    <path id="Trazado_999597" data-name="Trazado 999597" d="M67.44,348.651c-.613.15-19.616-4.189-16-5.247.4-.115.83-.229,1.288-.342,2.056,1,6.522,2.593,15.485,3.721a5.142,5.142,0,0,1-.774,1.869" transform="translate(-15.989 -107.587)" fill="#7d5d1c"/>
    <path id="Trazado_999598" data-name="Trazado 999598" d="M68.261,335.146c.213-.877-.629-.809-1.16-.533a4.674,4.674,0,0,0-1.212.947,8.039,8.039,0,0,0-1.091,1.858,11.134,11.134,0,0,0,.493-3.24c-.038-.847-.434-1.408-1.227-.791-1.257.982-1.516,3.94-.165,4.974a5.566,5.566,0,0,0-1.747-.454.245.245,0,0,0-.2.33,6.648,6.648,0,0,0,.591,1.127c-.911-.375-1.578-1.023-2.619-.3a.219.219,0,0,0-.092.171c-.358,0-.717-.071-1.078-.056a.152.152,0,0,0-.042.288,2.716,2.716,0,0,0,1.753.138.22.22,0,0,0,.1-.34c.837-.255,1.549.539,2.389.734.189.046.311-.173.259-.331a8.21,8.21,0,0,0-.645-1.222c.629.185,1.45.711,1.9.216a.111.111,0,0,0,0-.143,1.778,1.778,0,0,0,1.231-.144,5.073,5.073,0,0,0,2.558-3.23m-4.392-.938c.2-.421.88-1.181,1.051-.358a3.25,3.25,0,0,1-.026,1.093,23.962,23.962,0,0,1-.668,3.259c-1.215-.857-.925-2.814-.357-3.995m2.963,2.826c-.115.135-1.656,1.477-2.127,1.168a10.177,10.177,0,0,0,1.021-1.747,3.7,3.7,0,0,1,1.783-1.628c.672-.3.282.614.17.89a4.935,4.935,0,0,1-.846,1.317" transform="translate(-18.387 -104.471)" fill="#7d5d1c"/>
    <path id="Trazado_999599" data-name="Trazado 999599" d="M28.3,146.33a1.671,1.671,0,0,1-.773-1.953,1.624,1.624,0,0,1,1.3-1.063,1.656,1.656,0,0,1,.08-.715,1.986,1.986,0,0,1,2.334-1.117c-1.063-1.461-1.6-3.264-.357-4.9a.573.573,0,0,1,.979,0,2.186,2.186,0,0,1,.176,1.429,3.342,3.342,0,0,0,.294,1.947,17.151,17.151,0,0,0,2.146,2.933,17.825,17.825,0,0,1,2.056,3.564c.653,1.509,1.724,3.425.9,5.057-.073.977-1.19,1.588-2.338,1.528a6.435,6.435,0,0,1-3.928-1.871c-.181-.043-.359-.084-.532-.124-1.248-.284-2.8-.8-2.946-2.275a.624.624,0,0,1,.228-.537,1.825,1.825,0,0,1,.382-1.9" transform="translate(-8.606 -42.747)" fill="#e2ab93"/>
    <path id="Trazado_999600" data-name="Trazado 999600" d="M39.522,143.251c3.581,3.949,8.584,9.354,9.15,9.354.894,0,9.751-25.455,15.278-26.432s3.179,13.311,3.179,13.311S57.6,162.447,51.054,165.131c-4.8,1.968-12.909-8.666-17.565-15.8,1.848-2.808,4.061-3.371,6.033-6.075" transform="translate(-10.502 -39.554)" fill="#355b72"/>
    <path id="Trazado_999601" data-name="Trazado 999601" d="M82.412,197.2S74,273.738,70.459,290.452l6.837,3.039S81.6,290.706,93,220.307c.834-5.154,9.117,70.4,10.13,70.9s7.343.253,7.343.253-.838-82.658-4.978-94.381Z" transform="translate(-22.097 -61.808)" fill="#98acb2"/>
    <path id="Trazado_999602" data-name="Trazado 999602" d="M107.854,174.806c1.275-10.343,4.164-49.933,4.164-49.933-16.617-2.855-34.108.44-34.108.44-.186,5.242,5.7,40.946,6.626,50.307Z" transform="translate(-24.432 -38.796)" fill="#355b72"/>
    <path id="Trazado_999603" data-name="Trazado 999603" d="M100.772,124.456c-2.251,0-5.762-.5-5.762-2.164l.58-5.535.507-4.84c0-1.661,1.826-3.005,4.078-3.005a4.9,4.9,0,0,1,2.884.879,2.673,2.673,0,0,1,1.194,2.126l.5,4.847.48,4.648c.652,2.8-4.459,3.044-4.459,3.044" transform="translate(-29.796 -34.156)" fill="#de927d"/>
    <path id="Trazado_999604" data-name="Trazado 999604" d="M158.632,96.113a.355.355,0,0,0-.042-.023,3.384,3.384,0,0,0-1.06-.96,5.213,5.213,0,0,0-2.666-.669c-1.888-.005-4,1.249-3.812,3.374.115,1.3,1.207,2.316,2.1,3.134s2.4.439,3.242-.24c.981-.793,4.046-3.293,2.241-4.617" transform="translate(-47.368 -29.624)" fill="#ffc0a4"/>
    <path id="Trazado_999605" data-name="Trazado 999605" d="M149.273,98.937a1.405,1.405,0,0,0-1.047-.77.738.738,0,0,0-.124-.01.974.974,0,0,0-.743-.015,1.59,1.59,0,0,0-.885,1.26,1.683,1.683,0,0,0,2.245,1.638,1.573,1.573,0,0,0,.553-2.1" transform="translate(-45.931 -30.758)" fill="#ffc0a4"/>
    <path id="Trazado_999606" data-name="Trazado 999606" d="M109.731,68.175c-1.359-1.693-3.057-1.314-4.9-1.923-2.479-.815-3.025-2.772-4.615-4.621-5.349-6.226-13.949-.579-16.848,5.155-1.9,3.757-.995,7.693-.119,11.6.574,2.564.914,5.441,1.962,7.812l9.32,2.289c3.717.758,7.378-.514,10.5-2.453,4.932-3.06,8.912-12.617,4.7-17.862" transform="translate(-25.792 -18.475)" fill="#996032"/>
    <path id="Trazado_999607" data-name="Trazado 999607" d="M83.818,91.038s-3.242-5.506-4.587-.789,1.9,6.968,4.028,6.517.559-5.728.559-5.728" transform="translate(-24.749 -27.704)" fill="#e2ab93"/>
    <path id="Trazado_999608" data-name="Trazado 999608" d="M83.838,92.475S81.6,88.993,80.818,90.4a5.942,5.942,0,0,0-.558,3.2s.446-1.964,1.9-.841c0,0-1.4,3.146,1.453,2.247a1.884,1.884,0,0,0,.224-2.528" transform="translate(-25.161 -28.245)" fill="#c2806d"/>
    <path id="Trazado_999609" data-name="Trazado 999609" d="M116.925,91.038s3.242-5.506,4.584-.789-1.9,6.968-4.026,6.517-.557-5.728-.557-5.728" transform="translate(-36.494 -27.704)" fill="#e2ab93"/>
    <path id="Trazado_999610" data-name="Trazado 999610" d="M117.578,92.475s2.236-3.483,3.019-2.077a5.927,5.927,0,0,1,.559,3.2s-.445-1.964-1.9-.841c0,0,1.4,3.146-1.453,2.247a1.884,1.884,0,0,1-.224-2.528" transform="translate(-36.757 -28.245)" fill="#c2806d"/>
    <path id="Trazado_999611" data-name="Trazado 999611" d="M101.274,77.945a4.893,4.893,0,0,1-2.135,1.38,4.782,4.782,0,0,1-3.318-.272c-1.991-.9-3.6-2.756-5.723-3.326a1.886,1.886,0,0,0-1.861.349,5.824,5.824,0,0,0-1.449,1.939c-.036.072-.065.146-.1.22a34.513,34.513,0,0,0-.893,8.816c0,.246,0,.491,0,.74,0,9.012,2.393,15.9,11.806,15.9,9.239,0,10.086-8.6,10.138-17.274,0-.35,0-.7,0-1.049a23.2,23.2,0,0,0-.371-4.273,10.52,10.52,0,0,1-6.092-3.151" transform="translate(-26.905 -23.717)" fill="#e2ab93"/>
    <path id="Trazado_999612" data-name="Trazado 999612" d="M103.434,95.573a2.641,2.641,0,0,0-1.332.533,17.817,17.817,0,0,0,.2-1.964,4.609,4.609,0,0,0-.472-2.676.3.3,0,0,0-.461-.059c-1.281,1.194-.905,3.2-.6,4.893a.859.859,0,0,0-.529-.336c-.616-.1-1,.315-.736.914a3.474,3.474,0,0,0,1.556,1.623,1.158,1.158,0,0,0,1.279-.017,6.2,6.2,0,0,0,1.578-1.864.686.686,0,0,0-.481-1.047" transform="translate(-31.178 -28.64)" fill="#c2806d"/>
    <path id="Trazado_999613" data-name="Trazado 999613" d="M96.433,82.274c-.2-.3-.254-.371-.986-.6a8.177,8.177,0,0,0-3.676-.211c-1.04.276-2.838,1.615-2.877,2.862a.217.217,0,0,0,.326.187A12.834,12.834,0,0,1,92.348,83a4.585,4.585,0,0,1,2.371.2,1.989,1.989,0,0,0,1.583.034c.22-.108.262-.769.13-.965" transform="translate(-27.878 -25.509)" fill="#996032"/>
    <path id="Trazado_999614" data-name="Trazado 999614" d="M104.691,83.7c.2-.3.254-.37.987-.6a8.214,8.214,0,0,1,3.675-.212c1.04.277,2.838,1.616,2.877,2.862a.218.218,0,0,1-.326.188,12.81,12.81,0,0,0-3.128-1.513,4.584,4.584,0,0,0-2.371.205,1.988,1.988,0,0,1-1.584.034c-.219-.108-.262-.769-.13-.965" transform="translate(-32.809 -25.958)" fill="#996032"/>
    <path id="Trazado_999615" data-name="Trazado 999615" d="M94.889,101.533s5.571,3.892,9.463,1.6c0,0-5.757,11.168-9.463-1.6" transform="translate(-29.758 -31.842)" fill="#fff"/>
    <path id="Trazado_999616" data-name="Trazado 999616" d="M85.82,93.614s1.268,8.881,4.23,11.842c2.035,2.036,8.77,5.1,13.324.634,2.069-2.03,3.292-5.482,4.114-11.531,0,0,1.808,7.3-.1,12.8-1.362,3.935-6.556,5.285-8.459,5.074s-15.44,1.9-13.112-18.822" transform="translate(-26.83 -29.358)" fill="#996032"/>
    <path id="Trazado_999617" data-name="Trazado 999617" d="M93.429,88.067c-1.54-.139-3.718,1.436-3.619,3.105a.14.14,0,0,0,.238.1c1.153-1.055,1.7-2.741,3.6-2.48,1.347.185,2.113,1.763,2.789,2.738.036.052.132.021.108-.045-.46-1.312-1.535-3.272-3.118-3.416" transform="translate(-28.164 -27.616)" fill="#390a0a"/>
    <path id="Trazado_999618" data-name="Trazado 999618" d="M108.767,88.067c1.54-.139,3.718,1.436,3.619,3.105a.14.14,0,0,1-.238.1c-1.153-1.055-1.7-2.741-3.6-2.48-1.347.185-2.113,1.763-2.789,2.738-.036.052-.131.021-.108-.045.46-1.312,1.535-3.272,3.118-3.416" transform="translate(-33.132 -27.616)" fill="#390a0a"/>
  </g>
</svg>
