<svg xmlns="http://www.w3.org/2000/svg" xmlns:xlink="http://www.w3.org/1999/xlink" width="128" height="128" viewBox="0 0 128 128">
  <defs>
    <clipPath id="clip-path">
      <rect id="Rectángulo_456029" data-name="Rectángulo 456029" width="73.292" height="73.264" fill="#5a5858"/>
    </clipPath>
  </defs>
  <g id="Grupo_1190729" data-name="Grupo 1190729" transform="translate(-305.186 -9426)">
    <g id="Grupo_1177670" data-name="Grupo 1177670" transform="translate(305.186 9426)">
      <path id="Trazado_997691" data-name="Trazado 997691" d="M64,0A64,64,0,1,1,0,64,64,64,0,0,1,64,0Z" transform="translate(128 0) rotate(90)" fill="#cbcbcb"/>
      <path id="Trazado_997692" data-name="Trazado 997692" d="M57.677,0A57.677,57.677,0,1,1,0,57.677,57.677,57.677,0,0,1,57.677,0Z" transform="translate(6.323 6.323)" fill="#fff"/>
      <g id="Grupo_1191345" data-name="Grupo 1191345" transform="translate(27.354 27.368)">
        <g id="Grupo_1191344" data-name="Grupo 1191344" clip-path="url(#clip-path)">
          <path id="Trazado_999901" data-name="Trazado 999901" d="M40.918,235.156c-3.295.073-6.374.132-9.519-.023-2.033-.1-2.947-2.365-2.325-4.1a8.618,8.618,0,0,1,3.484-4.213,6.778,6.778,0,0,1-.652-3.365,4.352,4.352,0,1,1,8.655,0,6.821,6.821,0,0,1-.634,3.332,8.575,8.575,0,0,1,3.531,4.537,2.9,2.9,0,0,1-2.54,3.829m-3.455-13.973a2.2,2.2,0,0,0-2.494.031c-1.24.862-1.3,4.2.09,5.085a2.158,2.158,0,0,0,2.426-.047c1.307-.906,1.307-4.17-.021-5.07m3.1,11.9a.864.864,0,0,0,.782-.454c.509-1.411-1.755-3.6-3.069-4.294a4.7,4.7,0,0,1-4.078-.013c-1.3.7-3.889,3.2-2.931,4.5a1.084,1.084,0,0,0,.8.274Z" transform="translate(-22.257 -168.49)" fill="#5a5858"/>
          <path id="Trazado_999902" data-name="Trazado 999902" d="M26.114,174.807a13.964,13.964,0,1,1,.926-1.945,29.207,29.207,0,0,0,38.716-27.733l-3.832,3.678a3.836,3.836,0,0,1-1.451-1.558l6.388-6.363,6.431,6.422a5.488,5.488,0,0,1-1.477,1.5l-3.879-3.726a31.359,31.359,0,0,1-41.822,29.724m-.314-6.955a11.822,11.822,0,1,0-11.821,11.821A11.821,11.821,0,0,0,25.8,167.852" transform="translate(0 -108.569)" fill="#5a5858"/>
          <path id="Trazado_999903" data-name="Trazado 999903" d="M238.278,37.729l-8.8.019a3.148,3.148,0,0,1-2.448-1.145c-1.839-2.37.683-5.738,3.02-7.3a7.288,7.288,0,0,1-.629-3.464,4.345,4.345,0,1,1,8.661,0,6.761,6.761,0,0,1-.65,3.456c2.16,1.433,4.667,4.56,3.277,6.942a2.92,2.92,0,0,1-2.432,1.489m-2.335-11.537c0-1.457-.444-2.61-1.8-2.858a2.163,2.163,0,0,0-2.537,1.864,9.585,9.585,0,0,0-.021,1.792,2.167,2.167,0,0,0,2.569,2.1c1.359-.238,1.784-1.412,1.784-2.9m-.207,4.631a4.41,4.41,0,0,1-4,.015c-1.332.643-3.733,3-3.039,4.393a.92.92,0,0,0,.754.316l8.949-.05c1.733-.01-.779-4.075-2.667-4.675" transform="translate(-174.466 -16.291)" fill="#5a5858"/>
          <path id="Trazado_999904" data-name="Trazado 999904" d="M6.575,41.035.091,34.658a6.211,6.211,0,0,1,1.464-1.526l3.735,3.55A31.378,31.378,0,0,1,47.16,7.119a13.972,13.972,0,1,1-.912,1.961A29.2,29.2,0,0,0,7.486,36.969l3.988-3.824a5.529,5.529,0,0,1,1.468,1.48Zm64.6-27.059A11.823,11.823,0,1,0,59.356,25.8,11.823,11.823,0,0,0,71.179,13.976" transform="translate(-0.07 0)" fill="#5a5858"/>
          <path id="Trazado_999905" data-name="Trazado 999905" d="M115.777,120.315l-12.4-.009-.121-5.706-5.694-.053-.072-5.677-5.762-.046-.019-13.981a5.423,5.423,0,0,1,2.1-.062l.04,11.822a25.531,25.531,0,0,0,3.66-.009l.03-14.215,11.278-.035a17.213,17.213,0,0,0,.058-3.6l-15,0-.053,3.687a5.2,5.2,0,0,1-2.082.1l.006-5.9h19.253l.072,5.716,5.759.029.059,6.216,5.809,5.9-.013,15.821-4.612-.015a5.129,5.129,0,0,1-.042-2.105l2.467-.125.02-12.061-5.7-.078-.056-5.68-9.264-.027,0,17.873,10.275.05a6.1,6.1,0,0,1,.011,2.175M103.358,98.1l11.314-.013a23.414,23.414,0,0,0,0-3.61l-15.02.027.021,17.832a26.466,26.466,0,0,0,3.6,0Zm15.438,5.567a9.485,9.485,0,0,0-1.731-1.711,3.916,3.916,0,0,0-.057,1.842,3.6,3.6,0,0,0,1.787-.131" transform="translate(-70.672 -66.757)" fill="#5a5858"/>
          <rect id="Rectángulo_456027" data-name="Rectángulo 456027" width="2.189" height="2.173" transform="translate(43.381 43.044)" fill="#5a5858"/>
          <rect id="Rectángulo_456028" data-name="Rectángulo 456028" width="2.139" height="2.182" transform="translate(39.107 43.035)" fill="#5a5858"/>
        </g>
      </g>
    </g>
    <path id="Trazado_997694" data-name="Trazado 997694" d="M23.405,2.713a2.708,2.708,0,1,1,2.713,2.72,2.711,2.711,0,0,1-2.713-2.72m-11.7,0a2.713,2.713,0,1,1,2.713,2.72A2.711,2.711,0,0,1,11.7,2.713M0,2.713a2.713,2.713,0,1,1,2.713,2.72A2.715,2.715,0,0,1,0,2.713" transform="translate(426.209 9430.353) rotate(90)" fill="#5a5858"/>
    <g id="Grupo_1177672" data-name="Grupo 1177672" transform="translate(323.685 9533.519) rotate(90)">
      <path id="Trazado_997699" data-name="Trazado 997699" d="M0,7.819l1.419,1.4L7.662,2.867,13.651,9.2,15.1,7.833,7.69,0Z" transform="translate(0 7.636)" fill="#636363"/>
      <path id="Trazado_997700" data-name="Trazado 997700" d="M7.69,0,0,7.818l1.419,1.4L7.662,2.867,13.651,9.2,15.1,7.832Z" transform="translate(0)" fill="#636363"/>
    </g>
  </g>
</svg>
