<svg xmlns="http://www.w3.org/2000/svg" xmlns:xlink="http://www.w3.org/1999/xlink" width="250" height="250" viewBox="0 0 250 250">
  <defs>
    <clipPath id="clip-path">
      <rect id="Rectángulo_456042" data-name="Rectángulo 456042" width="136.127" height="136.16" fill="#674a11"/>
    </clipPath>
  </defs>
  <g id="Grupo_1190586" data-name="Grupo 1190586" transform="translate(-383.746 -8400)">
    <circle id="Elipse_13609" data-name="Elipse 13609" cx="125" cy="125" r="125" transform="translate(383.746 8400)" fill="#fff"/>
    <g id="Grupo_1191356" data-name="Grupo 1191356" transform="translate(440.683 8456.84)">
      <g id="Grupo_1191355" data-name="Grupo 1191355" clip-path="url(#clip-path)">
        <path id="Trazado_999917" data-name="Trazado 999917" d="M69.287,119.516l-65.142.008a16.1,16.1,0,0,0-.063,4.93,8.818,8.818,0,0,0,8.8,7.748l79.629.023c-3.011-3.751-3.806-7.924-3.243-12.658l-10.157-.057a2.112,2.112,0,0,1-2.353-1.94,1.977,1.977,0,0,1,2.006-2.066l12.206-.022a2.172,2.172,0,0,1,2.21,2.3l-.017,5.625a8.728,8.728,0,0,0,8.367,8.723,8.6,8.6,0,0,0,9.063-8.3l.051-16.069a41.182,41.182,0,0,0-4.742-2.45l-9.9,5.1a1.93,1.93,0,0,1-2.751-1.549l-.1-19.872a30.2,30.2,0,0,1,17.461-57.2l.08-19.441c.013-3.131,1.274-5.678,3.276-8.342l-87.906.016a8.509,8.509,0,0,0-8.568,8.266L17.4,28.527a1.972,1.972,0,0,1-1.877,1.882c-1.342.058-2.086-.92-2.085-2.308L13.45,12.82C13.456,5.236,19.4,0,26.866,0l96.019.012c7.4,0,13.233,5.341,13.238,12.785l0,5.555a2.121,2.121,0,0,1-1.878,2.295l-19.535.077-.1,12A30.352,30.352,0,0,1,133.956,50.43a30,30,0,0,1-3.527,28.82,2.047,2.047,0,0,1-2.762.544,1.981,1.981,0,0,1-.544-2.776,26.144,26.144,0,1,0-5.924,5.91,1.97,1.97,0,0,1,2.568.653c1.736,2.641-3.181,4.176-5.043,5.45l-.081,19.8a1.982,1.982,0,0,1-1.254,1.621,4.242,4.242,0,0,1-2.67-.415l-.173,14.206c-.083,6.834-6.012,11.918-12.923,11.916l-88.81-.023A12.664,12.664,0,0,1,0,123.412l0-5.59a2.15,2.15,0,0,1,2.2-2.337l11.226-.129.017-77.424a1.951,1.951,0,0,1,2.049-2.113,2,2,0,0,1,1.939,2.139l0,77.486,51.806.037a2.019,2.019,0,1,1,.055,4.035M132.112,16.591a31.187,31.187,0,0,0-.052-4.86,8.722,8.722,0,0,0-17.228-.63,15.635,15.635,0,0,0-.03,5.525Zm-17.494,88.536,0-14.589c-5.978,1.874-11.6,1.546-17.387.1l.075,14.474c3.122-.948,5.611-3.536,8.638-3.988,3,.429,5.462,3.045,8.672,4" transform="translate(0 0)" fill="#674a11"/>
        <path id="Trazado_999918" data-name="Trazado 999918" d="M241.456,115.734a21.59,21.59,0,1,1-21.59-21.59,21.59,21.59,0,0,1,21.59,21.59m-3.991,0a17.6,17.6,0,1,0-17.6,17.6,17.6,17.6,0,0,0,17.6-17.6" transform="translate(-113.938 -54.099)" fill="#674a11"/>
        <path id="Trazado_999919" data-name="Trazado 999919" d="M139.341,44.293l-48.178,0A1.967,1.967,0,0,1,89.05,42.16l.032-8.528a1.785,1.785,0,0,1,1.684-1.788l48.832.006a1.813,1.813,0,0,1,1.739,1.8l.039,8.887a2.022,2.022,0,0,1-2.035,1.76M93.031,40.408h44.341V35.756H93.031Z" transform="translate(-51.172 -18.299)" fill="#674a11"/>
        <path id="Trazado_999920" data-name="Trazado 999920" d="M86.618,217.11l-21.439.013a2.015,2.015,0,0,1-2.093-2.156l-.023-8.082a2.225,2.225,0,0,1,2.25-2.337l21.278.026a2.083,2.083,0,0,1,1.962,2.277l-.064,8.55a1.779,1.779,0,0,1-1.872,1.709M84.5,213.118a13.221,13.221,0,0,0-.066-4.546l-17.111.01a9.378,9.378,0,0,0-.006,4.573Z" transform="translate(-36.239 -117.542)" fill="#674a11"/>
        <path id="Trazado_999921" data-name="Trazado 999921" d="M104.878,183.306l-38.725.032a2.017,2.017,0,0,1-2.2-1.822,1.989,1.989,0,0,1,2.185-2.229l38.582.009a2.04,2.04,0,0,1,2.037,1.878,2,2,0,0,1-1.882,2.132" transform="translate(-36.749 -103.027)" fill="#674a11"/>
        <path id="Trazado_999922" data-name="Trazado 999922" d="M104.756,115.115l-38.917-.006a1.961,1.961,0,0,1-1.914-2.1,2.033,2.033,0,0,1,2.207-1.934l38.627.023a2.023,2.023,0,0,1,1.987,1.953,1.975,1.975,0,0,1-1.99,2.065" transform="translate(-36.731 -63.828)" fill="#674a11"/>
        <rect id="Rectángulo_456041" data-name="Rectángulo 456041" width="42.82" height="3.968" transform="matrix(1, -0.001, 0.001, 1, 27.194, 57.011)" fill="#674a11"/>
        <path id="Trazado_999923" data-name="Trazado 999923" d="M104.8,160.758l-38.658.008a1.953,1.953,0,0,1-2.127-1.567c-.148-.738.117-2.291,1.352-2.292l39.867-.034c1.123,0,1.579,1.289,1.541,1.915a2,2,0,0,1-1.975,1.969" transform="translate(-36.763 -90.146)" fill="#674a11"/>
        <path id="Trazado_999924" data-name="Trazado 999924" d="M122.685,92.464l-25.277.006a2.05,2.05,0,0,1-1.958-1.907,1.988,1.988,0,0,1,2.01-2.095l25.378,0a2.007,2.007,0,0,1,2.015,1.8,2.049,2.049,0,0,1-2.168,2.2" transform="translate(-54.846 -50.836)" fill="#674a11"/>
        <path id="Trazado_999925" data-name="Trazado 999925" d="M238.046,121.055a9.13,9.13,0,0,0-13.057.083,8.954,8.954,0,0,0,.267,12.668,9.09,9.09,0,0,0,12.8-.21,2.079,2.079,0,0,1,2.8.319,2.039,2.039,0,0,1-.211,2.665,12.991,12.991,0,1,1-.117-18.6,2.057,2.057,0,0,1,.461,2.6,2.007,2.007,0,0,1-2.936.478" transform="translate(-125.577 -65.705)" fill="#674a11"/>
      </g>
    </g>
  </g>
</svg>
