<svg xmlns="http://www.w3.org/2000/svg" xmlns:xlink="http://www.w3.org/1999/xlink" width="128" height="128" viewBox="0 0 128 128">
  <defs>
    <clipPath id="clip-path">
      <rect id="Rectángulo_455995" data-name="Rectángulo 455995" width="68.714" height="62.351" fill="#5a5858"/>
    </clipPath>
  </defs>
  <g id="Grupo_1190721" data-name="Grupo 1190721" transform="translate(-305.186 -9426)">
    <g id="Grupo_1177670" data-name="Grupo 1177670" transform="translate(305.186 9426)">
      <path id="Trazado_997691" data-name="Trazado 997691" d="M64,0A64,64,0,1,1,0,64,64,64,0,0,1,64,0Z" transform="translate(128 0) rotate(90)" fill="#cbcbcb"/>
      <path id="Trazado_997692" data-name="Trazado 997692" d="M57.677,0A57.677,57.677,0,1,1,0,57.677,57.677,57.677,0,0,1,57.677,0Z" transform="translate(6.323 6.323)" fill="#fff"/>
      <g id="Grupo_1191337" data-name="Grupo 1191337" transform="translate(29.643 32.824)">
        <g id="Grupo_1191336" data-name="Grupo 1191336" clip-path="url(#clip-path)">
          <path id="Trazado_999869" data-name="Trazado 999869" d="M58.559,31.158a8.969,8.969,0,0,1,4.27,17.311l-.03,8.68a5.156,5.156,0,0,1-5.276,5.2l-39.025,0a5.219,5.219,0,0,1-5.257-5.436l.007-22.28L.275,23.393a1.03,1.03,0,0,1,.16-1.525L19.01.393A1,1,0,0,1,20.432.23l6.732,5.8L39.361.52a1.022,1.022,0,0,1,1.329.636l3.6,7.885,6.283.1,7.944,7.964Zm-45.9-17.477a.94.94,0,0,1,.6-1.277l12-5.494L19.9,2.257,2.261,22.648l10.945,9.419a5,5,0,0,1,1.454-3.96,5.114,5.114,0,0,1,3.949-1.2ZM27.8,27.928l.049-18.007a.868.868,0,0,1,.93-.819L42.18,9.06l-2.9-6.438L14.749,13.781l5.994,13.125,4.164.027a5.157,5.157,0,0,1,2.888.995M56.7,31.558l-.03-13.064-4.933-.048a2.607,2.607,0,0,1-2.563-2.519l-.035-4.966-19.44.007,0,18.843,4.137,4.044a2.536,2.536,0,0,0,1.607.748l17.192.007A10.922,10.922,0,0,1,56.7,31.558M55.214,16.5l-4.072-4.085a19.325,19.325,0,0,0-.091,3.3c-.02,1.413,2.73.738,4.163.786m5.7,32.424a8.883,8.883,0,0,1-8.233-3.407,9.149,9.149,0,0,1-1.18-9.007H35.863a4.491,4.491,0,0,1-3.271-1.248l-5.773-5.59a2.527,2.527,0,0,0-1.681-.866l-7.538.01a2.485,2.485,0,0,0-2.46,2.57l.005,25.742a3.241,3.241,0,0,0,3.341,3.322l39.04,0A3.2,3.2,0,0,0,60.9,57.341Zm5.913-8.877a7.062,7.062,0,1,0-7.062,7.062,7.062,7.062,0,0,0,7.062-7.062" transform="translate(0 0)" fill="#5a5858"/>
          <path id="Trazado_999870" data-name="Trazado 999870" d="M171.72,137.944l-19.746,0a.916.916,0,0,1-.873-.915.945.945,0,0,1,1.044-.96l19.31,0c.617,0,1.012.284,1.08.782.052.375-.105,1.091-.815,1.091" transform="translate(-118.649 -106.847)" fill="#5a5858"/>
          <path id="Trazado_999871" data-name="Trazado 999871" d="M171.637,95.488l-19.512.015a1,1,0,0,1-1.05-.831.932.932,0,0,1,.918-1.054l19.584,0a.9.9,0,0,1,.949.851.924.924,0,0,1-.889,1.023" transform="translate(-118.622 -73.509)" fill="#5a5858"/>
          <path id="Trazado_999872" data-name="Trazado 999872" d="M171.649,116.73H152a.984.984,0,0,1-.926-.875.948.948,0,0,1,1.053-1.01l19.515.007a.9.9,0,0,1,.886.818.936.936,0,0,1-.883,1.059" transform="translate(-118.63 -90.181)" fill="#5a5858"/>
          <path id="Trazado_999873" data-name="Trazado 999873" d="M164.455,74.2l-12.5,0a.936.936,0,1,1,.18-1.862l12.228.009a.916.916,0,0,1,.973.75.928.928,0,0,1-.882,1.1" transform="translate(-118.632 -56.805)" fill="#5a5858"/>
          <path id="Trazado_999874" data-name="Trazado 999874" d="M126.2,256.037l-35.665.005a.95.95,0,1,1-.005-1.9l35.585,0a.98.98,0,0,1,1,.819.919.919,0,0,1-.911,1.078" transform="translate(-70.312 -199.558)" fill="#5a5858"/>
          <path id="Trazado_999875" data-name="Trazado 999875" d="M99.81,226.082l-9.323.021a.956.956,0,0,1-.957-.952.993.993,0,0,1,.96-.931l9.005-.013a1.036,1.036,0,0,1,1.041.778c.069.321-.091,1.1-.726,1.1" transform="translate(-70.302 -176.055)" fill="#5a5858"/>
          <path id="Trazado_999876" data-name="Trazado 999876" d="M257.384,176.012l-2.336-2.38a.948.948,0,0,1,.1-1.325c1.128-.9,2.087,1.257,3.118,1.78l5.115-5.068a.964.964,0,0,1,1.248.035.94.94,0,0,1,.044,1.282l-5.886,5.882c-.4.4-1.085.123-1.406-.2" transform="translate(-200.096 -132.55)" fill="#5a5858"/>
        </g>
      </g>
    </g>
    <path id="Trazado_997694" data-name="Trazado 997694" d="M23.405,2.713a2.708,2.708,0,1,1,2.713,2.72,2.711,2.711,0,0,1-2.713-2.72m-11.7,0a2.713,2.713,0,1,1,2.713,2.72A2.711,2.711,0,0,1,11.7,2.713M0,2.713a2.713,2.713,0,1,1,2.713,2.72A2.715,2.715,0,0,1,0,2.713" transform="translate(426.209 9430.353) rotate(90)" fill="#5a5858"/>
    <g id="Grupo_1177672" data-name="Grupo 1177672" transform="translate(323.685 9533.519) rotate(90)">
      <path id="Trazado_997699" data-name="Trazado 997699" d="M0,7.819l1.419,1.4L7.662,2.867,13.651,9.2,15.1,7.833,7.69,0Z" transform="translate(0 7.636)" fill="#636363"/>
      <path id="Trazado_997700" data-name="Trazado 997700" d="M7.69,0,0,7.818l1.419,1.4L7.662,2.867,13.651,9.2,15.1,7.832Z" transform="translate(0)" fill="#636363"/>
    </g>
  </g>
</svg>
