<svg xmlns="http://www.w3.org/2000/svg" xmlns:xlink="http://www.w3.org/1999/xlink" width="96" height="96" viewBox="0 0 96 96">
  <defs>
    <clipPath id="clip-path">
      <rect id="Rectángulo_456049" data-name="Rectángulo 456049" width="51.41" height="51.459" fill="#12263f"/>
    </clipPath>
  </defs>
  <g id="Grupo_1191052" data-name="Grupo 1191052" transform="translate(-735.746 -9615)">
    <path id="Trazado_997400" data-name="Trazado 997400" d="M48,0A48,48,0,1,1,0,48,48,48,0,0,1,48,0Z" transform="translate(735.746 9615)" fill="#5a5858"/>
    <path id="Trazado_997743" data-name="Trazado 997743" d="M43.544,0A43.544,43.544,0,1,1,0,43.544,43.544,43.544,0,0,1,43.544,0Z" transform="translate(740.52 9619.772)" fill="#e2e2e2"/>
    <g id="Grupo_1191369" data-name="Grupo 1191369" transform="translate(761.358 9637.271)">
      <g id="Grupo_1191368" data-name="Grupo 1191368" clip-path="url(#clip-path)">
        <path id="Trazado_999967" data-name="Trazado 999967" d="M37.451,45.709c-.012,1.628-3.52.6-4.853.953l-.032,3.971a.821.821,0,0,1-.913.826l-30.823,0A.838.838,0,0,1,0,50.585V10.5A.738.738,0,0,1,.6,9.75l4.213-.1L4.832,5.8a.925.925,0,0,1,.957-.976L9.694,4.8,9.722.81A.772.772,0,0,1,10.456,0L36.784.007l5.5,5.5.007,32.785c0,1.3,1.337.124,2.393,1.151L50.9,45.495a1.828,1.828,0,0,1-.043,2.569l-2.115,2.179a1.932,1.932,0,0,1-2.868-.054L39.92,44.382c-1.005-.98-.237-1.911-.55-2.372-.22-.324-1.373-.255-1.888-.173Zm3.161-20.792.015-18.231-4.3-.045a.779.779,0,0,1-.694-.837l-.059-4.146H11.41L11.382,4.8l20.532.038,5.526,5.527.033,10.711a13.015,13.015,0,0,1,3.14,3.843M39.29,4.885a20.081,20.081,0,0,0-1.934-1.924,6.708,6.708,0,0,0-.035,2.012,4.822,4.822,0,0,0,1.969-.088M35.773,19.858l0-8.329-4.257-.042a.734.734,0,0,1-.711-.709l-.075-4.3-24.2.011A23.592,23.592,0,0,0,6.55,9.7l20.521.015,5.451,5.423.082,3.524a22.208,22.208,0,0,1,3.169,1.2M34.43,9.777a12.592,12.592,0,0,0-1.9-1.951,3.366,3.366,0,0,0,.035,1.908,3.77,3.77,0,0,0,1.866.042M5.368,29.241a.78.78,0,0,1-.768-.92.858.858,0,0,1,.863-.723L18.2,27.58c.255-.935.582-1.666.892-2.552L5.321,24.987a.831.831,0,0,1-.729-.853.812.812,0,0,1,.866-.785l14.713,0a14.672,14.672,0,0,1,2.553-2.606L5.466,20.734a.834.834,0,1,1,.01-1.665l20.485-.013a11.828,11.828,0,0,1,4.887-.634,5.852,5.852,0,0,0,.007-2.028l-3.832-.006c-.617,0-1.121-.3-1.114-.963l-.034-4.052-24.219,0,0,38.419L30.9,49.8l.018-7.426c-1.294.245-2.436-.238-3.741-.242L5.362,42.061a.827.827,0,0,1-.774-.825.816.816,0,0,1,.876-.806L23.123,40.4a17.049,17.049,0,0,1-2.645-2.581l-15.012-.01a.83.83,0,0,1-.868-.89.8.8,0,0,1,.856-.758l13.821-.018c-.315-.9-.7-1.637-.971-2.572l-12.97-.033a.849.849,0,0,1-.74-.9.832.832,0,0,1,.872-.746l12.449-.016-.029-2.611Zm24.268-14.6a25.53,25.53,0,0,0-2-2.013,7.669,7.669,0,0,0-.035,2.06,7.6,7.6,0,0,0,2.035-.048M40.249,30.4A10.347,10.347,0,1,0,29.9,40.742,10.347,10.347,0,0,0,40.249,30.4m-1.011,7.584-.808.839,2.243,2.16.808-.839Zm4.178,2.541-2.482,2.565L47.359,49.3l2.482-2.565Zm-7.653,4.418-.006-4a21.98,21.98,0,0,1-3.166,1.2l.017,2.78Z" fill="#12263f"/>
        <path id="Trazado_999968" data-name="Trazado 999968" d="M50.322,270.706l-21.771.01a.793.793,0,0,1-.865-.763.851.851,0,0,1,.876-.9l21.7,0a.851.851,0,0,1,.814.744.775.775,0,0,1-.751.9" transform="translate(-23.088 -224.391)" fill="#12263f"/>
        <path id="Trazado_999969" data-name="Trazado 999969" d="M40.55,90.674,28.532,90.7a.8.8,0,0,1-.857-.762.854.854,0,0,1,.868-.9l11.76,0a.85.85,0,0,1,.829.619c.078.286-.012,1.016-.582,1.017" transform="translate(-23.079 -74.258)" fill="#12263f"/>
        <path id="Trazado_999970" data-name="Trazado 999970" d="M144.852,139.083a8.765,8.765,0,1,1-8.765-8.766,8.765,8.765,0,0,1,8.765,8.766m-1.662,0a7.1,7.1,0,1,0-7.1,7.1,7.1,7.1,0,0,0,7.1-7.1" transform="translate(-106.186 -108.685)" fill="#12263f"/>
      </g>
    </g>
  </g>
</svg>
