<svg xmlns="http://www.w3.org/2000/svg" xmlns:xlink="http://www.w3.org/1999/xlink" width="128" height="128" viewBox="0 0 128 128">
  <defs>
    <clipPath id="clip-path">
      <rect id="Rectángulo_455994" data-name="Rectángulo 455994" width="60.312" height="66.288" fill="#5a5858"/>
    </clipPath>
  </defs>
  <g id="Grupo_1190720" data-name="Grupo 1190720" transform="translate(-305.186 -9426)">
    <g id="Grupo_1177670" data-name="Grupo 1177670" transform="translate(305.186 9426)">
      <path id="Trazado_997691" data-name="Trazado 997691" d="M64,0A64,64,0,1,1,0,64,64,64,0,0,1,64,0Z" transform="translate(128 0) rotate(90)" fill="#cbcbcb"/>
      <path id="Trazado_997692" data-name="Trazado 997692" d="M57.677,0A57.677,57.677,0,1,1,0,57.677,57.677,57.677,0,0,1,57.677,0Z" transform="translate(6.323 6.323)" fill="#fff"/>
      <g id="Grupo_1191335" data-name="Grupo 1191335" transform="translate(33.844 30.856)">
        <g id="Grupo_1191334" data-name="Grupo 1191334" clip-path="url(#clip-path)">
          <path id="Trazado_999857" data-name="Trazado 999857" d="M5.573,62.323l-3.608-.049A1.929,1.929,0,0,1,0,60.247L0,17.013a1.026,1.026,0,0,1,.862-1.146.982.982,0,0,1,1.09.942L1.96,60.23a8.11,8.11,0,0,0,2.546,0,9.034,9.034,0,0,1,.377-6.8.988.988,0,0,1,1.235-.515A.953.953,0,0,1,6.657,54.2a7.054,7.054,0,1,0,2.285-2.721c-.433.3-1.037-.083-1.213-.372a.967.967,0,0,1,.313-1.338,8.973,8.973,0,0,1,10.669.507l22.919,0,.011-4.1-6.754,0a1.9,1.9,0,0,1-1.976-1.9l.008-10.276a1.834,1.834,0,0,1,1.8-1.82l6.9-.05a6.529,6.529,0,0,0-.017-2.016l-6.72-.026a1.878,1.878,0,0,1-1.962-1.807l0-10.391a1.813,1.813,0,0,1,1.573-1.768l7.164-.074.015-10.06-21.257,0a2.15,2.15,0,0,1-1.532-.554L15.358,1.931l-13.388,0-.019,10.7A.968.968,0,0,1,1,13.674a.962.962,0,0,1-1-1.047L.015,1.861A1.863,1.863,0,0,1,1.968,0L23.49,0a1.687,1.687,0,0,1,1.2.474l3.579,3.515L41.5,4a2.009,2.009,0,0,1,2.135,2.2l0,9.871,15.077.073A1.773,1.773,0,0,1,60.259,18V28.17A1.952,1.952,0,0,1,58.092,30.1H43.7a5.725,5.725,0,0,0-.015,2.048l14.784.041a1.793,1.793,0,0,1,1.775,1.757l.018,3.34a.993.993,0,0,1-.826,1.071.913.913,0,0,1-1.1-.873l-.061-3.374-23.426-.006-.012,10.127,23.419.012c.281-1.1-.516-3.512,1.02-3.549,1.307-.032,1.03,2.059.971,3.652A1.842,1.842,0,0,1,58.5,46.16l-14.838.015-.022,4.075,14.671.046a1.844,1.844,0,0,1,1.95,1.9l0,10.153a1.882,1.882,0,0,1-1.978,1.925H18.74A9.036,9.036,0,0,1,5.573,62.323M25.3,3.97a14.027,14.027,0,0,0-1.873-2.034l-5.173.045a18.125,18.125,0,0,0,1.949,2.01ZM58.31,18.029l-23.476,0V28.159l23.476,0Zm0,44.3L58.3,52.215l-37.743.027a9.172,9.172,0,0,1-.029,10.1Z" transform="translate(0 0)" fill="#5a5858"/>
          <path id="Trazado_999858" data-name="Trazado 999858" d="M47.157,88.136a1.892,1.892,0,0,1-2.01,1.977l-22.141.007a1.859,1.859,0,0,1-1.927-1.847c-.061-3.694-.357-5.9,3.234-8.027a6.561,6.561,0,0,1-.593-2.6l0-7.192a4.712,4.712,0,0,1-.119-4.368A7.083,7.083,0,0,0,23.7,63.6a7.721,7.721,0,0,1,6.957-8.1,34.417,34.417,0,0,1,4.784,0A4.845,4.845,0,0,1,38.175,56.8a6.2,6.2,0,0,1,6.388,5.986c.062.986-.284,2.393.06,3.23.692,1.685.367,2.843.063,4.464-.542,2.886.5,7.324-.791,9.8a5.669,5.669,0,0,1,3.26,5.1Zm-17.645-24.8,5.278,0A2.949,2.949,0,0,0,37.717,60.2a3.006,3.006,0,0,0-3.109-2.826l-3.343.014C27.442,57.4,24.994,61.179,25.7,65c2.181.523,1.149-1.666,3.815-1.664m12.968,1.54c.588-2.083-.269-5.395-2.952-5.945.344.972-.033,2.13-.015,2.991a5.965,5.965,0,0,1,1.721,3.014c.295.166,1.169.213,1.246-.06M28.812,70.966c.011,3.086,2.489,4.95,5.387,4.909a4.907,4.907,0,0,0,5.128-4.412c.137-1.922.008-3.842.033-5.786a2.164,2.164,0,0,0-.981-1.931,5.032,5.032,0,0,1-3.154,1.5l-5.595.012a.747.747,0,0,0-.835.841Zm-2.024-1.478a5.485,5.485,0,0,0,.035-2.4c-.057-.347-.991-.154-1.3.022a1.644,1.644,0,0,0,.035,2.338c.261.145,1.146.353,1.23.037m16.369-1.431a1.054,1.054,0,0,0-.7-1.041c-.25-.075-.97-.249-1.026.088a5.053,5.053,0,0,0,.029,2.338c.12.383,1.008.159,1.291-.059a1.535,1.535,0,0,0,.406-1.325M29.028,78.929l-.051-3.03A6.917,6.917,0,0,1,26.9,71.586a3,3,0,0,0-1.241,0v6.141c0,.591.221,1.873.863,1.972.862.133,1.724-.544,2.508-.77m12.783.715c.6-.213.755-1.309.754-1.816l-.012-6.18c-.229-.2-1.191-.227-1.241.071a8.623,8.623,0,0,1-2,4.233c-.47.821-.021,2.126-.094,3.044.92.132,1.725.957,2.593.648m-4.594-.426a6.449,6.449,0,0,0-.031-1.941A9.76,9.76,0,0,1,31.1,77.3a3.565,3.565,0,0,0,0,2,5.09,5.09,0,0,0,6.115-.085m-2.135,2.929-.023,2.189a.935.935,0,0,1-.969,1.016c-1.466,0-.751-2.191-.984-3.22a8.764,8.764,0,0,1-3.293-1.263c-.629-.083-1.365.457-2.037.646l0,6.679,12.691-.028V81.58c-3.134-1.654-1.8.044-5.382.567m-9.247,5.981-.049-6.275c-3.265.982-2.847,3.732-2.739,6.318a20.4,20.4,0,0,0,2.788-.043m19.369.019c.1-2.766.346-5.4-2.735-6.243v6.267a22.629,22.629,0,0,0,2.735-.024" transform="translate(-16.686 -43.937)" fill="#5a5858"/>
          <path id="Trazado_999859" data-name="Trazado 999859" d="M200.073,176.62l-15.191-.008a.948.948,0,0,1-.943-.966.958.958,0,0,1,.953-.955l14.888,0a1.015,1.015,0,0,1,1.1.791.964.964,0,0,1-.8,1.141" transform="translate(-145.833 -138.498)" fill="#5a5858"/>
          <path id="Trazado_999860" data-name="Trazado 999860" d="M197.555,195.99l-12.609.023a.984.984,0,0,1-.073-1.966l12.619,0a1,1,0,0,1,.984.92.966.966,0,0,1-.921,1.027" transform="translate(-145.826 -153.844)" fill="#5a5858"/>
          <path id="Trazado_999861" data-name="Trazado 999861" d="M23.014,20.409a.958.958,0,1,1-.958-.958.958.958,0,0,1,.958.958" transform="translate(-16.726 -15.421)" fill="#5a5858"/>
          <path id="Trazado_999862" data-name="Trazado 999862" d="M43.074,20.4a.958.958,0,1,1-.959-.958.959.959,0,0,1,.959.958" transform="translate(-32.631 -15.417)" fill="#5a5858"/>
          <path id="Trazado_999863" data-name="Trazado 999863" d="M63.147,20.419a.96.96,0,1,1-.959-.959.959.959,0,0,1,.959.959" transform="translate(-48.543 -15.429)" fill="#5a5858"/>
          <path id="Trazado_999864" data-name="Trazado 999864" d="M199.785,98.966l-14.7,0c-.635,0-1.071-.239-1.138-.822a.959.959,0,0,1,.94-1.09l14.9-.012a.976.976,0,0,1,1.1.925c.02.63-.4,1-1.1,1" transform="translate(-145.831 -76.94)" fill="#5a5858"/>
          <path id="Trazado_999865" data-name="Trazado 999865" d="M197.576,118.367l-12.7.01a.985.985,0,0,1-.945-.94.972.972,0,0,1,.968-1.014h12.573a1.008,1.008,0,0,1,1,.887.976.976,0,0,1-.895,1.058" transform="translate(-145.821 -92.303)" fill="#5a5858"/>
          <path id="Trazado_999866" data-name="Trazado 999866" d="M50.176,265.4c-1.162.961-1.8-1.409-3.469-.094a1.353,1.353,0,0,1-1.36.162,1.288,1.288,0,0,1-.375-1.451c.664-1.993-1.574-1.778-1.188-3.177.4-1.468,2.2.154,2.889-2.01a1.061,1.061,0,0,1,2.091,0c.669,2.133,2.5.556,2.887,2.01a1.233,1.233,0,0,1-.524,1.234c-1.75,1.168.152,2.413-.95,3.325m-1.752-3.339a.706.706,0,1,0-.706.706.707.707,0,0,0,.706-.706" transform="translate(-34.677 -204.512)" fill="#5a5858"/>
          <path id="Trazado_999867" data-name="Trazado 999867" d="M147.963,283.354l-25.505,0a.987.987,0,0,1-1.08-.913,1.007,1.007,0,0,1,.936-1.06l25.548.006a.987.987,0,0,1,.1,1.97" transform="translate(-96.23 -223.085)" fill="#5a5858"/>
          <path id="Trazado_999868" data-name="Trazado 999868" d="M150.178,263.983H122.46a.949.949,0,0,1-1.072-1,.959.959,0,0,1,1.079-.912l27.711,0c.722,0,1.1.393,1.117.922.019.638-.377,1-1.117,1" transform="translate(-96.24 -207.773)" fill="#5a5858"/>
        </g>
      </g>
    </g>
    <path id="Trazado_997694" data-name="Trazado 997694" d="M23.405,2.713a2.708,2.708,0,1,1,2.713,2.72,2.711,2.711,0,0,1-2.713-2.72m-11.7,0a2.713,2.713,0,1,1,2.713,2.72A2.711,2.711,0,0,1,11.7,2.713M0,2.713a2.713,2.713,0,1,1,2.713,2.72A2.715,2.715,0,0,1,0,2.713" transform="translate(426.209 9430.353) rotate(90)" fill="#5a5858"/>
    <g id="Grupo_1177672" data-name="Grupo 1177672" transform="translate(323.685 9533.519) rotate(90)">
      <path id="Trazado_997699" data-name="Trazado 997699" d="M0,7.819l1.419,1.4L7.662,2.867,13.651,9.2,15.1,7.833,7.69,0Z" transform="translate(0 7.636)" fill="#636363"/>
      <path id="Trazado_997700" data-name="Trazado 997700" d="M7.69,0,0,7.818l1.419,1.4L7.662,2.867,13.651,9.2,15.1,7.832Z" transform="translate(0)" fill="#636363"/>
    </g>
  </g>
</svg>
