<svg xmlns="http://www.w3.org/2000/svg" xmlns:xlink="http://www.w3.org/1999/xlink" width="127.941" height="127.941" viewBox="0 0 127.941 127.941">
  <defs>
    <clipPath id="clip-path">
      <rect id="Rectángulo_455750" data-name="Rectángulo 455750" width="76" height="76" fill="#5a5858"/>
    </clipPath>
  </defs>
  <g id="Grupo_1190989" data-name="Grupo 1190989" transform="translate(-305.059 -9426)">
    <g id="Grupo_1177670" data-name="Grupo 1177670" transform="translate(305.059 9426)">
      <path id="Trazado_997691" data-name="Trazado 997691" d="M63.971,0A63.971,63.971,0,1,1,0,63.971,63.971,63.971,0,0,1,63.971,0Z" transform="translate(127.941) rotate(90)" fill="#435494"/>
      <path id="Sustracción_109" data-name="Sustracción 109" d="M0,127.82H0V0A63.513,63.513,0,0,1,24.877,5.022a63.674,63.674,0,0,1,20.313,13.7,63.7,63.7,0,0,1,13.7,20.315,64.122,64.122,0,0,1,0,49.754A63.682,63.682,0,0,1,45.19,109.1a63.664,63.664,0,0,1-20.313,13.7A63.5,63.5,0,0,1,0,127.82Z" transform="translate(127.881 63.971) rotate(90)" fill="#002ac7"/>
      <path id="Trazado_997692" data-name="Trazado 997692" d="M56.089,0A56.089,56.089,0,1,1,0,56.089,56.089,56.089,0,0,1,56.089,0Z" transform="translate(7.881 7.882)" fill="#fff"/>
      <g id="Grupo_1190996" data-name="Grupo 1190996" transform="translate(26.029 25.724)">
        <g id="Grupo_1190995" data-name="Grupo 1190995" clip-path="url(#clip-path)">
          <path id="Trazado_999075" data-name="Trazado 999075" d="M75.61,37.805A37.805,37.805,0,1,1,37.805,0,37.805,37.805,0,0,1,75.61,37.805M49.779,24.255l-4.918,5.1a11.953,11.953,0,0,0-6.279-2.247,8.745,8.745,0,0,0-3.366.724c-.906.305-2.06,2.581-.817,3.138l33.247,14.9c3.612-15.407-3.053-29.1-16.8-36.152a31.442,31.442,0,0,0-27.128.571A33.188,33.188,0,0,0,11.982,21.016l14.23,6.393a10.068,10.068,0,0,1,4.377-5.173A14.253,14.253,0,0,1,35.9,20.72L36,15.048a27.915,27.915,0,0,1,4.405.007l.109,5.661a16.947,16.947,0,0,1,9.262,3.538M40.5,54.945l-.146,5.743-4.393,0L35.9,54.958a17.293,17.293,0,0,1-11.361-4.635l5.174-5.234a12.08,12.08,0,0,0,9.384,3.38,4.159,4.159,0,0,0,3.31-1.881c.451-.881.829-3.294-.4-3.843l-33.419-15a30.183,30.183,0,0,0,7.468,31.76,30.6,30.6,0,0,0,43.075.416,26.494,26.494,0,0,0,5.7-7.148l-14.044-6.2c-1.278,5.145-5.346,7.716-10.282,8.37" fill="#5a5858"/>
        </g>
      </g>
    </g>
    <path id="Trazado_997694" data-name="Trazado 997694" d="M23,2.665a2.661,2.661,0,1,1,2.665,2.673A2.663,2.663,0,0,1,23,2.665m-11.5,0a2.665,2.665,0,1,1,2.665,2.673A2.664,2.664,0,0,1,11.5,2.665M0,2.665A2.665,2.665,0,1,1,2.665,5.338,2.668,2.668,0,0,1,0,2.665" transform="translate(426.165 9430.265) rotate(90)" fill="#fff"/>
    <g id="Grupo_1177672" data-name="Grupo 1177672" transform="translate(324.813 9532.415) rotate(90)">
      <path id="Trazado_997699" data-name="Trazado 997699" d="M0,8.417l1.527,1.5L8.248,3.087,14.7,9.905l1.557-1.473L8.279,0Z" transform="translate(0 8.22)" fill="#002ac7"/>
      <path id="Trazado_997700" data-name="Trazado 997700" d="M8.279,0,0,8.416l1.527,1.5L8.248,3.087,14.7,9.9l1.557-1.472Z" transform="translate(0 0)" fill="#002ac7"/>
    </g>
  </g>
</svg>
