<svg xmlns="http://www.w3.org/2000/svg" width="81.934" height="63.945" viewBox="0 0 81.934 63.945">
  <g id="Grupo_1190622" data-name="Grupo 1190622" transform="translate(-706 -410)">
    <path id="Trazado_997744" data-name="Trazado 997744" d="M279.367,1066.346a31.473,31.473,0,1,1-31.473,31.473,31.472,31.472,0,0,1,31.473-31.473" transform="translate(458.106 -656.346)" fill="#ffcc01"/>
    <path id="Trazado_997745" data-name="Trazado 997745" d="M297.282,1091.71V1117.5a8.547,8.547,0,0,0,8.547,8.547h8.1l4.895,7.385a1.783,1.783,0,0,0,2.972,0l4.9-7.385h8.1a8.547,8.547,0,0,0,8.547-8.547V1091.71a8.547,8.547,0,0,0-8.547-8.547H305.829A8.547,8.547,0,0,0,297.282,1091.71Z" transform="translate(443.596 -661.287)" fill="none" stroke="#231f20" stroke-miterlimit="10" stroke-width="2"/>
  </g>
</svg>
