<svg xmlns="http://www.w3.org/2000/svg" xmlns:xlink="http://www.w3.org/1999/xlink" width="150.001" height="150.001" viewBox="0 0 150.001 150.001">
  <defs>
    <clipPath id="clip-path">
      <rect id="Rectángulo_455992" data-name="Rectángulo 455992" width="79.288" height="79.288" fill="#5a5858"/>
    </clipPath>
  </defs>
  <g id="Grupo_1190632" data-name="Grupo 1190632" transform="translate(-305.059 -9426)">
    <g id="Grupo_1177670" data-name="Grupo 1177670" transform="translate(0 0.001)">
      <path id="Trazado_997691" data-name="Trazado 997691" d="M75,0A75,75,0,1,1,0,75,75,75,0,0,1,75,0Z" transform="translate(455.059 9425.999) rotate(90)" fill="#cbcbcb"/>
      <path id="Sustracción_109" data-name="Sustracción 109" d="M21524.061,11862h0v-150a75,75,0,1,1,0,150Z" transform="translate(12167.058 -12023.059) rotate(90)" fill="#5a5858"/>
      <path id="Trazado_997692" data-name="Trazado 997692" d="M67.738,0A67.738,67.738,0,1,1,0,67.738,67.738,67.738,0,0,1,67.738,0Z" transform="translate(312.32 9433.262)" fill="#fff"/>
      <g id="Grupo_1191331" data-name="Grupo 1191331" transform="translate(340.415 9461.357)">
        <g id="Grupo_1191330" data-name="Grupo 1191330" clip-path="url(#clip-path)">
          <path id="Trazado_999838" data-name="Trazado 999838" d="M6.266,156.218c-1.9,1.1-4.239,5.417-5.837,4.073a1.258,1.258,0,0,1-.055-1.843l3.969-4.025c-.47-.913-2.8-2.106-1.493-3.412l6.156-6.155c1.295-1.295,2.5,1.008,3.42,1.5l8.14-8.056,26.988.042c2.529,0,4.386,1.852,5.382,4.011l18.274-12.093a5.317,5.317,0,0,1,7.232,1.77,5.439,5.439,0,0,1-1.376,7.3L48.759,160.556l-14.78.049-3.649,3.654c.487.91,2.79,2.123,1.5,3.416l-6.16,6.151c-1.356,1.354-2.52-1.123-3.429-1.469l-4,3.953a1.264,1.264,0,0,1-1.689.094,1.242,1.242,0,0,1-.16-1.71l4.115-4.224Zm15.265-15.435-7.368,7.42,14.3,14.3,4.505-4.361,14.9-.032,27.558-20.643a2.958,2.958,0,1,0-3.349-4.872L53.21,145.189a6.259,6.259,0,0,1-6.393,5.5l-15.835-.007a1.241,1.241,0,0,1-1.215-1.363,1.176,1.176,0,0,1,1.211-1.1l15.84,0a3.762,3.762,0,0,0,3.96-3.864,3.706,3.706,0,0,0-3.962-3.583ZM9.9,147.467l-4.441,4.441,19.31,19.31,4.441-4.441Z" transform="translate(0 -97.396)" fill="#5a5858"/>
          <path id="Trazado_999839" data-name="Trazado 999839" d="M197.44,76.191l-6.192,0a1.227,1.227,0,0,1-1.228-1.234V66.3a1.2,1.2,0,0,1,1.116-1.214,1.181,1.181,0,0,1,1.326,1.212l.035,7.43,4.945.022a1.158,1.158,0,0,1,1.2,1.111,1.193,1.193,0,0,1-1.2,1.334" transform="translate(-142.932 -48.95)" fill="#5a5858"/>
          <path id="Trazado_999840" data-name="Trazado 999840" d="M191.787,40.269c.8.476.8,2.849,0,3.3a1.33,1.33,0,0,1-1.489-.108,2.827,2.827,0,0,1,.005-3.076,1.31,1.31,0,0,1,1.486-.112" transform="translate(-142.799 -30.155)" fill="#5a5858"/>
          <path id="Trazado_999841" data-name="Trazado 999841" d="M133.194,100.1a1.188,1.188,0,0,1,.456,1.519c-.38,1.04-2.855.984-3.362.168a1.225,1.225,0,0,1,.3-1.642,3.1,3.1,0,0,1,2.608-.045" transform="translate(-97.863 -75.091)" fill="#5a5858"/>
          <path id="Trazado_999842" data-name="Trazado 999842" d="M248.195,100.1a1.188,1.188,0,0,1,.456,1.519c-.379,1.04-2.854.985-3.361.167a1.224,1.224,0,0,1,.3-1.641,3.1,3.1,0,0,1,2.608-.045" transform="translate(-184.365 -75.091)" fill="#5a5858"/>
          <path id="Trazado_999843" data-name="Trazado 999843" d="M161.442,48.094c.886.017,1.973,1.859,1.647,2.757a1.227,1.227,0,0,1-1.331.749c-.739-.078-1.786-1.739-1.581-2.6a1.2,1.2,0,0,1,1.264-.9" transform="translate(-120.465 -36.176)" fill="#5a5858"/>
          <path id="Trazado_999844" data-name="Trazado 999844" d="M220.523,48.67c.624,1.129-.8,2.777-1.241,2.9a1.268,1.268,0,0,1-1.446-.511c-.582-1.129.816-2.723,1.174-2.848a1.246,1.246,0,0,1,1.513.455" transform="translate(-163.749 -36.203)" fill="#5a5858"/>
          <path id="Trazado_999845" data-name="Trazado 999845" d="M138.8,70.247c.941-.4,2.7.786,2.79,1.521a1.221,1.221,0,0,1-.739,1.334c-1,.375-2.622-.855-2.732-1.437a1.235,1.235,0,0,1,.682-1.418" transform="translate(-103.868 -52.778)" fill="#5a5858"/>
          <path id="Trazado_999846" data-name="Trazado 999846" d="M241.182,71.464c-.029.9-1.876,1.967-2.76,1.652a1.226,1.226,0,0,1-.751-1.333c.066-.721,1.837-1.929,2.8-1.526a1.23,1.23,0,0,1,.715,1.207" transform="translate(-178.769 -52.786)" fill="#5a5858"/>
          <path id="Trazado_999847" data-name="Trazado 999847" d="M139.781,130.6a1.194,1.194,0,0,1-1.6-.6,1.224,1.224,0,0,1,.512-1.579c.67-.411,2.112-1.334,2.732-.176a1.212,1.212,0,0,1-.188,1.466,4.287,4.287,0,0,1-1.459.886" transform="translate(-103.858 -96.045)" fill="#5a5858"/>
          <path id="Trazado_999848" data-name="Trazado 999848" d="M238.01,128.118c.954-.9,3.138.423,3.168,1.374a1.2,1.2,0,0,1-.714,1.2c-1.05.424-2.51-.857-2.641-1.118a1.2,1.2,0,0,1,.187-1.46" transform="translate(-178.768 -96.143)" fill="#5a5858"/>
          <path id="Trazado_999849" data-name="Trazado 999849" d="M219.054,147.8c.75.058,2.045,1.9,1.437,2.925a1.214,1.214,0,0,1-1.32.538,2.825,2.825,0,0,1-1.45-2.74,1.208,1.208,0,0,1,1.334-.723" transform="translate(-163.724 -111.172)" fill="#5a5858"/>
          <path id="Trazado_999850" data-name="Trazado 999850" d="M139.4,28.536a23.547,23.547,0,1,0-44.446,8.072,1.237,1.237,0,1,1-2.24,1.05,26.014,26.014,0,1,1,49.154-9.207,1.25,1.25,0,0,1-1.053,1.208c-.454.08-1.5-.287-1.415-1.123" transform="translate(-67.673 0)" fill="#5a5858"/>
          <path id="Trazado_999851" data-name="Trazado 999851" d="M149.082,45.549a18.589,18.589,0,1,0-33.458,5.914,1.233,1.233,0,0,1-.294,1.752,1.25,1.25,0,0,1-1.756-.357A21.065,21.065,0,1,1,151.514,46a1.235,1.235,0,0,1-1.287,1.024,1.209,1.209,0,0,1-1.145-1.476" transform="translate(-82.726 -15.056)" fill="#5a5858"/>
        </g>
      </g>
    </g>
    <path id="Trazado_997694" data-name="Trazado 997694" d="M471.93,424.642a3.111,3.111,0,1,1,3.115,3.124,3.113,3.113,0,0,1-3.115-3.124m-13.442,0a3.115,3.115,0,1,1,3.115,3.124,3.114,3.114,0,0,1-3.115-3.124m-13.44,0a3.115,3.115,0,1,1,3.115,3.124,3.118,3.118,0,0,1-3.115-3.124" transform="translate(868.572 8985.952) rotate(90)" fill="#5a5858"/>
    <g id="Grupo_1177672" data-name="Grupo 1177672" transform="translate(326.305 9552.477) rotate(90)">
      <path id="Trazado_997699" data-name="Trazado 997699" d="M0,24.325l1.629,1.6,7.17-7.29,6.879,7.274,1.661-1.571-8.507-9Z" transform="translate(0 -6.575)" fill="#636363"/>
      <path id="Trazado_997700" data-name="Trazado 997700" d="M8.832,0,0,8.979l1.629,1.6L8.8,3.293l6.879,7.273L17.34,9Z" fill="#636363"/>
    </g>
  </g>
</svg>
