<svg id="Grupo_1191229" data-name="Grupo 1191229" xmlns="http://www.w3.org/2000/svg" xmlns:xlink="http://www.w3.org/1999/xlink" width="291.222" height="297.587" viewBox="0 0 291.222 297.587">
  <defs>
    <clipPath id="clip-path">
      <rect id="Rectángulo_455947" data-name="Rectángulo 455947" width="291.222" height="297.587" fill="none"/>
    </clipPath>
    <clipPath id="clip-path-2">
      <rect id="Rectángulo_455946" data-name="Rectángulo 455946" width="291.223" height="297.587" fill="none"/>
    </clipPath>
    <clipPath id="clip-path-3">
      <rect id="Rectángulo_455939" data-name="Rectángulo 455939" width="108.589" height="142.947" fill="none"/>
    </clipPath>
    <clipPath id="clip-path-4">
      <rect id="Rectángulo_455944" data-name="Rectángulo 455944" width="75.983" height="75.983" fill="none"/>
    </clipPath>
  </defs>
  <g id="Grupo_1191228" data-name="Grupo 1191228" clip-path="url(#clip-path)">
    <g id="Grupo_1191227" data-name="Grupo 1191227">
      <g id="Grupo_1191226" data-name="Grupo 1191226" clip-path="url(#clip-path-2)">
        <path id="Trazado_999619" data-name="Trazado 999619" d="M800.357,409.695l-18.4,115.654a2.015,2.015,0,0,1-2.306,1.672l-56.9-9.051L618.289,501.356a2.016,2.016,0,0,1-1.673-2.306l.355-2.226L635.011,383.4a2.011,2.011,0,0,1,2.3-1.672l3.631.578,1.5.238,5.274.839,1.5.24,4.309.685,1.5.238,5.272.839,1.5.24,4.256.676,1.5.24,5.272.837,1.5.24,4.548.724,1.5.238,5.274.839,1.5.238,4.379.7,1.431.228,5.274.839,1.433.228,3.311.527,2.592.412,1.5.238,5.274.839,1.5.238,4.31.686,1.5.238,5.276.84,1.5.238,4.256.676,1.5.24,5.274.839,1.5.238,4.547.724,1.5.238,5.274.839,1.5.238,4.376.7,1.433.228,5.274.839,1.433.228,4.911.781,1.5.238,5.274.839,1.5.238,4.547.724,1.5.238,5.274.839,1.5.24,7.564,1.2.819.13a2.016,2.016,0,0,1,1.673,2.306" transform="translate(-509.16 -315.193)" fill="#1b9c91"/>
        <path id="Trazado_999620" data-name="Trazado 999620" d="M786.819,387.013l-.464,2.918L768,505.349l-57.453-9.138L605.46,479.5l-2.808-.447,18.822-118.336,9.645,1.535.952.151,3.934.625.949.151,6.749,1.074.952.151,3.931.625.952.151,6.694,1.065.952.151,3.93.625.954.153,6.987,1.111.95.151,3.931.625.954.151,6.746,1.073,1.646.261,2.548.405,1.643.261,3.518.56,4.755.757.952.151,3.93.625.953.151,6.748,1.073.952.153,3.931.624.952.153,6.694,1.064.954.153,3.931.625.952.151,6.984,1.111.952.151,3.931.625.954.151,6.748,1.074,1.645.263,2.547.4,1.643.263,7.28,1.157.954.151,3.93.625.954.153,6.984,1.11.953.153,3.931.625.952.151Z" transform="translate(-497.649 -297.865)" fill="#1b9c91"/>
        <path id="Trazado_999621" data-name="Trazado 999621" d="M770.805,346.344a3.014,3.014,0,0,1-.038.469l-.328,2.06-.108.689-.156.978a2.954,2.954,0,0,1-5.753.368,2.883,2.883,0,0,1-.12-.827,3.039,3.039,0,0,1,.038-.468l.156-.98.108-.688.328-2.062a2.955,2.955,0,0,1,5.873.46" transform="translate(-631.134 -283.563)" fill="#1b9c91"/>
        <path id="Trazado_999622" data-name="Trazado 999622" d="M754.939,372.685a4.268,4.268,0,1,1,3.544,4.885,4.268,4.268,0,0,1-3.544-4.885" transform="translate(-623.358 -304.78)" fill="#1b9c91"/>
        <path id="Trazado_999623" data-name="Trazado 999623" d="M827.161,384.172a4.268,4.268,0,1,1,3.544,4.885,4.268,4.268,0,0,1-3.544-4.885" transform="translate(-682.997 -314.265)" fill="#1b9c91"/>
        <path id="Trazado_999624" data-name="Trazado 999624" d="M899.074,395.61a4.268,4.268,0,1,1,3.544,4.885,4.267,4.267,0,0,1-3.544-4.885" transform="translate(-742.38 -323.71)" fill="#1b9c91"/>
        <path id="Trazado_999625" data-name="Trazado 999625" d="M972.66,407.314A4.268,4.268,0,1,1,976.2,412.2a4.268,4.268,0,0,1-3.544-4.885" transform="translate(-803.145 -333.375)" fill="#1b9c91"/>
        <path id="Trazado_999626" data-name="Trazado 999626" d="M1044.618,420.462a4.268,4.268,0,1,1,3.544,4.885,4.268,4.268,0,0,1-3.544-4.885" transform="translate(-862.565 -344.232)" fill="#1b9c91"/>
        <path id="Trazado_999627" data-name="Trazado 999627" d="M843.026,357.837a3.016,3.016,0,0,1-.038.468l-.328,2.06-.11.688-.156.982a2.955,2.955,0,0,1-3.381,2.452,2.955,2.955,0,0,1-2.372-2.086,2.891,2.891,0,0,1-.12-.827,3.038,3.038,0,0,1,.038-.468l.156-.98.11-.688.327-2.06a2.956,2.956,0,0,1,5.875.46" transform="translate(-690.77 -293.053)" fill="#1b9c91"/>
        <path id="Trazado_999628" data-name="Trazado 999628" d="M914.941,369.274a3.017,3.017,0,0,1-.038.468l-.328,2.062-.108.688-.156.98a2.919,2.919,0,0,1-.481,1.2,2.954,2.954,0,0,1-5.272-.837,2.891,2.891,0,0,1-.12-.829,3,3,0,0,1,.038-.468l.156-.982.108-.686.328-2.06a2.955,2.955,0,0,1,5.873.46" transform="translate(-750.157 -302.497)" fill="#1b9c91"/>
        <path id="Trazado_999629" data-name="Trazado 999629" d="M914.941,369.274a3.017,3.017,0,0,1-.038.468l-.328,2.062-.108.688-.156.98a2.919,2.919,0,0,1-.481,1.2,2.954,2.954,0,0,1-5.272-.837,2.891,2.891,0,0,1-.12-.829,3,3,0,0,1,.038-.468l.156-.982.108-.686.328-2.06a2.955,2.955,0,0,1,5.873.46" transform="translate(-750.157 -302.497)" fill="#1b9c91"/>
        <path id="Trazado_999630" data-name="Trazado 999630" d="M988.527,380.975a3.02,3.02,0,0,1-.038.469l-.326,2.06-.11.688-.156.98a2.955,2.955,0,0,1-5.753.368,2.891,2.891,0,0,1-.12-.827,3.017,3.017,0,0,1,.038-.468l.156-.982.11-.686.327-2.062a2.955,2.955,0,0,1,5.873.46" transform="translate(-810.922 -312.16)" fill="#1b9c91"/>
        <path id="Trazado_999631" data-name="Trazado 999631" d="M1060.748,392.466a2.993,2.993,0,0,1-.038.468l-.328,2.06-.156.978-.11.689a2.955,2.955,0,0,1-5.753.368,2.892,2.892,0,0,1-.12-.827,3.053,3.053,0,0,1,.038-.468l.11-.691.154-.977.328-2.062a2.956,2.956,0,0,1,5.875.461" transform="translate(-870.558 -321.648)" fill="#1b9c91"/>
        <path id="Trazado_999632" data-name="Trazado 999632" d="M1135.254,408.612l.594-3.732a2.952,2.952,0,0,1,3.38-2.452h0a2.952,2.952,0,0,1,2.452,3.38l-.594,3.732a2.953,2.953,0,0,1-3.38,2.452h0a2.953,2.953,0,0,1-2.452-3.38" transform="translate(-937.423 -332.28)" fill="#1b9c91"/>
        <path id="Trazado_999633" data-name="Trazado 999633" d="M1125.854,431.68a4.268,4.268,0,1,1,3.544,4.885,4.267,4.267,0,0,1-3.544-4.885" transform="translate(-929.647 -353.496)" fill="#1b9c91"/>
        <path id="Trazado_999634" data-name="Trazado 999634" d="M1198.076,443.167a4.268,4.268,0,1,1,3.544,4.885,4.268,4.268,0,0,1-3.544-4.885" transform="translate(-989.286 -362.981)" fill="#1b9c91"/>
        <path id="Trazado_999635" data-name="Trazado 999635" d="M1269.989,454.605a4.268,4.268,0,1,1,3.544,4.885,4.267,4.267,0,0,1-3.544-4.885" transform="translate(-1048.669 -372.426)" fill="#1b9c91"/>
        <path id="Trazado_999636" data-name="Trazado 999636" d="M1343.575,466.309a4.268,4.268,0,1,1,3.544,4.885,4.268,4.268,0,0,1-3.544-4.885" transform="translate(-1109.434 -382.091)" fill="#1b9c91"/>
        <path id="Trazado_999637" data-name="Trazado 999637" d="M1415.533,479.457a4.268,4.268,0,1,1,3.544,4.885,4.268,4.268,0,0,1-3.544-4.885" transform="translate(-1168.854 -392.948)" fill="#1b9c91"/>
        <path id="Trazado_999638" data-name="Trazado 999638" d="M1207.476,420.1l.594-3.732a2.952,2.952,0,0,1,3.38-2.452h0a2.953,2.953,0,0,1,2.452,3.38l-.594,3.732a2.952,2.952,0,0,1-3.38,2.452h0a2.953,2.953,0,0,1-2.452-3.38" transform="translate(-997.062 -341.765)" fill="#1b9c91"/>
        <path id="Trazado_999639" data-name="Trazado 999639" d="M1279.389,431.536l.594-3.732a2.953,2.953,0,0,1,3.38-2.452h0a2.952,2.952,0,0,1,2.452,3.38l-.594,3.732a2.952,2.952,0,0,1-3.38,2.452h0a2.952,2.952,0,0,1-2.452-3.38" transform="translate(-1056.445 -351.21)" fill="#1b9c91"/>
        <path id="Trazado_999640" data-name="Trazado 999640" d="M1279.389,431.536l.594-3.732a2.953,2.953,0,0,1,3.38-2.452h0a2.952,2.952,0,0,1,2.452,3.38l-.594,3.732a2.952,2.952,0,0,1-3.38,2.452h0a2.952,2.952,0,0,1-2.452-3.38" transform="translate(-1056.445 -351.21)" fill="#1b9c91"/>
        <path id="Trazado_999641" data-name="Trazado 999641" d="M1352.976,443.24l.594-3.732a2.952,2.952,0,0,1,3.38-2.452h0a2.953,2.953,0,0,1,2.452,3.38l-.594,3.732a2.953,2.953,0,0,1-3.38,2.452h0a2.953,2.953,0,0,1-2.452-3.38" transform="translate(-1117.211 -360.875)" fill="#1b9c91"/>
        <path id="Trazado_999642" data-name="Trazado 999642" d="M1425.2,454.728l.594-3.732a2.952,2.952,0,0,1,3.38-2.452h0a2.953,2.953,0,0,1,2.452,3.38l-.594,3.732a2.953,2.953,0,0,1-3.38,2.452h0a2.953,2.953,0,0,1-2.452-3.38" transform="translate(-1176.849 -370.361)" fill="#1b9c91"/>
        <path id="Trazado_999643" data-name="Trazado 999643" d="M1491.075,489.769a4.268,4.268,0,1,1,3.544,4.885,4.267,4.267,0,0,1-3.544-4.885" transform="translate(-1231.234 -401.464)" fill="#1b9c91"/>
        <path id="Trazado_999644" data-name="Trazado 999644" d="M1564.661,501.473a4.268,4.268,0,1,1,3.544,4.885,4.267,4.267,0,0,1-3.544-4.885" transform="translate(-1291.999 -411.128)" fill="#1b9c91"/>
        <path id="Trazado_999645" data-name="Trazado 999645" d="M1500.475,466.7l.594-3.732a2.953,2.953,0,0,1,3.38-2.452h0a2.953,2.953,0,0,1,2.452,3.38l-.594,3.732a2.953,2.953,0,0,1-3.38,2.452h0a2.953,2.953,0,0,1-2.452-3.38" transform="translate(-1239.01 -380.247)" fill="#1b9c91"/>
        <path id="Trazado_999646" data-name="Trazado 999646" d="M1500.475,466.7l.594-3.732a2.953,2.953,0,0,1,3.38-2.452h0a2.953,2.953,0,0,1,2.452,3.38l-.594,3.732a2.953,2.953,0,0,1-3.38,2.452h0a2.953,2.953,0,0,1-2.452-3.38" transform="translate(-1239.01 -380.247)" fill="#1b9c91"/>
        <path id="Trazado_999647" data-name="Trazado 999647" d="M1574.061,478.4l.594-3.732a2.952,2.952,0,0,1,3.38-2.452h0a2.952,2.952,0,0,1,2.452,3.38l-.594,3.732a2.953,2.953,0,0,1-3.38,2.452h0a2.953,2.953,0,0,1-2.452-3.38" transform="translate(-1299.775 -389.912)" fill="#1b9c91"/>
        <rect id="Rectángulo_455938" data-name="Rectángulo 455938" width="167.424" height="224.873" transform="translate(14.94 40.364) rotate(-8.931)" fill="#1b9c91"/>
        <path id="Trazado_999648" data-name="Trazado 999648" d="M67.15,1321.757l-50.714,53.275a11.6,11.6,0,0,1-7.117,3.62,8.447,8.447,0,0,1-6.8-2.173c-3.634-3.459-3.294-9.714.761-13.973l50.714-53.275Z" transform="translate(0 -1081.119)" fill="#1b9c91"/>
        <path id="Trazado_999649" data-name="Trazado 999649" d="M781.9,357.042,763.506,472.7a2.015,2.015,0,0,1-2.306,1.672l-56.9-9.051L599.833,448.7a2.017,2.017,0,0,1-1.673-2.306l.355-2.225,18.041-113.428a2.011,2.011,0,0,1,2.3-1.673l3.631.578,1.5.238,5.274.839,1.5.24,4.309.685,1.5.238,5.272.839,1.5.24,4.256.676,1.5.24,5.272.837,1.5.24,4.548.724,1.5.238,5.274.839,1.5.238,4.379.7,1.431.228,5.274.839,1.433.228,3.311.527,2.592.412,1.5.238,5.274.839,1.5.238,4.31.686,1.5.238,5.275.84,1.5.238,4.256.676,1.5.24L719,345l1.5.238,4.547.724,1.5.238,5.274.839,1.5.238,4.376.7,1.433.228,5.274.839,1.433.228,4.911.781,1.5.238,5.274.839,1.5.238,4.547.724,1.5.238,5.274.839,1.5.24,7.564,1.2.819.13a2.015,2.015,0,0,1,1.673,2.306" transform="translate(-493.919 -271.714)" fill="#585858"/>
        <path id="Trazado_999650" data-name="Trazado 999650" d="M768.364,334.36l-.464,2.918L749.542,452.7l-57.453-9.138L587,426.844,584.2,426.4l18.822-118.336,9.645,1.535.952.151,3.934.626.949.151,6.749,1.074.952.151,3.931.625.952.151,6.694,1.065.952.151,3.93.625.954.153,6.987,1.111.95.151,3.931.625.954.151,6.746,1.073,1.646.261,2.547.405,1.643.261,3.518.56,4.755.757.952.151,3.93.625.953.151,6.748,1.073.952.153,3.931.624.952.153,6.694,1.064.954.153,3.931.625.952.151,6.984,1.111.952.151,3.931.626.954.151,6.748,1.074,1.645.263,2.547.4,1.643.263,7.28,1.157.954.151,3.929.625.954.153,6.984,1.11.953.153,3.931.625.952.151Z" transform="translate(-482.409 -254.386)" fill="#fff"/>
        <path id="Trazado_999651" data-name="Trazado 999651" d="M752.349,293.691a3.065,3.065,0,0,1-.038.469l-.328,2.06-.108.689-.156.978a2.955,2.955,0,0,1-5.753.368,2.892,2.892,0,0,1-.12-.827,3.016,3.016,0,0,1,.038-.468l.156-.98.108-.688.328-2.062a2.955,2.955,0,0,1,5.873.46" transform="translate(-615.894 -240.084)" fill="#585858"/>
        <path id="Trazado_999652" data-name="Trazado 999652" d="M736.483,320.032a4.268,4.268,0,1,1,3.544,4.885,4.268,4.268,0,0,1-3.544-4.885" transform="translate(-608.118 -261.301)" fill="#585858"/>
        <path id="Trazado_999653" data-name="Trazado 999653" d="M808.7,331.519a4.268,4.268,0,1,1,3.544,4.885,4.268,4.268,0,0,1-3.544-4.885" transform="translate(-667.757 -270.786)" fill="#585858"/>
        <path id="Trazado_999654" data-name="Trazado 999654" d="M880.618,342.957a4.268,4.268,0,1,1,3.544,4.885,4.267,4.267,0,0,1-3.544-4.885" transform="translate(-727.14 -280.231)" fill="#585858"/>
        <path id="Trazado_999655" data-name="Trazado 999655" d="M954.2,354.661a4.268,4.268,0,1,1,3.544,4.885,4.268,4.268,0,0,1-3.544-4.885" transform="translate(-787.905 -289.896)" fill="#585858"/>
        <path id="Trazado_999656" data-name="Trazado 999656" d="M1026.162,367.809a4.268,4.268,0,1,1,3.544,4.885,4.268,4.268,0,0,1-3.544-4.885" transform="translate(-847.325 -300.753)" fill="#585858"/>
        <path id="Trazado_999657" data-name="Trazado 999657" d="M824.57,305.184a3.023,3.023,0,0,1-.038.468l-.328,2.06-.11.688-.156.982a2.955,2.955,0,0,1-3.381,2.452,2.955,2.955,0,0,1-2.372-2.086,2.886,2.886,0,0,1-.12-.827,3.037,3.037,0,0,1,.038-.468l.156-.98.11-.688.326-2.06a2.956,2.956,0,0,1,5.875.46" transform="translate(-675.53 -249.574)" fill="#585858"/>
        <path id="Trazado_999658" data-name="Trazado 999658" d="M896.486,316.621a3.031,3.031,0,0,1-.038.468l-.328,2.062-.108.688-.156.98a2.957,2.957,0,0,1-3.381,2.454,2.958,2.958,0,0,1-2.372-2.086,2.9,2.9,0,0,1-.12-.829,3.023,3.023,0,0,1,.038-.468l.156-.982.108-.686.328-2.06a2.955,2.955,0,0,1,5.873.46" transform="translate(-734.918 -259.018)" fill="#585858"/>
        <path id="Trazado_999659" data-name="Trazado 999659" d="M896.486,316.621a3.031,3.031,0,0,1-.038.468l-.328,2.062-.108.688-.156.98a2.957,2.957,0,0,1-3.381,2.454,2.958,2.958,0,0,1-2.372-2.086,2.9,2.9,0,0,1-.12-.829,3.023,3.023,0,0,1,.038-.468l.156-.982.108-.686.328-2.06a2.955,2.955,0,0,1,5.873.46" transform="translate(-734.918 -259.018)" fill="#585858"/>
        <path id="Trazado_999660" data-name="Trazado 999660" d="M970.071,328.322a3.038,3.038,0,0,1-.038.469l-.327,2.06-.11.688-.156.98a2.955,2.955,0,0,1-5.753.368,2.891,2.891,0,0,1-.12-.827,3.023,3.023,0,0,1,.038-.468l.156-.982.11-.686.327-2.062a2.955,2.955,0,0,1,5.873.46" transform="translate(-795.681 -268.681)" fill="#585858"/>
        <path id="Trazado_999661" data-name="Trazado 999661" d="M1042.293,339.813a3.025,3.025,0,0,1-.038.468l-.328,2.06-.156.978-.11.689a2.955,2.955,0,0,1-5.753.368,2.887,2.887,0,0,1-.12-.827,3.052,3.052,0,0,1,.038-.468l.11-.691.155-.977.328-2.062a2.956,2.956,0,0,1,5.875.461" transform="translate(-855.318 -278.169)" fill="#585858"/>
        <path id="Trazado_999662" data-name="Trazado 999662" d="M1116.8,355.958l.594-3.732a2.952,2.952,0,0,1,3.38-2.452h0a2.953,2.953,0,0,1,2.452,3.38l-.594,3.732a2.952,2.952,0,0,1-3.38,2.452h0a2.953,2.953,0,0,1-2.452-3.38" transform="translate(-922.184 -288.8)" fill="#585858"/>
        <path id="Trazado_999663" data-name="Trazado 999663" d="M1107.4,379.027a4.268,4.268,0,1,1,3.544,4.885,4.268,4.268,0,0,1-3.544-4.885" transform="translate(-914.407 -310.017)" fill="#585858"/>
        <path id="Trazado_999664" data-name="Trazado 999664" d="M1179.62,390.514a4.268,4.268,0,1,1,3.544,4.885,4.267,4.267,0,0,1-3.544-4.885" transform="translate(-974.045 -319.502)" fill="#585858"/>
        <path id="Trazado_999665" data-name="Trazado 999665" d="M1251.533,401.952a4.268,4.268,0,1,1,3.544,4.885,4.267,4.267,0,0,1-3.544-4.885" transform="translate(-1033.429 -328.947)" fill="#585858"/>
        <path id="Trazado_999666" data-name="Trazado 999666" d="M1325.119,413.656a4.268,4.268,0,1,1,3.544,4.885,4.268,4.268,0,0,1-3.544-4.885" transform="translate(-1094.194 -338.612)" fill="#585858"/>
        <path id="Trazado_999667" data-name="Trazado 999667" d="M1397.077,426.8a4.268,4.268,0,1,1,3.544,4.885,4.268,4.268,0,0,1-3.544-4.885" transform="translate(-1153.614 -349.469)" fill="#585858"/>
        <path id="Trazado_999668" data-name="Trazado 999668" d="M1189.021,367.446l.594-3.732a2.952,2.952,0,0,1,3.38-2.452h0a2.952,2.952,0,0,1,2.452,3.38l-.594,3.732a2.953,2.953,0,0,1-3.38,2.452h0a2.952,2.952,0,0,1-2.452-3.38" transform="translate(-981.822 -298.287)" fill="#585858"/>
        <path id="Trazado_999669" data-name="Trazado 999669" d="M1260.934,378.884l.593-3.732a2.953,2.953,0,0,1,3.38-2.452h0a2.953,2.953,0,0,1,2.452,3.38l-.594,3.732a2.952,2.952,0,0,1-3.38,2.452h0a2.952,2.952,0,0,1-2.452-3.38" transform="translate(-1041.206 -307.732)" fill="#585858"/>
        <path id="Trazado_999670" data-name="Trazado 999670" d="M1260.934,378.884l.593-3.732a2.953,2.953,0,0,1,3.38-2.452h0a2.953,2.953,0,0,1,2.452,3.38l-.594,3.732a2.952,2.952,0,0,1-3.38,2.452h0a2.952,2.952,0,0,1-2.452-3.38" transform="translate(-1041.206 -307.732)" fill="#585858"/>
        <path id="Trazado_999671" data-name="Trazado 999671" d="M1334.52,390.588l.594-3.732a2.953,2.953,0,0,1,3.38-2.452h0a2.953,2.953,0,0,1,2.452,3.38l-.594,3.732a2.952,2.952,0,0,1-3.38,2.452h0a2.952,2.952,0,0,1-2.452-3.38" transform="translate(-1101.971 -317.396)" fill="#585858"/>
        <path id="Trazado_999672" data-name="Trazado 999672" d="M1406.742,402.074l.593-3.732a2.952,2.952,0,0,1,3.38-2.452h0a2.952,2.952,0,0,1,2.452,3.38l-.594,3.732a2.953,2.953,0,0,1-3.38,2.452h0a2.952,2.952,0,0,1-2.452-3.38" transform="translate(-1161.609 -326.882)" fill="#585858"/>
        <path id="Trazado_999673" data-name="Trazado 999673" d="M1472.619,437.116a4.268,4.268,0,1,1,3.544,4.885,4.267,4.267,0,0,1-3.544-4.885" transform="translate(-1215.994 -357.985)" fill="#585858"/>
        <path id="Trazado_999674" data-name="Trazado 999674" d="M1546.2,448.82a4.268,4.268,0,1,1,3.544,4.885,4.267,4.267,0,0,1-3.544-4.885" transform="translate(-1276.759 -367.649)" fill="#585858"/>
        <path id="Trazado_999675" data-name="Trazado 999675" d="M1482.02,414.047l.594-3.732a2.952,2.952,0,0,1,3.38-2.452h0a2.953,2.953,0,0,1,2.452,3.38l-.594,3.732a2.953,2.953,0,0,1-3.38,2.452h0a2.952,2.952,0,0,1-2.452-3.38" transform="translate(-1223.771 -336.769)" fill="#585858"/>
        <path id="Trazado_999676" data-name="Trazado 999676" d="M1482.02,414.047l.594-3.732a2.952,2.952,0,0,1,3.38-2.452h0a2.953,2.953,0,0,1,2.452,3.38l-.594,3.732a2.953,2.953,0,0,1-3.38,2.452h0a2.952,2.952,0,0,1-2.452-3.38" transform="translate(-1223.771 -336.769)" fill="#585858"/>
        <path id="Trazado_999677" data-name="Trazado 999677" d="M1555.606,425.751l.594-3.732a2.952,2.952,0,0,1,3.38-2.452h0a2.952,2.952,0,0,1,2.452,3.38l-.594,3.732a2.952,2.952,0,0,1-3.38,2.452h0a2.953,2.953,0,0,1-2.452-3.38" transform="translate(-1284.536 -346.433)" fill="#585858"/>
        <g id="Grupo_1191222" data-name="Grupo 1191222" transform="translate(101.787 50.657)" opacity="0.502">
          <g id="Grupo_1191221" data-name="Grupo 1191221">
            <g id="Grupo_1191220" data-name="Grupo 1191220" clip-path="url(#clip-path-3)">
              <path id="Trazado_999678" data-name="Trazado 999678" d="M692.785,433.687,588.323,417.073a2.016,2.016,0,0,1-1.673-2.306l.355-2.226-2.808-.447,18.822-118.336,9.645,1.535.328-2.062a2.955,2.955,0,0,1,5.873.46,3.042,3.042,0,0,1-.038.469l-.328,2.06,6.75,1.074.327-2.06a2.956,2.956,0,0,1,5.875.46,3.038,3.038,0,0,1-.038.468l-.328,2.06,6.694,1.065.328-2.06a2.955,2.955,0,0,1,5.873.46,3.038,3.038,0,0,1-.038.468l-.328,2.062,6.987,1.111.327-2.062a2.955,2.955,0,0,1,5.873.46,3.044,3.044,0,0,1-.038.469l-.327,2.06,6.746,1.073.328-2.062a2.956,2.956,0,0,1,5.875.461,3.05,3.05,0,0,1-.038.468l-.328,2.06,3.518.56.481,3.069,19.073,121.371Z" transform="translate(-584.196 -290.741)" fill="#585858"/>
            </g>
          </g>
        </g>
        <rect id="Rectángulo_455940" data-name="Rectángulo 455940" width="167.424" height="224.873" transform="translate(11.725 31.19) rotate(-8.931)" fill="#fff"/>
        <path id="Trazado_999679" data-name="Trazado 999679" d="M353.173,7.934l-.484-3.081a5.745,5.745,0,1,0-11.35,1.784l.484,3.081-33.565,5.275,3.268,20.794,78.481-12.334L386.738,2.659Zm-5.813.013a2.626,2.626,0,1,1,2.187-3,2.627,2.627,0,0,1-2.187,3" transform="translate(-254.548 0)" fill="#2e2e2c"/>
        <path id="Trazado_999680" data-name="Trazado 999680" d="M183.188,262.477v0a2.458,2.458,0,0,1,2.047-2.81l72.836-11.447a2.458,2.458,0,0,1,2.81,2.047v0a2.458,2.458,0,0,1-2.047,2.81L186,264.523a2.458,2.458,0,0,1-2.81-2.047" transform="translate(-151.245 -204.943)" fill="#a3bac4"/>
        <path id="Trazado_999681" data-name="Trazado 999681" d="M195.857,313.033v0a2.458,2.458,0,0,1,2.047-2.81l113.189-17.789a2.458,2.458,0,0,1,2.81,2.047v0a2.459,2.459,0,0,1-2.047,2.81L198.667,315.08a2.458,2.458,0,0,1-2.81-2.047" transform="translate(-161.706 -241.455)" fill="#a3bac4"/>
        <path id="Trazado_999682" data-name="Trazado 999682" d="M207.605,387.79v0a2.458,2.458,0,0,1,2.047-2.81l113.189-17.789a2.458,2.458,0,0,1,2.81,2.047v0a2.458,2.458,0,0,1-2.047,2.81L210.416,389.837a2.458,2.458,0,0,1-2.81-2.047" transform="translate(-171.408 -303.186)" fill="#a3bac4"/>
        <path id="Trazado_999683" data-name="Trazado 999683" d="M297.76,991.5v0a2.458,2.458,0,0,1,2.047-2.81l72.836-11.447a2.459,2.459,0,0,1,2.81,2.047v0a2.458,2.458,0,0,1-2.047,2.81l-72.836,11.447a2.458,2.458,0,0,1-2.81-2.047" transform="translate(-245.855 -806.947)" fill="#a3bac4"/>
        <path id="Trazado_999684" data-name="Trazado 999684" d="M310.238,1030.936v0a2.458,2.458,0,0,1,2.047-2.81l126.485-19.878a2.459,2.459,0,0,1,2.81,2.047v0a2.458,2.458,0,0,1-2.047,2.81l-126.485,19.878a2.458,2.458,0,0,1-2.81-2.047" transform="translate(-256.159 -832.548)" fill="#a3bac4"/>
        <path id="Trazado_999685" data-name="Trazado 999685" d="M322.419,1108.442v0a2.458,2.458,0,0,1,2.047-2.81l126.485-19.878a2.459,2.459,0,0,1,2.81,2.047v0a2.458,2.458,0,0,1-2.047,2.811L325.23,1110.489a2.459,2.459,0,0,1-2.81-2.047" transform="translate(-266.218 -896.55)" fill="#a3bac4"/>
        <path id="Trazado_999686" data-name="Trazado 999686" d="M334.954,1188.2v0a2.458,2.458,0,0,1,2.047-2.81l126.485-19.878a2.458,2.458,0,0,1,2.81,2.047v0a2.459,2.459,0,0,1-2.047,2.81l-126.485,19.878a2.458,2.458,0,0,1-2.81-2.047" transform="translate(-276.569 -962.413)" fill="#a3bac4"/>
        <rect id="Rectángulo_455941" data-name="Rectángulo 455941" width="28.127" height="45.472" transform="matrix(0.988, -0.155, 0.155, 0.988, 49.976, 118.796)" fill="#8dcdc1"/>
        <rect id="Rectángulo_455942" data-name="Rectángulo 455942" width="28.127" height="57.192" transform="translate(95.071 99.845) rotate(-8.931)" fill="#ffd54e"/>
        <rect id="Rectángulo_455943" data-name="Rectángulo 455943" width="28.127" height="69.38" transform="translate(136.086 81.061) rotate(-8.932)" fill="#fc9d83"/>
        <path id="Trazado_999687" data-name="Trazado 999687" d="M344.482,895.534A38.161,38.161,0,1,1,382.643,933.7a38.161,38.161,0,0,1-38.161-38.161" transform="translate(-284.461 -707.988)" fill="#fff"/>
        <path id="Trazado_999688" data-name="Trazado 999688" d="M436.389,1065.536l-73.322,11.522a37.792,37.792,0,0,1-1.833-6.248l74.99-11.784a37.912,37.912,0,0,1,.165,6.51" transform="translate(-298.295 -874.507)" fill="#a3bac4"/>
        <path id="Trazado_999689" data-name="Trazado 999689" d="M473.633,1168.266a37.567,37.567,0,0,1-4,7.162l-53.759,8.448a38.122,38.122,0,0,1-3.435-2.905q-1.358-1.293-2.563-2.686Z" transform="translate(-338.465 -964.714)" fill="#a3bac4"/>
        <path id="Trazado_999690" data-name="Trazado 999690" d="M394.094,909.808l-17.334,2.724a38.219,38.219,0,0,1,15.122-16.8Z" transform="translate(-311.116 -739.666)" fill="#8dcdc1"/>
        <path id="Trazado_999691" data-name="Trazado 999691" d="M629.172,879.411l-20.078,3.156-2.365-15.046a37.808,37.808,0,0,1,20.655,10.071q.93.886,1.788,1.819" transform="translate(-501.016 -716.369)" fill="#ffd54e"/>
        <g id="Grupo_1191225" data-name="Grupo 1191225" transform="translate(54.796 144.073)" opacity="0.361">
          <g id="Grupo_1191224" data-name="Grupo 1191224" transform="translate(9 6)">
            <g id="Grupo_1191223" data-name="Grupo 1191223" clip-path="url(#clip-path-4)">
              <path id="Trazado_999692" data-name="Trazado 999692" d="M432.8,905.488a37.93,37.93,0,0,1-2.926,12.521v0a37.577,37.577,0,0,1-4,7.162,38.423,38.423,0,0,1-3.482,4.221,37.973,37.973,0,0,1-53.712,1.322q-1.358-1.293-2.563-2.686a37.826,37.826,0,0,1-8.476-17.268,37.991,37.991,0,0,1,63.428-35.08q.93.886,1.788,1.819a37.976,37.976,0,0,1,9.939,27.987" transform="translate(-356.883 -865.207)" fill="#c3fcf9"/>
            </g>
          </g>
        </g>
        <path id="Trazado_999693" data-name="Trazado 999693" d="M381.19,821.883a47.838,47.838,0,1,0,1.665,67.632,47.837,47.837,0,0,0-1.665-67.632m-58.509,61.463a37.02,37.02,0,1,1,52.338-1.291,37.02,37.02,0,0,1-52.338,1.291" transform="translate(-248.034 -667.792)" fill="#2e2e2c"/>
        <rect id="Rectángulo_455945" data-name="Rectángulo 455945" width="25.663" height="12.976" transform="translate(48.484 233.629) rotate(-46.411)" fill="#2e2e2c"/>
        <path id="Trazado_999694" data-name="Trazado 999694" d="M67.15,1298.6l-50.714,53.275a11.6,11.6,0,0,1-7.117,3.62,8.447,8.447,0,0,1-6.8-2.173c-3.634-3.459-3.294-9.714.761-13.973l50.714-53.275Z" transform="translate(0 -1061.999)" fill="#2e2e2c"/>
        <path id="Trazado_999695" data-name="Trazado 999695" d="M478.244,898.649a2.253,2.253,0,0,1,1.39-2.346,37.8,37.8,0,0,1,28.782-.028,40.162,40.162,0,0,1,11.586,7,2.252,2.252,0,0,1-3.073,3.293,36.416,36.416,0,0,0-10.348-6.174,32.883,32.883,0,0,0-25.254.084,2.254,2.254,0,0,1-3.084-1.826" transform="translate(-394.905 -737.77)" fill="#fff"/>
      </g>
    </g>
  </g>
</svg>
