<svg id="Grupo_1191325" data-name="Grupo 1191325" xmlns="http://www.w3.org/2000/svg" xmlns:xlink="http://www.w3.org/1999/xlink" width="292" height="274.405" viewBox="0 0 292 274.405">
  <defs>
    <clipPath id="clip-path">
      <rect id="Rectángulo_455988" data-name="Rectángulo 455988" width="292" height="274.405" fill="none"/>
    </clipPath>
  </defs>
  <g id="Grupo_1191322" data-name="Grupo 1191322">
    <g id="Grupo_1191321" data-name="Grupo 1191321" clip-path="url(#clip-path)">
      <path id="Trazado_999734" data-name="Trazado 999734" d="M183.222,263.9c35.931-4.58,63.53,26.5,93.282-3.944S291.8,60.546,244.847,26.049,150.555-4.444,126.96,13.647,100.418,44.332,69.453,52.686,31,57.118,8.068,128.186c-23.52,72.9,8.9,117.829,39.367,130.216,70.069,28.489,89.019,11.462,135.786,5.5" transform="translate(0 0)" fill="#ffedb1"/>
      <path id="Trazado_999735" data-name="Trazado 999735" d="M358.557,46.956a26.231,26.231,0,0,1-9.235,6.056,18.392,18.392,0,0,1-8.009,1.544,9.855,9.855,0,0,1-7.162-3.523c-2.636-3.42-2.042-8.315-.667-12.408a41.06,41.06,0,0,1,5.866-11.273c3.427-4.645,8.162-8.708,13.858-9.648,5.827-.963,14,2.733,14.128,9.36.127,6.378-4.5,15.418-8.779,19.892" transform="translate(-297.091 -5.84)" fill="#ffedb1"/>
      <path id="Trazado_999736" data-name="Trazado 999736" d="M293.285,3.869c3,.5,5.641,1.484,7.009,2.774a6.747,6.747,0,0,1,2,7c-.9,2.411-3.417,3.836-5.9,4.526a18.44,18.44,0,0,1-13.01-1.237A9.346,9.346,0,0,1,278.6,12.3c-3.391-8.695,9.362-9.324,14.689-8.43" transform="translate(-196.15 -1.187)" fill="#ffedb1"/>
    </g>
  </g>
  <g id="Grupo_1191324" data-name="Grupo 1191324">
    <g id="Grupo_1191323" data-name="Grupo 1191323" clip-path="url(#clip-path)">
      <path id="Trazado_999737" data-name="Trazado 999737" d="M103.208,198.63h54.287a30.1,30.1,0,0,1,30.1,30.1v45.836a30.1,30.1,0,0,1-30.1,30.1H103.208a30.1,30.1,0,0,1-30.1-30.1V228.732a30.1,30.1,0,0,1,30.1-30.1" transform="translate(55.62 -66.084)" fill="#ffce5e"/>
      <path id="Trazado_999738" data-name="Trazado 999738" d="M288.551,306.614c-1.437,25.737-6.354,46.461-15.047,55.355-29.753,30.444-57.351-.635-93.283,3.945-46.767,5.96-65.718,22.987-135.786-5.5C26.7,353.2,8.315,334.968.673,306.614Z" transform="translate(3 -102.01)" fill="#697bae"/>
      <path id="Trazado_999739" data-name="Trazado 999739" d="M129.4,328.212a80.6,80.6,0,0,1-64.378-5.43l7.7-16.168H156.56c-5.067,10.372-15.975,17.715-27.162,21.6" transform="translate(92.053 -102.01)" fill="#495e84"/>
      <path id="Trazado_999740" data-name="Trazado 999740" d="M174.022,347.42l41.127,14.988,45.443-34.65-44.88-7.2Z" transform="translate(-84.717 -106.648)" fill="#495e84"/>
      <path id="Trazado_999741" data-name="Trazado 999741" d="M175.806,345.714,216.933,360.7l45.443-34.65-44.88-7.2Z" transform="translate(-87.691 -106.081)" fill="#9dc9dd"/>
      <path id="Trazado_999742" data-name="Trazado 999742" d="M175.831,343.654l41.127,14.988,45.443-34.65-44.88-7.2Z" transform="translate(-87.734 -105.395)" fill="#d5f2f9"/>
      <path id="Trazado_999743" data-name="Trazado 999743" d="M178.468,342.875,219.6,357.862l45.443-34.65-44.88-7.2Z" transform="translate(-92.131 -105.136)" fill="#fff"/>
      <line id="Línea_3436" data-name="Línea 3436" x2="26.539" y2="8.228" transform="translate(99.965 234.582)" fill="none" stroke="#9dc9dd" stroke-linecap="round" stroke-linejoin="round" stroke-width="2"/>
      <line id="Línea_3437" data-name="Línea 3437" x2="26.539" y2="8.228" transform="translate(107.679 230.368)" fill="none" stroke="#9dc9dd" stroke-linecap="round" stroke-linejoin="round" stroke-width="2"/>
      <line id="Línea_3438" data-name="Línea 3438" x2="26.539" y2="8.228" transform="translate(113.9 226.305)" fill="none" stroke="#9dc9dd" stroke-linecap="round" stroke-linejoin="round" stroke-width="2"/>
      <line id="Línea_3439" data-name="Línea 3439" x2="26.539" y2="8.228" transform="translate(120.774 222.815)" fill="none" stroke="#9dc9dd" stroke-linecap="round" stroke-linejoin="round" stroke-width="2"/>
      <line id="Línea_3440" data-name="Línea 3440" x2="11.349" y2="2.805" transform="translate(127.266 219.198)" fill="none" stroke="#9dc9dd" stroke-linecap="round" stroke-linejoin="round" stroke-width="2"/>
      <path id="Trazado_999744" data-name="Trazado 999744" d="M112.245,287.309c-.989-6.563-1.8-10.608-1.8-10.608L89.68,279.668s-4.855,2.832-4.045,3.1c.135,2.966,1.079,10.788,1.079,10.788Z" transform="translate(122.671 -92.058)" fill="#ebba9d"/>
      <path id="Trazado_999745" data-name="Trazado 999745" d="M90.2,279.668,110.97,276.7s.626,3.131,1.449,8.349a79.512,79.512,0,0,1-25.311,4.386h-.342c-.258-2.362-.539-5.149-.607-6.667-.809-.27,4.045-3.1,4.045-3.1" transform="translate(122.148 -92.058)" fill="#eb977d"/>
      <path id="Trazado_999746" data-name="Trazado 999746" d="M260.5,299.079H237.98l4.045-15.1,20.5,3.1Z" transform="translate(-129.326 -94.479)" fill="#ebba9d"/>
      <path id="Trazado_999747" data-name="Trazado 999747" d="M258.041,295.129a157.273,157.273,0,0,1-20.062-7.709l.923-3.445,20.5,3.1Z" transform="translate(-126.202 -94.479)" fill="#eb977d"/>
      <path id="Trazado_999748" data-name="Trazado 999748" d="M139.568,74.521c29.156-1.13,36.717,18.321,37.951,31.685s14.441,30.548,5.35,40.959-28.544,12.284-40.764,11.267-31.247-6.612-37.066-13.465,3.393-18.758,3.946-32.192,6.435-37.318,30.582-38.254" transform="translate(37.145 -24.777)" fill="#222859"/>
      <path id="Trazado_999749" data-name="Trazado 999749" d="M175.77,195c16.856,6.608,21.171,10.922,26.565,17.935s7.9,43.186,7.9,43.186-22.2,2.663-27.052,2.932l.675,9.44H105.245l.27-8.63-21.845-4.315S96.075,218.326,99.851,209.7s25.082-14.833,32.229-17.665l21.98,2.562Z" transform="translate(25.928 -63.888)" fill="#ed6c6b"/>
      <path id="Trazado_999750" data-name="Trazado 999750" d="M168.5,172.63s-.4,2.292.674,7.147,9.844,8.63,9.844,8.63-16.856,12.406-26.7,16.452c0,0-13.889-11.867-16.991-19.418a42.788,42.788,0,0,0,7.821-4.046c2.7-2.023,2.562-9.169,2.562-9.169Z" transform="translate(22.685 -57.299)" fill="#ebba9d"/>
      <path id="Trazado_999751" data-name="Trazado 999751" d="M193,306.521l-.6,5.123L196.6,308.6l20.6-35.618a2.082,2.082,0,1,0-3.6-2.085Z" transform="translate(-53.872 -89.782)" fill="#222859"/>
      <path id="Trazado_999752" data-name="Trazado 999752" d="M114.587,298.532c-4.135-.18-7.911-3.776-10.968-4.315s-8.63,1.8-12.406,2.158-6.751.9-5.753,4.674a4.03,4.03,0,0,0,.9,5.034s-1.618,1.079,2.157,3.236c0,0-.9,1.618,2.338,2.877s19.6,2.158,24.453,3.057,25.891,5.753,40.454,1.8,22.654-10.428,20.317-24.453c0,0-57.355,6.113-61.49,5.934" transform="translate(58.839 -97.347)" fill="#ebba9d"/>
      <path id="Trazado_999753" data-name="Trazado 999753" d="M149.5,176.133l3.014-3.834,20.054.356s-.4,2.292.675,7.147a7.239,7.239,0,0,0,1.754,3.13q-.8.446-1.636.827a26.673,26.673,0,0,1-25.918-2.528c1.183-1.077,1.768-3.19,2.057-5.1" transform="translate(18.608 -57.324)" fill="#eb977d"/>
      <path id="Trazado_999754" data-name="Trazado 999754" d="M126.737,123.781c-1.939,11.526,1.4,36.76,22,36.68,22.232-.087,24.858-23.913,24.858-23.913s5.952-.243,5.9-5.763-6.019-5.426-6.019-5.426-22.541-4.821-27.644-18.246c0,0-10.584,15-19.094,16.669" transform="translate(28.252 -35.636)" fill="#ebba9d"/>
      <path id="Trazado_999755" data-name="Trazado 999755" d="M131.167,140.845a4.665,4.665,0,0,1,.878-.782,3.341,3.341,0,0,1,.467-.263,2.043,2.043,0,0,1,.6-.24.535.535,0,0,1,.548.187.517.517,0,0,1,.041.579,4.88,4.88,0,0,1-.707.7,8.125,8.125,0,0,0-.607.606,1.782,1.782,0,0,1,.581.519,1.806,1.806,0,0,1,.329,1.149,1.547,1.547,0,0,1-1.837,1.465,1.808,1.808,0,0,1-1.121-1.909,3.385,3.385,0,0,1,.826-2.008" transform="translate(71.252 -46.428)" fill="#eb977d"/>
      <path id="Trazado_999756" data-name="Trazado 999756" d="M153.958,113.731s-9.819,10.2-18.678,10.05c8.511-1.67,19.095-16.67,19.095-16.67,5.1,13.425,27.644,18.247,27.644,18.247-12.695.021-24.08-4.717-28.061-11.627" transform="translate(19.709 -35.636)" fill="#eb977d"/>
      <path id="Trazado_999757" data-name="Trazado 999757" d="M102.685,295.719a30.248,30.248,0,0,1,5.2-.793c1.8-.208,3.6-.419,5.392-.647,1.745-.222,3.489-.451,5.233-.676.9-.115,1.791-.241,2.687-.354a13.881,13.881,0,0,1,2.834-.232.26.26,0,0,1,.069.508,12.674,12.674,0,0,1-2.629.621c-.889.162-1.783.3-2.675.446-1.786.291-3.576.552-5.369.8q-2.544.346-5.092.66a27.507,27.507,0,0,1-5.551.405.375.375,0,0,1-.1-.733" transform="translate(99.374 -97.481)" fill="#eb977d"/>
      <path id="Trazado_999758" data-name="Trazado 999758" d="M204.168,302.949a.442.442,0,0,1-.282-.326,3.662,3.662,0,0,1,.011-2.1,2.968,2.968,0,0,1,1.115-1.387,4.71,4.71,0,0,1,1.674-.726,9.064,9.064,0,0,1,1.02-.167,2.06,2.06,0,0,1,.975.076.092.092,0,0,1,.021.166,5.644,5.644,0,0,1-1.695.493,3.78,3.78,0,0,0-1.389.681,2.6,2.6,0,0,0-.767,1.06,2.34,2.34,0,0,0-.047,1.327c.006,0,.011-.009.017-.011a3.629,3.629,0,0,1,1.371-.064q.63.011,1.259.008,1.415-.007,2.831-.077c.908-.044,1.812-.119,2.719-.176a7.216,7.216,0,0,1,2.632-.015.121.121,0,0,1,.029.219,6.152,6.152,0,0,1-2.647.682c-.907.137-1.819.212-2.734.273q-1.414.094-2.831.1-.735,0-1.469-.009c-.24,0-.472,0-.7-.025a.345.345,0,0,1-.105.147,2.756,2.756,0,0,0-.643,2.486,2.367,2.367,0,0,0,.516,1.267c.058.067.12.123.181.182a2.233,2.233,0,0,1,1.172-.114c.5.011,1,.019,1.5.021,1,0,2.008-.012,3.011-.029s2-.057,3.007-.075c.5-.009,1-.017,1.5-.013.311,0,.656-.04.865.22a.014.014,0,0,1,0,.017c-.159.323-.566.345-.888.407-.489.095-.986.174-1.48.236-1,.126-2,.2-3.007.238s-2.006.043-3.011.015c-.5-.014-1-.032-1.5-.058-.195-.01-.384-.009-.567-.024a2.271,2.271,0,0,0,.033.775,1.774,1.774,0,0,0,.726,1,7.182,7.182,0,0,0,2.9.647c1.069.145,2.135.318,3.2.47.567.081,1.136.151,1.7.235a4.167,4.167,0,0,1,1.509.364.2.2,0,0,1-.048.368,4.79,4.79,0,0,1-1.87.033c-.673-.051-1.345-.111-2.017-.173-1.325-.122-2.643-.276-3.96-.468l-.037-.006a3.206,3.206,0,0,0,.288,1,2.845,2.845,0,0,0,.781.894,5.77,5.77,0,0,0,2.067.914,22.833,22.833,0,0,0,2.378.454l1.53.234a3.313,3.313,0,0,1,1.343.366.1.1,0,0,1-.023.175,3.472,3.472,0,0,1-1.459-.034l-1.709-.23a23.386,23.386,0,0,1-2.814-.439,5.288,5.288,0,0,1-2.191-1.1,2.755,2.755,0,0,1-1.073-2.4v0a2.972,2.972,0,0,1-1.738-1.074,2.709,2.709,0,0,1-.482-2.109,1.723,1.723,0,0,1-.548-.34,2.773,2.773,0,0,1-.764-1.774,4.019,4.019,0,0,1,.609-2.7" transform="translate(-60.224 -99.217)" fill="#eb977d"/>
      <path id="Trazado_999759" data-name="Trazado 999759" d="M227.9,326.838l-4.208,3.041.6-5.123a2.964,2.964,0,0,1,3.606,2.082" transform="translate(-85.17 -108.018)" fill="#eb977d"/>
      <path id="Trazado_999760" data-name="Trazado 999760" d="M227.621,331.544l.22-1.87a3.23,3.23,0,0,1,1.367.724Z" transform="translate(-89.099 -109.682)" fill="#222859"/>
      <path id="Trazado_999761" data-name="Trazado 999761" d="M196.354,275.828a6.829,6.829,0,0,1,3.585,2.117l-.87,1.5a5.371,5.371,0,0,0-.966-.9,6.011,6.011,0,0,0-1.806-.895,4.823,4.823,0,0,0-.9-.163Z" transform="translate(-38.325 -91.768)" fill="#ffce5e"/>
      <path id="Trazado_999762" data-name="Trazado 999762" d="M155.835,133.172a4.853,4.853,0,0,1,3.379-.372,4.524,4.524,0,0,1,1.7.887,2.768,2.768,0,0,1,.643.689,1.306,1.306,0,0,1,.243,1.047.641.641,0,0,1-.59.449,1.286,1.286,0,0,1-.759-.33,4.654,4.654,0,0,1-.39-.294l-.055-.044c-.03-.019-.122-.083-.135-.091a4.843,4.843,0,0,0-.614-.33c.025.015-.211-.081-.237-.089a3.638,3.638,0,0,0-.353-.1c-.058-.013-.116-.023-.174-.035l-.027,0c-.125-.01-.248-.017-.374-.016-.11,0-.221.009-.33.019-.012.006-.214.039-.254.049-.122.029-.244.063-.362.1l-.137.051-.066.029c-.237.123-.462.263-.7.391a1.718,1.718,0,0,1-.875.3.79.79,0,0,1-.787-.821c0-.688.685-1.217,1.247-1.491" transform="translate(26.997 -44.132)" fill="#222859"/>
      <path id="Trazado_999763" data-name="Trazado 999763" d="M184.672,133.172a4.853,4.853,0,0,1,3.379-.372,4.524,4.524,0,0,1,1.7.887,2.743,2.743,0,0,1,.643.689,1.306,1.306,0,0,1,.243,1.047.641.641,0,0,1-.59.449,1.289,1.289,0,0,1-.759-.33c-.136-.09-.263-.191-.39-.294l-.055-.044c-.03-.019-.121-.083-.135-.091a4.842,4.842,0,0,0-.614-.33c.025.015-.211-.081-.237-.089a3.585,3.585,0,0,0-.353-.1c-.058-.013-.116-.023-.174-.035l-.027,0c-.125-.01-.248-.017-.374-.016-.11,0-.221.009-.33.019-.012.006-.214.039-.254.049-.122.029-.244.063-.362.1-.047.016-.092.033-.138.051l-.066.029c-.236.123-.462.263-.7.391a1.718,1.718,0,0,1-.875.3.789.789,0,0,1-.786-.821c0-.688.684-1.217,1.246-1.491" transform="translate(-21.083 -44.132)" fill="#222859"/>
      <path id="Trazado_999764" data-name="Trazado 999764" d="M155.9,146.131a3.839,3.839,0,0,1,.017-.636,3.765,3.765,0,0,1,.437-1.517,2.371,2.371,0,0,1,1.4-1.128,2.571,2.571,0,0,1,2.931,1.438,5.054,5.054,0,0,1,.385,1.3c.218,1.349.12,2.914-1.088,3.788a2.5,2.5,0,0,1-3.719-.869,4.4,4.4,0,0,1-.386-1.63,4.49,4.49,0,0,1,.024-.745" transform="translate(26.833 -47.5)" fill="#222859"/>
      <path id="Trazado_999765" data-name="Trazado 999765" d="M183.547,146.131a3.836,3.836,0,0,1,.017-.636,3.765,3.765,0,0,1,.437-1.517,2.371,2.371,0,0,1,1.4-1.128,2.571,2.571,0,0,1,2.931,1.438,5.054,5.054,0,0,1,.385,1.3c.218,1.349.12,2.914-1.088,3.788a2.5,2.5,0,0,1-3.72-.869,4.409,4.409,0,0,1-.385-1.63,4.49,4.49,0,0,1,.024-.745" transform="translate(-19.268 -47.5)" fill="#222859"/>
      <path id="Trazado_999766" data-name="Trazado 999766" d="M170.039,156.5a1.108,1.108,0,0,1,1.113-.181,4.416,4.416,0,0,1,.731.388c.1.049.46.329.557.3,0,0-.243-.091-.052-.023l.133.049c.089.031.18.058.271.082s.206.047.31.069l.018,0,.115.013a4.813,4.813,0,0,0,.707,0l.064,0c.095-.012.186-.025.282-.032.041,0,.22-.023.244-.023a4.959,4.959,0,0,1,1.281-.251.277.277,0,0,1,.272.272,1.369,1.369,0,0,1-.65,1.086,3.344,3.344,0,0,1-1.26.681,4.9,4.9,0,0,1-2.807-.1,2.369,2.369,0,0,1-1.515-1.285,1,1,0,0,1,.184-1.039" transform="translate(2.615 -51.984)" fill="#eb977d"/>
      <path id="Trazado_999767" data-name="Trazado 999767" d="M160.345,142.983a1.33,1.33,0,0,1,.343-.588l.27-.209a1.324,1.324,0,0,1,.673-.182,1.37,1.37,0,0,1,1.333,1.333c-.015.118-.031.237-.047.355a1.339,1.339,0,0,1-.343.589l-.27.208a1.324,1.324,0,0,1-.673.182,1.371,1.371,0,0,1-1.334-1.334c.015-.118.031-.237.047-.355" transform="translate(22.068 -47.244)" fill="#fff"/>
      <path id="Trazado_999768" data-name="Trazado 999768" d="M188.346,142.983a1.33,1.33,0,0,1,.343-.588l.27-.209a1.324,1.324,0,0,1,.673-.182,1.287,1.287,0,0,1,1.218.819,1,1,0,0,1,.115.514c-.015.118-.031.237-.047.355a1.339,1.339,0,0,1-.343.589l-.27.208a1.324,1.324,0,0,1-.673.182,1.373,1.373,0,0,1-1.335-1.334l.048-.355" transform="translate(-24.618 -47.244)" fill="#fff"/>
      <path id="Trazado_999769" data-name="Trazado 999769" d="M144.092,155.081c0,1.35,1.848,2.444,4.129,2.444s4.129-1.094,4.129-2.444-1.848-2.444-4.129-2.444-4.129,1.094-4.129,2.444" transform="translate(43.498 -50.782)" fill="#ed6c6b"/>
      <path id="Trazado_999770" data-name="Trazado 999770" d="M190.475,155.081c0,1.35,1.848,2.444,4.129,2.444s4.129-1.094,4.129-2.444-1.848-2.444-4.129-2.444-4.129,1.094-4.129,2.444" transform="translate(-33.836 -50.782)" fill="#ed6c6b"/>
      <path id="Trazado_999771" data-name="Trazado 999771" d="M154.01,216.829c-1.092.47-2.193.92-3.3,1.365-.986.4-2.066,1.107-3.023.307a38.383,38.383,0,0,1-2.813-2.837c-.941-.973-1.88-1.948-2.8-2.939q-2.768-2.973-5.476-6c-3.34-3.716-6.643-7.5-9.769-11.409.489-.177.963-.346,1.425-.512,2.554,3.037,5.1,6.079,7.729,9.055,3.426,3.876,6.971,7.645,10.57,11.359.4.417.812.829,1.214,1.247a6.247,6.247,0,0,0,.7.735c.334.243.528.143.895.009,1.1-.4,2.189-.835,3.272-1.282q3.293-1.358,6.493-2.931a105.055,105.055,0,0,0,11.968-6.859,98.112,98.112,0,0,0,10.671-8.261c.3.128.6.257.889.384a87.521,87.521,0,0,1-22.04,15.48q-3.255,1.651-6.612,3.09" transform="translate(24.703 -64.811)" fill="#222859"/>
      <path id="Trazado_999772" data-name="Trazado 999772" d="M121.137,244.626a.111.111,0,0,1,.212,0c.28,1.156.378,2.346.609,3.514.118-.125.236-.252.358-.371a6.509,6.509,0,0,1,.549-.484,1.973,1.973,0,0,1,.708-.414.219.219,0,0,1,.244.317,2.378,2.378,0,0,1-.426.537q-.229.244-.454.492t-.434.511c-.017.021-.034.042-.051.063l-.032.041-.028.037-.048.065c-.052.069-.1.14-.152.21.3,1.15.631,2.288.994,3.419a30.818,30.818,0,0,1,1.73,8.06,43.14,43.14,0,0,1-.8,8.548c-.229,1.435-.452,2.87-.612,4.315-.166,1.5-.115,3-.249,4.491-.051.563-.937.787-1.063.143a15.6,15.6,0,0,1,.011-4.354c.13-1.369.356-2.73.581-4.086a46.26,46.26,0,0,0,.954-8.918,34.135,34.135,0,0,0-1.746-8.289c-.274-.964-.54-1.932-.741-2.913a.428.428,0,0,1-.075-.375l0-.007c-.045-.242-.091-.482-.126-.726a8.134,8.134,0,0,1,.083-3.828" transform="translate(86.411 -81.361)" fill="#222859"/>
      <path id="Trazado_999773" data-name="Trazado 999773" d="M233.386,266.059c.275-3,1.586-5.657,2.678-8.423a33.7,33.7,0,0,0,2.213-8.934,31.86,31.86,0,0,0,.127-4.951c-.029-.53-.071-1.06-.121-1.589a.29.29,0,0,1-.222-.049.581.581,0,0,1-.216-.284.412.412,0,0,1-.021-.053c.009.043.025.058,0,.005-.035-.079-.075-.156-.115-.232a4.882,4.882,0,0,0-.274-.476c-.024-.035-.049-.071-.075-.105a.329.329,0,0,1-.03-.039l-.005-.007c-.042-.052-.085-.1-.126-.157l-.043-.057,0,0c-.042-.092-.147-.16-.2-.25-.033-.087-.043-.108-.029-.065.007.019.007.021,0,0a.315.315,0,0,1-.039-.055.294.294,0,0,1-.046-.16.2.2,0,0,1,.018-.2.211.211,0,0,1,.181-.069.271.271,0,0,1,.175,0c.037.014.073.031.109.046l.027.011c.021.011.018.007-.011-.01.093,0,.218.121.29.177a2.459,2.459,0,0,1,.444.444l.025.035a9.442,9.442,0,0,1-.174-2.023.15.15,0,0,1,.277-.075,10.61,10.61,0,0,1,1.052,4.137,29.25,29.25,0,0,1,.192,4.534,32.333,32.333,0,0,1-1.556,8.949c-.957,2.945-2.53,5.709-3.078,8.78a30.718,30.718,0,0,0,.239,8.985c.388,3.272.671,6.646-.235,9.861a.517.517,0,0,1-1-.275c1.579-5.759-.965-11.608-.432-17.431" transform="translate(-103.15 -79.331)" fill="#222859"/>
      <path id="Trazado_999774" data-name="Trazado 999774" d="M241.73,278.829q4.6,1.147,9.221,2.209,2.991.686,5.993,1.323c1.024.217,2.057.407,3.073.66.145.036,1.469.254,1.165.735-.332.525-1.17.222-1.681.148-1.037-.15-2.067-.362-3.1-.557-2.011-.38-4.021-.772-6.024-1.2-3.034-.64-6.056-1.343-9.067-2.089q.2-.587.416-1.236" transform="translate(-130.255 -92.766)" fill="#222859"/>
      <path id="Trazado_999775" data-name="Trazado 999775" d="M109.467,280.753c-1.163.213-2.33.4-3.5.57q-3.444.511-6.9.849a113.9,113.9,0,0,1-14.185.866.708.708,0,0,1,0-1.409c4.664-.42,9.357-.475,14.025-.883,2.3-.2,4.607-.426,6.909-.653,1.175-.116,2.35-.241,3.526-.354.318-.031.633-.064.947-.1q.044.49.085.946c-.3.056-.6.109-.9.165" transform="translate(125.42 -93.037)" fill="#222859"/>
      <path id="Trazado_999776" data-name="Trazado 999776" d="M177.71,165.24c-.326-.7-11.069-1.116-12.108-.064s1.691,5.934,6.26,5.607c4.743-.34,6.482-4.177,5.848-5.543" transform="translate(3.805 -54.742)" fill="#222859"/>
      <path id="Trazado_999777" data-name="Trazado 999777" d="M167.777,170.549a9.52,9.52,0,0,1,9.2.055A7,7,0,0,1,172.6,172.4a6.208,6.208,0,0,1-4.82-1.848" transform="translate(3.07 -56.357)" fill="#ed6c6b"/>
      <path id="Trazado_999778" data-name="Trazado 999778" d="M177.711,165.24a1.565,1.565,0,0,1,.122.663,4.2,4.2,0,0,1-2.672.587l-9.743-.314a1.143,1.143,0,0,1,.185-1c1.039-1.052,11.782-.639,12.108.064" transform="translate(3.804 -54.742)" fill="#fff"/>
      <path id="Trazado_999779" data-name="Trazado 999779" d="M24.594,352.491c0,4.652,13.8,8.424,30.823,8.424s30.823-3.772,30.823-8.424-13.8-8.424-30.823-8.424-30.823,3.772-30.823,8.424" transform="translate(189.348 -114.471)" fill="#495e84"/>
      <path id="Trazado_999780" data-name="Trazado 999780" d="M29.642,350.124c0,3.941,12.872,7.136,28.749,7.136s28.749-3.2,28.749-7.136-12.871-7.137-28.749-7.137-28.749,3.2-28.749,7.137" transform="translate(185.081 -114.112)" fill="#d5f2f9"/>
      <path id="Trazado_999781" data-name="Trazado 999781" d="M45.947,352.1c0,1.754,8,3.175,17.868,3.175s17.868-1.421,17.868-3.175-8-3.175-17.868-3.175-17.868,1.421-17.868,3.175" transform="translate(179.656 -116.087)" fill="#9dc9dd"/>
      <path id="Trazado_999782" data-name="Trazado 999782" d="M41.274,324.623s6.86-1.718,7.7,4.575-3.223,12.815-13.2,10.666l1.228-3.607s7.369,2.459,8.557-3.912-4.611-4.69-4.611-4.69Z" transform="translate(219.037 -107.931)" fill="#fff"/>
      <path id="Trazado_999783" data-name="Trazado 999783" d="M46.633,327.6a5.735,5.735,0,0,0-2.675.063l.32-3.032a8.751,8.751,0,0,1,1.473-.2Z" transform="translate(216.034 -107.939)" fill="#222859"/>
      <path id="Trazado_999784" data-name="Trazado 999784" d="M48.859,345.772l1.228-3.607a10.825,10.825,0,0,0,3.352.461l-.639,3.556a17.109,17.109,0,0,1-3.941-.41" transform="translate(205.958 -113.838)" fill="#222859"/>
      <path id="Trazado_999785" data-name="Trazado 999785" d="M81.606,317.588s3.054,25.647-17.868,25.647-17.868-25.647-17.868-25.647Z" transform="translate(179.734 -105.661)" fill="#fff"/>
      <path id="Trazado_999786" data-name="Trazado 999786" d="M45.947,315.224c0,2.618,8,4.741,17.868,4.741s17.868-2.122,17.868-4.741-8-4.74-17.868-4.74-17.868,2.123-17.868,4.74" transform="translate(179.656 -103.298)" fill="#d5f2f9"/>
      <path id="Trazado_999787" data-name="Trazado 999787" d="M48.859,315.831c0,1.947,7.13,3.525,15.925,3.525s15.925-1.578,15.925-3.525-7.13-3.525-15.925-3.525-15.925,1.578-15.925,3.525" transform="translate(178.687 -103.904)" fill="#222859"/>
      <path id="Trazado_999788" data-name="Trazado 999788" d="M80.033,318.665c-2.468,1.239-8.064,2.105-14.577,2.105s-12.108-.866-14.577-2.105c2.468-1.24,8.064-2.105,14.577-2.105s12.109.865,14.577,2.105" transform="translate(178.015 -105.319)" fill="#ffce5e"/>
      <path id="Trazado_999789" data-name="Trazado 999789" d="M80.033,318.858c-2.468,1.239-8.064,2.105-14.577,2.105s-12.108-.866-14.577-2.105a9.277,9.277,0,0,1,1.032-.432,23.187,23.187,0,0,0,6.615,1.622,56.8,56.8,0,0,0,9.969-.111,6.015,6.015,0,0,0,3.254-.887,2.432,2.432,0,0,0,.94-1.911,24.145,24.145,0,0,1,7.344,1.719" transform="translate(178.015 -105.512)" fill="#ff8f3d"/>
      <path id="Trazado_999790" data-name="Trazado 999790" d="M224.252,57.5c0,14.128,16.043,25.582,35.832,25.582S295.916,71.625,295.916,57.5s-16.043-25.582-35.832-25.582S224.252,43.369,224.252,57.5" transform="translate(-153.56 -10.618)" fill="#ffce5e"/>
      <path id="Trazado_999791" data-name="Trazado 999791" d="M229.331,81.639l8.061,11.746a1.046,1.046,0,0,1-1,1.628l-15.648-2.1Z" transform="translate(-92.879 -27.161)" fill="#ffce5e"/>
      <path id="Trazado_999792" data-name="Trazado 999792" d="M245.421,77.517a3.895,3.895,0,1,0,3.9-3.894,3.9,3.9,0,0,0-3.9,3.894" transform="translate(-124.98 -24.494)" fill="#fff"/>
      <path id="Trazado_999793" data-name="Trazado 999793" d="M272.113,77.517a3.895,3.895,0,1,0,3.9-3.894,3.9,3.9,0,0,0-3.9,3.894" transform="translate(-169.483 -24.494)" fill="#fff"/>
      <path id="Trazado_999794" data-name="Trazado 999794" d="M298.8,77.517a3.895,3.895,0,1,0,3.9-3.894,3.9,3.9,0,0,0-3.9,3.894" transform="translate(-213.985 -24.494)" fill="#fff"/>
      <path id="Trazado_999795" data-name="Trazado 999795" d="M320.947,329.412c0,3.137,8.343,5.68,18.634,5.68s18.634-2.543,18.634-5.68-8.343-5.681-18.634-5.681-18.634,2.544-18.634,5.681" transform="translate(-280.382 -107.705)" fill="#495e84"/>
      <path id="Trazado_999796" data-name="Trazado 999796" d="M335.89,242.007c.887-3.469,1.7-7.07,1.108-10.6a5.5,5.5,0,0,0-1.078-2.692,2.552,2.552,0,0,0-2.616-.9c-1.13.366-1.67,1.62-2.061,2.741a152.233,152.233,0,0,0-6.511,25.724c-.373,2.3-.807,5.718.976,7.6,2.123,2.242,3.611.488,4.271-1.668,2.047-6.7,4.173-13.4,5.912-20.2" transform="translate(-261.671 -75.762)" fill="#83baa8"/>
      <path id="Trazado_999797" data-name="Trazado 999797" d="M347.568,193.566a12.879,12.879,0,0,0-.8-4.76,4.1,4.1,0,0,0-7.673-.465,13.3,13.3,0,0,0-1.429,4.75c-2.314,13.933-3.889,28.16-2.061,42.166a91.514,91.514,0,0,0,1.708,9.275,9.767,9.767,0,0,0,1.3,3.411,3.551,3.551,0,0,0,3.095,1.646c3.472-.339,2.884-7.926,3.155-10.223.6-5.073,1.159-10.15,1.619-15.237a243.823,243.823,0,0,0,1.079-30.563" transform="translate(-279.102 -61.849)" fill="#83baa8"/>
      <path id="Trazado_999798" data-name="Trazado 999798" d="M360.762,257.59c2.812-6.06,2.933-13,2.5-19.668a132.246,132.246,0,0,0-4.085-25.049c-1.293-4.9-2.947-9.873-6.265-13.705-.676-.78-1.6-1.568-2.612-1.372-1.065.206-1.618,1.371-1.944,2.4-2.538,8.056-1.317,16.774.29,25.066a235.793,235.793,0,0,0,7.017,27.694c.466,1.442,1.075,3.028,2.445,3.675s3.46-.626,2.882-2.027a5.705,5.705,0,0,1-.225,2.981" transform="translate(-302.93 -65.796)" fill="#83baa8"/>
      <path id="Trazado_999799" data-name="Trazado 999799" d="M364.694,228.055a11.283,11.283,0,0,0-3.5-3.508,2.8,2.8,0,0,0-1.981-.4,2.429,2.429,0,0,0-1.639,2.085,7.007,7.007,0,0,0,.36,2.773,292.537,292.537,0,0,0,12.755,36.7c.46,1.092,1.73,3.545,3.359,2.57,1.07-.641.575-2.733.607-3.758a69.194,69.194,0,0,0-.447-12.885,55.018,55.018,0,0,0-9.516-23.572" transform="translate(-321.339 -74.554)" fill="#83baa8"/>
      <path id="Trazado_999800" data-name="Trazado 999800" d="M341.719,259.031a16.83,16.83,0,0,0,.72-6.889,3.582,3.582,0,0,0-.7-1.75,1.658,1.658,0,0,0-1.7-.587c-.734.238-1.085,1.053-1.339,1.781a98.91,98.91,0,0,0-4.231,16.719c-.242,1.5-.525,3.716.634,4.939,1.38,1.457,2.347.317,2.775-1.084,1.331-4.353,2.713-8.712,3.842-13.13" transform="translate(-273.616 -83.09)" fill="#4d867e"/>
      <path id="Trazado_999801" data-name="Trazado 999801" d="M349.309,227.55a8.378,8.378,0,0,0-.519-3.094,2.665,2.665,0,0,0-4.987-.3,8.636,8.636,0,0,0-.928,3.087c-1.5,9.055-2.528,18.3-1.339,27.4a59.418,59.418,0,0,0,1.11,6.028,6.336,6.336,0,0,0,.848,2.217,2.307,2.307,0,0,0,2.011,1.07c2.256-.221,1.874-5.151,2.051-6.644.388-3.3.753-6.6,1.052-9.9a158.577,158.577,0,0,0,.7-19.863" transform="translate(-284.944 -74.048)" fill="#4d867e"/>
      <path id="Trazado_999802" data-name="Trazado 999802" d="M357.884,269.158c1.827-3.938,1.906-8.45,1.622-12.782a85.843,85.843,0,0,0-2.655-16.279c-.84-3.185-1.915-6.417-4.071-8.907a1.968,1.968,0,0,0-1.7-.892c-.692.133-1.051.891-1.263,1.563-1.65,5.236-.856,10.9.188,16.291a153.3,153.3,0,0,0,4.561,18,3.683,3.683,0,0,0,1.589,2.388c.89.421,2.249-.406,1.873-1.317a3.7,3.7,0,0,1-.146,1.937" transform="translate(-300.431 -76.614)" fill="#4d867e"/>
      <path id="Trazado_999803" data-name="Trazado 999803" d="M360.44,249.965a7.327,7.327,0,0,0-2.273-2.28,1.822,1.822,0,0,0-1.288-.262,1.579,1.579,0,0,0-1.065,1.355,4.551,4.551,0,0,0,.234,1.8,190.161,190.161,0,0,0,8.29,23.851c.3.71,1.125,2.3,2.183,1.67.7-.416.374-1.776.4-2.442a44.988,44.988,0,0,0-.291-8.374,35.759,35.759,0,0,0-6.185-15.319" transform="translate(-312.396 -82.305)" fill="#4d867e"/>
      <path id="Trazado_999804" data-name="Trazado 999804" d="M329.29,312.5s4.931,2.252,14.887,2.252,14.888-2.252,14.888-2.252V272.343H329.29Z" transform="translate(-286.801 -90.608)" fill="#ff8f3d"/>
      <path id="Trazado_999805" data-name="Trazado 999805" d="M329.29,282.466a7.985,7.985,0,0,0,.852.557,3.749,3.749,0,0,0,3,.253c1.674-.578,2.648-2.286,4.267-2.987a4.072,4.072,0,0,1,4.04.632c1.119.781,2.026,1.945,3.278,2.522,1.363.629,2.515-.236,3.5-1.132s1.992-2,3.364-2.3c1.931-.421,3.072,1.041,4.478,2.044a2.294,2.294,0,0,0,2.995-.187v1.589a3.694,3.694,0,0,1-.84.369c-1.643.464-2.887-.511-4.071-1.5a2.941,2.941,0,0,0-1.941-.934,3.127,3.127,0,0,0-1.75.887,15.915,15.915,0,0,1-3.179,2.562c-2.953,1.4-4.787-1.459-7-2.805-1.549-.945-2.763-.1-3.964.985-1.332,1.2-2.7,2.174-4.579,2.13a5.4,5.4,0,0,1-2.456-.666Z" transform="translate(-286.801 -93.134)" fill="#222859"/>
      <path id="Trazado_999806" data-name="Trazado 999806" d="M337.805,286.875a.868.868,0,0,1,.234-.392l.019-.015.036-.029a.882.882,0,0,1,1.211,0l.133.173a.848.848,0,0,1,.117.432l-.03.228a.863.863,0,0,1-.22.378l-.03.036-.015.018a.863.863,0,0,1-1.454-.827" transform="translate(-272.952 -95.214)" fill="#fff"/>
      <path id="Trazado_999807" data-name="Trazado 999807" d="M330.428,279.87a.843.843,0,0,1,.228-.384l.017-.015.035-.029a.861.861,0,0,1,1.183,0l.131.169a.839.839,0,0,1,.114.422l-.03.222a.829.829,0,0,1-.215.369l-.029.035-.015.018a.841.841,0,0,1-.383.228.852.852,0,0,1-.448,0,.846.846,0,0,1-.589-.589.852.852,0,0,1,0-.448" transform="translate(-260.612 -92.889)" fill="#fff"/>
      <path id="Trazado_999808" data-name="Trazado 999808" d="M356.229,286.875a.862.862,0,0,1,.234-.392l.018-.015.036-.029a.881.881,0,0,1,1.21,0l.133.173a.848.848,0,0,1,.117.432l-.03.228a.856.856,0,0,1-.22.378l-.03.036-.015.018a.866.866,0,0,1-.392.234.876.876,0,0,1-.458,0,.868.868,0,0,1-.381-.222.862.862,0,0,1-.222-.839" transform="translate(-303.668 -95.214)" fill="#fff"/>
      <path id="Trazado_999809" data-name="Trazado 999809" d="M348.85,279.87a.844.844,0,0,1,.228-.384l.017-.015.035-.029a.861.861,0,0,1,1.183,0l.131.169a.839.839,0,0,1,.114.422l-.03.222a.83.83,0,0,1-.215.369l-.029.035-.015.018a.841.841,0,0,1-.383.228.852.852,0,0,1-.448,0,.846.846,0,0,1-.589-.589.852.852,0,0,1,0-.448" transform="translate(-291.327 -92.889)" fill="#fff"/>
      <path id="Trazado_999810" data-name="Trazado 999810" d="M368.707,279.87a.844.844,0,0,1,.228-.384l.017-.015.035-.029a.861.861,0,0,1,1.183,0l.131.169a.839.839,0,0,1,.114.422l-.03.222a.83.83,0,0,1-.215.369l-.029.035-.015.018a.841.841,0,0,1-.383.228.852.852,0,0,1-.448,0,.846.846,0,0,1-.589-.589.852.852,0,0,1,0-.448" transform="translate(-324.434 -92.889)" fill="#fff"/>
      <path id="Trazado_999811" data-name="Trazado 999811" d="M19.482,61.235H69.008a2.045,2.045,0,0,1,2.045,2.045v57.591a2.045,2.045,0,0,1-2.045,2.045H19.482a2.045,2.045,0,0,1-2.045-2.045V63.28a2.045,2.045,0,0,1,2.045-2.045" transform="translate(209.312 -20.373)" fill="#ffd54e"/>
      <path id="Trazado_999812" data-name="Trazado 999812" d="M28.187,72.015H66.4a1.573,1.573,0,0,1,1.578,1.568v44.159A1.573,1.573,0,0,1,66.4,119.31H28.187a1.573,1.573,0,0,1-1.578-1.568V73.583a1.573,1.573,0,0,1,1.578-1.568" transform="translate(206.261 -23.959)" fill="#ffedb1"/>
      <path id="Trazado_999813" data-name="Trazado 999813" d="M41.628,87.551H62.387a.869.869,0,0,1,.857.881v24.8a.869.869,0,0,1-.857.88H41.628a.869.869,0,0,1-.857-.88v-24.8a.87.87,0,0,1,.857-.881" transform="translate(201.549 -29.128)" fill="#fff"/>
      <path id="Trazado_999814" data-name="Trazado 999814" d="M334.938,97.263H378.6a1.8,1.8,0,0,1,1.8,1.8v50.778a1.8,1.8,0,0,1-1.8,1.8H334.938a1.8,1.8,0,0,1-1.8-1.8V99.066a1.8,1.8,0,0,1,1.8-1.8" transform="translate(-310.709 -32.359)" fill="#ffd54e"/>
      <path id="Trazado_999815" data-name="Trazado 999815" d="M342.613,106.768h33.7a1.387,1.387,0,0,1,1.391,1.383v38.934a1.387,1.387,0,0,1-1.391,1.383h-33.7a1.387,1.387,0,0,1-1.391-1.383V108.151a1.387,1.387,0,0,1,1.391-1.383" transform="translate(-313.399 -35.522)" fill="#ffedb1"/>
      <path id="Trazado_999816" data-name="Trazado 999816" d="M350.531,115.568h23.412a.98.98,0,0,1,.967.993v27.97a.98.98,0,0,1-.967.993H350.531a.98.98,0,0,1-.967-.993v-27.97a.98.98,0,0,1,.967-.993" transform="translate(-316.174 -38.449)" fill="#fff"/>
      <path id="Trazado_999817" data-name="Trazado 999817" d="M242.336,185.124c2.482-1.169,6.243,1.2,5.5,4.143a3.543,3.543,0,0,1-3.429,2.514,4.223,4.223,0,0,1-4.031-2.677,3.476,3.476,0,0,1,1.959-3.98m-.808,3.455c.011.048.021.1.034.143s.031.1.049.15c.012.019.056.113.071.138a2.314,2.314,0,0,0,.615.681l.138.1q.1.067.2.13a5.052,5.052,0,0,0,.462.26,1.544,1.544,0,0,0,.338.139,5.746,5.746,0,0,0,.623.166,2.456,2.456,0,0,0,2.628-1.2c.023-.043.044-.088.065-.133,0-.017.057-.18.057-.182.019-.065.032-.131.047-.2.005-.025.011-.043.014-.056a.391.391,0,0,1-.006-.059c0-.079,0-.16,0-.24a.222.222,0,0,1,0-.04c0-.025-.009-.051-.014-.077-.017-.079-.036-.157-.059-.234-.011-.034-.1-.288-.039-.124a3.278,3.278,0,0,0-.38-.727,6.042,6.042,0,0,1-.436-.606l-.023-.006a1.875,1.875,0,0,1-.463-.258l-.067-.039c-.013,0-.234-.111-.3-.143-.026-.013-.079-.032-.11-.043-.066-.021-.131-.044-.2-.061s-.232-.038-.257-.045a3.84,3.84,0,0,0-.411-.012c-.047,0-.223.023-.258.025a4.784,4.784,0,0,0-.535.125c-.087.027-.173.057-.26.087l-.056.024c-.125.059-.248.121-.366.192-.078.047-.153.1-.228.147a.309.309,0,0,1-.04.025l-.036.033a4.488,4.488,0,0,0-.382.382c-.149.171-.051.071-.026.034-.051.076-.1.153-.144.232a2.5,2.5,0,0,0-.114.223c-.006.017-.009.03-.019.061-.038.125-.07.25-.1.377-.007.039-.017.1-.018.13a2.781,2.781,0,0,0,0,.325c0,.035.019.127.021.147" transform="translate(-116.259 -61.489)" fill="#fff"/>
      <path id="Trazado_999818" data-name="Trazado 999818" d="M52.539,277.626c2.482-1.169,6.243,1.2,5.5,4.143a3.543,3.543,0,0,1-3.429,2.514,4.223,4.223,0,0,1-4.031-2.677,3.476,3.476,0,0,1,1.959-3.98m-.808,3.455c.011.048.021.1.034.143s.031.1.049.15c.012.019.056.113.071.138a2.3,2.3,0,0,0,.615.681c.014.009.119.091.138.1.064.045.129.089.2.131a5.053,5.053,0,0,0,.462.26,1.543,1.543,0,0,0,.338.139,5.747,5.747,0,0,0,.623.166,2.456,2.456,0,0,0,2.628-1.2c.023-.043.044-.089.065-.133,0-.017.057-.18.057-.182.019-.065.032-.131.047-.2.005-.025.011-.043.014-.056a.513.513,0,0,1-.006-.059c0-.079,0-.16,0-.24a.223.223,0,0,1,0-.04c0-.025-.009-.051-.014-.077-.017-.079-.036-.157-.059-.234-.011-.034-.1-.288-.039-.124a3.249,3.249,0,0,0-.38-.727,6.04,6.04,0,0,1-.436-.606l-.023-.006a1.875,1.875,0,0,1-.463-.258l-.067-.039c-.014,0-.234-.111-.3-.143-.026-.013-.079-.032-.11-.043-.066-.021-.131-.044-.2-.061s-.232-.038-.257-.045a3.853,3.853,0,0,0-.411-.012c-.047,0-.224.023-.258.025a4.791,4.791,0,0,0-.535.125c-.087.027-.173.057-.26.087l-.056.024a4.068,4.068,0,0,0-.366.192c-.078.047-.153.1-.228.147a.305.305,0,0,1-.04.025l-.035.033a4.4,4.4,0,0,0-.383.382c-.149.171-.051.071-.026.034-.051.076-.1.153-.144.232s-.08.147-.114.223c-.006.018-.009.03-.019.061-.038.125-.07.25-.1.377-.007.039-.017.1-.018.13a2.778,2.778,0,0,0,0,.325c0,.035.019.127.021.147" transform="translate(200.19 -92.265)" fill="#fff"/>
      <path id="Trazado_999819" data-name="Trazado 999819" d="M161.527,56.557c2.482-1.169,6.243,1.2,5.5,4.143a3.543,3.543,0,0,1-3.429,2.514,4.223,4.223,0,0,1-4.03-2.677,3.476,3.476,0,0,1,1.959-3.98m-.808,3.455c.011.048.021.1.034.143s.031.1.049.15c.012.019.056.113.071.138a2.305,2.305,0,0,0,.615.681c.013.009.119.091.138.1.064.045.129.089.2.131a5.054,5.054,0,0,0,.462.26,1.544,1.544,0,0,0,.338.139,5.745,5.745,0,0,0,.623.166,2.456,2.456,0,0,0,2.628-1.2c.023-.043.044-.088.065-.133,0-.018.057-.18.057-.182.019-.065.032-.131.047-.2.005-.025.011-.043.014-.056a.391.391,0,0,1-.006-.059c0-.079,0-.16,0-.24a.226.226,0,0,1,0-.04c0-.025-.009-.051-.014-.077-.017-.079-.036-.157-.059-.234-.011-.034-.1-.288-.039-.124a3.277,3.277,0,0,0-.38-.727,6.039,6.039,0,0,1-.436-.606l-.023-.006a1.874,1.874,0,0,1-.463-.258l-.067-.039c-.014,0-.234-.112-.3-.143-.027-.013-.08-.032-.11-.043-.066-.021-.131-.044-.2-.061s-.232-.038-.257-.045a3.844,3.844,0,0,0-.411-.012c-.047,0-.224.023-.258.025a4.785,4.785,0,0,0-.535.125c-.087.027-.173.057-.26.087l-.056.023c-.125.059-.248.122-.366.193-.078.047-.153.1-.228.147a.418.418,0,0,1-.04.025l-.036.033a4.488,4.488,0,0,0-.382.382c-.149.171-.051.071-.026.034-.051.075-.1.152-.144.232a2.5,2.5,0,0,0-.114.223c-.006.017-.009.03-.019.061-.038.125-.07.25-.1.377-.007.039-.017.1-.018.129a2.79,2.79,0,0,0,0,.326c0,.035.019.127.021.147" transform="translate(18.474 -18.715)" fill="#fff"/>
      <path id="Trazado_999820" data-name="Trazado 999820" d="M385.226,263.843c2.482-1.169,6.243,1.2,5.5,4.143A3.543,3.543,0,0,1,387.3,270.5a4.223,4.223,0,0,1-4.03-2.677,3.476,3.476,0,0,1,1.959-3.98m-.808,3.455c.011.048.021.1.034.143s.031.1.049.15c.012.019.056.113.07.138a2.317,2.317,0,0,0,.615.681c.014.009.119.091.138.1.064.045.129.089.2.131a4.959,4.959,0,0,0,.462.26,1.542,1.542,0,0,0,.338.139,5.754,5.754,0,0,0,.623.166,2.456,2.456,0,0,0,2.628-1.2c.023-.043.044-.089.065-.133,0-.017.057-.18.057-.182.019-.065.032-.131.047-.2.005-.025.011-.043.014-.056a.516.516,0,0,1-.006-.059c0-.079,0-.16,0-.24a.152.152,0,0,1,0-.04c0-.025-.009-.051-.014-.077-.017-.079-.036-.157-.059-.234-.011-.034-.1-.289-.039-.124a3.278,3.278,0,0,0-.38-.727,6.045,6.045,0,0,1-.436-.606l-.023-.006a1.877,1.877,0,0,1-.463-.258l-.067-.039c-.014,0-.234-.111-.3-.143-.026-.013-.08-.032-.11-.043-.066-.021-.131-.044-.2-.061s-.232-.038-.257-.045a3.853,3.853,0,0,0-.411-.012c-.047,0-.223.023-.258.025a4.791,4.791,0,0,0-.535.125c-.087.027-.173.057-.26.087l-.056.024a4.072,4.072,0,0,0-.366.192c-.078.047-.153.1-.228.147a.426.426,0,0,1-.04.025l-.035.033a4.411,4.411,0,0,0-.383.382c-.149.171-.051.071-.026.034-.051.076-.1.152-.144.232s-.08.147-.114.224c-.006.017-.009.03-.019.061-.038.125-.07.25-.1.377-.007.039-.017.1-.018.13a2.788,2.788,0,0,0,0,.325c0,.035.019.127.021.147" transform="translate(-354.499 -87.679)" fill="#fff"/>
      <path id="Trazado_999821" data-name="Trazado 999821" d="M255.694,198.708c1.917-.9,4.821.928,4.248,3.2a2.735,2.735,0,0,1-2.648,1.941,3.262,3.262,0,0,1-3.113-2.067,2.685,2.685,0,0,1,1.513-3.074m-.624,2.668c.008.037.016.074.026.111s.025.077.038.116c.009.014.043.087.054.107a1.789,1.789,0,0,0,.475.525l.107.08c.049.035.1.069.151.1a3.832,3.832,0,0,0,.357.2,1.181,1.181,0,0,0,.262.107,4.434,4.434,0,0,0,.48.128,1.9,1.9,0,0,0,2.029-.925c.018-.033.034-.068.05-.1,0-.014.044-.139.045-.141.014-.051.025-.1.036-.152,0-.02.008-.033.011-.043a.267.267,0,0,1,0-.045c0-.061,0-.124,0-.186a.135.135,0,0,1,0-.031c0-.02-.007-.04-.011-.059q-.019-.091-.046-.18c-.008-.026-.081-.223-.029-.1a2.555,2.555,0,0,0-.294-.562,4.592,4.592,0,0,1-.337-.468l-.019,0a1.494,1.494,0,0,1-.358-.2l-.051-.031c-.011,0-.181-.086-.236-.111-.021-.009-.062-.025-.085-.033-.051-.017-.1-.034-.154-.047s-.179-.029-.2-.035a2.96,2.96,0,0,0-.318-.009c-.037,0-.172.018-.2.019a3.644,3.644,0,0,0-.413.1c-.068.021-.134.044-.2.067l-.043.018c-.1.045-.192.095-.283.149-.06.036-.118.075-.176.114l-.031.019-.027.025a3.325,3.325,0,0,0-.3.295c-.115.131-.04.055-.02.027-.039.058-.077.117-.111.179a1.9,1.9,0,0,0-.088.172c0,.013-.007.023-.015.047-.03.1-.055.193-.076.292,0,.03-.013.08-.013.1a2.248,2.248,0,0,0,0,.251c0,.027.015.1.017.113" transform="translate(-137.571 -66.032)" fill="#fff"/>
      <path id="Trazado_999822" data-name="Trazado 999822" d="M11.685,210.911c1.888-.889,4.749.914,4.184,3.151a2.694,2.694,0,0,1-2.608,1.912,3.211,3.211,0,0,1-3.066-2.036,2.644,2.644,0,0,1,1.489-3.027m-.615,2.628c.008.037.015.073.026.109s.023.076.037.113c.009.015.043.087.054.105a1.753,1.753,0,0,0,.468.518l.1.079c.049.034.1.067.149.1a3.868,3.868,0,0,0,.352.2,1.175,1.175,0,0,0,.257.106,4.467,4.467,0,0,0,.474.126,1.867,1.867,0,0,0,2-.912c.017-.033.034-.067.049-.1,0-.013.043-.136.044-.138.013-.05.024-.1.035-.149a.432.432,0,0,1,.011-.043.255.255,0,0,1-.005-.045c0-.061,0-.122,0-.183a.131.131,0,0,1,0-.031c0-.019-.006-.039-.011-.058-.013-.06-.027-.119-.045-.178-.007-.025-.079-.219-.029-.094a2.522,2.522,0,0,0-.29-.553,4.631,4.631,0,0,1-.332-.461l-.018,0a1.437,1.437,0,0,1-.352-.2l-.051-.03c-.011,0-.179-.085-.232-.109l-.084-.033c-.05-.016-.1-.033-.151-.046s-.176-.029-.2-.034a2.877,2.877,0,0,0-.313-.009c-.036,0-.169.017-.2.019a3.675,3.675,0,0,0-.407.095c-.067.021-.131.044-.2.067l-.043.018c-.095.045-.189.093-.279.146-.059.035-.116.073-.173.112a.243.243,0,0,1-.031.019l-.027.024a3.525,3.525,0,0,0-.291.291c-.113.129-.039.054-.02.026-.039.057-.075.115-.109.176s-.061.111-.087.169l-.014.047c-.029.095-.053.19-.075.287,0,.03-.012.079-.013.1a2.177,2.177,0,0,0,0,.247c0,.027.014.1.016.112" transform="translate(269.314 -70.093)" fill="#fff"/>
      <path id="Trazado_999823" data-name="Trazado 999823" d="M76.165,175.664c1.917-.9,4.821.928,4.248,3.2a2.735,2.735,0,0,1-2.648,1.941,3.26,3.26,0,0,1-3.112-2.067,2.684,2.684,0,0,1,1.512-3.074m-.624,2.668c.008.037.016.074.026.111s.025.077.038.116c.009.014.043.087.054.107a1.8,1.8,0,0,0,.475.525l.107.08c.049.035.1.069.151.1a3.917,3.917,0,0,0,.357.2,1.181,1.181,0,0,0,.262.107,4.431,4.431,0,0,0,.48.128,1.9,1.9,0,0,0,2.029-.925c.018-.033.034-.068.05-.1,0-.014.044-.139.045-.141.014-.051.025-.1.036-.152,0-.02.008-.033.011-.043a.271.271,0,0,1,0-.045c0-.061,0-.123,0-.186a.13.13,0,0,1,0-.031c0-.02-.007-.04-.011-.059q-.019-.091-.046-.18c-.008-.026-.081-.223-.029-.1a2.555,2.555,0,0,0-.294-.562,4.586,4.586,0,0,1-.337-.468l-.018,0a1.483,1.483,0,0,1-.358-.2l-.051-.031c-.011,0-.182-.086-.236-.111-.021-.01-.062-.025-.085-.033-.051-.017-.1-.034-.153-.047s-.179-.029-.2-.035a2.968,2.968,0,0,0-.318-.009c-.037,0-.172.018-.2.019a3.64,3.64,0,0,0-.413.1c-.067.021-.134.044-.2.067l-.043.019q-.145.067-.284.148c-.06.036-.118.075-.176.114l-.031.019-.027.025a3.334,3.334,0,0,0-.3.295c-.115.131-.039.055-.02.027-.039.058-.077.117-.111.179a1.9,1.9,0,0,0-.088.172c0,.014-.007.023-.015.047-.03.1-.055.193-.076.292,0,.03-.013.08-.013.1a2.248,2.248,0,0,0,0,.251c0,.027.015.1.017.113" transform="translate(161.757 -58.365)" fill="#fff"/>
      <path id="Trazado_999824" data-name="Trazado 999824" d="M314.593,110.128c1.917-.9,4.821.928,4.248,3.2a2.734,2.734,0,0,1-2.648,1.941,3.262,3.262,0,0,1-3.113-2.067,2.685,2.685,0,0,1,1.513-3.074m-.624,2.668c.008.037.016.074.026.111s.025.077.038.116c.009.014.043.087.054.107a1.789,1.789,0,0,0,.475.525c.011.007.092.07.107.08.049.035.1.069.151.1a3.908,3.908,0,0,0,.357.2,1.18,1.18,0,0,0,.262.107,4.431,4.431,0,0,0,.48.128,1.9,1.9,0,0,0,2.029-.925c.018-.033.034-.068.05-.1,0-.014.044-.139.045-.141.014-.051.025-.1.036-.152,0-.02.009-.033.011-.043a.275.275,0,0,1,0-.045c0-.061,0-.123,0-.186a.131.131,0,0,1,0-.031c0-.02-.007-.04-.011-.059q-.019-.091-.046-.18c-.008-.026-.081-.223-.029-.1a2.558,2.558,0,0,0-.294-.562,4.579,4.579,0,0,1-.337-.468l-.018,0a1.461,1.461,0,0,1-.358-.2l-.051-.031c-.011,0-.182-.086-.236-.111-.021-.009-.062-.024-.085-.033-.051-.017-.1-.034-.154-.047s-.179-.029-.2-.035a2.972,2.972,0,0,0-.318-.009c-.037,0-.172.018-.2.019a3.637,3.637,0,0,0-.413.1c-.067.021-.134.044-.2.067l-.044.018c-.1.045-.192.095-.283.149-.06.036-.118.075-.176.114l-.031.019-.027.025a3.335,3.335,0,0,0-.3.295c-.115.131-.039.055-.02.027-.039.058-.077.117-.111.179a1.907,1.907,0,0,0-.088.172l-.015.047c-.03.1-.055.193-.076.292,0,.03-.013.08-.013.1a2.233,2.233,0,0,0,0,.251c0,.027.015.1.017.113" transform="translate(-235.773 -36.561)" fill="#fff"/>
    </g>
  </g>
</svg>
