<svg xmlns="http://www.w3.org/2000/svg" xmlns:xlink="http://www.w3.org/1999/xlink" width="128" height="128" viewBox="0 0 128 128">
  <defs>
    <clipPath id="clip-path">
      <rect id="Rectángulo_456000" data-name="Rectángulo 456000" width="65.889" height="65.871" fill="#636363"/>
    </clipPath>
  </defs>
  <g id="Grupo_1190725" data-name="Grupo 1190725" transform="translate(-305.186 -9426)">
    <g id="Grupo_1177670" data-name="Grupo 1177670" transform="translate(305.186 9426)">
      <path id="Trazado_997691" data-name="Trazado 997691" d="M64,0A64,64,0,1,1,0,64,64,64,0,0,1,64,0Z" transform="translate(128 0) rotate(90)" fill="#cbcbcb"/>
      <path id="Trazado_997692" data-name="Trazado 997692" d="M57.677,0A57.677,57.677,0,1,1,0,57.677,57.677,57.677,0,0,1,57.677,0Z" transform="translate(6.323 6.323)" fill="#fff"/>
      <g id="Grupo_1191341" data-name="Grupo 1191341" transform="translate(31.055 31.064)">
        <g id="Grupo_1191340" data-name="Grupo 1191340" clip-path="url(#clip-path)">
          <path id="Trazado_999888" data-name="Trazado 999888" d="M38.214,56.53a25.9,25.9,0,0,0-4.229-.088l-.046,3.448a1.592,1.592,0,0,1-1.623,1.646H1.668A1.6,1.6,0,0,1,.005,59.856L0,11.96C0,9.24,3.477,10.513,5.061,10.1l.024-3.327a1.572,1.572,0,0,1,1.5-1.666l3.512-.05C10.441,3.61,9.312,0,11.77,0L47.729,0A1.566,1.566,0,0,1,49.251,1.66l.008,34.077a12.666,12.666,0,0,1,10.307,8.2.966.966,0,1,1-1.762.792,10.7,10.7,0,1,0,.6,4.009.91.91,0,0,1,.8-.955c2.4-.285.272,5.34-.389,6.56l5.973,5.393a3.563,3.563,0,0,1-4.827,5.241L53.7,59.418A12.566,12.566,0,0,1,38.214,56.53M21.923,49.38l13.282.04a13.083,13.083,0,0,1,.968-6.195l-2.824-.056a.951.951,0,0,1-.08-1.9l4.02-.053a12.739,12.739,0,0,1,10.039-5.57l-.009-33.74-35.2.009V49.376l4.561.04A5.029,5.029,0,0,0,22,44.452l.028-2.265a.921.921,0,0,1,.9-.92h6.241A.925.925,0,0,1,30.1,42.29c-.046,1.7-4.552.47-6.247.987a7.6,7.6,0,0,1-1.931,6.1M5.081,54.651,5.09,41.365a.951.951,0,0,1,.97-1,.971.971,0,0,1,.949,1l.007,13.147,29.694-.023a32.268,32.268,0,0,1-1.236-3.151l-24.352-.016a.937.937,0,0,1-.963-.956L10.146,7.048a21.813,21.813,0,0,0-3.134-.01V37.018c0,.694-.353,1.181-.941,1.186a.966.966,0,0,1-.98-.971L5.077,12.186a14.1,14.1,0,0,0-3.154,0l0,47.4,30.05.018a17.775,17.775,0,0,0,.008-3.16L6.411,56.386c-.839,0-1.331-.917-1.33-1.735m56.2,8.9a1.619,1.619,0,0,0,2.23-2.34l-5.789-5.2a30.448,30.448,0,0,1-2.3,2.345Z" transform="translate(0 0.001)" fill="#636363"/>
          <path id="Trazado_999889" data-name="Trazado 999889" d="M208.381,202.784a8.231,8.231,0,1,1-8.231-8.231,8.231,8.231,0,0,1,8.231,8.231m-1.932,0a6.3,6.3,0,1,0-6.3,6.3,6.3,6.3,0,0,0,6.3-6.3" transform="translate(-152.41 -154.502)" fill="#636363"/>
          <path id="Trazado_999890" data-name="Trazado 999890" d="M155.862,37.18l.044,2.842,9.488.025.03-9.558-9.489-.007c-.251,1.059.423,3.044-1.025,3.032a.9.9,0,0,1-.929-.955l0-2.491a1.536,1.536,0,0,1,1.641-1.5l9.889-.009A1.635,1.635,0,0,1,167.35,30.1l.007,10.277A1.621,1.621,0,0,1,165.722,42l-10.286-.012a1.56,1.56,0,0,1-1.457-1.575V37.274a.943.943,0,1,1,1.883-.094" transform="translate(-122.281 -22.681)" fill="#636363"/>
          <path id="Trazado_999891" data-name="Trazado 999891" d="M90.5,170.335l-19.593.012a.991.991,0,0,1-1.091-.9.925.925,0,0,1,.942-1.028l19.8,0a.924.924,0,0,1,.918.847.947.947,0,0,1-.981,1.076" transform="translate(-55.444 -133.743)" fill="#636363"/>
          <path id="Trazado_999892" data-name="Trazado 999892" d="M86.361,144.192l-15.416.014a1.126,1.126,0,0,1-1.086-.721c-.114-.415.082-1.2.7-1.2l15.955-.016a.9.9,0,0,1,.846.874,1,1,0,0,1-1,1.05" transform="translate(-55.453 -112.981)" fill="#636363"/>
          <path id="Trazado_999893" data-name="Trazado 999893" d="M121.583,118.4H108.414a.974.974,0,0,1-.936-.948.986.986,0,0,1,1.009-.993l13.219.006a.97.97,0,1,1-.123,1.936" transform="translate(-85.352 -92.486)" fill="#636363"/>
          <path id="Trazado_999894" data-name="Trazado 999894" d="M83.887,37.947l-13.137,0a.983.983,0,0,1-.936-.85.96.96,0,0,1,.9-1.087l13.122-.01a.955.955,0,0,1,.99.923.936.936,0,0,1-.937,1.019" transform="translate(-55.436 -28.593)" fill="#636363"/>
          <path id="Trazado_999895" data-name="Trazado 999895" d="M83.827,58.4l-12.955.009a.981.981,0,0,1-1.071-.922.97.97,0,0,1,.945-1.023l13.17.008a.929.929,0,0,1,.9,1,.951.951,0,0,1-.992.927" transform="translate(-55.431 -44.841)" fill="#636363"/>
          <path id="Trazado_999896" data-name="Trazado 999896" d="M83.954,78.818,70.7,78.824a.9.9,0,0,1-.88-.952c0-.555.394-.927,1.067-.926l12.958.009a.921.921,0,0,1,.977.758.889.889,0,0,1-.87,1.105" transform="translate(-55.449 -61.106)" fill="#636363"/>
          <path id="Trazado_999897" data-name="Trazado 999897" d="M176.007,144.151l-8.852,0a1.052,1.052,0,0,1-1.047-.869.955.955,0,0,1,1.006-1.063l9.191.033c.546,0,.727.651.705,1.016a.959.959,0,0,1-1,.882" transform="translate(-131.91 -112.943)" fill="#636363"/>
        </g>
      </g>
    </g>
    <path id="Trazado_997694" data-name="Trazado 997694" d="M23.405,2.713a2.708,2.708,0,1,1,2.713,2.72,2.711,2.711,0,0,1-2.713-2.72m-11.7,0a2.713,2.713,0,1,1,2.713,2.72A2.711,2.711,0,0,1,11.7,2.713M0,2.713a2.713,2.713,0,1,1,2.713,2.72A2.715,2.715,0,0,1,0,2.713" transform="translate(426.209 9430.353) rotate(90)" fill="#5a5858"/>
    <g id="Grupo_1177672" data-name="Grupo 1177672" transform="translate(323.685 9533.519) rotate(90)">
      <path id="Trazado_997699" data-name="Trazado 997699" d="M0,7.819l1.419,1.4L7.662,2.867,13.651,9.2,15.1,7.833,7.69,0Z" transform="translate(0 7.636)" fill="#636363"/>
      <path id="Trazado_997700" data-name="Trazado 997700" d="M7.69,0,0,7.818l1.419,1.4L7.662,2.867,13.651,9.2,15.1,7.832Z" transform="translate(0)" fill="#636363"/>
    </g>
  </g>
</svg>
