<svg xmlns="http://www.w3.org/2000/svg" xmlns:xlink="http://www.w3.org/1999/xlink" width="96" height="96" viewBox="0 0 96 96">
  <defs>
    <clipPath id="clip-path">
      <rect id="Rectángulo_456048" data-name="Rectángulo 456048" width="53.432" height="48.472" fill="#12263f"/>
    </clipPath>
  </defs>
  <g id="Grupo_1191050" data-name="Grupo 1191050" transform="translate(-735.746 -9615)">
    <path id="Trazado_997400" data-name="Trazado 997400" d="M48,0A48,48,0,1,1,0,48,48,48,0,0,1,48,0Z" transform="translate(735.746 9615)" fill="#5a5858"/>
    <path id="Trazado_997743" data-name="Trazado 997743" d="M43.544,0A43.544,43.544,0,1,1,0,43.544,43.544,43.544,0,0,1,43.544,0Z" transform="translate(740.52 9619.772)" fill="#e2e2e2"/>
    <g id="Grupo_1191367" data-name="Grupo 1191367" transform="translate(757.348 9638.764)">
      <g id="Grupo_1191366" data-name="Grupo 1191366" clip-path="url(#clip-path)">
        <path id="Trazado_999965" data-name="Trazado 999965" d="M28.764,189.765l-8.856-4.075a1.967,1.967,0,0,0-1.518-.055l-2.665.871A2.8,2.8,0,0,1,13,188.448l-12.182,0a.822.822,0,0,1-.82-.76.793.793,0,0,1,.814-.893l8.35-.009V171.748L5,171.728a.822.822,0,0,1,0-1.644l8.018-.016a2.858,2.858,0,0,1,2.646,1.705,11.086,11.086,0,0,1,8.181.851,34.7,34.7,0,0,0,10.021,3.642,7.884,7.884,0,0,1,3.35,1.388l6.864-5.241a3.158,3.158,0,0,1,3.464-.276,3.342,3.342,0,0,1,1.7,2.7,3.457,3.457,0,0,1-1.514,3.083L32.974,189.188a3.991,3.991,0,0,1-4.21.577m-14.594-4.091.01-12.761a1.115,1.115,0,0,0-1.161-1.172l-2.181.009,0,15.009c1.071-.056,3.33.486,3.331-1.085M35.4,182.243c-3.314,1.713-7.694.241-10.866-1.3a.853.853,0,0,1-.374-1.285.885.885,0,0,1,1.154-.2c8.564,4.161,11.192.235,10.4-.708a3.985,3.985,0,0,0-2.15-.829,36.18,36.18,0,0,1-10.3-3.733,9.468,9.468,0,0,0-7.394-.741l-.019,11.2c1.606-.3,2.893-1.331,4.549-.57l9.042,4.153a2.431,2.431,0,0,0,2.549-.4l15.1-11.564a1.676,1.676,0,0,0,.223-2.144,1.468,1.468,0,0,0-2.018-.509l-7.779,5.91a4.121,4.121,0,0,1-2.11,2.711" transform="translate(0 -141.656)" fill="#12263f"/>
        <path id="Trazado_999966" data-name="Trazado 999966" d="M112.055,29.247a.792.792,0,0,1-.824.81.776.776,0,0,1-.821-.748l-.068-2.562H98.755c-.271,1.022.438,3.138-.741,3.3a.79.79,0,0,1-.968-.737l-.027-2.392a1.76,1.76,0,0,1,2.074-1.85c.069-.582,0-1.1.025-1.677a1.662,1.662,0,0,1,1.662-1.655l2.923-.026-.01-15.978a3.434,3.434,0,0,1-1.973-1.869L95.286,3.8a5.4,5.4,0,0,1-1.026,1.459l3.613,10.517c.408.327,2.066-.315,2.069.948a7.508,7.508,0,1,1-15.016,0c0-1.256,1.672-.614,2.087-.961l3.556-10.5a3.182,3.182,0,0,1-.828-3.479A3.028,3.028,0,0,1,92.489,0,3.311,3.311,0,0,1,95.307,2.04c1.974.112,4.325.1,6.333,0C102.3,1,103.12.011,104.4.008a3.007,3.007,0,0,1,2.968,2.072l6.426-.039A3.355,3.355,0,0,1,116.451.012,3,3,0,0,1,119.3,1.671a3.187,3.187,0,0,1-.766,3.6l3.549,10.495c.392.354,2.088-.31,2.089.96a7.509,7.509,0,1,1-15.019,0c0-1.249,1.659-.625,2.071-.951l3.614-10.516a5.014,5.014,0,0,1-1.021-1.465l-6.442.072A3.446,3.446,0,0,1,105.4,5.734l-.021,15.925c1.088.352,4.522-.663,4.578,1.577l.046,1.849a1.72,1.72,0,0,1,2.059,1.684ZM93.678,2.934a1.242,1.242,0,1,0-1.242,1.242,1.242,1.242,0,0,0,1.242-1.242m12.114,0a1.244,1.244,0,1,0-1.244,1.244,1.244,1.244,0,0,0,1.244-1.244m12.11,0a1.242,1.242,0,1,0-1.242,1.242A1.242,1.242,0,0,0,117.9,2.934M96.11,15.857,92.719,5.922a.717.717,0,0,0-.566,0l-3.4,9.965Zm24.224,0-3.392-9.935a.717.717,0,0,0-.566,0l-3.4,9.965Zm-22.17,1.7-11.511.033a5.84,5.84,0,0,0,5.868,4.964,5.721,5.721,0,0,0,5.643-5m24.225,0-11.511.032a5.843,5.843,0,0,0,5.87,4.963,5.727,5.727,0,0,0,5.641-5M108.307,23.4h-7.518v1.683h7.518Z" transform="translate(-70.739 -0.001)" fill="#12263f"/>
      </g>
    </g>
  </g>
</svg>
