<svg xmlns="http://www.w3.org/2000/svg" xmlns:xlink="http://www.w3.org/1999/xlink" width="96" height="96" viewBox="0 0 96 96">
  <defs>
    <clipPath id="clip-path">
      <rect id="Rectángulo_456047" data-name="Rectángulo 456047" width="45.633" height="52.686" fill="#12263f"/>
    </clipPath>
  </defs>
  <g id="Grupo_1177744" data-name="Grupo 1177744" transform="translate(-735.746 -9615)">
    <path id="Trazado_997400" data-name="Trazado 997400" d="M48,0A48,48,0,1,1,0,48,48,48,0,0,1,48,0Z" transform="translate(735.746 9615)" fill="#5a5858"/>
    <path id="Trazado_997743" data-name="Trazado 997743" d="M43.544,0A43.544,43.544,0,1,1,0,43.544,43.544,43.544,0,0,1,43.544,0Z" transform="translate(740.52 9619.772)" fill="#e2e2e2"/>
    <g id="Grupo_1191365" data-name="Grupo 1191365" transform="translate(761.367 9636.883)">
      <g id="Grupo_1191364" data-name="Grupo 1191364" clip-path="url(#clip-path)">
        <path id="Trazado_999957" data-name="Trazado 999957" d="M236.649,64.348c.121,1.249-2.228.855-3.889.871a.791.791,0,1,1,.025-1.58l3.1.01a.769.769,0,0,1,.762.7" transform="translate(-193.554 -53.106)" fill="#12263f"/>
        <path id="Trazado_999958" data-name="Trazado 999958" d="M36.559,64.25c.154,1.258-2.187.933-3.856.89a.807.807,0,0,1-.831-.735.766.766,0,0,1,.72-.817c1.081-.049,2.141-.029,3.231-.006a.75.75,0,0,1,.736.668" transform="translate(-26.595 -53.039)" fill="#12263f"/>
        <path id="Trazado_999959" data-name="Trazado 999959" d="M50.5,10.606A.792.792,0,0,1,50.82,11.7a.778.778,0,0,1-1.079.256l-2.655-1.525a.815.815,0,0,1-.376-.981.75.75,0,0,1,1.105-.381Z" transform="translate(-38.944 -7.473)" fill="#12263f"/>
        <path id="Trazado_999960" data-name="Trazado 999960" d="M221.214,11.851a.823.823,0,0,1-1.164-.142.8.8,0,0,1,.288-1.15L223.081,9a.737.737,0,0,1,1.008.328.807.807,0,0,1-.3,1.034Z" transform="translate(-183.514 -7.435)" fill="#12263f"/>
        <path id="Trazado_999961" data-name="Trazado 999961" d="M94.132,29.278a5.458,5.458,0,0,1-5.155,3.971,5.283,5.283,0,0,1-5.224-4A2.514,2.514,0,0,1,81.7,28c-.64-.913.009-1.859.155-2.625-.4-1.156-.8-2.454.482-3.4A4.837,4.837,0,0,0,81.211,20c-3.926-4.792-5.266-11.39-.839-16.229A11.638,11.638,0,0,1,96.985,3.22a10.537,10.537,0,0,1,3.158,9.406,15.309,15.309,0,0,1-3.491,7.4,5.653,5.653,0,0,0-1.137,1.966c1.211.927.872,2.233.442,3.385.18.718.7,1.621.236,2.52a2.784,2.784,0,0,1-2.061,1.379M88.964,12.794l3.7-3.675a.8.8,0,0,1,.951.036.849.849,0,0,1,.233.818L91.109,21.454l2.9.026a9.736,9.736,0,0,1,1.611-2.654c2.993-3.657,4.429-8.806,1.539-13a10.02,10.02,0,0,0-16.1-.434c-3.314,4.23-1.888,9.655,1.265,13.493a8.417,8.417,0,0,1,1.537,2.572,18.914,18.914,0,0,0,2.864-.04L84.03,9.937a.81.81,0,0,1,.3-.821.8.8,0,0,1,.94.046Zm2.641-.292c-1.262.642-2.137,2.877-3.224,1.945a24.788,24.788,0,0,0-2.145-2.019l2.094,9c.329.056,1,.184,1.175-.06Zm2.511,12.043a.722.722,0,0,0,.7-.887.8.8,0,0,0-.786-.623H83.783a.752.752,0,0,0-.781.757c-.006.277.171.747.615.747ZM94.1,27.662a.757.757,0,1,0-.065-1.512H83.776a.734.734,0,0,0-.775.783.757.757,0,0,0,.783.736Zm-1.71,1.617L85.4,29.272A3.724,3.724,0,0,0,88.994,31.7a3.568,3.568,0,0,0,3.4-2.417" transform="translate(-64.762 0.001)" fill="#12263f"/>
        <path id="Trazado_999962" data-name="Trazado 999962" d="M21.188,211.616c-4.026-.787-6.509-2.469-11.461-1.318a1.426,1.426,0,0,1-1,1.717c-1.51.429-3.737,1.413-4.194-.3L.047,194.962a1.355,1.355,0,0,1,.911-1.64,21.991,21.991,0,0,1,2.87-.736c.84-.147,1.275.662,1.556,1.3,2.464-.118,7.041-3.1,9.294-1.839L19.936,195a4.392,4.392,0,0,0,3.325.4l3.659-.964a3.994,3.994,0,0,1,3.568.86,4.443,4.443,0,0,1,1.5,3.264l8.439-4.811a3.528,3.528,0,0,1,4.744,1.443,3.571,3.571,0,0,1-1.248,4.825L25.043,210.927a5.442,5.442,0,0,1-3.855.69m7.509-9.139-5.14,1.324c-.658.17-3.67.456-3.425-.968.2-1.186,1.377-.1,3.182-.574l5.121-1.358a2.548,2.548,0,1,0-1.266-4.936l-3.7.965a5.777,5.777,0,0,1-4.359-.613l-5.052-2.878a4.749,4.749,0,0,0-2.9.281,39.221,39.221,0,0,1-5.4,1.748l3.566,13.313a14.8,14.8,0,0,1,7.408.054l4.292,1.174a4.192,4.192,0,0,0,3.307-.459l18.862-10.91a2.032,2.032,0,0,0,.6-2.746,2,2,0,0,0-2.571-.817l-10,5.813c-.876.509-1.347,1.282-2.525,1.586M3.8,194.126l-2.235.6,4.4,16.441,2.235-.6Z" transform="translate(0 -160.002)" fill="#12263f"/>
        <path id="Trazado_999963" data-name="Trazado 999963" d="M47.916,111.985a.812.812,0,0,1-1.083-.149.83.83,0,0,1,.31-1.206l2.606-1.489a.767.767,0,1,1,.816,1.3Z" transform="translate(-38.962 -90.974)" fill="#12263f"/>
        <path id="Trazado_999964" data-name="Trazado 999964" d="M223.748,110.649a.783.783,0,1,1-.775,1.352l-2.736-1.6a.811.811,0,0,1-.194-1.01.76.76,0,0,1,.989-.277Z" transform="translate(-183.548 -90.981)" fill="#12263f"/>
      </g>
    </g>
  </g>
</svg>
