<svg xmlns="http://www.w3.org/2000/svg" xmlns:xlink="http://www.w3.org/1999/xlink" width="128" height="128" viewBox="0 0 128 128">
  <defs>
    <clipPath id="clip-path">
      <rect id="Rectángulo_455999" data-name="Rectángulo 455999" width="53.15" height="70.917" fill="#5a5858"/>
    </clipPath>
  </defs>
  <g id="Grupo_1190727" data-name="Grupo 1190727" transform="translate(-305.186 -9426)">
    <g id="Grupo_1177670" data-name="Grupo 1177670" transform="translate(305.186 9426)">
      <path id="Trazado_997691" data-name="Trazado 997691" d="M64,0A64,64,0,1,1,0,64,64,64,0,0,1,64,0Z" transform="translate(128 0) rotate(90)" fill="#cbcbcb"/>
      <path id="Trazado_997692" data-name="Trazado 997692" d="M57.677,0A57.677,57.677,0,1,1,0,57.677,57.677,57.677,0,0,1,57.677,0Z" transform="translate(6.323 6.323)" fill="#fff"/>
      <g id="Grupo_1191339" data-name="Grupo 1191339" transform="translate(36.111 28.542)">
        <g id="Grupo_1191338" data-name="Grupo 1191338" clip-path="url(#clip-path)">
          <path id="Trazado_999877" data-name="Trazado 999877" d="M51.031,70.918l-43.469,0c-2.427,0-1.954-3.17-2.068-4.4-.765-.1-1.471,0-2.181-.026A2.243,2.243,0,0,1,1.1,64.032l0-26.68A2.349,2.349,0,0,1,0,35.217L0,6.662A2.179,2.179,0,0,1,2.4,4.44c.689.03,1.3.007,2.1-.018a5.52,5.52,0,0,1,10.824.022l15.457-.035A3.93,3.93,0,0,1,33,5.482l13.728.1c2.4.018,1.92,3.045,2.033,4.358a14.8,14.8,0,0,0,2.206.049,2.151,2.151,0,0,1,2.179,2.228l0,56.446a2.115,2.115,0,0,1-2.116,2.251M15.386,16.679A5.468,5.468,0,0,1,4.452,16.63L4.417,6.544a6.1,6.1,0,0,0-2.356.1l.014,28.894,29.015,0L31.083,6.507,9.767,6.5a1.03,1.03,0,0,1-.836-1.247c.243-1.393,2.706-.507,4.168-.9A3.342,3.342,0,0,0,9.326,2.134,3.434,3.434,0,0,0,6.507,5.589L6.534,16.7a3.383,3.383,0,0,0,6.754.135c.1-1.571.016-3.084.029-4.659a1.193,1.193,0,0,0-1.264-1.2,1.18,1.18,0,0,0-1.087,1.2l-.021,2.156a.982.982,0,0,1-1.1,1.029C8.6,15.3,8.827,13.49,8.9,11.965a3.225,3.225,0,0,1,3.368-3.07A3.258,3.258,0,0,1,15.4,12.231Zm32.278,40.25L39.12,65.474a3.477,3.477,0,0,1-2.594,1.009L7.671,66.5a5.675,5.675,0,0,0,.087,2.387l43.32,0,.011-56.743a10.72,10.72,0,0,0-2.29-.07c-.233.715.22,2.145-1.074,2.182a1,1,0,0,1-1.061-1.168l-.087-5.464-13.4,0-.008,27.593A2.186,2.186,0,0,1,30.976,37.6l-27.8.009.007,26.794,33.418.017.073-8.21a2.089,2.089,0,0,1,2.086-1.774l7.881-.043.025-36.85c0-.705.8-.941,1.235-.841a1.007,1.007,0,0,1,.81,1.057V54.487a3.285,3.285,0,0,1-1.042,2.442M45,56.566l-6.275-.07.109,6.3Z" transform="translate(0.001 0)" fill="#5a5858"/>
          <rect id="Rectángulo_455996" data-name="Rectángulo 455996" width="26.457" height="2.077" transform="translate(15.57 46.627)" fill="#5a5858"/>
          <rect id="Rectángulo_455997" data-name="Rectángulo 455997" width="26.455" height="2.08" transform="translate(15.57 41.076)" fill="#5a5858"/>
          <path id="Trazado_999878" data-name="Trazado 999878" d="M86.873,237.5l-15.584.013a1.027,1.027,0,0,1-1.046-.961,1.049,1.049,0,0,1,1.128-1.1l15.327-.008a1.059,1.059,0,0,1,1.114.927,1.012,1.012,0,0,1-.939,1.129" transform="translate(-54.672 -183.262)" fill="#5a5858"/>
          <path id="Trazado_999879" data-name="Trazado 999879" d="M174.664,141.112c.083,1.421-1.761,1.166-3.227,1.119a1.046,1.046,0,0,1-1.022-.948,1.026,1.026,0,0,1,1.019-1.1c1.355-.035,3.158-.287,3.229.933" transform="translate(-132.643 -109.075)" fill="#5a5858"/>
          <path id="Trazado_999880" data-name="Trazado 999880" d="M174.662,116.04c.115,1.451-1.875,1.139-3.229,1.115a1.026,1.026,0,0,1,0-2.051c1.488-.046,3.134-.286,3.231.937" transform="translate(-132.64 -89.554)" fill="#5a5858"/>
          <path id="Trazado_999881" data-name="Trazado 999881" d="M38.419,187.259c-1.473.065-3.139.283-3.233-.943-.108-1.413,1.855-1.169,3.223-1.1a.986.986,0,0,1,1,.9,1,1,0,0,1-1,1.143" transform="translate(-27.384 -144.118)" fill="#5a5858"/>
          <path id="Trazado_999882" data-name="Trazado 999882" d="M38.594,212.306c-1.244.154-3.319.337-3.409-.92-.1-1.419,1.887-1.133,3.192-1.092a.957.957,0,0,1,1.032.875.971.971,0,0,1-.816,1.137" transform="translate(-27.384 -163.645)" fill="#5a5858"/>
          <path id="Trazado_999883" data-name="Trazado 999883" d="M38.234,237.4l-2-.017a1,1,0,0,1-1.048-.967c-.083-1.4,1.888-1.125,3.193-1.078a.991.991,0,0,1,1.035,1.087,1.035,1.035,0,0,1-1.179.976" transform="translate(-27.385 -183.141)" fill="#5a5858"/>
          <path id="Trazado_999884" data-name="Trazado 999884" d="M173.8,92.01c-1.368.19-3.27.3-3.385-.936a1.049,1.049,0,0,1,1.021-1.08c1.331-.069,2.97-.262,3.2.787a.98.98,0,0,1-.841,1.229" transform="translate(-132.639 -70.002)" fill="#5a5858"/>
          <path id="Trazado_999885" data-name="Trazado 999885" d="M173.964,66.933c-1.373.233-3.55.4-3.518-1.009.028-1.247,1.928-1.029,3.206-.965a1.024,1.024,0,0,1,1.016.8.942.942,0,0,1-.7,1.177" transform="translate(-132.668 -50.518)" fill="#5a5858"/>
          <rect id="Rectángulo_455998" data-name="Rectángulo 455998" width="19.794" height="2.073" transform="translate(6.685 25.54)" fill="#5a5858"/>
          <path id="Trazado_999886" data-name="Trazado 999886" d="M91.837,92.246,86.2,92.239a1,1,0,0,1-.943-1.053,1.03,1.03,0,0,1,1.031-.988l5.538,0a1.024,1.024,0,0,1,1.016.986,1.007,1.007,0,0,1-1.008,1.06" transform="translate(-66.362 -70.207)" fill="#5a5858"/>
          <path id="Trazado_999887" data-name="Trazado 999887" d="M91.755,67.2,86.3,67.192a.99.99,0,0,1-1.026-1.069,1.019,1.019,0,0,1,1.032-.969h5.534a1.025,1.025,0,0,1,1.014,1,1,1,0,0,1-1.1,1.055" transform="translate(-66.373 -50.713)" fill="#5a5858"/>
        </g>
      </g>
    </g>
    <path id="Trazado_997694" data-name="Trazado 997694" d="M23.405,2.713a2.708,2.708,0,1,1,2.713,2.72,2.711,2.711,0,0,1-2.713-2.72m-11.7,0a2.713,2.713,0,1,1,2.713,2.72A2.711,2.711,0,0,1,11.7,2.713M0,2.713a2.713,2.713,0,1,1,2.713,2.72A2.715,2.715,0,0,1,0,2.713" transform="translate(426.209 9430.353) rotate(90)" fill="#5a5858"/>
    <g id="Grupo_1177672" data-name="Grupo 1177672" transform="translate(323.685 9533.519) rotate(90)">
      <path id="Trazado_997699" data-name="Trazado 997699" d="M0,7.819l1.419,1.4L7.662,2.867,13.651,9.2,15.1,7.833,7.69,0Z" transform="translate(0 7.636)" fill="#636363"/>
      <path id="Trazado_997700" data-name="Trazado 997700" d="M7.69,0,0,7.818l1.419,1.4L7.662,2.867,13.651,9.2,15.1,7.832Z" transform="translate(0)" fill="#636363"/>
    </g>
  </g>
</svg>
