<svg xmlns="http://www.w3.org/2000/svg" xmlns:xlink="http://www.w3.org/1999/xlink" width="150.001" height="150.001" viewBox="0 0 150.001 150.001">
  <defs>
    <clipPath id="clip-path">
      <rect id="Rectángulo_455991" data-name="Rectángulo 455991" width="74.771" height="81.938" fill="#5a5858"/>
    </clipPath>
  </defs>
  <g id="Grupo_1190631" data-name="Grupo 1190631" transform="translate(-305.059 -9426)">
    <g id="Grupo_1177670" data-name="Grupo 1177670" transform="translate(0 0.001)">
      <path id="Trazado_997691" data-name="Trazado 997691" d="M75,0A75,75,0,1,1,0,75,75,75,0,0,1,75,0Z" transform="translate(455.059 9425.999) rotate(90)" fill="#cbcbcb"/>
      <path id="Sustracción_109" data-name="Sustracción 109" d="M21524.061,11862h0v-150a75,75,0,1,1,0,150Z" transform="translate(12167.058 -12023.059) rotate(90)" fill="#5a5858"/>
      <path id="Trazado_997692" data-name="Trazado 997692" d="M67.738,0A67.738,67.738,0,1,1,0,67.738,67.738,67.738,0,0,1,67.738,0Z" transform="translate(312.32 9433.262)" fill="#fff"/>
      <g id="Grupo_1191329" data-name="Grupo 1191329" transform="translate(342.673 9460.029)">
        <g id="Grupo_1191328" data-name="Grupo 1191328" transform="translate(0 0.001)" clip-path="url(#clip-path)">
          <path id="Trazado_999834" data-name="Trazado 999834" d="M61.367,37.862c-.35,1.668-3.813.607-5.912,4.556-2.325,4.372.722,6.841-.034,7.92a6.089,6.089,0,0,0,.656,7.963,5.933,5.933,0,0,0,7.9.354,5.252,5.252,0,0,1-2.737-4.087,4.819,4.819,0,0,1,2.3-4.54,1.184,1.184,0,0,1,1.5.342c1,1.827-1.682,1.562-1.359,4.188a2.578,2.578,0,0,0,1.925,2.076c1.687.5-.105,2.805,2.451,5.1,2.494,2.241,4.43.239,5.476,1.543a3.408,3.408,0,0,0,5.048.3c1.494-1.429,2.49,1.7,6.346.361,3.49-1.215,2.705-4.514,4.64-3.988a1.187,1.187,0,0,1,.8,1.53l-.612,1.526a8.06,8.06,0,0,0,11.431-11,1.3,1.3,0,0,1,.284-1.736,6.613,6.613,0,0,0-3.46-11.485c-1.425-.217-.841-3.945-5.058-5.441-5.352-1.9-6.975,3.215-8.428.98-2.691-4.141-5.643-2.82-5.493-4.823.214-2.867,6.023,1.034,6.731,2.49,5.453-3.276,11.02-.623,13.655,4.417,2.377,1.354,5.417,2.959,6.193,5.877.871,3.275.576,6.545-1.957,9.182,3.026,5.437.541,11.8-4.631,14.547-.6,2.559-1.834,5.022-4.175,6.1a7.265,7.265,0,0,1-7.691-.691,2.37,2.37,0,0,0-2.262-.633l1.37,4.59a2.2,2.2,0,0,1-.555,2.063,2.435,2.435,0,0,1-2.247.751l-3.533-.563a4.009,4.009,0,0,1-3.2-2.5l-3.571-8.745c-.983-2.407-5.1.857-8.5-5.236a8.357,8.357,0,0,1-10.3-1.16,8.5,8.5,0,0,1-1.4-10.332,9.52,9.52,0,0,1,6.2-13,8.3,8.3,0,0,1,10.894-5.4c1.153-.955,4.842-4.081,5.68-1.849a1.235,1.235,0,0,1-.793,1.536c-3.626,1.316-3.344,3.69-5.218,2.816a5.865,5.865,0,0,0-8.377,4.1M87.552,68.589a5.161,5.161,0,0,0,5.083,1.76A4.864,4.864,0,0,0,96.27,66.9a11.208,11.208,0,0,1-8.093-2.05A9.488,9.488,0,0,1,83.725,66.7c.024,2.473,3.036,1.081,3.827,1.887m-3.687,7.085L81,66.593c-.276-.874-1.774-.6-2.276-.256-.857.595-1.743.383-2.616.859l3.2,7.7a14.244,14.244,0,0,0,4.564.776" transform="translate(-38.56 -21.182)" fill="#5a5858"/>
          <path id="Trazado_999835" data-name="Trazado 999835" d="M62.407,129.776,61.3,126.393a1.172,1.172,0,0,1,.651-1.54,1.226,1.226,0,0,1,1.631.786l1.063,3.1c.749,2.183-.248,5.04-2.725,5.685l-23.936,6.24a4.613,4.613,0,0,1-5.647-2.979C30.5,132.9,27.565,128.242,21.745,129l-6.634.862a10.684,10.684,0,0,1-6.348-1.1,6.622,6.622,0,0,1-2.707-9.369c-1.178-.4-2.011-.628-2.329-1.375-1.144-2.688,1.355-2.908-.371-4.121a2.528,2.528,0,0,1-.6-3.849c.665-.669,1.58-1.01,2-2.054-2.157-.945-4.359-1.613-4.709-4.222C-.534,99.472,5.089,98.9,7.1,93.9c.44-1.1-3.014-3.847-1.74-6.334,2.388-4.663,1.139-7.576,2.4-8.258a1.416,1.416,0,0,1,1.335.065c.531.391.377.965.369,1.53a17.671,17.671,0,0,1-1.952,7.759c.378,2.55,3.549,3.955,1.221,7.446-2.976,4.461-6.368,5.387-6.276,7.2A1.767,1.767,0,0,0,3.642,104.9l1.989.816a2.468,2.468,0,0,1,1.108,3.722,10.218,10.218,0,0,1-2.14,2.28l1.9,1.865a1.518,1.518,0,0,1,.529,1.228c-.078.8-.932,1-1.093,1.6-.075.281.21.482.571.6,1.337.443,2.585,2,1.737,3.41a4.217,4.217,0,0,0,1.145,5.907c3.1,2.054,8,.893,11.953.278,7.122-1.108,11.014,4.495,13.3,10.329.3.767,1.179,1.74,2.151,1.491l24.147-6.191a1.942,1.942,0,0,0,1.465-2.464" transform="translate(0 -58.893)" fill="#5a5858"/>
          <path id="Trazado_999836" data-name="Trazado 999836" d="M87.264,53.09a47.917,47.917,0,0,0,5.761-6c4.534-5.628,4.888-11.6,4.725-18.68a23.23,23.23,0,0,0-8.591-17.595C81.129,4.22,68.927,1.673,58.77,2.579c-9.2.82-18.315,5.227-22.235,13.906a1.207,1.207,0,0,1-1.671.628,1.231,1.231,0,0,1-.515-1.623C38.344,6.647,47.22,1.671,56.619.422A49.6,49.6,0,0,1,82.029,3.8c9.887,4.068,16.985,11.87,18.034,22.763a48.184,48.184,0,0,1-.3,10.571,23.32,23.32,0,0,1-5.117,11.78c-1.949,2.473-4.254,4.388-6.381,6.713-1.974,2.159.468,6.406-1.276,7.072a1.165,1.165,0,0,1-1.6-.78c-.652-3.055-.628-6.626,1.874-8.825" transform="translate(-25.462 0)" fill="#5a5858"/>
          <path id="Trazado_999837" data-name="Trazado 999837" d="M115.557,78.269l9,9.129L128.12,84a1.2,1.2,0,0,1,1.642.081,1.231,1.231,0,0,1-.086,1.73L126.6,88.854a2.935,2.935,0,0,1-4.162-.171l-8.711-8.73a7.125,7.125,0,0,1,.97-9.79,7.3,7.3,0,0,1,9.923.274,7.25,7.25,0,1,1,9.413,10.984c-.4.314-.655.786-1.256.672a1.236,1.236,0,0,1-1.011-.765c-.467-1.4,1.5-1.889,2.433-3.872a4.832,4.832,0,0,0-8.453-4.573,1.4,1.4,0,0,1-.947.679,1.278,1.278,0,0,1-1.244-.6,4.868,4.868,0,0,0-6.753-1.4c-2.006,1.294-3.242,4.682-1.245,6.708" transform="translate(-83.471 -50.844)" fill="#5a5858"/>
        </g>
      </g>
    </g>
    <path id="Trazado_997694" data-name="Trazado 997694" d="M471.93,424.642a3.111,3.111,0,1,1,3.115,3.124,3.113,3.113,0,0,1-3.115-3.124m-13.442,0a3.115,3.115,0,1,1,3.115,3.124,3.114,3.114,0,0,1-3.115-3.124m-13.44,0a3.115,3.115,0,1,1,3.115,3.124,3.118,3.118,0,0,1-3.115-3.124" transform="translate(868.572 8985.952) rotate(90)" fill="#5a5858"/>
    <g id="Grupo_1177672" data-name="Grupo 1177672" transform="translate(326.305 9552.477) rotate(90)">
      <path id="Trazado_997699" data-name="Trazado 997699" d="M0,24.325l1.629,1.6,7.17-7.29,6.879,7.274,1.661-1.571-8.507-9Z" transform="translate(0 -6.575)" fill="#636363"/>
      <path id="Trazado_997700" data-name="Trazado 997700" d="M8.832,0,0,8.979l1.629,1.6L8.8,3.293l6.879,7.273L17.34,9Z" fill="#636363"/>
    </g>
  </g>
</svg>
