<svg xmlns="http://www.w3.org/2000/svg" xmlns:xlink="http://www.w3.org/1999/xlink" width="183" height="183" viewBox="0 0 183 183">
  <defs>
    <clipPath id="clip-path">
      <rect id="Rectángulo_455749" data-name="Rectángulo 455749" width="65.199" height="65.199" fill="#5a5858"/>
    </clipPath>
    <clipPath id="clip-path-2">
      <rect id="Rectángulo_455753" data-name="Rectángulo 455753" width="65" height="65" fill="#5a5858"/>
    </clipPath>
  </defs>
  <g id="Grupo_1191012" data-name="Grupo 1191012" transform="translate(-305.059 -9426)">
    <g id="Grupo_1177670" data-name="Grupo 1177670" transform="translate(305.059 9426)">
      <path id="Trazado_997691" data-name="Trazado 997691" d="M91.5,0A91.5,91.5,0,1,1,0,91.5,91.5,91.5,0,0,1,91.5,0Z" transform="translate(183 0) rotate(90)" fill="#cbcbcb"/>
      <path id="Trazado_997692" data-name="Trazado 997692" d="M82.519,0A82.519,82.519,0,1,1,0,82.519,82.519,82.519,0,0,1,82.519,0Z" transform="translate(8.981 8.982)" fill="#fff"/>
      <g id="Grupo_1191024" data-name="Grupo 1191024" transform="translate(21.407 58.901)">
        <g id="Grupo_1190992" data-name="Grupo 1190992" clip-path="url(#clip-path)">
          <path id="Trazado_999072" data-name="Trazado 999072" d="M65.2,32.6A32.6,32.6,0,1,1,32.6,0,32.6,32.6,0,0,1,65.2,32.6m-5.972,0A26.618,26.618,0,1,0,32.61,59.214,26.617,26.617,0,0,0,59.227,32.6" fill="#5a5858"/>
          <path id="Trazado_999073" data-name="Trazado 999073" d="M128.035,139l-10.175.055-.019-15.667-3.734-.157.016-13.351a2.106,2.106,0,0,1,2.1-2.014h13.3a2.239,2.239,0,0,1,2.214,2.285l-.02,13.115-3.659.066Z" transform="translate(-90.357 -85.412)" fill="#5a5858"/>
          <path id="Trazado_999074" data-name="Trazado 999074" d="M143.178,59.869a4.716,4.716,0,1,1-4.715-4.715,4.715,4.715,0,0,1,4.715,4.715" transform="translate(-105.908 -43.674)" fill="#5a5858"/>
        </g>
      </g>
      <g id="Grupo_1191025" data-name="Grupo 1191025" transform="translate(96.593 58.901)">
        <rect id="Rectángulo_455751" data-name="Rectángulo 455751" width="23.737" height="5.218" transform="translate(20.202 24.125)" fill="#5a5858"/>
        <rect id="Rectángulo_455752" data-name="Rectángulo 455752" width="23.737" height="5.218" transform="translate(20.202 34.799)" fill="#5a5858"/>
        <g id="Grupo_1190999" data-name="Grupo 1190999">
          <g id="Grupo_1190998" data-name="Grupo 1190998" clip-path="url(#clip-path-2)">
            <path id="Trazado_999076" data-name="Trazado 999076" d="M64.142,32.071A32.071,32.071,0,1,1,32.071,0,32.071,32.071,0,0,1,64.142,32.071m-5.875,0A26.186,26.186,0,1,0,32.081,58.254,26.186,26.186,0,0,0,58.267,32.068" fill="#5a5858"/>
          </g>
        </g>
      </g>
    </g>
    <path id="Trazado_997694" data-name="Trazado 997694" d="M33.245,3.853A3.847,3.847,0,1,1,37.1,7.717a3.85,3.85,0,0,1-3.853-3.864m-16.623,0a3.853,3.853,0,1,1,3.853,3.864,3.851,3.851,0,0,1-3.853-3.864M0,3.853A3.853,3.853,0,1,1,3.853,7.717,3.856,3.856,0,0,1,0,3.853" transform="translate(478.148 9432.184) rotate(90)" fill="#5a5858"/>
    <g id="Grupo_1177672" data-name="Grupo 1177672" transform="translate(331.334 9579.908) rotate(90)">
      <path id="Trazado_997699" data-name="Trazado 997699" d="M0,11.106l2.015,1.982,8.868-9.015,8.507,9,2.054-1.943L10.923,0Z" transform="translate(0 10.846)" fill="#636363"/>
      <path id="Trazado_997700" data-name="Trazado 997700" d="M10.923,0,0,11.1l2.015,1.983,8.868-9.015,8.507,8.995,2.054-1.942Z" transform="translate(0 0)" fill="#636363"/>
    </g>
  </g>
</svg>
