<svg xmlns="http://www.w3.org/2000/svg" xmlns:xlink="http://www.w3.org/1999/xlink" width="292" height="245" viewBox="0 0 292 245">
  <defs>
    <clipPath id="clip-path">
      <rect id="Rectángulo_455511" data-name="Rectángulo 455511" width="292" height="245" transform="translate(186 776)" fill="#ffedb1" stroke="#707070" stroke-width="1"/>
    </clipPath>
    <clipPath id="clip-path-2">
      <rect id="Rectángulo_455877" data-name="Rectángulo 455877" width="657.44" height="657.44" fill="none"/>
    </clipPath>
    <clipPath id="clip-path-3">
      <rect id="Rectángulo_455876" data-name="Rectángulo 455876" width="657.439" height="657.44" fill="none"/>
    </clipPath>
    <clipPath id="clip-path-5">
      <path id="Trazado_999131" data-name="Trazado 999131" d="M574.625,584.287H372.2a14.218,14.218,0,0,1-14.217-14.217V395.978A14.217,14.217,0,0,1,372.2,381.761H574.625a14.217,14.217,0,0,1,14.217,14.217V570.07a14.217,14.217,0,0,1-14.217,14.217" transform="translate(-357.986 -381.761)" fill="none"/>
    </clipPath>
  </defs>
  <g id="Enmascarar_grupo_1177461" data-name="Enmascarar grupo 1177461" transform="translate(-186 -776)" clip-path="url(#clip-path)">
    <g id="Grupo_1191126" data-name="Grupo 1191126" transform="translate(3.28 554.279)">
      <g id="Grupo_1191125" data-name="Grupo 1191125" clip-path="url(#clip-path-2)">
        <g id="Grupo_1191124" data-name="Grupo 1191124">
          <g id="Grupo_1191123" data-name="Grupo 1191123" clip-path="url(#clip-path-3)">
            <path id="Trazado_999130" data-name="Trazado 999130" d="M574.625,584.287H372.2a14.218,14.218,0,0,1-14.218-14.217V395.978A14.218,14.218,0,0,1,372.2,381.761H574.625a14.217,14.217,0,0,1,14.217,14.217V570.07a14.217,14.217,0,0,1-14.217,14.217" transform="translate(-144.695 -154.304)" fill="#fed2c7"/>
            <g id="Grupo_1191122" data-name="Grupo 1191122" opacity="0.4">
              <g id="Grupo_1191121" data-name="Grupo 1191121">
                <g id="Grupo_1191120" data-name="Grupo 1191120" clip-path="url(#clip-path-2)">
                  <g id="Grupo_1191119" data-name="Grupo 1191119" transform="translate(213.291 227.457)">
                    <g id="Grupo_1191118" data-name="Grupo 1191118" clip-path="url(#clip-path-5)">
                      <line id="Línea_3368" data-name="Línea 3368" x2="657.439" transform="translate(-213.291 19.405)" fill="none" stroke="#fff" stroke-miterlimit="10" stroke-width="0.506"/>
                      <line id="Línea_3369" data-name="Línea 3369" x2="657.439" transform="translate(-213.291 60.334)" fill="none" stroke="#fff" stroke-miterlimit="10" stroke-width="0.506"/>
                      <line id="Línea_3370" data-name="Línea 3370" x2="657.439" transform="translate(-213.291 101.263)" fill="none" stroke="#fff" stroke-miterlimit="10" stroke-width="0.506"/>
                      <line id="Línea_3371" data-name="Línea 3371" x2="657.439" transform="translate(-213.291 142.192)" fill="none" stroke="#fff" stroke-miterlimit="10" stroke-width="0.506"/>
                      <line id="Línea_3372" data-name="Línea 3372" x2="657.439" transform="translate(-213.291 183.121)" fill="none" stroke="#fff" stroke-miterlimit="10" stroke-width="0.506"/>
                      <line id="Línea_3373" data-name="Línea 3373" x2="657.439" transform="translate(-213.291 224.05)" fill="none" stroke="#fff" stroke-miterlimit="10" stroke-width="0.506"/>
                      <line id="Línea_3374" data-name="Línea 3374" y2="657.44" transform="translate(238.215 -227.457)" fill="none" stroke="#fff" stroke-miterlimit="10" stroke-width="0.506"/>
                      <line id="Línea_3375" data-name="Línea 3375" y2="657.44" transform="translate(197.286 -227.457)" fill="none" stroke="#fff" stroke-miterlimit="10" stroke-width="0.506"/>
                      <line id="Línea_3376" data-name="Línea 3376" y2="657.44" transform="translate(156.357 -227.457)" fill="none" stroke="#fff" stroke-miterlimit="10" stroke-width="0.506"/>
                      <line id="Línea_3377" data-name="Línea 3377" y2="657.44" transform="translate(115.428 -227.457)" fill="none" stroke="#fff" stroke-miterlimit="10" stroke-width="0.506"/>
                      <line id="Línea_3378" data-name="Línea 3378" y2="657.44" transform="translate(74.499 -227.457)" fill="none" stroke="#fff" stroke-miterlimit="10" stroke-width="0.506"/>
                      <line id="Línea_3379" data-name="Línea 3379" y2="657.44" transform="translate(33.57 -227.457)" fill="none" stroke="#fff" stroke-miterlimit="10" stroke-width="0.506"/>
                    </g>
                  </g>
                </g>
              </g>
            </g>
            <path id="Trazado_999132" data-name="Trazado 999132" d="M558.861,465.026H544.068a1.781,1.781,0,1,0,0,3.562h14.794a1.781,1.781,0,1,0,0-3.562" transform="translate(-219.187 -187.959)" fill="#fc9d83"/>
            <path id="Trazado_999133" data-name="Trazado 999133" d="M552.239,474.907h-8.172a1.781,1.781,0,1,0,0,3.562h8.172a1.781,1.781,0,1,0,0-3.562" transform="translate(-219.187 -191.953)" fill="#fc9d83"/>
            <path id="Trazado_999134" data-name="Trazado 999134" d="M748.187,655.062H733.393a1.781,1.781,0,1,0,0,3.562h14.794a1.781,1.781,0,1,0,0-3.562" transform="translate(-295.711 -264.77)" fill="#fc9d83"/>
            <path id="Trazado_999135" data-name="Trazado 999135" d="M741.565,664.943h-8.172a1.781,1.781,0,1,0,0,3.562h8.172a1.781,1.781,0,1,0,0-3.562" transform="translate(-295.711 -268.764)" fill="#fc9d83"/>
            <path id="Trazado_999136" data-name="Trazado 999136" d="M731.642,512.867H703.381a4.925,4.925,0,0,1-4.926-4.926V496.114a4.925,4.925,0,0,1,4.926-4.926h28.261a4.925,4.925,0,0,1,4.926,4.926v11.827a4.925,4.925,0,0,1-4.926,4.926" transform="translate(-282.309 -198.534)" fill="#fc9d83"/>
            <path id="Trazado_999137" data-name="Trazado 999137" d="M693.85,508.564l-6.56-1.854a.222.222,0,0,0-.233.353l7.016,8.683Z" transform="translate(-277.682 -204.804)" fill="#fc9d83"/>
            <path id="Trazado_999138" data-name="Trazado 999138" d="M712.476,505.214a2.482,2.482,0,1,0,2.483,2.482,2.486,2.486,0,0,0-2.483-2.482" transform="translate(-286.972 -204.203)" fill="#fff"/>
            <path id="Trazado_999139" data-name="Trazado 999139" d="M745.035,505.214a2.482,2.482,0,1,0,2.483,2.482,2.485,2.485,0,0,0-2.483-2.482" transform="translate(-300.133 -204.203)" fill="#fff"/>
            <path id="Trazado_999140" data-name="Trazado 999140" d="M728.755,505.214a2.482,2.482,0,1,0,2.482,2.482,2.485,2.485,0,0,0-2.482-2.482" transform="translate(-293.552 -204.203)" fill="#fff"/>
            <path id="Trazado_999141" data-name="Trazado 999141" d="M697.723,509.611V513.2l-1.135-3.91Z" transform="translate(-281.554 -205.85)" fill="#bf9b8c"/>
            <path id="Trazado_999142" data-name="Trazado 999142" d="M362,424.7H346.416V412.708a7.791,7.791,0,1,1,15.582,0Z" transform="translate(-140.018 -163.664)" fill="#fc9d83"/>
            <path id="Trazado_999143" data-name="Trazado 999143" d="M439.354,404.917H367.283v0h-7.79a7.787,7.787,0,0,1,7.79,7.765V571.53a8.319,8.319,0,0,0,8.319,8.319H446.7V412.261a7.343,7.343,0,0,0-7.343-7.344" transform="translate(-145.304 -163.664)" fill="#fff"/>
            <path id="Trazado_999144" data-name="Trazado 999144" d="M467,427.982H433.839a1.331,1.331,0,1,1,0-2.662H467a1.331,1.331,0,1,1,0,2.662" transform="translate(-174.816 -171.91)" fill="#f2e4df"/>
            <path id="Trazado_999145" data-name="Trazado 999145" d="M467,447.305H433.839a1.331,1.331,0,1,1,0-2.662H467a1.331,1.331,0,1,1,0,2.662" transform="translate(-174.816 -179.721)" fill="#f2e4df"/>
            <path id="Trazado_999146" data-name="Trazado 999146" d="M467,466.629H433.839a1.331,1.331,0,1,1,0-2.662H467a1.331,1.331,0,1,1,0,2.662" transform="translate(-174.816 -187.531)" fill="#f2e4df"/>
            <path id="Trazado_999147" data-name="Trazado 999147" d="M451.069,485.952H394.434a1.331,1.331,0,1,1,0-2.662h56.635a1.331,1.331,0,1,1,0,2.662" transform="translate(-158.889 -195.341)" fill="#f2e4df"/>
            <path id="Trazado_999148" data-name="Trazado 999148" d="M451.069,505.276H394.434a1.331,1.331,0,0,1,0-2.662h56.635a1.331,1.331,0,0,1,0,2.662" transform="translate(-158.889 -203.152)" fill="#f2e4df"/>
            <path id="Trazado_999149" data-name="Trazado 999149" d="M451.069,524.6H394.434a1.331,1.331,0,0,1,0-2.662h56.635a1.331,1.331,0,0,1,0,2.662" transform="translate(-158.889 -210.962)" fill="#f2e4df"/>
            <path id="Trazado_999150" data-name="Trazado 999150" d="M451.069,543.923H394.434a1.331,1.331,0,0,1,0-2.662h56.635a1.331,1.331,0,0,1,0,2.662" transform="translate(-158.889 -218.773)" fill="#f2e4df"/>
            <path id="Trazado_999151" data-name="Trazado 999151" d="M451.069,563.246H394.434a1.331,1.331,0,0,1,0-2.662h56.635a1.331,1.331,0,0,1,0,2.662" transform="translate(-158.889 -226.583)" fill="#f2e4df"/>
            <path id="Trazado_999152" data-name="Trazado 999152" d="M451.069,582.57H394.434a1.331,1.331,0,1,1,0-2.662h56.635a1.331,1.331,0,1,1,0,2.662" transform="translate(-158.889 -234.393)" fill="#f2e4df"/>
            <path id="Trazado_999153" data-name="Trazado 999153" d="M451.069,601.893H394.434a1.331,1.331,0,1,1,0-2.662h56.635a1.331,1.331,0,1,1,0,2.662" transform="translate(-158.889 -242.204)" fill="#f2e4df"/>
            <path id="Trazado_999154" data-name="Trazado 999154" d="M451.069,621.217H394.434a1.331,1.331,0,0,1,0-2.662h56.635a1.331,1.331,0,0,1,0,2.662" transform="translate(-158.889 -250.014)" fill="#f2e4df"/>
            <path id="Trazado_999155" data-name="Trazado 999155" d="M451.069,640.54H394.434a1.331,1.331,0,1,1,0-2.662h56.635a1.331,1.331,0,1,1,0,2.662" transform="translate(-158.889 -257.824)" fill="#f2e4df"/>
            <path id="Trazado_999156" data-name="Trazado 999156" d="M409.418,451.008H395.163a2.06,2.06,0,0,1-2.06-2.06V427.38a2.061,2.061,0,0,1,2.06-2.06h14.255a2.061,2.061,0,0,1,2.06,2.06v21.568a2.06,2.06,0,0,1-2.06,2.06" transform="translate(-158.889 -171.91)" fill="#f2e4df"/>
            <path id="Trazado_999157" data-name="Trazado 999157" d="M449.748,665.315H393.611v11.99a7.783,7.783,0,0,1-7.538,7.784c.094.007.181.007.276.007h71.094c-.059,0-.116-.009-.175-.011.091,0,.179.013.27.013a7.79,7.79,0,0,0,7.791-7.79V665.315Zm6.834,19.721c.029,0,.058.01.087.013-.029,0-.058-.01-.087-.013m-4.133-1.837c.043.037.083.079.128.116-.045-.037-.084-.079-.128-.116m.554.436c.056.04.108.085.165.123-.057-.039-.109-.083-.165-.123m.691.445c.036.02.069.044.105.064-.036-.02-.07-.044-.105-.064m.732.37.04.018-.04-.018m.733.277.008,0-.008,0m.716.191.027.007-.027-.007" transform="translate(-156.047 -268.914)" fill="#fc9d83"/>
            <path id="Trazado_999158" data-name="Trazado 999158" d="M364.585,735.8a3.026,3.026,0,1,1-3.026-3.026,3.026,3.026,0,0,1,3.026,3.026" transform="translate(-144.916 -296.181)" fill="#fc9d83"/>
            <path id="Trazado_999159" data-name="Trazado 999159" d="M386.64,735.8a3.026,3.026,0,1,1-3.026-3.026,3.026,3.026,0,0,1,3.026,3.026" transform="translate(-153.83 -296.181)" fill="#fc9d83"/>
            <path id="Trazado_999160" data-name="Trazado 999160" d="M408.695,735.8a3.026,3.026,0,1,1-3.026-3.026,3.026,3.026,0,0,1,3.026,3.026" transform="translate(-162.744 -296.181)" fill="#fc9d83"/>
            <path id="Trazado_999161" data-name="Trazado 999161" d="M430.75,735.8a3.026,3.026,0,1,1-3.026-3.026,3.026,3.026,0,0,1,3.026,3.026" transform="translate(-171.659 -296.181)" fill="#fc9d83"/>
            <path id="Trazado_999162" data-name="Trazado 999162" d="M587.279,777.7H359.549a1.563,1.563,0,1,1,0-3.127h227.73a1.563,1.563,0,1,1,0,3.127" transform="translate(-144.695 -313.076)" fill="#fc9d83"/>
            <path id="Trazado_999163" data-name="Trazado 999163" d="M614.723,713.109l-3.743,23.333a24.212,24.212,0,0,1-16.009-.937l1.789-22.4Z" transform="translate(-240.481 -288.232)" fill="#ff9191"/>
            <path id="Trazado_999164" data-name="Trazado 999164" d="M601.88,751.636V764.92H576.415a3.915,3.915,0,0,1-3.605-5.5l.058-.122a3.761,3.761,0,0,1,1.449-1.555L585.87,750.7a26.224,26.224,0,0,0,16.009.937" transform="translate(-231.381 -303.425)" fill="#b83a3a"/>
            <path id="Trazado_999165" data-name="Trazado 999165" d="M666.159,713.109l4.571,23.333a24.212,24.212,0,0,0,16.009-.937l-2.616-22.4Z" transform="translate(-269.255 -288.232)" fill="#ff9191"/>
            <path id="Trazado_999166" data-name="Trazado 999166" d="M673.831,751.636V764.92H699.3a3.915,3.915,0,0,0,3.605-5.5c-.018-.041-.038-.081-.058-.122a3.762,3.762,0,0,0-1.449-1.555L689.84,750.7a26.224,26.224,0,0,1-16.009.937" transform="translate(-272.356 -303.425)" fill="#b83a3a"/>
            <path id="Trazado_999167" data-name="Trazado 999167" d="M597.011,713.113h17.964l-3.283,20.43a56.053,56.053,0,0,1-16.1-2.634Z" transform="translate(-240.731 -288.234)" fill="#cc7474"/>
            <path id="Trazado_999168" data-name="Trazado 999168" d="M686.236,731.2a46,46,0,0,1-14.758,2.371c-.435,0-.87-.006-1.317-.018l-4-20.442h17.964Z" transform="translate(-269.254 -288.234)" fill="#cc7474"/>
            <path id="Trazado_999169" data-name="Trazado 999169" d="M682.486,679.694a46.091,46.091,0,0,1-31.24,4.437l-6.544-53.6L643,616.6,640.8,598.523H668.3l1.929,12.153Z" transform="translate(-259.004 -241.917)" fill="#2d3a66"/>
            <path id="Trazado_999170" data-name="Trazado 999170" d="M645.142,598.523A32.362,32.362,0,0,1,639.6,613.7,33.863,33.863,0,0,1,622,626.359l-.456,4.176-5.869,54.036c-18.8,2.715-32.179-5.239-32.179-5.239l9.04-68.47,1.629-12.338Z" transform="translate(-235.842 -241.917)" fill="#2d3a66"/>
            <path id="Trazado_999171" data-name="Trazado 999171" d="M661.552,635.63a27.838,27.838,0,0,1-12.221,6.525l-1.341,7.962-.643-5.179.459-4.231s6.144-.44,12.476-6.442a.932.932,0,0,1,1.27,1.365" transform="translate(-261.652 -256.263)" fill="#212d57"/>
            <path id="Trazado_999172" data-name="Trazado 999172" d="M653.2,610.675a46.888,46.888,0,0,1-7.474,3.027,66.44,66.44,0,0,1-19.755,2.9h-.219c-13.719,0-22.943-3.656-27.09-5.742l1.629-12.338h50.98Z" transform="translate(-241.975 -241.917)" fill="#212d57"/>
            <path id="Trazado_999173" data-name="Trazado 999173" d="M648.419,526.635l-14.532-5.979h-18.62l-14.532,5.979-4.917,48.657s10.172,6.876,28.759,6.876,28.759-6.876,28.759-6.876Z" transform="translate(-240.824 -210.444)" fill="#32806e"/>
            <path id="Trazado_999174" data-name="Trazado 999174" d="M652.717,571.615a90.829,90.829,0,0,1-53.692,0l1.339-13.237a91.7,91.7,0,0,0,51.014-.008Z" transform="translate(-242.12 -225.688)" fill="#29695a"/>
            <path id="Trazado_999175" data-name="Trazado 999175" d="M653.338,599.524s-10.174,6.876-28.76,6.876-28.76-6.876-28.76-6.876l.5-4.932c37.953,12.666,54.893-13.654,55.108-13.986Z" transform="translate(-240.824 -234.675)" fill="#2d7362"/>
            <path id="Trazado_999176" data-name="Trazado 999176" d="M692.827,544.8l12.147,18.628a10.441,10.441,0,0,1,1.895,4.289,13.7,13.7,0,0,1-2.58,11.235l-11.077,14.58s-8.873.736-10.853-7.917l8.886-13.307-10.54-18.378Z" transform="translate(-275.135 -220.204)" fill="#ff9191"/>
            <path id="Trazado_999177" data-name="Trazado 999177" d="M671.873,621.281a14.8,14.8,0,0,1,.733-4.448,6.944,6.944,0,0,1,2.918-3.777,23.85,23.85,0,0,1,4.867-2.315l1.8.195,9.22,1.324c1.522,7.173-3.534,9.594-3.534,9.594a11.227,11.227,0,0,1-.222,3.581,3.7,3.7,0,0,1-1.258,2.209,3.429,3.429,0,0,1-3.549.471,3.228,3.228,0,0,1-.7.525c-.1.052-.191.1-.289.139a3.26,3.26,0,0,1-4.248-1.942l-.042-.11-.014-.033a2.719,2.719,0,0,1-.926.084,3.183,3.183,0,0,1-.856-.2,3.648,3.648,0,0,1-2.115-2.31,2.968,2.968,0,0,1-1.225-1.028,3.464,3.464,0,0,1-.568-1.959" transform="translate(-271.565 -246.855)" fill="#ff9191"/>
            <path id="Trazado_999178" data-name="Trazado 999178" d="M697.051,629.393s-1.657.288-2.356.415l-.132,2.338a.438.438,0,1,0,.875.041l.064-1.687s1.349-.264,1.632-.351a2.36,2.36,0,0,0-.083-.756" transform="translate(-280.735 -254.395)" fill="#cc7474"/>
            <path id="Trazado_999179" data-name="Trazado 999179" d="M694.784,628.241l.12-2.309a.44.44,0,1,1,.878.049l-.126,2.1Z" transform="translate(-280.825 -252.827)" fill="#cc7474"/>
            <path id="Trazado_999180" data-name="Trazado 999180" d="M688.646,636.924c.1-.041.191-.088.29-.139a3.254,3.254,0,0,0,.7-.525l.28-4.89a.46.46,0,0,0-.4-.474.389.389,0,0,0-.079,0,.45.45,0,0,0-.421.42Z" transform="translate(-278.344 -255.001)" fill="#cc7474"/>
            <path id="Trazado_999181" data-name="Trazado 999181" d="M679.869,634.37a2.719,2.719,0,0,0,.927-.084l.014.033.242-4.317a.45.45,0,0,0-.4-.474.379.379,0,0,0-.079,0,.445.445,0,0,0-.416.42Z" transform="translate(-274.797 -254.449)" fill="#cc7474"/>
            <path id="Trazado_999182" data-name="Trazado 999182" d="M674.366,630.683l.278-3.62a.427.427,0,1,0-.853-.058l-.186,3.176a1.76,1.76,0,0,0,.76.5" transform="translate(-272.265 -253.267)" fill="#cc7474"/>
            <path id="Trazado_999183" data-name="Trazado 999183" d="M702.4,559.489a34.263,34.263,0,0,1-13.531,8.686L680.7,553.937l12.124-9.129Z" transform="translate(-275.133 -220.206)" fill="#cc7474"/>
            <path id="Trazado_999184" data-name="Trazado 999184" d="M681.373,530.691l4.943,1.877a15.656,15.656,0,0,1,7.393,5.842l8.046,11.851s-6.891,8.878-17.805,11.183l-5.59-14.6a16.311,16.311,0,0,1,.322-12.125,13.547,13.547,0,0,1,2.691-4.024" transform="translate(-273.778 -214.5)" fill="#32806e"/>
            <path id="Trazado_999185" data-name="Trazado 999185" d="M682.746,568.181l-5.016-13.1a18.267,18.267,0,0,1-1.575-6.863.894.894,0,1,0-1.784.1,29.744,29.744,0,0,0,1.773,7.275l5.726,14.2,1.559-.1-.161-1.593Z" transform="translate(-272.574 -221.237)" fill="#1e4d42"/>
            <path id="Trazado_999186" data-name="Trazado 999186" d="M573.713,555.495,568.934,567.3l-9.259-16.608s-8.726,1.079-12.011,6.652l12.025,21.793a11.242,11.242,0,0,0,5.447,4.995c.18.074.365.147.555.214a9.85,9.85,0,0,0,10.495-2.742l.844-.918,2.364-23.332Z" transform="translate(-221.361 -222.585)" fill="#ff9191"/>
            <path id="Trazado_999187" data-name="Trazado 999187" d="M593.953,560.611l-1.22,12.065a27.645,27.645,0,0,1-9.053-2.586l4.588-11.341Z" transform="translate(-235.918 -225.841)" fill="#cc7474"/>
            <path id="Trazado_999188" data-name="Trazado 999188" d="M593.844,530.69l-1.226,12.147-1.652,16.326c-.49-.041-.963-.1-1.424-.175a17.023,17.023,0,0,1-10.77-6.071l8.295-17.3A8.363,8.363,0,0,1,592,531.291Z" transform="translate(-233.934 -214.5)" fill="#32806e"/>
            <path id="Trazado_999189" data-name="Trazado 999189" d="M599.923,550.631c0,.029-.006.058-.006.088l-1.646,16.239c-.49-.041-.963-.1-1.424-.175l1.728-16.2a.675.675,0,0,1,.666-.607c.023,0,.041.006.064.006a.68.68,0,0,1,.619.654" transform="translate(-241.24 -222.293)" fill="#1e4d42"/>
            <path id="Trazado_999190" data-name="Trazado 999190" d="M542.474,542.083s-2.146-7.381,5.179-10.505l.689-.228a3.091,3.091,0,0,1,3.742,1.557c.023.046.045.093.067.141a3.062,3.062,0,0,1-1.223,3.89Z" transform="translate(-219.145 -214.703)" fill="#cc7474"/>
            <path id="Trazado_999191" data-name="Trazado 999191" d="M571.349,533.256l-12.38,72.411-.335,1.96a1.982,1.982,0,0,0-.04.2l-8.876,51.92a3.828,3.828,0,0,1-1.136,2.138l-5.683,5.43-2.72,2.594-2.467,2.364a1.736,1.736,0,0,1-2.743-.478l-1.257-2.467-5.562-10.934a3.9,3.9,0,0,1-.363-2.4l2.934-17.147,15.816-92.508.276-1.625,2.606-15.211,7.96,1.36,6.392,1.09,2.207.38Z" transform="translate(-213.305 -214.021)" fill="#2a396e"/>
            <path id="Trazado_999192" data-name="Trazado 999192" d="M567.826,532.877l-17.061,99.759-6.53,38.2-2.467,2.363a1.737,1.737,0,0,1-2.744-.478l-1.257-2.467L543.33,637.7l18.1-105.915Z" transform="translate(-217.361 -214.944)" fill="#415391"/>
            <path id="Trazado_999193" data-name="Trazado 999193" d="M558.594,660.962l-8.876,51.92a3.83,3.83,0,0,1-1.135,2.138l-5.683,5.43-2.72,2.594-2.467,2.363a1.736,1.736,0,0,1-2.744-.478l-1.257-2.467-5.562-10.934a3.9,3.9,0,0,1-.363-2.4l2.934-17.147c20.26-1.36,26.416-23.845,27.874-31.021" transform="translate(-213.305 -267.155)" fill="#253361"/>
            <path id="Trazado_999194" data-name="Trazado 999194" d="M550.765,701.051l-6.531,38.2-2.467,2.363a1.737,1.737,0,0,1-2.744-.478l-1.257-2.467,5.562-32.548a25.57,25.57,0,0,0,7.435-5.066" transform="translate(-217.36 -283.358)" fill="#394980"/>
            <path id="Trazado_999195" data-name="Trazado 999195" d="M549.451,747.1a3.86,3.86,0,0,1-.849,1.2l-10.872,10.376a1.734,1.734,0,0,1-2.743-.468l-6.813-13.4a4.006,4.006,0,0,1-.387-1.282c3.4-.433,11.479-.75,21.665,3.58" transform="translate(-213.326 -300.429)" fill="#ff9191"/>
            <path id="Trazado_999196" data-name="Trazado 999196" d="M552.223,748.48a3.884,3.884,0,0,1-.846,1.192L540.5,760.051a1.729,1.729,0,0,1-2.741-.471l-3.116-6.125a14.846,14.846,0,0,0,12.721-6.762,51.037,51.037,0,0,1,4.856,1.787" transform="translate(-216.099 -301.806)" fill="#ed8787"/>
            <path id="Trazado_999197" data-name="Trazado 999197" d="M540.865,763.677a6.623,6.623,0,0,0-3.177.17l1.207,5.643a1.036,1.036,0,0,0,1.9.324l3.014-4.921a6.627,6.627,0,0,0-2.94-1.217" transform="translate(-217.328 -308.627)" fill="#212d57"/>
            <rect id="Rectángulo_455874" data-name="Rectángulo 455874" width="5.461" height="22.248" transform="matrix(0.169, -0.986, 0.986, 0.169, 335.194, 320.869)" fill="#abb2cf"/>
            <path id="Trazado_999198" data-name="Trazado 999198" d="M588.073,510l-.269,1.559v.006L586.06,521.75,564.135,518l.508-2.959v-.006l1.5-8.785a6.274,6.274,0,0,1,7.238-5.125l9.567,1.64A6.267,6.267,0,0,1,588.073,510" transform="translate(-228.018 -202.512)" fill="#cd4040"/>
            <path id="Trazado_999199" data-name="Trazado 999199" d="M587.8,518.709l-1.745,10.186-21.925-3.754.508-2.959v-.006c15.276,4.547,23.162-3.467,23.162-3.467" transform="translate(-228.018 -209.657)" fill="#bd3b3b"/>
            <path id="Trazado_999200" data-name="Trazado 999200" d="M556.965,546.628l-10.4,5.255s-3.444-4.635-4-8.288a8.4,8.4,0,0,1,3.158-8.216.1.1,0,0,0,.024-.018,13.634,13.634,0,0,1,5.309-2.574,2.941,2.941,0,0,1,3.408,2.109,2.026,2.026,0,0,1,.048.2,2.475,2.475,0,0,1,.054.3h.048a3.238,3.238,0,0,1,.989.28c.036.018.077.036.119.054a1.043,1.043,0,0,1,.113.06c1.15.572,2.61,2,2.187,5.5,0,0,2.6,2.937-1.049,5.332" transform="translate(-219.251 -215.326)" fill="#ff9191"/>
            <path id="Trazado_999201" data-name="Trazado 999201" d="M561.3,537.547l-4.4,2.431a.263.263,0,0,1-.1.036.424.424,0,0,1-.506-.226.433.433,0,0,1,.185-.56l3.658-2.014h.048a3.238,3.238,0,0,1,.989.28c.036.018.077.036.119.054" transform="translate(-224.835 -217.136)" fill="#cc7474"/>
            <path id="Trazado_999202" data-name="Trazado 999202" d="M565.607,546.537l-3.844,1.941a.37.37,0,1,1-.333-.661l4.242-2.122a6.144,6.144,0,0,1-.065.842" transform="translate(-226.842 -220.565)" fill="#cc7474"/>
            <path id="Trazado_999203" data-name="Trazado 999203" d="M557.053,560.05l-.221,1.292c-.371.2-1.553.756-1.8.867a.462.462,0,0,1-.211.045.509.509,0,0,1-.214-.965c.607-.292,1.981-.969,2.445-1.239" transform="translate(-224.053 -226.367)" fill="#cc7474"/>
            <path id="Trazado_999204" data-name="Trazado 999204" d="M647.078,501.5v11.6a22.13,22.13,0,0,1-18.619,0V501.5Z" transform="translate(-254.017 -202.702)" fill="#ff9191"/>
            <path id="Trazado_999205" data-name="Trazado 999205" d="M647.078,501.5v6.418a28.109,28.109,0,0,1-11.488,2.414,31.749,31.749,0,0,1-7.131-.636v-8.2Z" transform="translate(-254.017 -202.702)" fill="#eb8181"/>
            <path id="Trazado_999206" data-name="Trazado 999206" d="M682.3,453.17l.648,16.818-10.579.616-.655-17.026Z" transform="translate(-271.5 -183.167)" fill="#b83a3a"/>
            <path id="Trazado_999207" data-name="Trazado 999207" d="M602.693,457.714l.539,14.015-5.9-2.182-.447-11.61Z" transform="translate(-241.255 -185.004)" fill="#b83a3a"/>
            <path id="Trazado_999208" data-name="Trazado 999208" d="M665.213,475.543s6.091-9.27,12.722-6.22a7.06,7.06,0,0,1,3.794,8.175c-.96,3.668-4.562,7.871-16.365,6.774Z" transform="translate(-268.873 -189.447)" fill="#ff9191"/>
            <path id="Trazado_999209" data-name="Trazado 999209" d="M678.743,481.27a5.9,5.9,0,0,1-2.887,2.21,15.244,15.244,0,0,1-6.9.631l-.067-3.891a17.383,17.383,0,0,1,3.291-3.315,8.876,8.876,0,0,1,2.222-1.245,3.759,3.759,0,0,1,4.346,5.611" transform="translate(-270.357 -192.165)" fill="#eb8181"/>
            <path id="Trazado_999210" data-name="Trazado 999210" d="M676.8,483.179a5.522,5.522,0,0,1-.939,1.073,15.254,15.254,0,0,1-6.905.632l-.067-3.891a17.359,17.359,0,0,1,3.291-3.316c.093-.039.186-.073.279-.108a3.757,3.757,0,0,1,4.342,5.611" transform="translate(-270.357 -192.937)" fill="#cc7474"/>
            <path id="Trazado_999211" data-name="Trazado 999211" d="M606.263,476.457s-5.714-8.073-11.529-5.151a6.294,6.294,0,0,0-3.129,7.4c.968,3.239,4.308,6.873,14.793,5.533Z" transform="translate(-239.015 -190.24)" fill="#ff9191"/>
            <path id="Trazado_999212" data-name="Trazado 999212" d="M598.1,481.912a5.264,5.264,0,0,0,2.641,1.88,13.6,13.6,0,0,0,6.174.35l-.06-3.47a15.507,15.507,0,0,0-3.034-2.853,7.931,7.931,0,0,0-2.019-1.041,3.352,3.352,0,0,0-3.7,5.134" transform="translate(-241.498 -192.642)" fill="#eb8181"/>
            <path id="Trazado_999213" data-name="Trazado 999213" d="M601.076,483.513a4.94,4.94,0,0,0,.87.927,13.6,13.6,0,0,0,6.174.35l-.06-3.47a15.5,15.5,0,0,0-3.034-2.853c-.085-.032-.169-.06-.253-.088a3.35,3.35,0,0,0-3.7,5.134" transform="translate(-242.699 -193.289)" fill="#cc7474"/>
            <path id="Trazado_999214" data-name="Trazado 999214" d="M645.531,444.96l.01.765.278,12.7.295,13.318a8.74,8.74,0,0,1-2.578,6.358c-2.7,2.67-7.8,5.919-16.749,6.073-8.99.155-14.208-2.942-16.985-5.526a8.692,8.692,0,0,1-2.753-6.232l-.4-18.089-.123-5.4s0-.033,0-.073c0-.066,0-.165,0-.3l-.076-4.034c7.315-1.673,24.757-3.98,39.082.448" transform="translate(-245.121 -178.813)" fill="#ff9191"/>
            <path id="Trazado_999215" data-name="Trazado 999215" d="M645.74,454.286c-9.089-.178-9.337-8.662-9.337-8.662l-22.021.061c-6.123.484-7.576,4.886-7.8,5.7l-.058-2.469a.43.43,0,0,1-.005-.07v-.3l-.076-4.034c7.32-1.675,24.761-3.981,39.086.449l.006.765Z" transform="translate(-245.119 -178.812)" fill="#eb8181"/>
            <path id="Trazado_999216" data-name="Trazado 999216" d="M599.916,440.51a8.2,8.2,0,0,1,1.774-5.045,8.339,8.339,0,0,1,6.594-3.095h23.349s-.08,8.857,7.406,8.857H649.41l.069-10.668a9.124,9.124,0,0,0-1.5-5.185,7.216,7.216,0,0,0-5.729-3.275s-3.562-7.173-17.881-4.918c0,0-16.429,2.965-23.669-1.781a1.582,1.582,0,0,0-1.942.189,8.093,8.093,0,0,0-2.7,6.989,4.549,4.549,0,0,1-2.28-1.133,1.5,1.5,0,0,0-2.4.557,18.749,18.749,0,0,0,2.735,18.732Z" transform="translate(-238.478 -167.8)" fill="#b83a3a"/>
            <path id="Trazado_999217" data-name="Trazado 999217" d="M649.912,431.286l-.046,6.87A99.747,99.747,0,0,1,635.1,439.8c-3.076-2.51-3.03-7.425-3.03-7.425H608.725a8.59,8.59,0,0,0-4.985,1.559,41.262,41.262,0,0,1-12.637-9.719,21.675,21.675,0,0,1,.712-2.212,1.5,1.5,0,0,1,2.4-.555,4.576,4.576,0,0,0,2.282,1.133,8.085,8.085,0,0,1,2.7-6.987,1.587,1.587,0,0,1,1.943-.193,16.053,16.053,0,0,0,5.837,2.125c7.536,8.131,21.556,18.107,42.938,13.764" transform="translate(-238.918 -167.8)" fill="#cd4040"/>
            <path id="Trazado_999218" data-name="Trazado 999218" d="M662.454,460.156c-.464,1.57-2.538,2.341-4.631,1.721s-3.414-2.393-2.949-3.963,2.537-2.341,4.631-1.721,3.413,2.393,2.949,3.963" transform="translate(-264.656 -184.302)" fill="#212d57"/>
            <path id="Trazado_999219" data-name="Trazado 999219" d="M608.515,461.342c.487,1.46,2.461,2.117,4.407,1.467s3.13-2.36,2.643-3.82-2.461-2.117-4.407-1.467-3.13,2.36-2.643,3.82" transform="translate(-245.912 -184.825)" fill="#212d57"/>
            <path id="Trazado_999220" data-name="Trazado 999220" d="M636.548,477.529a3.488,3.488,0,1,1-3.608-2.779,3.239,3.239,0,0,1,3.608,2.779" transform="translate(-254.5 -191.887)" fill="#212d57"/>
            <path id="Trazado_999221" data-name="Trazado 999221" d="M637.153,479.439a3.3,3.3,0,1,1-3.333-2.924,3.143,3.143,0,0,1,3.333,2.924" transform="translate(-254.879 -192.602)" fill="#cc7474"/>
            <path id="Trazado_999222" data-name="Trazado 999222" d="M636.466,479.547a2.416,2.416,0,1,1-2.426-2.026,2.247,2.247,0,0,1,2.426,2.026" transform="translate(-255.321 -193.01)" fill="#d47e7e"/>
            <path id="Trazado_999223" data-name="Trazado 999223" d="M656.33,473.909a4.362,4.362,0,1,1-4.516-4.709,4.63,4.63,0,0,1,4.516,4.709" transform="translate(-261.782 -189.645)" fill="#212d57"/>
            <path id="Trazado_999224" data-name="Trazado 999224" d="M653.368,474.6a1.829,1.829,0,1,1-1.9-1.757,1.829,1.829,0,0,1,1.9,1.757" transform="translate(-262.607 -191.117)" fill="#fff"/>
            <path id="Trazado_999225" data-name="Trazado 999225" d="M612.428,475.8a4.1,4.1,0,1,0,3.895-4.742,4.355,4.355,0,0,0-3.895,4.742" transform="translate(-247.536 -190.397)" fill="#212d57"/>
            <path id="Trazado_999226" data-name="Trazado 999226" d="M618.235,475.31a1.72,1.72,0,1,0,1.652-1.784,1.719,1.719,0,0,0-1.652,1.784" transform="translate(-249.884 -191.394)" fill="#fff"/>
            <path id="Trazado_999227" data-name="Trazado 999227" d="M630.25,493.938a8.444,8.444,0,0,0,8.872-2.064s-2.169,6.019-8.872,2.064" transform="translate(-254.741 -198.811)" fill="#212d57"/>
            <path id="Trazado_999228" data-name="Trazado 999228" d="M619.564,472.461a7.367,7.367,0,1,1-7.368-7.368A7.367,7.367,0,0,1,619.564,472.461Z" transform="translate(-244.466 -187.986)" fill="none" stroke="#fff" stroke-linecap="round" stroke-linejoin="round" stroke-width="2"/>
            <circle id="Elipse_13716" data-name="Elipse 13716" cx="8.346" cy="8.346" r="8.346" transform="translate(380.658 290.44) rotate(-76.717)" fill="none" stroke="#fff" stroke-linecap="round" stroke-linejoin="round" stroke-width="2"/>
            <line id="Línea_3380" data-name="Línea 3380" x2="7.692" transform="translate(374.836 282.523)" fill="none" stroke="#fff" stroke-linecap="round" stroke-linejoin="round" stroke-width="2"/>
            <line id="Línea_3381" data-name="Línea 3381" y1="2.724" x2="7.577" transform="translate(398.736 279.26)" fill="none" stroke="#fff" stroke-linecap="round" stroke-linejoin="round" stroke-width="2"/>
            <line id="Línea_3382" data-name="Línea 3382" x1="1.944" y1="0.718" transform="translate(359.137 280.478)" fill="none" stroke="#fff" stroke-linecap="round" stroke-linejoin="round" stroke-width="2"/>
            <path id="Trazado_999229" data-name="Trazado 999229" d="M520.456,410.558a17.151,17.151,0,1,0-23.644,15.875v5.328H509.8v-5.328a17.153,17.153,0,0,0,10.658-15.875" transform="translate(-196.498 -159.011)" fill="#ffd54e"/>
            <path id="Trazado_999230" data-name="Trazado 999230" d="M517.156,459.111v2.517a6.586,6.586,0,0,1-.142,1.387,5.948,5.948,0,0,1-.245.878,6.621,6.621,0,0,1-1.007,1.885,6.293,6.293,0,0,1-.787.871,6.873,6.873,0,0,1-9.416,0,6.291,6.291,0,0,1-.788-.871,6.966,6.966,0,0,1-1.007-1.885,5.883,5.883,0,0,1-.245-.878,7.006,7.006,0,0,1-.142-1.387v-2.517Z" transform="translate(-203.461 -185.568)" fill="#abb2cf"/>
            <rect id="Rectángulo_455875" data-name="Rectángulo 455875" width="13.775" height="1.922" transform="translate(299.919 273.545)" fill="#989eb8"/>
            <path id="Trazado_999231" data-name="Trazado 999231" d="M517.109,465.665a5.879,5.879,0,0,1-.245.878h-13a5.883,5.883,0,0,1-.245-.878Z" transform="translate(-203.556 -188.217)" fill="#989eb8"/>
            <path id="Trazado_999232" data-name="Trazado 999232" d="M516.707,470.3a6.33,6.33,0,0,1-.787.871H506.5a6.289,6.289,0,0,1-.787-.871Z" transform="translate(-204.406 -190.091)" fill="#989eb8"/>
            <path id="Trazado_999233" data-name="Trazado 999233" d="M513.168,445.908V434.345a1.885,1.885,0,1,1,3.77,0v.06a1.885,1.885,0,0,1-1.88,1.885l-4.33.01-4.33-.01a1.885,1.885,0,0,1-1.88-1.885v-.06a1.885,1.885,0,1,1,3.77,0v11.563" transform="translate(-203.921 -174.796)" fill="none" stroke="#fff" stroke-linecap="round" stroke-linejoin="round" stroke-width="2"/>
            <path id="Trazado_999234" data-name="Trazado 999234" d="M515.768,458.308H503.7a1.638,1.638,0,1,1,0-3.277h12.065a1.638,1.638,0,1,1,0,3.277" transform="translate(-202.93 -183.919)" fill="#abb2cf"/>
            <path id="Trazado_999235" data-name="Trazado 999235" d="M524.039,409.044c-1.953,3.382-6.951,4.153-11.163,1.721s-6.043-7.146-4.091-10.528,6.951-4.153,11.163-1.721,6.044,7.146,4.091,10.528" transform="translate(-205.33 -160.503)" fill="#ffedb1"/>
          </g>
        </g>
      </g>
    </g>
  </g>
</svg>
