<svg xmlns="http://www.w3.org/2000/svg" xmlns:xlink="http://www.w3.org/1999/xlink" width="183" height="183" viewBox="0 0 183 183">
  <defs>
    <clipPath id="clip-path">
      <rect id="Rectángulo_455749" data-name="Rectángulo 455749" width="65.199" height="65.199" fill="#5a5858"/>
    </clipPath>
    <clipPath id="clip-path-2">
      <rect id="Rectángulo_455754" data-name="Rectángulo 455754" width="65" height="65" fill="#5a5858"/>
    </clipPath>
  </defs>
  <g id="Grupo_1191022" data-name="Grupo 1191022" transform="translate(-305.059 -9426)">
    <g id="Grupo_1177670" data-name="Grupo 1177670" transform="translate(305.059 9426)">
      <path id="Trazado_997691" data-name="Trazado 997691" d="M91.5,0A91.5,91.5,0,1,1,0,91.5,91.5,91.5,0,0,1,91.5,0Z" transform="translate(183 0) rotate(90)" fill="#cbcbcb"/>
      <path id="Trazado_997692" data-name="Trazado 997692" d="M82.519,0A82.519,82.519,0,1,1,0,82.519,82.519,82.519,0,0,1,82.519,0Z" transform="translate(8.981 8.982)" fill="#fff"/>
      <g id="Grupo_1191036" data-name="Grupo 1191036" transform="translate(21.204 58.901)">
        <g id="Grupo_1190992" data-name="Grupo 1190992" clip-path="url(#clip-path)">
          <path id="Trazado_999072" data-name="Trazado 999072" d="M65.2,32.6A32.6,32.6,0,1,1,32.6,0,32.6,32.6,0,0,1,65.2,32.6m-5.972,0A26.618,26.618,0,1,0,32.61,59.214,26.617,26.617,0,0,0,59.227,32.6" fill="#5a5858"/>
          <path id="Trazado_999073" data-name="Trazado 999073" d="M128.035,139l-10.175.055-.019-15.667-3.734-.157.016-13.351a2.106,2.106,0,0,1,2.1-2.014h13.3a2.239,2.239,0,0,1,2.214,2.285l-.02,13.115-3.659.066Z" transform="translate(-90.357 -85.412)" fill="#5a5858"/>
          <path id="Trazado_999074" data-name="Trazado 999074" d="M143.178,59.869a4.716,4.716,0,1,1-4.715-4.715,4.715,4.715,0,0,1,4.715,4.715" transform="translate(-105.908 -43.674)" fill="#5a5858"/>
        </g>
      </g>
      <g id="Grupo_1191038" data-name="Grupo 1191038" transform="translate(96.796 59)">
        <g id="Grupo_1191001" data-name="Grupo 1191001" clip-path="url(#clip-path-2)">
          <path id="Trazado_999077" data-name="Trazado 999077" d="M65,32.5A32.5,32.5,0,1,1,32.5,0,32.5,32.5,0,0,1,65,32.5m-5.961-.018A26.537,26.537,0,1,0,32.5,59.018,26.537,26.537,0,0,0,59.039,32.482" transform="translate(0 0)" fill="#5a5858"/>
          <path id="Trazado_999078" data-name="Trazado 999078" d="M98.785,98.339a14.319,14.319,0,0,0,1.365-6.912c.008-4.549-1.268-9.776-6.621-10.272-3.92-.363-7.513,1.369-7.971,5.621.773.188,1.373-.127,2.2.2l-6.274,6.309L75.128,87c.788-.356,1.5-.055,2.4-.2C78.752,79,84.143,74.263,92.2,74.313c6.452.04,12.057,3.325,14.676,9.337a20.772,20.772,0,0,1,1.133,12.762,16.172,16.172,0,0,1-10.178,11.815c-6.853,2.49-15.143.664-18.814-6.055a16.871,16.871,0,0,1-1.718-5.56l8.213,0a5.693,5.693,0,0,0,2.055,4.44,8.271,8.271,0,0,0,7.956.726,7.34,7.34,0,0,0,3.257-3.434" transform="translate(-59.535 -58.889)" fill="#5a5858"/>
        </g>
      </g>
    </g>
    <path id="Trazado_997694" data-name="Trazado 997694" d="M33.245,3.853A3.847,3.847,0,1,1,37.1,7.717a3.85,3.85,0,0,1-3.853-3.864m-16.623,0a3.853,3.853,0,1,1,3.853,3.864,3.851,3.851,0,0,1-3.853-3.864M0,3.853A3.853,3.853,0,1,1,3.853,7.717,3.856,3.856,0,0,1,0,3.853" transform="translate(478.148 9432.184) rotate(90)" fill="#5a5858"/>
    <g id="Grupo_1177672" data-name="Grupo 1177672" transform="translate(331.334 9579.908) rotate(90)">
      <path id="Trazado_997699" data-name="Trazado 997699" d="M0,11.106l2.015,1.982,8.868-9.015,8.507,9,2.054-1.943L10.923,0Z" transform="translate(0 10.846)" fill="#636363"/>
      <path id="Trazado_997700" data-name="Trazado 997700" d="M10.923,0,0,11.1l2.015,1.983,8.868-9.015,8.507,8.995,2.054-1.942Z" transform="translate(0 0)" fill="#636363"/>
    </g>
  </g>
</svg>
