<svg xmlns="http://www.w3.org/2000/svg" xmlns:xlink="http://www.w3.org/1999/xlink" width="292" height="245" viewBox="0 0 292 245">
  <defs>
    <clipPath id="clip-path">
      <rect id="Rectángulo_455930" data-name="Rectángulo 455930" width="262.41" height="241.922" fill="none"/>
    </clipPath>
    <clipPath id="clip-path-3">
      <rect id="Rectángulo_455905" data-name="Rectángulo 455905" width="223.139" height="223.129" fill="none"/>
    </clipPath>
    <clipPath id="clip-path-4">
      <rect id="Rectángulo_455906" data-name="Rectángulo 455906" width="121.75" height="6.453" fill="none"/>
    </clipPath>
    <clipPath id="clip-path-5">
      <rect id="Rectángulo_455908" data-name="Rectángulo 455908" width="71.704" height="5.957" fill="none"/>
    </clipPath>
    <clipPath id="clip-path-6">
      <rect id="Rectángulo_455909" data-name="Rectángulo 455909" width="63.924" height="3.368" fill="none"/>
    </clipPath>
    <clipPath id="clip-path-8">
      <rect id="Rectángulo_455911" data-name="Rectángulo 455911" width="21.347" height="21.347" fill="none"/>
    </clipPath>
    <clipPath id="clip-path-18">
      <rect id="Rectángulo_455921" data-name="Rectángulo 455921" width="58.666" height="8.952" fill="none"/>
    </clipPath>
  </defs>
  <g id="Grupo_1191217" data-name="Grupo 1191217" transform="translate(-186 -2735)">
    <rect id="Rectángulo_455686" data-name="Rectángulo 455686" width="292" height="245" transform="translate(186 2735)" fill="none"/>
    <g id="Grupo_1191216" data-name="Grupo 1191216" transform="translate(201 2737)">
      <g id="Grupo_1191215" data-name="Grupo 1191215" clip-path="url(#clip-path)">
        <g id="Grupo_1191214" data-name="Grupo 1191214">
          <g id="Grupo_1191213" data-name="Grupo 1191213" clip-path="url(#clip-path)">
            <g id="Grupo_1191167" data-name="Grupo 1191167" transform="translate(39.271)" opacity="0.2">
              <g id="Grupo_1191166" data-name="Grupo 1191166">
                <g id="Grupo_1191165" data-name="Grupo 1191165" clip-path="url(#clip-path-3)">
                  <path id="Trazado_999470" data-name="Trazado 999470" d="M282.437,116.914A101.455,101.455,0,1,1,180.982,15.459,101.455,101.455,0,0,1,282.437,116.914" transform="translate(-69.413 -5.859)" fill="#ffd54e"/>
                  <path id="Trazado_999471" data-name="Trazado 999471" d="M172.228,221.081a2.039,2.039,0,1,1,2.029,2.049h-.033a2.045,2.045,0,0,1-2-2.048m-7.089,1.632a1.992,1.992,0,1,1,.138.011c-.048,0-.089-.01-.138-.011m16.056-1.782a2.04,2.04,0,1,1,2.188,1.88c-.065,0-.131.006-.2,0a2.042,2.042,0,0,1-1.992-1.884m-25.11.633h0a2.087,2.087,0,1,1,.3.022,1.893,1.893,0,0,1-.3-.022m34.035-1.509a2.038,2.038,0,1,1,2.331,1.7v-.008a1.8,1.8,0,0,1-.36.025,2.034,2.034,0,0,1-1.971-1.713m-42.969-.389a2.018,2.018,0,1,1,.464.067,1.777,1.777,0,0,1-.464-.067m51.787-1.216a2.039,2.039,0,0,1,1.494-2.465h.008a2.037,2.037,0,0,1,.963,3.959,1.924,1.924,0,0,1-.523.055,2.045,2.045,0,0,1-1.942-1.549M138.4,217.055h.008a2.031,2.031,0,1,1,.618.111,2.149,2.149,0,0,1-.626-.111m69.2-.93a2.039,2.039,0,1,1,2.583,1.284,2.075,2.075,0,0,1-.7.108,2.039,2.039,0,0,1-1.887-1.392m-77.706-2.41a2.045,2.045,0,1,1,.779.171,2.013,2.013,0,0,1-.779-.171m86.137-.622a2.047,2.047,0,1,1,1.834,1.236,2.039,2.039,0,0,1-1.834-1.236m-94.341-3.4a2.025,2.025,0,1,1,.925.248,1.98,1.98,0,0,1-.925-.248m102.5-.317a2.039,2.039,0,1,1,2.756.848,1.987,1.987,0,0,1-.992.241,2.05,2.05,0,0,1-1.764-1.089m-110.349-4.371h0a2.038,2.038,0,1,1,1.07.332,2,2,0,0,1-1.07-.332m118.171.006a2.04,2.04,0,1,1,2.817.612,1.993,1.993,0,0,1-1.14.327,2.053,2.053,0,0,1-1.677-.94m-125.607-5.305a2.037,2.037,0,1,1,2.862-.357,2.051,2.051,0,0,1-2.862.357m133.058.3a2.037,2.037,0,1,1,2.855.394,2.058,2.058,0,0,1-1.28.414,2.031,2.031,0,0,1-1.574-.807m-140.033-6.2a2.033,2.033,0,1,1,1.335.533,2.042,2.042,0,0,1-1.335-.533m147.049.617a2.039,2.039,0,1,1,2.876.148,2.011,2.011,0,0,1-1.405.527,2.039,2.039,0,0,1-1.471-.675M92.957,187.367a2.036,2.036,0,1,1,2.876.117,2.054,2.054,0,0,1-1.43.541,2.023,2.023,0,0,1-1.446-.658m160.051.926a2.067,2.067,0,1,1,1.359.55,2.056,2.056,0,0,1-1.359-.55M87.023,180.426a2.054,2.054,0,1,1,1.567.774,2.042,2.042,0,0,1-1.567-.774m172,1.213a2.039,2.039,0,0,1-.307-2.87v.009a2.036,2.036,0,1,1,1.546,3.31,2.062,2.062,0,0,1-1.239-.45M81.678,173.015v.009a1.081,1.081,0,1,0,0-.009m182.805,1.51a2.038,2.038,0,1,1,1.1.349,2.048,2.048,0,0,1-1.1-.349M76.962,165.2a2.037,2.037,0,1,1,2.765.807,1.981,1.981,0,0,1-1.017.248,2.02,2.02,0,0,1-1.749-1.056m192.383,1.78a2.04,2.04,0,1,1,2.781-.783h-.008a2.047,2.047,0,0,1-2.773.784M72.9,157.036a2.039,2.039,0,1,1,2.694,1.025,2.081,2.081,0,0,1-.876.178,2.04,2.04,0,0,1-1.818-1.2m200.673,2.023a2.033,2.033,0,1,1,.8.188,1.886,1.886,0,0,1-.8-.188m-204.054-10.5a2.039,2.039,0,1,1,2.6,1.244,1.99,1.99,0,0,1-.72.115,2.044,2.044,0,0,1-1.88-1.36m207.616,2.273a2.044,2.044,0,1,1,.651.119,1.992,1.992,0,0,1-.651-.119M66.85,139.823a2.039,2.039,0,1,1,2.481,1.454,1.827,1.827,0,0,1-.556.07,2.035,2.035,0,0,1-1.926-1.524m213.142,2.509a2.065,2.065,0,1,1,.5.067,2.112,2.112,0,0,1-.5-.067M64.9,130.9h0a2.036,2.036,0,1,1,2.356,1.656,2.144,2.144,0,0,1-.392.033A2.041,2.041,0,0,1,64.9,130.9m217.249,2.725a2,2,0,1,1,.334.04,1.564,1.564,0,0,1-.334-.04M63.7,121.846h0a2.04,2.04,0,1,1,2.221,1.849c-.082.006-.155,0-.229,0a2.044,2.044,0,0,1-1.993-1.852m219.887,2.934a2.025,2.025,0,1,1,.171.012c-.056,0-.114-.011-.171-.012M63.24,112.726a2.04,2.04,0,1,1,2.055,2.024h-.058a2.039,2.039,0,0,1-2-2.024M282.3,113.759a2.039,2.039,0,1,1,2,2.08,2.04,2.04,0,0,1-2-2.08m-216.9-7.978a2.047,2.047,0,0,1-1.9-2.176h.009a2.037,2.037,0,1,1,1.994,2.178l-.106,0m216.83,1.272h-.008a2.043,2.043,0,1,1,2.121,1.952c-.041,0-.082.006-.122.006a2.035,2.035,0,0,1-1.991-1.958m-216-10.195a2.044,2.044,0,1,1,.269.022c-.09,0-.179-.012-.269-.022M281.52,98.286a2.039,2.039,0,1,1,4.047-.5,2.052,2.052,0,0,1-1.775,2.272c-.1.006-.2.012-.294.01a2.027,2.027,0,0,1-1.978-1.786M67.787,88.024a2.023,2.023,0,1,1,.431.058,1.971,1.971,0,0,1-.431-.058m212.3,1.579a2.041,2.041,0,1,1,2.414,1.584,1.834,1.834,0,0,1-.458.048,2.052,2.052,0,0,1-1.957-1.631M70.062,79.352a2.036,2.036,0,1,1,.594.1,2.177,2.177,0,0,1-.594-.1m207.882,1.724a2.041,2.041,0,1,1,2.532,1.374,1.994,1.994,0,0,1-.622.085,2.04,2.04,0,0,1-1.911-1.459M73.042,70.89a2.061,2.061,0,1,1,.748.154,2.045,2.045,0,0,1-.748-.154M275.1,72.747a2.041,2.041,0,1,1,2.644,1.164,2.018,2.018,0,0,1-.777.138,2.04,2.04,0,0,1-1.866-1.3M76.718,62.7a2.037,2.037,0,1,1,.893.231,2.068,2.068,0,0,1-.893-.231M271.6,64.681v.009a2.039,2.039,0,1,1,2.722.936,1.967,1.967,0,0,1-.926.209,2.036,2.036,0,0,1-1.8-1.154M81.048,54.839a2.038,2.038,0,1,1,2.175-3.446,2.036,2.036,0,0,1-1.13,3.761,1.976,1.976,0,0,1-1.046-.315m186.389,2.1a2.047,2.047,0,1,1,1.717,1,2.038,2.038,0,0,1-1.717-1M86.007,47.364a2.026,2.026,0,1,1,1.182.416,2.028,2.028,0,0,1-1.182-.416m176.648,2.19a2.045,2.045,0,1,1,1.629.857,2.043,2.043,0,0,1-1.629-.857m-171.1-9.229a2.04,2.04,0,1,1,1.319.517,2.056,2.056,0,0,1-1.319-.517m165.742,2.251a2.036,2.036,0,1,1,1.518.732,2.009,2.009,0,0,1-1.518-.732M97.657,33.755a2.041,2.041,0,1,1,2.886.068,2.037,2.037,0,0,1-2.886-.068m153.711,2.312h.007a2.036,2.036,0,1,1,2.88.018,2.016,2.016,0,0,1-1.472.59,2.059,2.059,0,0,1-1.415-.609M104.282,27.708a2.04,2.04,0,1,1,2.865.3,2.01,2.01,0,0,1-1.322.455,2.036,2.036,0,0,1-1.543-.75m140.659,2.345h0a2.027,2.027,0,1,1,1.286.5,2.04,2.04,0,0,1-1.286-.5M111.37,22.211a2.038,2.038,0,1,1,2.835.54,2.054,2.054,0,0,1-1.189.351,2.021,2.021,0,0,1-1.646-.891m126.678,2.375h0a2.036,2.036,0,1,1,1.158.391,1.975,1.975,0,0,1-1.158-.391M118.876,17.317a2.045,2.045,0,1,1,1.733,1.031,2.027,2.027,0,0,1-1.733-1.031M230.726,19.7a2.035,2.035,0,1,1,2.128-3.471v-.009a2.047,2.047,0,0,1,.676,2.8,2.024,2.024,0,0,1-1.781.975,2.05,2.05,0,0,1-1.022-.3M126.762,13.059a2.04,2.04,0,1,1,2.711.986,2.1,2.1,0,0,1-.9.193,2.051,2.051,0,0,1-1.811-1.179m96.27,2.367h0a2.021,2.021,0,1,1,.868.222,1.946,1.946,0,0,1-.868-.222M134.968,9.451a2.036,2.036,0,1,1,2.618,1.212,2.178,2.178,0,0,1-.745.123,2.04,2.04,0,0,1-1.873-1.335m80.04,2.351a2.042,2.042,0,1,1,.723.145,2.037,2.037,0,0,1-.723-.145M143.446,6.534a2.039,2.039,0,1,1,2.508,1.422,2.021,2.021,0,0,1-2.508-1.422m63.28,2.316h0a2.027,2.027,0,1,1,.56.093,1.89,1.89,0,0,1-.56-.093M152.137,4.332a2.039,2.039,0,0,1,1.623-2.389h-.008a2.039,2.039,0,0,1,.774,4h-.008a1.864,1.864,0,0,1-.425.04,2.044,2.044,0,0,1-1.956-1.656M198.223,6.6a2.034,2.034,0,1,1,.4.048,2.234,2.234,0,0,1-.4-.048M160.977,2.842a2.039,2.039,0,1,1,2.246,1.808,1.439,1.439,0,0,1-.261.011,2.039,2.039,0,0,1-1.985-1.819m28.584,2.2h0a2.083,2.083,0,1,1,.236.014,2.157,2.157,0,0,1-.236-.014M169.916,2.088A2.037,2.037,0,1,1,172,4.072l-.1,0a2.029,2.029,0,0,1-1.99-1.982m8.965-.035A2.04,2.04,0,1,1,180.8,4.2a2.034,2.034,0,0,1-1.921-2.152" transform="translate(-63.24 0)" fill="#ffd54e"/>
                </g>
              </g>
            </g>
            <path id="Trazado_999472" data-name="Trazado 999472" d="M263.906,377.566c0,2.986-53.306,5.408-119.062,5.408s-119.062-2.421-119.062-5.408,53.306-5.408,119.062-5.408,119.062,2.421,119.062,5.408" transform="translate(-9.772 -141.051)" fill="#ccc"/>
            <path id="Trazado_999473" data-name="Trazado 999473" d="M258.917,257.978H134.989a9.063,9.063,0,0,1-9.063-9.063V66.338a9.063,9.063,0,0,1,9.063-9.063H258.917a9.063,9.063,0,0,1,9.063,9.063V248.915a9.063,9.063,0,0,1-9.063,9.063" transform="translate(-47.727 -21.708)" fill="#674a11"/>
            <g id="Grupo_1191170" data-name="Grupo 1191170" transform="translate(88.351 221.587)" opacity="0.2">
              <g id="Grupo_1191169" data-name="Grupo 1191169">
                <g id="Grupo_1191168" data-name="Grupo 1191168" clip-path="url(#clip-path-4)">
                  <path id="Trazado_999474" data-name="Trazado 999474" d="M142.274,356.829l121.75,6.453v-6.453Z" transform="translate(-142.274 -356.829)"/>
                </g>
              </g>
            </g>
            <rect id="Rectángulo_455907" data-name="Rectángulo 455907" width="121.75" height="176.106" transform="translate(88.351 45.482)" fill="#fff"/>
            <g id="Grupo_1191173" data-name="Grupo 1191173" transform="translate(111.409 62.239)" opacity="0.3">
              <g id="Grupo_1191172" data-name="Grupo 1191172">
                <g id="Grupo_1191171" data-name="Grupo 1191171" clip-path="url(#clip-path-5)">
                  <path id="Trazado_999475" data-name="Trazado 999475" d="M248.392,106.183H182.126a2.719,2.719,0,0,1-2.719-2.719v-.519a2.719,2.719,0,0,1,2.719-2.719h66.266a2.72,2.72,0,0,1,2.719,2.719v.519a2.72,2.72,0,0,1-2.719,2.719" transform="translate(-179.406 -100.226)" fill="#926cb9"/>
                </g>
              </g>
            </g>
            <g id="Grupo_1191176" data-name="Grupo 1191176" transform="translate(104.947 80.935)" opacity="0.3">
              <g id="Grupo_1191175" data-name="Grupo 1191175">
                <g id="Grupo_1191174" data-name="Grupo 1191174" clip-path="url(#clip-path-6)">
                  <path id="Trazado_999476" data-name="Trazado 999476" d="M231.24,133.7H170.683a1.684,1.684,0,0,1,0-3.368H231.24a1.684,1.684,0,0,1,0,3.368" transform="translate(-168.999 -130.332)" fill="#926cb9"/>
                </g>
              </g>
            </g>
            <g id="Grupo_1191179" data-name="Grupo 1191179" transform="translate(104.947 86.804)" opacity="0.3">
              <g id="Grupo_1191178" data-name="Grupo 1191178">
                <g id="Grupo_1191177" data-name="Grupo 1191177" clip-path="url(#clip-path-6)">
                  <path id="Trazado_999477" data-name="Trazado 999477" d="M231.24,143.151H170.683a1.684,1.684,0,0,1,0-3.368H231.24a1.684,1.684,0,0,1,0,3.368" transform="translate(-168.999 -139.783)" fill="#926cb9"/>
                </g>
              </g>
            </g>
            <g id="Grupo_1191182" data-name="Grupo 1191182" transform="translate(177.426 73.629)" opacity="0.3">
              <g id="Grupo_1191181" data-name="Grupo 1191181">
                <g id="Grupo_1191180" data-name="Grupo 1191180" clip-path="url(#clip-path-8)">
                  <path id="Trazado_999478" data-name="Trazado 999478" d="M304.747,139.915H288.029a2.318,2.318,0,0,1-2.315-2.315V120.882a2.318,2.318,0,0,1,2.315-2.314h16.718a2.317,2.317,0,0,1,2.314,2.314V137.6a2.317,2.317,0,0,1-2.314,2.315m-16.718-19.521a.49.49,0,0,0-.489.489V137.6a.49.49,0,0,0,.489.49h16.718a.49.49,0,0,0,.489-.49V120.882a.49.49,0,0,0-.489-.489Z" transform="translate(-285.714 -118.567)" fill="#926cb9"/>
                </g>
              </g>
            </g>
            <path id="Trazado_999479" data-name="Trazado 999479" d="M296.192,135.141c-.049,0-.1,0-.147-.007a1.546,1.546,0,0,1-1.193-.769,32.511,32.511,0,0,0-3.859-5.2,1.545,1.545,0,0,1,2.255-2.111,36.726,36.726,0,0,1,3.167,4c2.738-2.915,9.075-9.171,15.385-11.907a1.544,1.544,0,1,1,1.228,2.834c-7.551,3.273-15.586,12.532-15.666,12.625a1.544,1.544,0,0,1-1.17.536" transform="translate(-110.131 -45.109)" fill="#fd4677"/>
            <g id="Grupo_1191185" data-name="Grupo 1191185" transform="translate(104.947 116.241)" opacity="0.3">
              <g id="Grupo_1191184" data-name="Grupo 1191184">
                <g id="Grupo_1191183" data-name="Grupo 1191183" clip-path="url(#clip-path-6)">
                  <path id="Trazado_999480" data-name="Trazado 999480" d="M231.24,190.554H170.683a1.684,1.684,0,0,1,0-3.368H231.24a1.684,1.684,0,0,1,0,3.368" transform="translate(-168.999 -187.186)" fill="#926cb9"/>
                </g>
              </g>
            </g>
            <g id="Grupo_1191188" data-name="Grupo 1191188" transform="translate(104.947 122.11)" opacity="0.3">
              <g id="Grupo_1191187" data-name="Grupo 1191187">
                <g id="Grupo_1191186" data-name="Grupo 1191186" clip-path="url(#clip-path-6)">
                  <path id="Trazado_999481" data-name="Trazado 999481" d="M231.24,200H170.683a1.684,1.684,0,0,1,0-3.368H231.24a1.684,1.684,0,0,1,0,3.368" transform="translate(-168.999 -196.637)" fill="#926cb9"/>
                </g>
              </g>
            </g>
            <g id="Grupo_1191191" data-name="Grupo 1191191" transform="translate(177.426 108.935)" opacity="0.3">
              <g id="Grupo_1191190" data-name="Grupo 1191190">
                <g id="Grupo_1191189" data-name="Grupo 1191189" clip-path="url(#clip-path-8)">
                  <path id="Trazado_999482" data-name="Trazado 999482" d="M304.747,196.769H288.029a2.318,2.318,0,0,1-2.315-2.315V177.736a2.318,2.318,0,0,1,2.315-2.314h16.718a2.317,2.317,0,0,1,2.314,2.314v16.717a2.317,2.317,0,0,1-2.314,2.315m-16.718-19.521a.49.49,0,0,0-.489.489v16.717a.49.49,0,0,0,.489.49h16.718a.49.49,0,0,0,.489-.49V177.736a.49.49,0,0,0-.489-.489Z" transform="translate(-285.714 -175.421)" fill="#926cb9"/>
                </g>
              </g>
            </g>
            <path id="Trazado_999483" data-name="Trazado 999483" d="M296.192,191.77c-.049,0-.1,0-.147-.007a1.547,1.547,0,0,1-1.193-.769,32.5,32.5,0,0,0-3.859-5.2,1.545,1.545,0,0,1,2.255-2.111,36.727,36.727,0,0,1,3.167,4c2.738-2.915,9.075-9.171,15.385-11.907a1.544,1.544,0,1,1,1.228,2.834c-7.551,3.273-15.586,12.532-15.666,12.625a1.544,1.544,0,0,1-1.17.536" transform="translate(-110.131 -66.572)" fill="#fd4677"/>
            <g id="Grupo_1191194" data-name="Grupo 1191194" transform="translate(104.947 151.547)" opacity="0.3">
              <g id="Grupo_1191193" data-name="Grupo 1191193">
                <g id="Grupo_1191192" data-name="Grupo 1191192" clip-path="url(#clip-path-6)">
                  <path id="Trazado_999484" data-name="Trazado 999484" d="M231.24,247.408H170.683a1.684,1.684,0,0,1,0-3.368H231.24a1.684,1.684,0,0,1,0,3.368" transform="translate(-168.999 -244.04)" fill="#926cb9"/>
                </g>
              </g>
            </g>
            <g id="Grupo_1191197" data-name="Grupo 1191197" transform="translate(104.947 157.416)" opacity="0.3">
              <g id="Grupo_1191196" data-name="Grupo 1191196">
                <g id="Grupo_1191195" data-name="Grupo 1191195" clip-path="url(#clip-path-6)">
                  <path id="Trazado_999485" data-name="Trazado 999485" d="M231.24,256.859H170.683a1.684,1.684,0,0,1,0-3.368H231.24a1.684,1.684,0,0,1,0,3.368" transform="translate(-168.999 -253.491)" fill="#926cb9"/>
                </g>
              </g>
            </g>
            <g id="Grupo_1191200" data-name="Grupo 1191200" transform="translate(177.426 144.241)" opacity="0.3">
              <g id="Grupo_1191199" data-name="Grupo 1191199">
                <g id="Grupo_1191198" data-name="Grupo 1191198" clip-path="url(#clip-path-8)">
                  <path id="Trazado_999486" data-name="Trazado 999486" d="M304.747,253.623H288.029a2.318,2.318,0,0,1-2.315-2.315V234.59a2.318,2.318,0,0,1,2.315-2.314h16.718a2.317,2.317,0,0,1,2.314,2.314v16.717a2.317,2.317,0,0,1-2.314,2.315M288.029,234.1a.49.49,0,0,0-.489.489v16.717a.49.49,0,0,0,.489.49h16.718a.49.49,0,0,0,.489-.49V234.59a.49.49,0,0,0-.489-.489Z" transform="translate(-285.714 -232.275)" fill="#926cb9"/>
                </g>
              </g>
            </g>
            <path id="Trazado_999487" data-name="Trazado 999487" d="M296.192,249.893c-.049,0-.1,0-.147-.007a1.546,1.546,0,0,1-1.193-.769,32.511,32.511,0,0,0-3.859-5.2,1.545,1.545,0,0,1,2.255-2.111,36.727,36.727,0,0,1,3.167,4c2.738-2.915,9.075-9.171,15.385-11.907a1.544,1.544,0,1,1,1.228,2.834c-7.551,3.273-15.586,12.532-15.666,12.625a1.544,1.544,0,0,1-1.17.536" transform="translate(-110.131 -88.601)" fill="#fd4677"/>
            <g id="Grupo_1191203" data-name="Grupo 1191203" transform="translate(104.947 186.852)" opacity="0.3">
              <g id="Grupo_1191202" data-name="Grupo 1191202">
                <g id="Grupo_1191201" data-name="Grupo 1191201" clip-path="url(#clip-path-6)">
                  <path id="Trazado_999488" data-name="Trazado 999488" d="M231.24,304.262H170.683a1.684,1.684,0,0,1,0-3.368H231.24a1.684,1.684,0,0,1,0,3.368" transform="translate(-168.999 -300.894)" fill="#926cb9"/>
                </g>
              </g>
            </g>
            <g id="Grupo_1191206" data-name="Grupo 1191206" transform="translate(104.947 192.721)" opacity="0.3">
              <g id="Grupo_1191205" data-name="Grupo 1191205">
                <g id="Grupo_1191204" data-name="Grupo 1191204" clip-path="url(#clip-path-6)">
                  <path id="Trazado_999489" data-name="Trazado 999489" d="M231.24,313.713H170.683a1.684,1.684,0,0,1,0-3.368H231.24a1.684,1.684,0,0,1,0,3.368" transform="translate(-168.999 -310.345)" fill="#926cb9"/>
                </g>
              </g>
            </g>
            <g id="Grupo_1191209" data-name="Grupo 1191209" transform="translate(177.426 179.546)" opacity="0.3">
              <g id="Grupo_1191208" data-name="Grupo 1191208">
                <g id="Grupo_1191207" data-name="Grupo 1191207" clip-path="url(#clip-path-8)">
                  <path id="Trazado_999490" data-name="Trazado 999490" d="M304.747,310.477H288.029a2.318,2.318,0,0,1-2.315-2.315V291.444a2.318,2.318,0,0,1,2.315-2.314h16.718a2.317,2.317,0,0,1,2.314,2.314v16.717a2.317,2.317,0,0,1-2.314,2.315m-16.718-19.521a.49.49,0,0,0-.489.489v16.717a.49.49,0,0,0,.489.49h16.718a.49.49,0,0,0,.489-.49V291.444a.49.49,0,0,0-.489-.489Z" transform="translate(-285.714 -289.129)" fill="#926cb9"/>
                </g>
              </g>
            </g>
            <path id="Trazado_999491" data-name="Trazado 999491" d="M296.192,306.747c-.049,0-.1,0-.147-.007a1.546,1.546,0,0,1-1.193-.769,32.511,32.511,0,0,0-3.859-5.2,1.545,1.545,0,1,1,2.255-2.111,36.727,36.727,0,0,1,3.167,4c2.738-2.915,9.075-9.171,15.385-11.907a1.544,1.544,0,1,1,1.228,2.834c-7.551,3.273-15.586,12.532-15.666,12.625a1.544,1.544,0,0,1-1.17.536" transform="translate(-110.131 -110.149)" fill="#fd4677"/>
            <g id="Grupo_1191212" data-name="Grupo 1191212" transform="translate(117.929 45.146)" opacity="0.1">
              <g id="Grupo_1191211" data-name="Grupo 1191211">
                <g id="Grupo_1191210" data-name="Grupo 1191210" clip-path="url(#clip-path-18)">
                  <path id="Trazado_999492" data-name="Trazado 999492" d="M248.569,72.7v5.055a3.9,3.9,0,0,1-3.9,3.9H193.8a3.9,3.9,0,0,1-3.9-3.9V72.7Z" transform="translate(-189.904 -72.7)"/>
                </g>
              </g>
            </g>
            <path id="Trazado_999493" data-name="Trazado 999493" d="M244.122,43.7H230.731a11.656,11.656,0,1,0-19.477,0h-13.39a3.326,3.326,0,0,0-3.325,3.324v9.779a3.324,3.324,0,0,0,3.325,3.324h46.259a3.323,3.323,0,0,0,3.324-3.324V47.027a3.324,3.324,0,0,0-3.324-3.324m-23.13-11.39a4.983,4.983,0,1,1-4.983,4.983,4.989,4.989,0,0,1,4.983-4.983" transform="translate(-73.732 -9.718)" fill="#32324c"/>
            <path id="Trazado_999494" data-name="Trazado 999494" d="M132.2,118.776s9.148,13.045,13.572,22.5c5.693,2.736,12.668,11.319,19.432,18.495l-3.109,1.49-18.733-12.676a10.511,10.511,0,0,1-3.225-3.474l-7.625-13.287Z" transform="translate(-50.104 -45.017)" fill="#e02b5e"/>
            <path id="Trazado_999495" data-name="Trazado 999495" d="M97.041,213.937l-4.126,46.5c-3.553,4.027-6.947,14.017-7.859,24.74-.491,5.8-2.295,15.691-3.08,19.846,1.761.886,3.456,1.892,5.2,2.806l14.86-36.714,12.1-57.177Z" transform="translate(-31.07 -81.084)" fill="#fa986c"/>
            <path id="Trazado_999496" data-name="Trazado 999496" d="M89.1,364.4c-1.657-1.836-3.171-3.365-3.748-3.937-.766-.765-3.154-1.09-4.956-1.229l-.037,0c-1.06,0-2.082,1.3-2.374,2.242a9.792,9.792,0,0,0-.322,3.986c.279,2.385.7,6.087.854,8.694h2.213l.168-6.236s8.13,6.711,12.814,6.209c3.2-.344-1.031-5.759-4.611-9.727" transform="translate(-29.406 -136.15)" fill="#32324c"/>
            <path id="Trazado_999497" data-name="Trazado 999497" d="M88.759,365.405c-3.081-1.158-5.515-4.41-6.655-6.173,1.8.138,4.19.463,4.956,1.228.577.573,2.091,2.1,3.748,3.938-.035,1.009-.585,1.556-2.049,1.007" transform="translate(-31.118 -136.152)" fill="#fa986c"/>
            <path id="Trazado_999498" data-name="Trazado 999498" d="M124.74,307.672c-2.073,1.461-6.569,1.711-6.569,1.711l-.8-2.873,0-.016c-.263-.655-8.678-21.681-12.6-31.559a58.558,58.558,0,0,1-3.858-19.983C94.8,238.33,88.058,221.117,88.4,210.546l14.563-5.312,8.356,46.107,12.458,54.032v0Z" transform="translate(-33.499 -77.786)" fill="#fdbb91"/>
            <path id="Trazado_999499" data-name="Trazado 999499" d="M150.793,372.792c-4.468,1.49-13.844-3.33-13.844-3.33l.965,5.254h-2.279s-1.4-4.142-2.371-6.965a19.747,19.747,0,0,1-.809-6.3l.562-.107c.389-.071.949-.166,1.588-.255a18.608,18.608,0,0,1,3.745-.213,3.584,3.584,0,0,1,1.173.263c.043.018.084.036.12.055a.509.509,0,0,1,.065.037c.686.436,2.492,1.606,4.5,3.046,4.344,3.112,9.635,7.5,6.581,8.519" transform="translate(-50.198 -136.763)" fill="#32324c"/>
            <path id="Trazado_999500" data-name="Trazado 999500" d="M142.774,365.7c-2.922-.426-7.436-2.8-9.407-4.355.389-.071.949-.166,1.587-.255a18.565,18.565,0,0,1,3.746-.213,4.379,4.379,0,0,1,1.293.318.487.487,0,0,1,.066.037c.686.436,2.491,1.606,4.5,3.046.181.994-.239,1.646-1.787,1.422" transform="translate(-50.547 -136.763)" fill="#fdbb91"/>
            <path id="Trazado_999501" data-name="Trazado 999501" d="M87.348,193.351s-4.107,19.142,3.877,50.7c0,0,15.841,2.432,23.623-2.543,1.547-11.33,1.245-39.059.681-50.658,0,0-16.611-1.534-28.181,2.5" transform="translate(-32.706 -72.227)" fill="#434361"/>
            <path id="Trazado_999502" data-name="Trazado 999502" d="M115.826,75.756a16.926,16.926,0,0,0-.8-6.292c-1.449-3.619-5.169-7.554-12.948-7.2-9.178.419-13.569,9.588-12.535,19.385,1.426,13.494-.556,21.257-.556,21.257l25.377,1.112s-.455-10.087,1.459-28.263" transform="translate(-33.728 -23.591)" fill="#32324c"/>
            <path id="Trazado_999503" data-name="Trazado 999503" d="M114.212,143.074l.121,19.248c-7.654,6.616-28.181,2.5-28.181,2.5l3.674-17.545-6.691-25.081,4.526-2.277.916-.463h0l1.99-1,1.449-.728,4.836-2.437,8.7,1.127,3.011.389,2.673.345,1.037.134,1.331.173.34,14.205a16.783,16.783,0,0,1,1.757,6.3,6.539,6.539,0,0,1-1.346,4.223l0,0c-.006.008-.013.016-.018.024-.047.059-.09.116-.137.172l.016.646Z" transform="translate(-31.509 -43.695)" fill="#fd4677"/>
            <path id="Trazado_999504" data-name="Trazado 999504" d="M110.972,116.414c-.821,2.334-1.655,5.4-5.754,5.46a9.561,9.561,0,0,1-7.777-4.151l4.835-2.437Z" transform="translate(-36.931 -43.695)" fill="#fdbb91"/>
            <path id="Trazado_999505" data-name="Trazado 999505" d="M122.732,158.814l.016.646v.047a40.654,40.654,0,0,1-9.259,2.123,38.236,38.236,0,0,1-7.479.093.385.385,0,1,1,.067-.767,39.364,39.364,0,0,0,16.792-2.314c-.047.06-.09.116-.137.173" transform="translate(-40.045 -60.126)" fill="#e02b5e"/>
            <path id="Trazado_999506" data-name="Trazado 999506" d="M109.649,106.523l-.247,2.293-.278,2.591-.239,2.239a4.933,4.933,0,0,1-4.112.363,12.077,12.077,0,0,1-3.258-1.526l0-.181.079-6.526.013-1.191a4.116,4.116,0,0,1,3.019.142c1.186.358,2.45.9,3.435,1.225.94.314,1.585.571,1.585.571" transform="translate(-38.475 -39.551)" fill="#fdbb91"/>
            <path id="Trazado_999507" data-name="Trazado 999507" d="M110.744,107.372l-.524,4.884c-3.274-.935-5.815-5.668-5.815-5.668l4.756.212c.94.313,1.583.572,1.583.572" transform="translate(-39.57 -40.398)" fill="#fa986c"/>
            <path id="Trazado_999508" data-name="Trazado 999508" d="M113.441,97.738a10.968,10.968,0,0,1-5.559.569,17.96,17.96,0,0,1-4.828-1.444,25.243,25.243,0,0,1-2.98-1.6c-.667-.415-1.213-.8-1.6-1.076-.414-.306-.643-.5-.643-.5s-.163-1.209-.26-2.975A38.284,38.284,0,0,1,97.738,84c.363-2.8,1.2-5.365,2.988-6.343l3.011-.18L118,76.623s.034.214.083.6c.106.836.286,2.486.376,4.506.007.152.012.3.018.46.206,5.618-.358,13.725-5.033,15.551" transform="translate(-36.954 -29.041)" fill="#fdbb91"/>
            <path id="Trazado_999509" data-name="Trazado 999509" d="M99.7,105.093a20.194,20.194,0,0,1-1.819-2.8s-.161-1.21-.259-2.976l1.331.629s2.054,4.03.746,5.144" transform="translate(-37 -37.643)" fill="#32324c"/>
            <path id="Trazado_999510" data-name="Trazado 999510" d="M117.192,89.982c.033.731-.266,1.338-.668,1.357s-.754-.56-.787-1.291.266-1.338.668-1.357.754.56.787,1.291" transform="translate(-43.865 -33.614)" fill="#32324c"/>
            <path id="Trazado_999511" data-name="Trazado 999511" d="M128.74,89.461c.033.731-.266,1.338-.668,1.357s-.754-.56-.787-1.291.266-1.338.667-1.357.755.56.787,1.291" transform="translate(-48.241 -33.417)" fill="#32324c"/>
            <path id="Trazado_999512" data-name="Trazado 999512" d="M111.212,86.636a3.112,3.112,0,0,1,2.259-1.618,5.13,5.13,0,0,1,2.56.134.418.418,0,1,1-.325.77,3.838,3.838,0,0,0-4.494.714" transform="translate(-42.15 -32.187)" fill="#32324c"/>
            <path id="Trazado_999513" data-name="Trazado 999513" d="M129.229,85.233a4.012,4.012,0,0,0-2.717.548.417.417,0,1,1-.391-.736,5.126,5.126,0,0,1,2.537-.366,2.9,2.9,0,0,1,.553.093c.008.152.013.3.018.461" transform="translate(-47.709 -32.087)" fill="#32324c"/>
            <path id="Trazado_999514" data-name="Trazado 999514" d="M99.009,90.063s-1.951-2.774-3.833-1.044c-2.074,1.906-.663,8.01,3.714,7.673Z" transform="translate(-35.717 -33.524)" fill="#fdbb91"/>
            <path id="Trazado_999515" data-name="Trazado 999515" d="M99.862,96.777a.394.394,0,0,1-.389-.332c-.5-3.079-2.352-3.474-2.431-3.489a.4.4,0,0,1-.314-.459.392.392,0,0,1,.454-.317c.1.018,2.48.478,3.07,4.14a.4.4,0,0,1-.327.452.443.443,0,0,1-.063,0" transform="translate(-36.658 -34.935)" fill="#fa986c"/>
            <path id="Trazado_999516" data-name="Trazado 999516" d="M97.431,95.764a.394.394,0,0,1-.306-.642,2.2,2.2,0,0,1,2.041-.691.394.394,0,0,1-.135.777,1.4,1.4,0,0,0-1.294.411.393.393,0,0,1-.307.145" transform="translate(-36.778 -35.777)" fill="#fa986c"/>
            <path id="Trazado_999517" data-name="Trazado 999517" d="M123.461,95.442a.394.394,0,0,1-.286-.666l1.133-1.189-1.048-.29a.392.392,0,0,1-.283-.312l-.532-3.066a.394.394,0,1,1,.777-.135l.489,2.821,1.442.4a.394.394,0,0,1,.181.652l-1.587,1.665a.394.394,0,0,1-.286.122" transform="translate(-46.405 -33.905)" fill="#fa986c"/>
            <path id="Trazado_999518" data-name="Trazado 999518" d="M119.508,106.916a3.221,3.221,0,0,1-2.435-1.036.394.394,0,0,1,.61-.5,2.571,2.571,0,0,0,2.52.671.394.394,0,1,1,.164.771,4.1,4.1,0,0,1-.859.094" transform="translate(-44.338 -39.886)" fill="#fa986c"/>
            <path id="Trazado_999519" data-name="Trazado 999519" d="M118.226,77.221c.083,1.843-3.014,3.907-14.785,4.826,0,0,.371,5.427-1.983,5.093-.56-.08-1.317-3.148-3.573-3.143.361-2.8,1.2-5.365,2.988-6.342l17.273-1.032s.032.214.081.6" transform="translate(-37.099 -29.041)" fill="#32324c"/>
            <path id="Trazado_999520" data-name="Trazado 999520" d="M104.165,78.591s-.828,8.217-1.058,16.146c-.026.887-.044,1.775-.052,2.645-.023,2.419-1.115,4.331-3.06,4.931l.079-6.527c-.669-.414-1.212-.795-1.6-1.076-.417-.306-.646-.5-.646-.5s-.16-1.209-.258-2.975a37.809,37.809,0,0,1,.162-6.719c.361-2.8,1.2-5.366,2.988-6.343l3.011-.181a1.2,1.2,0,0,1,.427.6" transform="translate(-36.954 -29.56)" fill="#32324c"/>
            <path id="Trazado_999521" data-name="Trazado 999521" d="M123.06,100.107a19.391,19.391,0,0,1-6.325-1.647s-1.007,3.786,2.659,4.359c3.155.493,3.666-2.712,3.666-2.712" transform="translate(-44.196 -37.317)" fill="#fff"/>
            <path id="Trazado_999522" data-name="Trazado 999522" d="M114.265,91.874a3.064,3.064,0,1,1,2.984-3.143,3.068,3.068,0,0,1-2.984,3.143m-.145-5.622a2.56,2.56,0,1,0,2.626,2.493,2.563,2.563,0,0,0-2.626-2.493" transform="translate(-42.116 -32.499)" fill="#32324c"/>
            <path id="Trazado_999523" data-name="Trazado 999523" d="M127.112,91.541A3.064,3.064,0,1,1,130.1,88.4a3.068,3.068,0,0,1-2.984,3.143m-.146-5.622a2.56,2.56,0,1,0,2.625,2.493,2.563,2.563,0,0,0-2.625-2.493" transform="translate(-46.985 -32.372)" fill="#32324c"/>
            <rect id="Rectángulo_455922" data-name="Rectángulo 455922" width="0.505" height="5.796" transform="matrix(0.051, -0.999, 0.999, 0.051, 63.547, 55.563)" fill="#32324c"/>
            <path id="Trazado_999524" data-name="Trazado 999524" d="M120.568,89.652l-.3-.4a2.339,2.339,0,0,1,2.727-.065l-.3.408a1.852,1.852,0,0,0-2.127.061" transform="translate(-45.582 -33.644)" fill="#32324c"/>
            <rect id="Rectángulo_455923" data-name="Rectángulo 455923" width="140.277" height="17.486" transform="matrix(0.965, -0.264, 0.264, 0.965, 8.454, 130.337)" fill="#fdb102"/>
            <rect id="Rectángulo_455924" data-name="Rectángulo 455924" width="140.277" height="1.166" transform="matrix(0.965, -0.264, 0.264, 0.965, 9.248, 133.241)" fill="#f28000"/>
            <rect id="Rectángulo_455925" data-name="Rectángulo 455925" width="140.277" height="1.166" transform="matrix(0.965, -0.264, 0.264, 0.965, 10.606, 138.208)" fill="#f28000"/>
            <rect id="Rectángulo_455926" data-name="Rectángulo 455926" width="140.277" height="1.166" transform="matrix(0.965, -0.264, 0.264, 0.965, 11.963, 143.174)" fill="#f28000"/>
            <rect id="Rectángulo_455927" data-name="Rectángulo 455927" width="7.335" height="17.486" transform="translate(8.454 130.336) rotate(-15.286)" fill="#434361"/>
            <rect id="Rectángulo_455928" data-name="Rectángulo 455928" width="3.668" height="17.486" transform="translate(8.454 130.336) rotate(-15.286)" fill="#32324c"/>
            <path id="Trazado_999525" data-name="Trazado 999525" d="M8.454,209.885l-2.014.55a8.743,8.743,0,0,0,4.61,16.868l2.014-.551Z" transform="translate(0 -79.548)" fill="#fd4677"/>
            <path id="Trazado_999526" data-name="Trazado 999526" d="M236.123,167.2l-4.61-16.867,12.694,1.914,2.64.4,7.461,1.125-6.2,4.581-2.416,1.784Z" transform="translate(-87.746 -56.976)" fill="#fdbb91"/>
            <path id="Trazado_999527" data-name="Trazado 999527" d="M257.38,159.757a9.094,9.094,0,0,1-1.125-2.578,6.3,6.3,0,0,1-.133-3.129l7.461,1.125Z" transform="translate(-97.021 -58.387)" fill="#32324c"/>
            <path id="Trazado_999528" data-name="Trazado 999528" d="M82.216,133.256a143.2,143.2,0,0,1-11.249,20.527l-.2.294-1.94-.194-4.923-.5c.021-.211.05-.428.087-.652,1.306-8.484,11.883-26.352,11.883-26.352,5.283.019,6.342,6.873,6.342,6.873" transform="translate(-24.22 -47.9)" fill="#fd4677"/>
            <path id="Trazado_999529" data-name="Trazado 999529" d="M69.309,170.161s-.026.26-.081.733a106.143,106.143,0,0,1-2.245,12.335,104.842,104.842,0,0,0-2.334,13.2l-4.592-.42c.284-11.807.076-19.794,2.473-27.193h0l3.929.778.006,0Z" transform="translate(-22.762 -63.984)" fill="#fd4677"/>
            <path id="Trazado_999530" data-name="Trazado 999530" d="M73.417,170.336l-.2.294s-.026.26-.081.733h0s-.8-.465-1.856-.928c-.287-.126-.592-.252-.9-.368,0,0,0,0-.006,0a11.608,11.608,0,0,1,3.047.271" transform="translate(-26.671 -64.453)" fill="#e02b5e"/>
            <path id="Trazado_999531" data-name="Trazado 999531" d="M67.375,220.5a2.233,2.233,0,0,1-.71.348,2.541,2.541,0,0,1-.557.107s-.776,2.9-4.566,2.166-1.8-10.512-1.8-10.512l4.637.026s3.158,4.012,3.562,6.106a1.64,1.64,0,0,1-.562,1.759" transform="translate(-22.444 -80.58)" fill="#fdbb91"/>
            <path id="Trazado_999532" data-name="Trazado 999532" d="M192.158,189.721l.824.921s2.646-.15,3.08-1.153a.65.65,0,0,0-.252-.841Z" transform="translate(-72.83 -71.499)" fill="#fa986c"/>
            <path id="Trazado_999533" data-name="Trazado 999533" d="M186.283,191.594a3,3,0,0,0,1.985-2.817,3.029,3.029,0,0,0-.945-2.118c-2.086-2.132-4.432-3.172-5.134-2.134-.264.39,1.009,2.116,2.075,2.935a14.86,14.86,0,0,1-2.806-2.231c-1.056-1.171-2.388.361-1.069,1.842a9.062,9.062,0,0,0,1.634,1.633,8.438,8.438,0,0,1-2.005-1.672c-.548-.786-1.751.14-.6,1.632.533.692,1.149,1.481,1.149,1.481s-.95-.884-1.448-1.339-1.456-.4-.924.891c.419,1.015,1.74,3.682,3.271,3.433a37.678,37.678,0,0,0,4.816-1.536" transform="translate(-67.479 -69.783)" fill="#fdbb91"/>
          </g>
        </g>
      </g>
    </g>
  </g>
</svg>
