<svg id="Grupo_1191320" data-name="Grupo 1191320" xmlns="http://www.w3.org/2000/svg" xmlns:xlink="http://www.w3.org/1999/xlink" width="292.039" height="301.855" viewBox="0 0 292.039 301.855">
  <defs>
    <clipPath id="clip-path">
      <rect id="Rectángulo_455987" data-name="Rectángulo 455987" width="292.039" height="301.855" fill="none"/>
    </clipPath>
    <clipPath id="clip-path-3">
      <path id="Trazado_999697" data-name="Trazado 999697" d="M474.241,274.63V512.147c0,5.276,4.015,9.335,8.932,9.048l165.575-9.664c4.292-.25,7.773-4.445,7.773-9.351V281.345c0-4.906-3.481-9.039-7.773-9.213l-165.575-6.71c-.114,0-.228-.007-.341-.007-4.76,0-8.591,4.061-8.591,9.215" transform="translate(-474.241 -265.415)" fill="none"/>
    </clipPath>
    <linearGradient id="linear-gradient" x1="0.037" y1="0.965" x2="0.037" y2="0.965" gradientUnits="objectBoundingBox">
      <stop offset="0" stop-color="#26264f"/>
      <stop offset="0.004" stop-color="#26264f"/>
      <stop offset="1" stop-color="#444b8c"/>
    </linearGradient>
    <clipPath id="clip-path-4">
      <path id="Trazado_999698" data-name="Trazado 999698" d="M519.335,274.63V512.147c0,5.276,4.014,9.335,8.932,9.048l165.575-9.664c4.292-.25,7.773-4.445,7.773-9.351V281.345c0-4.906-3.481-9.039-7.773-9.213l-165.575-6.71c-.114,0-.228-.007-.341-.007-4.76,0-8.591,4.061-8.591,9.215" transform="translate(-519.335 -265.415)" fill="none"/>
    </clipPath>
    <linearGradient id="linear-gradient-2" x1="-0.277" y1="1.056" x2="-0.276" y2="1.056" gradientUnits="objectBoundingBox">
      <stop offset="0" stop-color="#444b8c"/>
      <stop offset="0.996" stop-color="#26264f"/>
      <stop offset="1" stop-color="#26264f"/>
    </linearGradient>
    <clipPath id="clip-path-5">
      <path id="Trazado_999699" data-name="Trazado 999699" d="M557.975,311.553V548.689a4.623,4.623,0,0,0,4.766,4.837l130.952-7.419,34.623-1.961c2.3-.13,4.161-2.368,4.161-5V317.981c0-2.63-1.861-4.835-4.161-4.924l-35.873-1.392-129.7-5.034c-.058,0-.117,0-.175,0a4.734,4.734,0,0,0-4.591,4.925" transform="translate(-557.975 -306.628)" fill="none"/>
    </clipPath>
    <linearGradient id="linear-gradient-3" x1="0.011" y1="0.998" x2="0.012" y2="0.998" xlink:href="#linear-gradient-2"/>
    <clipPath id="clip-path-7">
      <path id="Trazado_999701" data-name="Trazado 999701" d="M1244.975,2449.569l-33.672,1.771a3.333,3.333,0,0,0-3.262,3.139v.123a2.928,2.928,0,0,0,3.262,2.788l33.672-1.852a3.262,3.262,0,0,0,3.167-3.095v-.121a2.846,2.846,0,0,0-2.983-2.759q-.091,0-.183,0" transform="translate(-1208.041 -2449.564)" fill="none"/>
    </clipPath>
    <linearGradient id="linear-gradient-4" x1="-10.991" y1="1.329" x2="-10.983" y2="1.329" xlink:href="#linear-gradient-2"/>
    <clipPath id="clip-path-8">
      <path id="Trazado_999702" data-name="Trazado 999702" d="M1379.509,324.294a1.737,1.737,0,0,0,1.726,1.647,1.582,1.582,0,0,0,1.724-1.513,1.737,1.737,0,0,0-1.724-1.647h-.075a1.574,1.574,0,0,0-1.651,1.514" transform="translate(-1379.509 -322.78)" fill="none"/>
    </clipPath>
    <linearGradient id="linear-gradient-5" x1="-31.489" y1="57.153" x2="-31.466" y2="57.153" gradientUnits="objectBoundingBox">
      <stop offset="0" stop-color="#ff9085"/>
      <stop offset="1" stop-color="#fb6fbb"/>
    </linearGradient>
    <clipPath id="clip-path-10">
      <path id="Trazado_999704" data-name="Trazado 999704" d="M663.426,535.972l149-10.989V314.429l-148.2-3.541Z" transform="translate(-663.426 -310.888)" fill="none"/>
    </clipPath>
    <linearGradient id="linear-gradient-6" x1="-0.095" y1="1.355" x2="-0.094" y2="1.355" gradientUnits="objectBoundingBox">
      <stop offset="0" stop-color="#f36f56"/>
      <stop offset="0.004" stop-color="#f36f56"/>
      <stop offset="1" stop-color="#ffc444"/>
    </linearGradient>
    <clipPath id="clip-path-12">
      <rect id="Rectángulo_455957" data-name="Rectángulo 455957" width="108.214" height="225.083" fill="none"/>
    </clipPath>
    <clipPath id="clip-path-13">
      <path id="Trazado_999713" data-name="Trazado 999713" d="M712.013,420.167l89.426-6.6,59.489-4.391V198.623l-92.917-2.22-55.24-1.32Z" transform="translate(-712.013 -195.083)" fill="#ffd54e"/>
    </clipPath>
    <clipPath id="clip-path-15">
      <rect id="Rectángulo_455960" data-name="Rectángulo 455960" width="108.214" height="225.084" fill="none"/>
    </clipPath>
    <clipPath id="clip-path-16">
      <rect id="Rectángulo_455962" data-name="Rectángulo 455962" width="67.5" height="19.456" fill="none"/>
    </clipPath>
    <clipPath id="clip-path-17">
      <path id="Trazado_999715" data-name="Trazado 999715" d="M872.873,326.886l-67.47-.7.059-18.755L872.9,308.68Z" transform="translate(-805.403 -307.431)" fill="none"/>
    </clipPath>
    <linearGradient id="linear-gradient-7" x1="-1.286" y1="13.812" x2="-1.285" y2="13.812" xlink:href="#linear-gradient-5"/>
    <clipPath id="clip-path-18">
      <rect id="Rectángulo_455964" data-name="Rectángulo 455964" width="21.706" height="23.656" fill="none"/>
    </clipPath>
    <clipPath id="clip-path-19">
      <path id="Trazado_999716" data-name="Trazado 999716" d="M1002.94,749.165l-21.654.232.065-23.655,21.642,0Z" transform="translate(-981.286 -725.743)" fill="none"/>
    </clipPath>
    <linearGradient id="linear-gradient-8" x1="-4.874" y1="9.453" x2="-4.869" y2="9.453" xlink:href="#linear-gradient-5"/>
    <clipPath id="clip-path-20">
      <rect id="Rectángulo_455965" data-name="Rectángulo 455965" width="76.155" height="11.742" fill="none"/>
    </clipPath>
    <clipPath id="clip-path-21">
      <rect id="Rectángulo_455967" data-name="Rectángulo 455967" width="21.73" height="24.178" fill="none"/>
    </clipPath>
    <clipPath id="clip-path-22">
      <path id="Trazado_999718" data-name="Trazado 999718" d="M1001.757,1187.248l-21.678.708.065-23.706,21.666-.472Z" transform="translate(-980.079 -1163.778)" fill="none"/>
    </clipPath>
    <linearGradient id="linear-gradient-9" x1="-4.862" y1="7.296" x2="-4.857" y2="7.296" xlink:href="#linear-gradient-5"/>
    <clipPath id="clip-path-23">
      <rect id="Rectángulo_455968" data-name="Rectángulo 455968" width="76.237" height="13.371" fill="none"/>
    </clipPath>
    <clipPath id="clip-path-24">
      <rect id="Rectángulo_455970" data-name="Rectángulo 455970" width="21.755" height="24.706" fill="none"/>
    </clipPath>
    <clipPath id="clip-path-25">
      <path id="Trazado_999720" data-name="Trazado 999720" d="M1000.572,1626.249l-21.7,1.186.065-23.758,21.691-.949Z" transform="translate(-978.869 -1602.729)" fill="none"/>
    </clipPath>
    <linearGradient id="linear-gradient-10" x1="-4.851" y1="5.224" x2="-4.846" y2="5.224" xlink:href="#linear-gradient-5"/>
    <clipPath id="clip-path-26">
      <rect id="Rectángulo_455971" data-name="Rectángulo 455971" width="76.32" height="15.006" fill="none"/>
    </clipPath>
    <clipPath id="clip-path-27">
      <path id="Trazado_999722" data-name="Trazado 999722" d="M230.72,1873.579l.141.155c-.115-.073-.174-.128-.141-.155m17.618-4.718c-13.372-6.789-18.252-24.03-10.9-38.509s24.15-20.713,37.522-13.923,18.252,24.03,10.9,38.509c-5.333,10.5-15.641,16.669-26,16.669a25.324,25.324,0,0,1-11.519-2.746m4.836-68.753c0,.229.024.454.046.676a42.817,42.817,0,0,0-6.192,2.3c-.1-.2-.2-.39-.309-.579a7.176,7.176,0,0,0-10.451-1.982,8.473,8.473,0,0,0-2.567,11.1c.112.185.234.358.358.529a46.691,46.691,0,0,0-4.46,5.175c-.178-.112-.359-.221-.55-.318-3.683-1.87-8.31-.153-10.335,3.835s-.68,8.736,3,10.606c.191.1.386.178.581.256a46.707,46.707,0,0,0-1.546,6.655c-.211,0-.423,0-.638.023a8.474,8.474,0,0,0-7.449,8.625,7.175,7.175,0,0,0,7.767,7.268c.22-.019.435-.054.65-.092a42.82,42.82,0,0,0,1.8,6.356c-.193.113-.386.23-.573.362a8.473,8.473,0,0,0-2.567,11.1c2.074,3.442,8.713,5.129,12.445,3.1a38.154,38.154,0,0,0,3.2,2.821c-.118.194-.234.391-.339.6-2.025,3.988-.68,8.736,3,10.606s8.31.153,10.335-3.835c.1-.207.2-.416.282-.627a37.971,37.971,0,0,0,6.264,1.2c-.013.222-.023.444-.019.669a7.176,7.176,0,0,0,7.767,7.268,8.473,8.473,0,0,0,7.449-8.624c0-.229-.024-.454-.046-.677a42.785,42.785,0,0,0,6.193-2.3c.1.2.195.391.309.579a7.175,7.175,0,0,0,10.451,1.982,8.473,8.473,0,0,0,2.567-11.1c-.112-.185-.234-.358-.358-.529a46.714,46.714,0,0,0,4.46-5.175c.178.112.359.221.55.318,3.683,1.87,8.31.153,10.334-3.835s.68-8.736-3-10.606c-.191-.1-.385-.178-.581-.256a46.686,46.686,0,0,0,1.546-6.655c.211,0,.423,0,.638-.023a8.473,8.473,0,0,0,7.449-8.624,7.176,7.176,0,0,0-7.767-7.268c-.22.02-.435.054-.65.093a42.822,42.822,0,0,0-1.8-6.355c.193-.113.386-.23.574-.362a8.473,8.473,0,0,0,2.567-11.1,7.176,7.176,0,0,0-10.451-1.982c-.184.129-.357.269-.529.41a37.961,37.961,0,0,0-4.662-4.352c.119-.194.235-.391.34-.6,2.025-3.988,4.67-8.344.959-10.156-8.586-4.192-12.271-.6-14.3,3.384-.1.207-.2.417-.282.627a38,38,0,0,0-6.264-1.2c.013-.222.023-.444.019-.669-.088-4.388,1.214-6.763-3-6.845-.2,0-.4-.006-.589-.006-8.742,0-11.71,3.914-11.623,8.207" transform="translate(-212.663 -1791.902)" fill="none"/>
    </clipPath>
    <linearGradient id="linear-gradient-11" x1="-0.133" y1="1.023" x2="-0.132" y2="1.023" xlink:href="#linear-gradient-2"/>
    <clipPath id="clip-path-28">
      <path id="Trazado_999723" data-name="Trazado 999723" d="M602.887,1886.968c10.668,7.817,14.064,23.222,7.4,36.355-5.651,11.129-16.883,17.379-27.85,16.6-.489,1.269-.97,2.544-1.493,3.8-1.422,3.41-3.037,6.749-4.654,10.085q1.526.287,3.063.45c-.013.222-.023.444-.019.669.088,4.388,2.752,8.117,10.368,7.713,4.213-.223,4.937-4.681,4.849-9.07,0-.229-.024-.454-.047-.676a42.793,42.793,0,0,0,6.193-2.3c.1.2.2.39.309.579,2.177,3.613,9.73,5.149,13.325,2.63s1.871-8.137-.306-11.751c-.112-.185-.234-.358-.358-.529a46.673,46.673,0,0,0,4.46-5.175c.178.112.359.221.55.318,3.683,1.87,8.31.153,10.334-3.835s.68-8.737-3-10.606c-.191-.1-.386-.178-.581-.256a46.68,46.68,0,0,0,1.546-6.655c.211,0,.423,0,.638-.024a8.473,8.473,0,0,0,7.449-8.624,7.176,7.176,0,0,0-7.767-7.268c-.22.02-.435.054-.65.093a42.823,42.823,0,0,0-1.8-6.355c.193-.113.386-.23.573-.362,3.595-2.519,8.042-8.6,5.506-11.975-4.814-6.4-9.8-3.628-13.39-1.11-.184.129-.357.269-.529.41a37.967,37.967,0,0,0-4.662-4.351c.118-.194.234-.391.339-.6a8.368,8.368,0,0,0,.471-6.6q-5.208,9.167-10.262,18.419" transform="translate(-576.286 -1868.549)" fill="none"/>
    </clipPath>
    <linearGradient id="linear-gradient-12" x1="-0.406" y1="1.258" x2="-0.405" y2="1.258" xlink:href="#linear-gradient-2"/>
    <clipPath id="clip-path-29">
      <path id="Trazado_999724" data-name="Trazado 999724" d="M285.082,1869.348c-13.372-6.789-18.252-24.03-10.9-38.509s24.15-20.713,37.522-13.923,18.252,24.03,10.9,38.509c-5.333,10.5-15.641,16.668-26,16.669a25.328,25.328,0,0,1-11.519-2.746m12.284-77.377a8.473,8.473,0,0,0-7.449,8.624c0,.229.024.453.047.676a42.843,42.843,0,0,0-6.193,2.3c-.1-.2-.2-.39-.309-.579a7.175,7.175,0,0,0-10.451-1.982,8.473,8.473,0,0,0-2.567,11.1c.111.185.234.358.358.529a46.7,46.7,0,0,0-4.461,5.176c-.178-.112-.359-.221-.55-.318-3.683-1.87-8.31-.153-10.335,3.835s-.68,8.736,3,10.606c.191.1.385.178.581.256a46.7,46.7,0,0,0-1.546,6.655c-.211,0-.423,0-.638.023a8.474,8.474,0,0,0-7.449,8.624,7.176,7.176,0,0,0,7.768,7.268c.219-.02.435-.054.65-.092a42.842,42.842,0,0,0,1.8,6.356c-.193.113-.386.23-.573.362a8.473,8.473,0,0,0-2.567,11.1,7.176,7.176,0,0,0,10.451,1.982c.184-.129.358-.268.529-.41a37.963,37.963,0,0,0,4.662,4.352c-.118.194-.234.391-.339.6-2.025,3.988-.68,8.736,3,10.606s8.31.153,10.334-3.835c.105-.207.2-.416.282-.626a37.972,37.972,0,0,0,6.264,1.2c-.013.221-.023.444-.019.669a7.176,7.176,0,0,0,7.767,7.268,8.473,8.473,0,0,0,7.449-8.624c0-.229-.024-.454-.046-.676a42.816,42.816,0,0,0,6.192-2.3c.1.2.2.39.309.579a7.176,7.176,0,0,0,10.451,1.982,8.474,8.474,0,0,0,2.567-11.1c-.112-.185-.234-.358-.358-.529a46.719,46.719,0,0,0,4.461-5.175c.178.112.359.221.549.318,3.683,1.87,8.31.153,10.335-3.835s.68-8.736-3-10.606c-.191-.1-.385-.178-.581-.256a46.668,46.668,0,0,0,1.546-6.655c.211,0,.423,0,.638-.023a8.474,8.474,0,0,0,7.449-8.624,7.176,7.176,0,0,0-7.767-7.268c-.22.02-.435.054-.65.093a42.84,42.84,0,0,0-1.8-6.356c.193-.113.386-.23.574-.361a8.473,8.473,0,0,0,2.567-11.1,7.176,7.176,0,0,0-10.451-1.982c-.184.129-.358.268-.529.41a37.962,37.962,0,0,0-4.662-4.352c.118-.194.234-.391.339-.6,2.025-3.988.681-8.736-3-10.606s-8.31-.153-10.334,3.835c-.1.207-.2.416-.282.627a37.973,37.973,0,0,0-6.264-1.2c.013-.222.023-.444.019-.669a7.2,7.2,0,0,0-7.112-7.3q-.325,0-.656.029" transform="translate(-249.406 -1791.942)" fill="none"/>
    </clipPath>
    <linearGradient id="linear-gradient-13" x1="-0.039" y1="0.905" x2="-0.039" y2="0.905" gradientUnits="objectBoundingBox">
      <stop offset="0" stop-color="#aa80f9"/>
      <stop offset="0.996" stop-color="#6165d7"/>
      <stop offset="1" stop-color="#6165d7"/>
    </linearGradient>
    <clipPath id="clip-path-30">
      <path id="Trazado_999725" data-name="Trazado 999725" d="M130.141,1220.155l.088.1c-.072-.046-.109-.08-.088-.1m11.043-2.957c-8.381-4.255-11.44-15.061-6.832-24.136s15.137-12.982,23.518-8.727,11.44,15.061,6.832,24.136a18.588,18.588,0,0,1-16.3,10.448,15.873,15.873,0,0,1-7.22-1.721m3.031-43.092c0,.144.015.284.029.424a26.853,26.853,0,0,0-3.881,1.44c-.06-.123-.122-.245-.194-.363a4.5,4.5,0,0,0-6.55-1.242,5.311,5.311,0,0,0-1.609,6.959c.07.116.147.224.224.332a29.262,29.262,0,0,0-2.8,3.244c-.112-.07-.225-.139-.345-.2a5.092,5.092,0,0,0-4.6,9.051c.119.061.242.112.364.161a29.288,29.288,0,0,0-.969,4.171c-.132,0-.265,0-.4.015a5.311,5.311,0,0,0-4.669,5.405,4.5,4.5,0,0,0,4.868,4.555c.138-.012.273-.034.407-.058a26.844,26.844,0,0,0,1.128,3.983c-.121.071-.242.144-.359.227a5.311,5.311,0,0,0-1.609,6.959c1.3,2.157,5.461,3.214,7.8,1.945a23.965,23.965,0,0,0,2,1.768c-.074.121-.147.245-.213.375a4.7,4.7,0,1,0,8.359,4.244c.066-.13.122-.261.177-.393a23.809,23.809,0,0,0,3.926.75c-.008.139-.015.278-.012.419a4.5,4.5,0,0,0,4.868,4.555,5.31,5.31,0,0,0,4.669-5.405c0-.144-.015-.284-.029-.424a26.845,26.845,0,0,0,3.881-1.44c.06.123.122.245.194.363a4.5,4.5,0,0,0,6.55,1.242,5.311,5.311,0,0,0,1.609-6.959c-.07-.116-.146-.224-.224-.331a29.285,29.285,0,0,0,2.8-3.244c.112.07.225.138.345.2a5.091,5.091,0,0,0,4.6-9.051c-.12-.061-.242-.112-.364-.161a29.281,29.281,0,0,0,.969-4.171c.132,0,.265,0,.4-.015a5.311,5.311,0,0,0,4.669-5.405,4.5,4.5,0,0,0-4.868-4.555c-.138.012-.273.034-.407.058a26.851,26.851,0,0,0-1.128-3.984c.121-.071.242-.144.36-.227a5.311,5.311,0,0,0,1.609-6.959,4.5,4.5,0,0,0-6.55-1.243c-.115.081-.224.168-.331.257a23.743,23.743,0,0,0-2.922-2.728c.074-.122.147-.245.213-.375,1.269-2.5,2.927-5.23.6-6.365-5.382-2.627-7.691-.378-8.96,2.121-.066.13-.122.261-.177.393a23.792,23.792,0,0,0-3.926-.75c.008-.139.015-.278.012-.419-.055-2.75.761-4.239-1.883-4.29-.125,0-.248,0-.369,0-5.479,0-7.339,2.453-7.285,5.144" transform="translate(-118.823 -1168.962)" fill="none"/>
    </clipPath>
    <linearGradient id="linear-gradient-14" x1="-0.111" y1="2.584" x2="-0.109" y2="2.584" xlink:href="#linear-gradient-2"/>
    <clipPath id="clip-path-31">
      <path id="Trazado_999726" data-name="Trazado 999726" d="M363.4,1228.546c6.686,4.9,8.815,14.555,4.636,22.786a18.455,18.455,0,0,1-17.455,10.4c-.307.8-.608,1.595-.936,2.382-.891,2.137-1.9,4.23-2.917,6.321q.956.18,1.92.282c-.008.139-.015.278-.012.419.055,2.75,1.725,5.087,6.5,4.834,2.64-.14,3.094-2.934,3.039-5.684,0-.144-.015-.284-.029-.424a26.833,26.833,0,0,0,3.881-1.44c.06.123.122.245.194.363,1.364,2.265,6.1,3.227,8.351,1.648s1.173-5.1-.192-7.365c-.07-.116-.147-.224-.224-.332a29.264,29.264,0,0,0,2.8-3.244c.112.07.225.139.345.2a5.091,5.091,0,0,0,4.6-9.051c-.12-.061-.242-.112-.364-.161a29.286,29.286,0,0,0,.969-4.171c.132,0,.265,0,.4-.015a5.311,5.311,0,0,0,4.669-5.406,4.5,4.5,0,0,0-4.868-4.555c-.138.012-.273.034-.407.058a26.832,26.832,0,0,0-1.128-3.983c.121-.071.242-.144.36-.227,2.253-1.578,5.041-5.393,3.451-7.506-3.017-4.01-6.139-2.274-8.393-.7-.115.081-.224.168-.331.257a23.788,23.788,0,0,0-2.922-2.727c.074-.122.147-.245.213-.374a5.244,5.244,0,0,0,.3-4.135q-3.264,5.746-6.432,11.544" transform="translate(-346.731 -1217.002)" fill="none"/>
    </clipPath>
    <linearGradient id="linear-gradient-15" x1="-0.381" y1="3.709" x2="-0.38" y2="3.709" xlink:href="#linear-gradient-2"/>
    <clipPath id="clip-path-32">
      <path id="Trazado_999727" data-name="Trazado 999727" d="M164.213,1217.5c-8.381-4.255-11.44-15.061-6.833-24.136s15.137-12.982,23.518-8.727,11.44,15.061,6.832,24.136a18.588,18.588,0,0,1-16.3,10.448,15.872,15.872,0,0,1-7.22-1.721m7.7-48.5a5.311,5.311,0,0,0-4.669,5.405c0,.144.015.284.029.424a26.873,26.873,0,0,0-3.881,1.44c-.06-.123-.122-.245-.194-.363a4.5,4.5,0,0,0-6.55-1.242,5.311,5.311,0,0,0-1.609,6.959c.07.116.146.224.224.332a29.274,29.274,0,0,0-2.8,3.244c-.112-.07-.225-.139-.345-.2a5.091,5.091,0,0,0-4.6,9.051c.12.061.242.112.364.161a29.288,29.288,0,0,0-.969,4.171c-.132,0-.265,0-.4.015a5.311,5.311,0,0,0-4.669,5.406,4.5,4.5,0,0,0,4.868,4.555c.137-.012.273-.034.407-.058a26.853,26.853,0,0,0,1.128,3.983c-.121.071-.242.144-.359.227a5.311,5.311,0,0,0-1.609,6.959,4.5,4.5,0,0,0,6.55,1.242c.115-.081.224-.168.332-.257a23.8,23.8,0,0,0,2.922,2.728c-.074.122-.147.245-.213.374a4.7,4.7,0,1,0,8.359,4.244c.066-.129.122-.261.177-.393a23.767,23.767,0,0,0,3.926.75c-.008.139-.015.278-.012.419a4.5,4.5,0,0,0,4.868,4.555,5.311,5.311,0,0,0,4.669-5.405c0-.144-.015-.284-.029-.424a26.852,26.852,0,0,0,3.881-1.441c.06.123.122.245.194.363a4.5,4.5,0,0,0,6.55,1.242,5.311,5.311,0,0,0,1.609-6.959c-.07-.116-.146-.224-.224-.331a29.273,29.273,0,0,0,2.8-3.244c.112.07.225.138.344.2a5.092,5.092,0,0,0,4.6-9.051c-.12-.061-.242-.112-.364-.161a29.262,29.262,0,0,0,.969-4.171c.132,0,.265,0,.4-.015a5.31,5.31,0,0,0,4.669-5.405,4.5,4.5,0,0,0-4.868-4.555c-.138.012-.273.034-.407.058a26.84,26.84,0,0,0-1.128-3.984c.121-.071.242-.144.359-.227a5.311,5.311,0,0,0,1.609-6.959,4.5,4.5,0,0,0-6.55-1.242c-.116.081-.224.168-.331.257a23.788,23.788,0,0,0-2.922-2.727c.074-.122.147-.245.213-.375a4.7,4.7,0,1,0-8.359-4.244c-.066.13-.122.261-.177.393a23.806,23.806,0,0,0-3.926-.75c.008-.139.015-.278.012-.419a4.509,4.509,0,0,0-4.457-4.574q-.2,0-.411.018" transform="translate(-141.853 -1168.987)" fill="none"/>
    </clipPath>
    <linearGradient id="linear-gradient-16" x1="-0.022" y1="2.12" x2="-0.02" y2="2.12" xlink:href="#linear-gradient-13"/>
    <clipPath id="clip-path-33">
      <path id="Trazado_999728" data-name="Trazado 999728" d="M1711.323,1699.074l83.438-5.4a3.318,3.318,0,0,0,3.365-3.032V1584.725a3.346,3.346,0,0,0-3.514-3.038l-83.289-1.284Z" transform="translate(-1711.323 -1580.403)" fill="#fc9d83"/>
    </clipPath>
    <clipPath id="clip-path-35">
      <rect id="Rectángulo_455980" data-name="Rectángulo 455980" width="86.985" height="111.652" fill="none"/>
    </clipPath>
    <clipPath id="clip-path-36">
      <path id="Trazado_999730" data-name="Trazado 999730" d="M2485.517,1652.642V1675.1h9.21a.338.338,0,0,0,.338-.338V1652.98a.338.338,0,0,0-.338-.338Z" transform="translate(-2485.517 -1652.642)" fill="#fc9d83"/>
    </clipPath>
    <clipPath id="clip-path-37">
      <path id="Trazado_999731" data-name="Trazado 999731" d="M1734.417,1561.546l-67.263,1.918c-2.232.064-4,1.6-4,3.48v112.321a3.732,3.732,0,0,0,3.507,3.441l67.4,8.786c2.114.229,3.987-1.155,3.987-2.947V1564.516a3.29,3.29,0,0,0-3.533-2.971h-.093" transform="translate(-1663.152 -1561.545)" fill="#fc9d83"/>
    </clipPath>
    <clipPath id="clip-path-39">
      <rect id="Rectángulo_455985" data-name="Rectángulo 455985" width="55.431" height="126.539" fill="none"/>
    </clipPath>
    <clipPath id="clip-path-40">
      <path id="Trazado_999733" data-name="Trazado 999733" d="M1694.472,1668.377c-.972-13.117,8.689-16.247,7.061-31.552-2.358-22.163-24.1-29.559-22.3-47.8a27.866,27.866,0,0,1,6.445-14.584l-18.527.528c-2.232.064-4,1.6-4,3.48v112.322a3.732,3.732,0,0,0,3.507,3.44l51.924,6.769c-18.116-12.585-23.455-23.751-24.111-32.606" transform="translate(-1663.152 -1574.444)" fill="none"/>
    </clipPath>
    <linearGradient id="linear-gradient-17" x1="-1.113" y1="1.034" x2="-1.112" y2="1.034" xlink:href="#linear-gradient-5"/>
  </defs>
  <g id="Grupo_1191319" data-name="Grupo 1191319" clip-path="url(#clip-path)">
    <g id="Grupo_1191231" data-name="Grupo 1191231">
      <g id="Grupo_1191230" data-name="Grupo 1191230" clip-path="url(#clip-path)">
        <path id="Trazado_999696" data-name="Trazado 999696" d="M88.825,3.088A74.111,74.111,0,0,0,26.179,89.681C37.518,151.809-66.04,279.113,74.556,297.853s212.824-31.9,216.185-78.014c3.2-43.945,16.092-247.168-201.917-216.752" transform="translate(0 0)" fill="#bbc1f8"/>
      </g>
    </g>
    <g id="Grupo_1191233" data-name="Grupo 1191233" transform="translate(51.126 28.613)">
      <g id="Grupo_1191232" data-name="Grupo 1191232" clip-path="url(#clip-path-3)">
        <rect id="Rectángulo_455949" data-name="Rectángulo 455949" width="307.067" height="312.122" transform="translate(-127.433 115.644) rotate(-42.223)" fill="url(#linear-gradient)"/>
      </g>
    </g>
    <g id="Grupo_1191235" data-name="Grupo 1191235" transform="translate(55.987 28.613)">
      <g id="Grupo_1191234" data-name="Grupo 1191234" clip-path="url(#clip-path-4)">
        <rect id="Rectángulo_455950" data-name="Rectángulo 455950" width="189.342" height="261.045" transform="translate(-7.129 0.199) rotate(-1.596)" fill="url(#linear-gradient-2)"/>
      </g>
    </g>
    <g id="Grupo_1191237" data-name="Grupo 1191237" transform="translate(60.153 33.056)">
      <g id="Grupo_1191236" data-name="Grupo 1191236" clip-path="url(#clip-path-5)">
        <rect id="Rectángulo_455951" data-name="Rectángulo 455951" width="301.706" height="291.497" transform="matrix(0.633, -0.774, 0.774, 0.633, -121.078, 147.984)" fill="url(#linear-gradient-3)"/>
      </g>
    </g>
    <g id="Grupo_1191239" data-name="Grupo 1191239">
      <g id="Grupo_1191238" data-name="Grupo 1191238" clip-path="url(#clip-path)">
        <path id="Trazado_999700" data-name="Trazado 999700" d="M751.972,554.613a1.877,1.877,0,0,1-1.749,1.864L584.4,564.956a1.838,1.838,0,0,1-2-1.8V337.25a1.868,1.868,0,0,1,2-1.824l165.827,6.236a1.846,1.846,0,0,1,1.749,1.84Z" transform="translate(-519.611 -299.264)" fill="#d8dee8"/>
      </g>
    </g>
    <g id="Grupo_1191241" data-name="Grupo 1191241" transform="translate(130.233 264.076)">
      <g id="Grupo_1191240" data-name="Grupo 1191240" clip-path="url(#clip-path-7)">
        <rect id="Rectángulo_455953" data-name="Rectángulo 455953" width="13.079" height="40.791" transform="translate(-1.023 7.791) rotate(-82.519)" fill="url(#linear-gradient-4)"/>
      </g>
    </g>
    <g id="Grupo_1191243" data-name="Grupo 1191243" transform="translate(148.718 34.797)">
      <g id="Grupo_1191242" data-name="Grupo 1191242" clip-path="url(#clip-path-8)">
        <rect id="Rectángulo_455954" data-name="Rectángulo 455954" width="4.703" height="4.686" transform="translate(-1.591 1.444) rotate(-42.224)" fill="url(#linear-gradient-5)"/>
      </g>
    </g>
    <g id="Grupo_1191245" data-name="Grupo 1191245">
      <g id="Grupo_1191244" data-name="Grupo 1191244" clip-path="url(#clip-path)">
        <path id="Trazado_999703" data-name="Trazado 999703" d="M657.79,486.636c-.675-14.473,15.417-22.961,13.871-43.378-.14-1.842-1.578-17.642-14.294-28.351-11.419-9.617-21.017-6-42.152-13.669-14.812-5.376-31.464-11.42-38.2-23.546-13.375-24.081,24.845-48.134,17.022-79.31-2.241-8.933-8.57-19.883-25.286-31.319l-40.485-1.641c-4.917-.2-8.932,3.931-8.932,9.208V512.147c0,5.277,4.015,9.335,8.932,9.048l150.862-8.805c-16.069-9.289-20.988-18.214-21.339-25.754" transform="translate(-463.348 -236.802)" fill="#fff"/>
      </g>
    </g>
    <g id="Grupo_1191247" data-name="Grupo 1191247" transform="translate(71.521 33.515)">
      <g id="Grupo_1191246" data-name="Grupo 1191246" clip-path="url(#clip-path-10)">
        <rect id="Rectángulo_455956" data-name="Rectángulo 455956" width="245.534" height="182.219" transform="matrix(0.156, -0.988, 0.988, 0.156, -34.611, 219.63)" fill="url(#linear-gradient-6)"/>
      </g>
    </g>
    <g id="Grupo_1191252" data-name="Grupo 1191252">
      <g id="Grupo_1191251" data-name="Grupo 1191251" clip-path="url(#clip-path)">
        <path id="Trazado_999705" data-name="Trazado 999705" d="M823.539,442.694l-67.47-.7.059-18.754,67.441,1.249Z" transform="translate(-674.561 -377.612)" fill="#fff"/>
        <path id="Trazado_999706" data-name="Trazado 999706" d="M939.511,850.5l-21.654.232.065-23.655,21.642,0Z" transform="translate(-818.907 -737.912)" fill="#fff"/>
        <path id="Trazado_999707" data-name="Trazado 999707" d="M1259.248,837.463l-76.151.463.024-11.677,76.131-.065Z" transform="translate(-1055.553 -737.117)" fill="#fff"/>
        <path id="Trazado_999708" data-name="Trazado 999708" d="M938.328,1288.579l-21.679.708.065-23.706,21.666-.472Z" transform="translate(-817.83 -1128.724)" fill="#fff"/>
        <path id="Trazado_999709" data-name="Trazado 999709" d="M1258.422,1259.5l-76.233,2.068.024-11.7,76.213-1.669Z" transform="translate(-1054.743 -1113.631)" fill="#fff"/>
        <path id="Trazado_999710" data-name="Trazado 999710" d="M937.143,1727.582l-21.7,1.186.065-23.758,21.691-.949Z" transform="translate(-816.751 -1520.354)" fill="#fff"/>
        <path id="Trazado_999711" data-name="Trazado 999711" d="M1257.595,1682.4l-76.316,3.68.024-11.727,76.295-3.279Z" transform="translate(-1053.931 -1490.924)" fill="#fff"/>
        <g id="Grupo_1191250" data-name="Grupo 1191250" transform="translate(71.603 33.134)" opacity="0.3" style="mix-blend-mode: soft-light;isolation: isolate">
          <g id="Grupo_1191249" data-name="Grupo 1191249">
            <g id="Grupo_1191248" data-name="Grupo 1191248" clip-path="url(#clip-path-12)">
              <path id="Trazado_999712" data-name="Trazado 999712" d="M753.615,525.836l-89.426,6.6.759-225.084,55.24,1.32c-10.8,18.578-23.981,55.688,13.71,90.468,38.307,35.347,53.664,89.386,19.717,126.7" transform="translate(-664.189 -307.348)" fill="#fff"/>
            </g>
          </g>
        </g>
      </g>
    </g>
    <g id="Grupo_1191254" data-name="Grupo 1191254" transform="translate(76.759 21.031)">
      <g id="Grupo_1191253" data-name="Grupo 1191253" clip-path="url(#clip-path-13)">
        <rect id="Rectángulo_455959" data-name="Rectángulo 455959" width="267.089" height="230.658" transform="translate(-86.797 184.179) rotate(-64.767)" fill="#ffd54e"/>
      </g>
    </g>
    <g id="Grupo_1191288" data-name="Grupo 1191288">
      <g id="Grupo_1191287" data-name="Grupo 1191287" clip-path="url(#clip-path)">
        <g id="Grupo_1191257" data-name="Grupo 1191257" transform="translate(76.759 21.031)" opacity="0.5" style="mix-blend-mode: soft-light;isolation: isolate">
          <g id="Grupo_1191256" data-name="Grupo 1191256">
            <g id="Grupo_1191255" data-name="Grupo 1191255" clip-path="url(#clip-path-15)">
              <path id="Trazado_999714" data-name="Trazado 999714" d="M801.438,413.571l-89.426,6.6.759-225.084,55.24,1.32c-10.8,18.578-23.981,55.687,13.71,90.468,38.307,35.347,53.663,89.386,19.717,126.7" transform="translate(-712.013 -195.083)" fill="#fff"/>
            </g>
          </g>
        </g>
        <g id="Grupo_1191262" data-name="Grupo 1191262" transform="translate(86.827 33.143)" opacity="0.6" style="mix-blend-mode: multiply;isolation: isolate">
          <g id="Grupo_1191261" data-name="Grupo 1191261">
            <g id="Grupo_1191260" data-name="Grupo 1191260" clip-path="url(#clip-path-16)">
              <g id="Grupo_1191259" data-name="Grupo 1191259" transform="translate(0 0)">
                <g id="Grupo_1191258" data-name="Grupo 1191258" clip-path="url(#clip-path-17)">
                  <rect id="Rectángulo_455961" data-name="Rectángulo 455961" width="67.5" height="19.455" transform="translate(0 0)" fill="url(#linear-gradient-7)"/>
                </g>
              </g>
            </g>
          </g>
        </g>
        <g id="Grupo_1191267" data-name="Grupo 1191267" transform="translate(105.788 78.239)" opacity="0.6" style="mix-blend-mode: multiply;isolation: isolate">
          <g id="Grupo_1191266" data-name="Grupo 1191266">
            <g id="Grupo_1191265" data-name="Grupo 1191265" clip-path="url(#clip-path-18)">
              <g id="Grupo_1191264" data-name="Grupo 1191264" transform="translate(0 0)">
                <g id="Grupo_1191263" data-name="Grupo 1191263" clip-path="url(#clip-path-19)">
                  <rect id="Rectángulo_455963" data-name="Rectángulo 455963" width="21.706" height="23.655" transform="translate(0 0)" fill="url(#linear-gradient-8)"/>
                </g>
              </g>
            </g>
          </g>
        </g>
        <g id="Grupo_1191270" data-name="Grupo 1191270" transform="translate(134.383 78.143)" opacity="0.5">
          <g id="Grupo_1191269" data-name="Grupo 1191269">
            <g id="Grupo_1191268" data-name="Grupo 1191268" clip-path="url(#clip-path-20)">
              <path id="Trazado_999717" data-name="Trazado 999717" d="M1322.677,736.131l-76.151.463.024-11.677,76.13-.066Z" transform="translate(-1246.526 -724.851)" fill="#fff"/>
            </g>
          </g>
        </g>
        <g id="Grupo_1191275" data-name="Grupo 1191275" transform="translate(105.658 125.462)" opacity="0.6" style="mix-blend-mode: multiply;isolation: isolate">
          <g id="Grupo_1191274" data-name="Grupo 1191274">
            <g id="Grupo_1191273" data-name="Grupo 1191273" clip-path="url(#clip-path-21)">
              <g id="Grupo_1191272" data-name="Grupo 1191272" transform="translate(0 0)">
                <g id="Grupo_1191271" data-name="Grupo 1191271" clip-path="url(#clip-path-22)">
                  <rect id="Rectángulo_455966" data-name="Rectángulo 455966" width="21.731" height="24.178" transform="translate(0)" fill="url(#linear-gradient-9)"/>
                </g>
              </g>
            </g>
          </g>
        </g>
        <g id="Grupo_1191278" data-name="Grupo 1191278" transform="translate(134.285 123.638)" opacity="0.5">
          <g id="Grupo_1191277" data-name="Grupo 1191277">
            <g id="Grupo_1191276" data-name="Grupo 1191276" clip-path="url(#clip-path-23)">
              <path id="Trazado_999719" data-name="Trazado 999719" d="M1321.851,1158.164l-76.233,2.068.024-11.7,76.213-1.669Z" transform="translate(-1245.618 -1146.861)" fill="#fff"/>
            </g>
          </g>
        </g>
        <g id="Grupo_1191283" data-name="Grupo 1191283" transform="translate(105.527 172.783)" opacity="0.6" style="mix-blend-mode: multiply;isolation: isolate">
          <g id="Grupo_1191282" data-name="Grupo 1191282">
            <g id="Grupo_1191281" data-name="Grupo 1191281" clip-path="url(#clip-path-24)">
              <g id="Grupo_1191280" data-name="Grupo 1191280" transform="translate(0 0)">
                <g id="Grupo_1191279" data-name="Grupo 1191279" clip-path="url(#clip-path-25)">
                  <rect id="Rectángulo_455969" data-name="Rectángulo 455969" width="21.756" height="24.706" transform="translate(0)" fill="url(#linear-gradient-10)"/>
                </g>
              </g>
            </g>
          </g>
        </g>
        <g id="Grupo_1191286" data-name="Grupo 1191286" transform="translate(134.186 169.226)" opacity="0.5">
          <g id="Grupo_1191285" data-name="Grupo 1191285">
            <g id="Grupo_1191284" data-name="Grupo 1191284" clip-path="url(#clip-path-26)">
              <path id="Trazado_999721" data-name="Trazado 999721" d="M1321.024,1581.07l-76.316,3.68.024-11.727,76.3-3.279Z" transform="translate(-1244.708 -1569.743)" fill="#fff"/>
            </g>
          </g>
        </g>
      </g>
    </g>
    <g id="Grupo_1191290" data-name="Grupo 1191290" transform="translate(22.926 193.177)">
      <g id="Grupo_1191289" data-name="Grupo 1191289" clip-path="url(#clip-path-27)">
        <rect id="Rectángulo_455973" data-name="Rectángulo 455973" width="113.663" height="110.073" transform="matrix(0.124, -0.992, 0.992, 0.124, -12.674, 100.705)" fill="url(#linear-gradient-11)"/>
      </g>
    </g>
    <g id="Grupo_1191292" data-name="Grupo 1191292" transform="translate(62.127 201.44)">
      <g id="Grupo_1191291" data-name="Grupo 1191291" clip-path="url(#clip-path-28)">
        <rect id="Rectángulo_455974" data-name="Rectángulo 455974" width="101.061" height="70.123" transform="translate(-11.63 93.037) rotate(-82.875)" fill="url(#linear-gradient-12)"/>
      </g>
    </g>
    <g id="Grupo_1191294" data-name="Grupo 1191294" transform="translate(26.887 193.181)">
      <g id="Grupo_1191293" data-name="Grupo 1191293" clip-path="url(#clip-path-29)">
        <rect id="Rectángulo_455975" data-name="Rectángulo 455975" width="140.685" height="141.442" transform="translate(-50.046 39.442) rotate(-38.29)" fill="url(#linear-gradient-13)"/>
      </g>
    </g>
    <g id="Grupo_1191296" data-name="Grupo 1191296" transform="translate(12.81 126.02)">
      <g id="Grupo_1191295" data-name="Grupo 1191295" clip-path="url(#clip-path-30)">
        <rect id="Rectángulo_455976" data-name="Rectángulo 455976" width="71.24" height="68.99" transform="translate(-7.944 63.119) rotate(-82.875)" fill="url(#linear-gradient-14)"/>
      </g>
    </g>
    <g id="Grupo_1191298" data-name="Grupo 1191298" transform="translate(37.379 131.199)">
      <g id="Grupo_1191297" data-name="Grupo 1191297" clip-path="url(#clip-path-31)">
        <rect id="Rectángulo_455977" data-name="Rectángulo 455977" width="63.342" height="43.951" transform="translate(-7.289 58.312) rotate(-82.875)" fill="url(#linear-gradient-15)"/>
      </g>
    </g>
    <g id="Grupo_1191300" data-name="Grupo 1191300" transform="translate(15.293 126.023)">
      <g id="Grupo_1191299" data-name="Grupo 1191299" clip-path="url(#clip-path-32)">
        <rect id="Rectángulo_455978" data-name="Rectángulo 455978" width="88.177" height="88.651" transform="translate(-31.367 24.721) rotate(-38.29)" fill="url(#linear-gradient-16)"/>
      </g>
    </g>
    <g id="Grupo_1191302" data-name="Grupo 1191302" transform="translate(184.49 170.376)">
      <g id="Grupo_1191301" data-name="Grupo 1191301" clip-path="url(#clip-path-33)">
        <rect id="Rectángulo_455979" data-name="Rectángulo 455979" width="144.35" height="146.032" transform="matrix(0.733, -0.68, 0.68, 0.733, -59.17, 54.91)" fill="#fc9d83"/>
      </g>
    </g>
    <g id="Grupo_1191307" data-name="Grupo 1191307">
      <g id="Grupo_1191306" data-name="Grupo 1191306" clip-path="url(#clip-path)">
        <g id="Grupo_1191305" data-name="Grupo 1191305" transform="translate(180.252 173.886)" opacity="0.67">
          <g id="Grupo_1191304" data-name="Grupo 1191304">
            <g id="Grupo_1191303" data-name="Grupo 1191303" clip-path="url(#clip-path-35)">
              <path id="Trazado_999729" data-name="Trazado 999729" d="M1672.008,1612.955v111.652l83.819-5.121a3.122,3.122,0,0,0,3.166-2.853v-99.649a3.148,3.148,0,0,0-3.306-2.859Z" transform="translate(-1672.008 -1612.955)" fill="#f4f7fa"/>
            </g>
          </g>
        </g>
      </g>
    </g>
    <g id="Grupo_1191309" data-name="Grupo 1191309" transform="translate(267.952 178.164)">
      <g id="Grupo_1191308" data-name="Grupo 1191308" clip-path="url(#clip-path-36)">
        <rect id="Rectángulo_455982" data-name="Rectángulo 455982" width="22.276" height="22.957" transform="translate(-11.198 10.392) rotate(-42.861)" fill="#fc9d83"/>
      </g>
    </g>
    <g id="Grupo_1191311" data-name="Grupo 1191311" transform="translate(179.297 168.343)">
      <g id="Grupo_1191310" data-name="Grupo 1191310" clip-path="url(#clip-path-37)">
        <rect id="Rectángulo_455983" data-name="Rectángulo 455983" width="144.756" height="145.247" transform="translate(-65.083 64.27) rotate(-44.64)" fill="#fc9d83"/>
      </g>
    </g>
    <g id="Grupo_1191318" data-name="Grupo 1191318">
      <g id="Grupo_1191317" data-name="Grupo 1191317" clip-path="url(#clip-path)">
        <path id="Trazado_999732" data-name="Trazado 999732" d="M1846.551,1786.961l26.049.932v48.191l6.219.622v1.91l-31.857-3.268v-1.829l5.7.57v-45.065l-6.106-.234Zm15.835-6.595c-3.768-.1-6.427-1.094-8-2.98a10.411,10.411,0,0,1-2.352-6.909,9.3,9.3,0,0,1,2.562-6.745c1.717-1.777,4.344-2.67,7.9-2.67q5.385,0,8.238,2.466a8.868,8.868,0,0,1,2.86,7.068,9.675,9.675,0,0,1-2.751,7.261c-1.823,1.775-4.649,2.608-8.455,2.509" transform="translate(-1647.483 -1571.21)" fill="#fff"/>
        <g id="Grupo_1191316" data-name="Grupo 1191316" transform="translate(179.296 169.733)" opacity="0.3" style="mix-blend-mode: multiply;isolation: isolate">
          <g id="Grupo_1191315" data-name="Grupo 1191315">
            <g id="Grupo_1191314" data-name="Grupo 1191314" clip-path="url(#clip-path-39)">
              <g id="Grupo_1191313" data-name="Grupo 1191313" transform="translate(0 0)">
                <g id="Grupo_1191312" data-name="Grupo 1191312" clip-path="url(#clip-path-40)">
                  <rect id="Rectángulo_455984" data-name="Rectángulo 455984" width="128.354" height="128.986" transform="translate(-63.265 62.474) rotate(-44.64)" fill="url(#linear-gradient-17)"/>
                </g>
              </g>
            </g>
          </g>
        </g>
      </g>
    </g>
  </g>
</svg>
