<svg xmlns="http://www.w3.org/2000/svg" xmlns:xlink="http://www.w3.org/1999/xlink" width="396.186" height="318.326" viewBox="0 0 396.186 318.326">
  <defs>
    <clipPath id="clip-path">
      <rect id="Rectángulo_455883" data-name="Rectángulo 455883" width="396" height="308.254" fill="none"/>
    </clipPath>
  </defs>
  <g id="Grupo_1191129" data-name="Grupo 1191129" transform="translate(-497.814 -732.666)">
    <rect id="Rectángulo_455577" data-name="Rectángulo 455577" width="396" height="318" transform="translate(497.814 732.666)" fill="none"/>
    <g id="Grupo_1191128" data-name="Grupo 1191128" transform="translate(498 742.738)">
      <g id="Grupo_1191127" data-name="Grupo 1191127" clip-path="url(#clip-path)">
        <path id="Trazado_999236" data-name="Trazado 999236" d="M74.66,304.239S5.575,21.47,132.192,2.2C281.661-20.549,262.45,140.692,262.45,140.692s62.958-62.654,106.741-28.533c60.745,47.338-21.024,187.817-21.024,187.817Z" transform="translate(-9.834 0)" fill="#ffedb1"/>
        <path id="Trazado_999237" data-name="Trazado 999237" d="M365.05,361.447c0,4.907-81.719,8.886-182.526,8.886S0,366.354,0,361.447s81.719-8.886,182.525-8.886,182.526,3.979,182.526,8.886" transform="translate(0 -62.079)" fill="#ffdc6b"/>
        <path id="Trazado_999238" data-name="Trazado 999238" d="M191.314,354.208H48.873a22.445,22.445,0,0,1-22.379-22.38v-5.792a22.445,22.445,0,0,1,22.379-22.379h142.44a4.225,4.225,0,0,1,4.213,4.213v42.126a4.225,4.225,0,0,1-4.213,4.213" transform="translate(-4.665 -53.468)" fill="#6fa3dc"/>
        <path id="Trazado_999239" data-name="Trazado 999239" d="M48.873,359.237H156.959V332.222H26.494v4.635a22.445,22.445,0,0,0,22.379,22.38" transform="translate(-4.665 -58.498)" fill="#6093d1"/>
        <path id="Trazado_999240" data-name="Trazado 999240" d="M96.8,325.246v7.372a21.652,21.652,0,0,0,21.59,21.589H246.872v-2.632H118.787a19.4,19.4,0,0,1-19.341-19.341v-6.6a19.4,19.4,0,0,1,19.341-19.341H246.872v-2.633H118.387a21.653,21.653,0,0,0-21.59,21.59" transform="translate(-17.044 -53.468)" fill="#4e83b7"/>
        <path id="Trazado_999241" data-name="Trazado 999241" d="M100.012,326.193v6.6a19.4,19.4,0,0,0,19.341,19.342H247.438V306.852H119.353a19.4,19.4,0,0,0-19.341,19.341" transform="translate(-17.61 -54.03)" fill="#f4e9fa"/>
        <path id="Trazado_999242" data-name="Trazado 999242" d="M180.633,341.765c-34.67,0-63.61-13.748-70.49-32.062a19.392,19.392,0,0,0-10.133,16.992v6.6a19.4,19.4,0,0,0,19.342,19.341H247.438V316.469c-10.684,14.829-36.559,25.3-66.8,25.3" transform="translate(-17.61 -54.532)" fill="#d4cae9"/>
        <path id="Trazado_999243" data-name="Trazado 999243" d="M216.772,292.9H74.332a22.446,22.446,0,0,1-22.38-22.379v-5.792a22.446,22.446,0,0,1,22.38-22.38H216.772a4.225,4.225,0,0,1,4.213,4.213v42.126a4.225,4.225,0,0,1-4.213,4.213" transform="translate(-9.148 -42.672)" fill="#b3d0ff"/>
        <path id="Trazado_999244" data-name="Trazado 999244" d="M74.331,297.928H182.416V270.912H51.952v4.636a22.445,22.445,0,0,0,22.379,22.379" transform="translate(-9.148 -47.702)" fill="#94b8ed"/>
        <path id="Trazado_999245" data-name="Trazado 999245" d="M122.254,263.936v7.372a21.653,21.653,0,0,0,21.59,21.589H272.329v-2.632H144.244A19.4,19.4,0,0,1,124.9,270.924v-6.6a19.4,19.4,0,0,1,19.341-19.341H272.329v-2.633H143.844a21.654,21.654,0,0,0-21.59,21.59" transform="translate(-21.526 -42.672)" fill="#82aadb"/>
        <path id="Trazado_999246" data-name="Trazado 999246" d="M125.47,264.883v6.6a19.4,19.4,0,0,0,19.341,19.342H272.9V245.542H144.811a19.4,19.4,0,0,0-19.341,19.341" transform="translate(-22.093 -43.235)" fill="#f4eaff"/>
        <path id="Trazado_999247" data-name="Trazado 999247" d="M206.092,280.455c-34.67,0-63.61-13.749-70.49-32.062a19.39,19.39,0,0,0-10.133,16.992v6.6a19.4,19.4,0,0,0,19.341,19.341H272.9V255.158c-10.683,14.83-36.558,25.3-66.8,25.3" transform="translate(-22.093 -43.737)" fill="#d4cae9"/>
        <path id="Trazado_999248" data-name="Trazado 999248" d="M158.216,259.555a.879.879,0,0,0,.876.876h119.57v-1.752H159.092a.879.879,0,0,0-.876.876" transform="translate(-27.859 -45.548)" fill="#beb4d6"/>
        <path id="Trazado_999249" data-name="Trazado 999249" d="M158.216,269.124a.879.879,0,0,0,.876.876h119.57v-1.752H159.092a.879.879,0,0,0-.876.876" transform="translate(-27.859 -47.233)" fill="#beb4d6"/>
        <path id="Trazado_999250" data-name="Trazado 999250" d="M158.216,278.692a.879.879,0,0,0,.876.876h119.57v-1.752H159.092a.879.879,0,0,0-.876.876" transform="translate(-27.859 -48.918)" fill="#beb4d6"/>
        <path id="Trazado_999251" data-name="Trazado 999251" d="M158.216,288.261a.879.879,0,0,0,.876.876h119.57v-1.752H159.092a.879.879,0,0,0-.876.876" transform="translate(-27.859 -50.603)" fill="#beb4d6"/>
        <path id="Trazado_999252" data-name="Trazado 999252" d="M132.758,319.793a.879.879,0,0,0,.876.876H253.2v-1.752H133.634a.879.879,0,0,0-.876.876" transform="translate(-23.376 -56.155)" fill="#beb4d6"/>
        <path id="Trazado_999253" data-name="Trazado 999253" d="M132.758,329.362a.879.879,0,0,0,.876.876H253.2v-1.752H133.634a.879.879,0,0,0-.876.876" transform="translate(-23.376 -57.84)" fill="#beb4d6"/>
        <path id="Trazado_999254" data-name="Trazado 999254" d="M132.758,338.931a.879.879,0,0,0,.876.876H253.2v-1.752H133.634a.879.879,0,0,0-.876.876" transform="translate(-23.376 -59.525)" fill="#beb4d6"/>
        <path id="Trazado_999255" data-name="Trazado 999255" d="M132.758,348.5a.879.879,0,0,0,.876.876H253.2v-1.752H133.634a.879.879,0,0,0-.876.876" transform="translate(-23.376 -61.21)" fill="#beb4d6"/>
        <path id="Trazado_999256" data-name="Trazado 999256" d="M371.579,230.057s47.916-9.569,49.686-22.055-7.941-25.726,6.994-39.874,19.409-31.332,27.572-29.108c10.521,2.869,4.342,16.562-3.292,29.439-8.9,15.026-3.288,25.919.362,31.531,9.171,14.107-9.947,23.4-6.385,43.274,1.455,8.133-9.507,37.629-53.018,30.731Z" transform="translate(-65.428 -24.444)" fill="#61a76a"/>
        <path id="Trazado_999257" data-name="Trazado 999257" d="M394.878,289.224c15.394-8.339,51.147-64.253,51.5-64.812l-.419-.217c-.356.564-36.041,56.369-51.321,64.648Z" transform="translate(-69.488 -39.476)" fill="#90c69e"/>
        <path id="Trazado_999258" data-name="Trazado 999258" d="M437,253.578c1.453.386,3.441-.075,5.929-1.378l-.232-.385c-2.838,1.484-4.949,1.831-6.267,1.03-2.178-1.326-1.547-5.384-1.542-5.424l-.481-.053c-.027.18-.675,4.378,1.745,5.851a3.114,3.114,0,0,0,.848.359" transform="translate(-76.474 -43.556)" fill="#90c69e"/>
        <path id="Trazado_999259" data-name="Trazado 999259" d="M447.652,238.016c1.453.386,3.44-.072,5.931-1.374l-.231-.388c-2.844,1.491-4.953,1.837-6.268,1.032-2.178-1.324-1.55-5.385-1.543-5.426l-.48-.05c-.031.181-.679,4.38,1.743,5.853a3.233,3.233,0,0,0,.849.353" transform="translate(-78.348 -40.817)" fill="#90c69e"/>
        <path id="Trazado_999260" data-name="Trazado 999260" d="M454.028,229.059c1.453.386,3.442-.08,5.93-1.381l-.229-.386c-2.841,1.488-4.953,1.832-6.268,1.032-2.178-1.327-1.547-5.388-1.541-5.426l-.481-.047c-.03.176-.678,4.372,1.743,5.848a3.177,3.177,0,0,0,.847.361" transform="translate(-79.471 -39.239)" fill="#90c69e"/>
        <path id="Trazado_999261" data-name="Trazado 999261" d="M441.864,246.724c1.214.323,2.873-.063,4.946-1.145l-.233-.385c-2.336,1.221-4.075,1.513-5.15.852-1.778-1.081-1.266-4.426-1.261-4.459l-.479-.049c-.026.147-.567,3.65,1.461,4.882a2.6,2.6,0,0,0,.716.3" transform="translate(-77.405 -42.53)" fill="#90c69e"/>
        <path id="Trazado_999262" data-name="Trazado 999262" d="M431.523,261.238c1.453.386,3.442-.078,5.929-1.378l-.23-.39c-2.838,1.492-4.948,1.834-6.266,1.032-2.177-1.323-1.55-5.386-1.542-5.427l-.483-.047c-.03.178-.677,4.375,1.742,5.851a3.185,3.185,0,0,0,.849.359" transform="translate(-75.508 -44.905)" fill="#90c69e"/>
        <path id="Trazado_999263" data-name="Trazado 999263" d="M425.86,270.468c1.452.386,3.442-.075,5.931-1.375l-.23-.386c-2.842,1.486-4.954,1.832-6.268,1.029-2.178-1.324-1.547-5.383-1.542-5.425l-.481-.049c-.031.172-.678,4.374,1.743,5.847a3.158,3.158,0,0,0,.848.359" transform="translate(-74.511 -46.531)" fill="#90c69e"/>
        <path id="Trazado_999264" data-name="Trazado 999264" d="M420.425,277.172c1.05.279,2.482-.053,4.27-.99l-.233-.385c-1.99,1.046-3.465,1.287-4.376.737-1.512-.92-1.069-3.768-1.066-3.8l-.483-.047c-.021.125-.487,3.147,1.267,4.216a2.471,2.471,0,0,0,.621.264" transform="translate(-73.683 -48.016)" fill="#90c69e"/>
        <path id="Trazado_999265" data-name="Trazado 999265" d="M421.607,264.224s13.706-6.752,6.327-18.448-7.369-19.2.57-32.805,5.528-21.829-1.59-29.294,11.023-25.159-.783-29.657c-18.858-7.18-15.607-16.763-10.185-25.483,6.09-9.8,3.751-24-8.48-18.287s-14.166,27.265-11.73,35.187,3.68,15.858-8.186,26.007S374,189.118,375.758,200.208s4.144,9.834-2.785,27.2Z" transform="translate(-65.673 -19.182)" fill="#90c69e"/>
        <path id="Trazado_999266" data-name="Trazado 999266" d="M386.07,278.864c14.814-20.624,25.543-115.163,25.65-116.11l-.69,0c-.1.949-10.811,95.308-25.515,115.782Z" transform="translate(-67.881 -28.657)" fill="#61a76a"/>
        <path id="Trazado_999267" data-name="Trazado 999267" d="M409.375,213.1c2.159-.449,4.47-2.327,6.894-5.6l-.553-.341c-2.768,3.735-5.314,5.547-7.564,5.379-3.72-.28-5.52-5.869-5.539-5.922l-.667.246c.08.246,1.95,6.025,6.083,6.334a4.685,4.685,0,0,0,1.346-.091" transform="translate(-70.775 -36.381)" fill="#61a76a"/>
        <path id="Trazado_999268" data-name="Trazado 999268" d="M413.279,186.337c2.159-.45,4.47-2.323,6.9-5.6l-.555-.344c-2.768,3.746-5.315,5.554-7.562,5.381-3.719-.277-5.526-5.867-5.543-5.926l-.663.249c.076.251,1.946,6.03,6.081,6.339a4.851,4.851,0,0,0,1.345-.1" transform="translate(-71.462 -31.668)" fill="#61a76a"/>
        <path id="Trazado_999269" data-name="Trazado 999269" d="M415.848,170.773c2.16-.45,4.47-2.335,6.893-5.607l-.551-.345c-2.766,3.741-5.317,5.55-7.564,5.382-3.72-.282-5.524-5.873-5.539-5.926l-.663.253c.076.242,1.943,6.018,6.078,6.332a4.765,4.765,0,0,0,1.346-.088" transform="translate(-71.915 -28.926)" fill="#61a76a"/>
        <path id="Trazado_999270" data-name="Trazado 999270" d="M411.314,201.206c1.8-.376,3.732-1.944,5.753-4.668l-.555-.34c-2.276,3.074-4.371,4.574-6.212,4.427-3.036-.226-4.531-4.827-4.545-4.873L405.1,196c.062.2,1.621,5.026,5.082,5.282a3.866,3.866,0,0,0,1.137-.077" transform="translate(-71.329 -34.468)" fill="#61a76a"/>
        <path id="Trazado_999271" data-name="Trazado 999271" d="M407.142,226.43c2.159-.45,4.469-2.332,6.893-5.6l-.553-.348c-2.763,3.745-5.31,5.548-7.56,5.381-3.717-.278-5.526-5.868-5.541-5.926l-.666.254c.076.246,1.945,6.021,6.078,6.335a4.744,4.744,0,0,0,1.349-.091" transform="translate(-70.382 -38.726)" fill="#61a76a"/>
        <path id="Trazado_999272" data-name="Trazado 999272" d="M405.684,241.883c2.157-.449,4.472-2.328,6.9-5.6l-.554-.345c-2.768,3.739-5.319,5.551-7.564,5.378-3.719-.276-5.521-5.865-5.54-5.922l-.664.249c.073.24,1.944,6.023,6.078,6.332a4.722,4.722,0,0,0,1.345-.091" transform="translate(-70.125 -41.448)" fill="#61a76a"/>
        <path id="Trazado_999273" data-name="Trazado 999273" d="M402.881,253.966c1.561-.325,3.226-1.678,4.967-4.032l-.555-.339c-1.936,2.625-3.717,3.891-5.27,3.778-2.581-.193-3.845-4.114-3.859-4.153l-.664.254c.053.174,1.4,4.333,4.395,4.559a3.754,3.754,0,0,0,.987-.066" transform="translate(-69.992 -43.882)" fill="#61a76a"/>
        <path id="Trazado_999274" data-name="Trazado 999274" d="M269.2,255.443c1.146-.07,44.036,2.237,48.412,7.406s-8.753,68.125-13.858,72.382-35.376,3.649-35.376,3.649Z" transform="translate(-47.255 -44.978)" fill="#4463cd"/>
        <path id="Trazado_999275" data-name="Trazado 999275" d="M328.386,298.1s-15.921-72.037,4.512-86.8c21.45-15.5,70.516-9.482,76.225,0s-14.68,78.046-17.942,86.8Z" transform="translate(-56.782 -35.534)" fill="#4463cd"/>
        <path id="Trazado_999276" data-name="Trazado 999276" d="M310.728,296.2s-19.52-77.317,4.512-86.8,70.516-9.482,76.225,0-14.68,78.045-17.942,86.8Z" transform="translate(-53.396 -35.62)" fill="#5a7fe5"/>
        <path id="Trazado_999277" data-name="Trazado 999277" d="M390.231,263.292c-.161,2.987-4.667,3.015-4.667,0s4.506-2.99,4.667,0c.031.568.919.572.889,0a3.222,3.222,0,1,0-3.373,3.214,3.275,3.275,0,0,0,3.373-3.214c.03-.572-.858-.57-.889,0" transform="translate(-67.734 -45.793)" fill="#4463cd"/>
        <path id="Trazado_999278" data-name="Trazado 999278" d="M268.489,345.942c-.311.107-8.4,19.2-2.075,19.528s10.108-17.811,10.108-17.811Z" transform="translate(-46.486 -60.913)" fill="#53424d"/>
        <path id="Trazado_999279" data-name="Trazado 999279" d="M303.015,345.942c-.311.107-8.4,19.2-2.075,19.528s10.108-17.811,10.108-17.811Z" transform="translate(-52.565 -60.913)" fill="#53424d"/>
        <path id="Trazado_999280" data-name="Trazado 999280" d="M350.385,345.942c.311.107,8.4,19.2,2.075,19.528s-10.108-17.811-10.108-17.811Z" transform="translate(-60.281 -60.913)" fill="#53424d"/>
        <path id="Trazado_999281" data-name="Trazado 999281" d="M394.675,344.614c.311.107,8.4,19.2,2.075,19.528s-10.109-17.811-10.109-17.811Z" transform="translate(-68.08 -60.68)" fill="#53424d"/>
        <path id="Trazado_999282" data-name="Trazado 999282" d="M253.907,264.828a12.067,12.067,0,0,1,8.248-8.918c2.64-.777,5.564-.935,7.336,1.149,9.118,10.723,2.729,82.091,2.729,82.091l-17.681-.282s-5.409-53.419-.632-74.041" transform="translate(-44.361 -44.967)" fill="#5a7fe5"/>
        <path id="Trazado_999283" data-name="Trazado 999283" d="M278.658,308.808l52.556-2.314,2.6,41.628-57.261.03Z" transform="translate(-48.696 -53.967)" fill="#4463cd"/>
        <path id="Trazado_999284" data-name="Trazado 999284" d="M276.845,222.763a8.95,8.95,0,0,0,0,1.423c1.152,2.955,9.777,29.887,18.217,28.742,12.492-1.692-6.677-20.633-13.664-29.3Z" transform="translate(-48.741 -39.224)" fill="#cc8c71"/>
        <path id="Trazado_999285" data-name="Trazado 999285" d="M308.274,232.314c-.944,1-15.523,15.161-14.113,20.067.625,2.176,4.613,3.916,10.274-.6,6-4.783,15.4-16.541,9.2-17.779a46.331,46.331,0,0,1-5.363-1.687" transform="translate(-51.779 -40.906)" fill="#cc8c71"/>
        <path id="Trazado_999286" data-name="Trazado 999286" d="M318.043,213.873c10.051-5.684,21.6-3.836,24.32-1.437,1.541,1.361-10,1.081-11.031,3.636-1.815,4.488-10.623,18.137-17.923,24.935-2.5,2.332-12.556-4.42-9.63-9.382,3.842-6.513,8.893-14.714,14.265-17.752" transform="translate(-53.396 -36.998)" fill="#ff4650"/>
        <path id="Trazado_999287" data-name="Trazado 999287" d="M360.008,216.3s-2.723,1.172-2.722,5.806c-2.455,3.968-1.58,15.22-1.787,18.7-1.287,21.651,9.256,18.148,7.48,22.12-3.187,7.13-50.34,2.227-48.576-5.22,7.657-32.326-5.314-37.887,11.125-46.113,5.853-2.93,29.005-1.832,34.479,4.71" transform="translate(-55.351 -36.986)" fill="#ff4650"/>
        <path id="Trazado_999288" data-name="Trazado 999288" d="M284.336,229.528s-4.44-10.582-5.043-11.43c-3.864-5.436-4.688-8.927-5.416-7.746-1.339,2.176,1.566,9.514,1.982,10.62a48.746,48.746,0,0,0,2.772,5.731c.689,1.076,5.706,2.824,5.706,2.824" transform="translate(-48.163 -36.998)" fill="#cc8c71"/>
        <path id="Trazado_999289" data-name="Trazado 999289" d="M362.016,231.96c.992,1.072,6.559,25.85,12.546,25.165,7.63-.872,5.313-13.222,1.02-19.543-4.545-6.693-10.651-14.508-13.628-11.943-1.672,1.44.063,6.32.063,6.32" transform="translate(-63.605 -39.643)" fill="#cc8c71"/>
        <path id="Trazado_999290" data-name="Trazado 999290" d="M353.941,222c-1.053-4.106-6.386-6.845-2.809-7.9,2.029-.6,8.656-3.077,14.337,1.74,6.7,5.684,7.476,11.549,12.094,20.236,1.546,2.91-12.7,10.021-15.316,4.987-3.88-7.48-5.975-9.974-8.307-19.064" transform="translate(-61.613 -37.493)" fill="#ff4650"/>
        <path id="Trazado_999291" data-name="Trazado 999291" d="M337.032,227.646c-2.311.329-3.3-3.849-3.3-3.849L352.6,211.634s-2.1,14.095-15.573,16.012" transform="translate(-58.764 -37.264)" fill="#fdfefd"/>
        <path id="Trazado_999292" data-name="Trazado 999292" d="M327.652,226.283c2.7.751,4.284-2.568,4.284-2.568l-3.323-12.551-3.432,1.2s-5.078,11.822,2.471,13.922" transform="translate(-56.964 -37.182)" fill="#fdfefd"/>
        <path id="Trazado_999293" data-name="Trazado 999293" d="M325.538,212s13.489-5.919,25.623-.81l-18.869,12.164Z" transform="translate(-57.321 -36.82)" fill="#fdfefd"/>
        <path id="Trazado_999294" data-name="Trazado 999294" d="M347.923,210.122s-4.23,13.313-14.4,13.43c-4.726.055-6.268-3.657-3.662-7.288,2.566-3.572,18.064-6.142,18.064-6.142" transform="translate(-57.86 -36.998)" fill="#cc8c71"/>
        <path id="Trazado_999295" data-name="Trazado 999295" d="M267.426,274.012c-.185,3.451-5.389,3.482-5.389,0s5.2-3.452,5.389,0c.042.773,1.248.778,1.207,0a3.9,3.9,0,1,0-4.082,3.891,3.967,3.967,0,0,0,4.082-3.891c.041-.775-1.165-.774-1.207,0" transform="translate(-45.927 -47.561)" fill="#4463cd"/>
        <path id="Trazado_999296" data-name="Trazado 999296" d="M260.4,339.408c-2.583-21.109-4.995-43.435-2.525-64.632.395-3.387,1.055-12.665,5.309-13.889,4.569-1.313,5.643,6.767,6.154,9.787,2.206,13.054,1.392,26.837.744,39.992-.477,9.681-1.359,19.317-2.131,28.975-.061.774,1.145.77,1.207,0,.812-10.161,1.733-20.3,2.2-30.483.63-13.657,1.974-28.949-1.58-42.335-1.4-5.256-5.753-10.842-10-4.22-2.647,4.127-2.96,10.058-3.369,14.8a195.268,195.268,0,0,0-.246,24.334c.488,12.579,1.5,25.177,3.03,37.673.093.76,1.3.77,1.206,0" transform="translate(-45.06 -45.707)" fill="#4463cd"/>
        <path id="Trazado_999297" data-name="Trazado 999297" d="M395.883,220.676c-.161,2.988-4.667,3.015-4.667,0s4.506-2.99,4.667,0c.03.568.919.573.889,0a3.222,3.222,0,1,0-3.374,3.214,3.277,3.277,0,0,0,3.374-3.214c.031-.571-.858-.57-.889,0" transform="translate(-68.729 -38.289)" fill="#4463cd"/>
        <path id="Trazado_999298" data-name="Trazado 999298" d="M341,274.776a10.055,10.055,0,0,0,1.54.017c3.142-1.17,40.127-11.366,32.406-22.568-5.823-8.446-24.213,10.573-33.239,17.788Z" transform="translate(-60.043 -44.038)" fill="#cc8c71"/>
        <path id="Trazado_999299" data-name="Trazado 999299" d="M348.989,269.1s-12,4.829-12.946,5.494c-6.076,4.254-10.068,5.129-8.663,5.959,2.589,1.528,10.917-1.627,12.173-2.077a53.048,53.048,0,0,0,6.479-3.026c1.207-.756,2.957-6.35,2.957-6.35" transform="translate(-57.595 -47.382)" fill="#cc8c71"/>
        <path id="Trazado_999300" data-name="Trazado 999300" d="M329.348,216.813a1.036,1.036,0,1,1,0-1.465,1.036,1.036,0,0,1,0,1.465" transform="translate(-57.68 -37.865)" fill="#fea603"/>
        <path id="Trazado_999301" data-name="Trazado 999301" d="M330.115,214.677a1.036,1.036,0,1,1,0-1.465,1.036,1.036,0,0,1,0,1.465" transform="translate(-57.815 -37.489)" fill="#fea603"/>
        <path id="Trazado_999302" data-name="Trazado 999302" d="M331.373,212.485a1.036,1.036,0,1,1,0-1.464,1.035,1.035,0,0,1,0,1.464" transform="translate(-58.037 -37.103)" fill="#fea603"/>
        <path id="Trazado_999303" data-name="Trazado 999303" d="M349.7,208.888a1.036,1.036,0,1,1,0-1.465,1.035,1.035,0,0,1,0,1.465" transform="translate(-61.263 -36.47)" fill="#fea603"/>
        <path id="Trazado_999304" data-name="Trazado 999304" d="M316.791,179.858c2.284-4.749,6.242-7.117,10.811-8.189a13.851,13.851,0,0,1,14.543,7.376c6.539,12.594,6.133,13.4,6.133,13.4-6.448,3.523-26.292,10.376-27.3,9.322-5.622-5.953-9.384-11.111-4.191-21.91" transform="translate(-55.345 -30.19)" fill="#53424d"/>
        <path id="Trazado_999305" data-name="Trazado 999305" d="M328.837,215.462s2.627-6.9.714-13.661c-.48-1.7,2.058-2.719,1.233-3.387s7.441-5.161,7.441-5.161,1.917,10.638,9.74,13.9Z" transform="translate(-57.902 -34.028)" fill="#cc8c71"/>
        <path id="Trazado_999306" data-name="Trazado 999306" d="M330.007,202.418c-.693-2.049.777-4.918-.233-5.736s9.106-6.316,9.106-6.316a12.146,12.146,0,0,0,0,5.967,20.7,20.7,0,0,1-8.528,9.146Z" transform="translate(-58.054 -33.52)" fill="#bf7c64"/>
        <path id="Trazado_999307" data-name="Trazado 999307" d="M324.409,175.981c-2.992,4-7.637,18.578.242,23.549,3.366,2.125,10.882-3.218,14.007-10.557,1.288-3.011.345-9.02-3.168-13.736-1.582-2.137-7.653-3.937-11.082.743" transform="translate(-56.398 -30.468)" fill="#cc8c71"/>
        <path id="Trazado_999308" data-name="Trazado 999308" d="M319.738,182.734c.967,1.18.707-.91,3.622-2.757a6.4,6.4,0,0,1,1.167-.542,2.89,2.89,0,0,1,1.055-.217,1.679,1.679,0,0,1,1.517,1.28,7.387,7.387,0,0,0,2.834,3.453,10.425,10.425,0,0,1,3.357,3.669,5.842,5.842,0,0,0,.688,1.312,4.171,4.171,0,0,1,.868,1.651c.155.588.179,1.2.287,1.8a2.272,2.272,0,0,0,1.3,1.851,4.507,4.507,0,0,0,1,.371,4.978,4.978,0,0,0,2.193.058,4.777,4.777,0,0,0,3.526-3.162c.977-2.726.193-5.886-.737-8.506a38.589,38.589,0,0,0-2.439-5.377,8.9,8.9,0,0,0-3.845-3.694,12.287,12.287,0,0,0-7.073-1.135,12.842,12.842,0,0,0-3.532.968c-5.323,2.349-6.556,8.048-5.791,8.976" transform="translate(-56.263 -30.406)" fill="#53424d"/>
        <path id="Trazado_999309" data-name="Trazado 999309" d="M336.206,192.376s2.421-3.544,4.32-3.168.653,5.714-3.029,5.931-2.06-1.777-1.291-2.763" transform="translate(-59.019 -33.311)" fill="#cc8c71"/>
        <path id="Trazado_999310" data-name="Trazado 999310" d="M349.863,208.651a1.036,1.036,0,1,1-.056,1.463,1.036,1.036,0,0,1,.056-1.463" transform="translate(-61.545 -36.691)" fill="#fea603"/>
        <path id="Trazado_999311" data-name="Trazado 999311" d="M348.606,210.652a1.036,1.036,0,1,1-.056,1.464,1.036,1.036,0,0,1,.056-1.464" transform="translate(-61.324 -37.043)" fill="#fea603"/>
        <path id="Trazado_999312" data-name="Trazado 999312" d="M348.785,214.08a1.036,1.036,0,1,1,0-1.465,1.036,1.036,0,0,1,0,1.465" transform="translate(-61.103 -37.384)" fill="#fea603"/>
        <path id="Trazado_999313" data-name="Trazado 999313" d="M347.223,215.935a1.036,1.036,0,1,1,0-1.465,1.036,1.036,0,0,1,0,1.465" transform="translate(-60.828 -37.71)" fill="#fea603"/>
        <path id="Trazado_999314" data-name="Trazado 999314" d="M345.5,217.66a1.036,1.036,0,1,1,0-1.465,1.037,1.037,0,0,1,0,1.465" transform="translate(-60.524 -38.014)" fill="#fea603"/>
        <path id="Trazado_999315" data-name="Trazado 999315" d="M343.377,218.784a1.036,1.036,0,1,1,0-1.466,1.037,1.037,0,0,1,0,1.466" transform="translate(-60.15 -38.212)" fill="#fea603"/>
        <path id="Trazado_999316" data-name="Trazado 999316" d="M341.273,219.743a1.036,1.036,0,1,1,0-1.465,1.037,1.037,0,0,1,0,1.465" transform="translate(-59.78 -38.381)" fill="#fea603"/>
        <path id="Trazado_999317" data-name="Trazado 999317" d="M339.182,220.918a1.036,1.036,0,1,1,0-1.464,1.035,1.035,0,0,1,0,1.464" transform="translate(-59.412 -38.588)" fill="#fea603"/>
        <path id="Trazado_999318" data-name="Trazado 999318" d="M336.848,221.305a1.036,1.036,0,1,1,0-1.465,1.036,1.036,0,0,1,0,1.465" transform="translate(-59.001 -38.656)" fill="#fea603"/>
        <path id="Trazado_999319" data-name="Trazado 999319" d="M334.439,221a1.036,1.036,0,1,1,0-1.465,1.035,1.035,0,0,1,0,1.465" transform="translate(-58.577 -38.602)" fill="#fea603"/>
        <path id="Trazado_999320" data-name="Trazado 999320" d="M332.123,220.369a1.036,1.036,0,1,1,0-1.466,1.038,1.038,0,0,1,0,1.466" transform="translate(-58.169 -38.491)" fill="#fea603"/>
        <path id="Trazado_999321" data-name="Trazado 999321" d="M330.214,218.917a1.036,1.036,0,1,1,0-1.465,1.035,1.035,0,0,1,0,1.465" transform="translate(-57.833 -38.235)" fill="#fea603"/>
        <path id="Trazado_999322" data-name="Trazado 999322" d="M363.067,239.877a7.3,7.3,0,0,0,.421,5.311.657.657,0,0,0,1.134-.663,5.981,5.981,0,0,1-.288-4.3c.2-.821-1.069-1.172-1.267-.349" transform="translate(-63.876 -42.155)" fill="#ed3748"/>
        <path id="Trazado_999323" data-name="Trazado 999323" d="M316.772,239.913a5.987,5.987,0,0,1-.269,4.3.657.657,0,0,0,1.135.663,7.294,7.294,0,0,0,.4-5.312c-.2-.821-1.467-.474-1.266.349" transform="translate(-55.713 -42.1)" fill="#ed3748"/>
        <path id="Trazado_999324" data-name="Trazado 999324" d="M331.322,192.122c.06-.077-.071.077-.1.1a1.877,1.877,0,0,1-.356.283c-.513.3-.919.054-1.255-.34-.211-.248-.585.117-.376.364a1.542,1.542,0,0,0,2.531-.161c.207-.263-.244-.509-.448-.248" transform="translate(-57.961 -33.809)" fill="#1e100c"/>
        <path id="Trazado_999325" data-name="Trazado 999325" d="M324.327,192.731a1.8,1.8,0,0,1-.312.5c-.419.468-.862.28-1.267-.1-.238-.222-.615.14-.375.364a1.338,1.338,0,0,0,1.734.329,2.135,2.135,0,0,0,.724-.966c.124-.307-.38-.433-.5-.129" transform="translate(-56.75 -33.905)" fill="#1e100c"/>
        <path id="Trazado_999326" data-name="Trazado 999326" d="M322.265,190.095a1.559,1.559,0,0,1,2.129.2c.291.285.7-.2.41-.479a2.156,2.156,0,0,0-2.9-.237c-.327.24.031.758.359.518" transform="translate(-56.658 -33.301)" fill="#552b19"/>
        <path id="Trazado_999327" data-name="Trazado 999327" d="M328.892,189.811a1.56,1.56,0,0,1,2.1-.386c.357.2.619-.377.265-.572a2.157,2.157,0,0,0-2.855.557c-.25.32.236.722.486.4" transform="translate(-57.813 -33.198)" fill="#552b19"/>
        <path id="Trazado_999328" data-name="Trazado 999328" d="M326.6,191.2a3.147,3.147,0,0,1,.637,1.632c.03.845-.723,1.477-.986,2.271-.363,1.09.461,1.392,1.619,1.336.28-.014.294-.378.016-.364-2.6.125-.244-2.025-.214-3.136a3.338,3.338,0,0,0-.69-1.95c-.136-.191-.518.019-.381.211" transform="translate(-57.431 -33.617)" fill="#bf7c64"/>
        <path id="Trazado_999329" data-name="Trazado 999329" d="M330.346,198.028s.849,2-.848,2.582a2.089,2.089,0,0,1-2.508-1.185Z" transform="translate(-57.576 -34.869)" fill="#faffff"/>
        <path id="Trazado_999330" data-name="Trazado 999330" d="M334.222,195.812A1.224,1.224,0,1,1,333,194.588a1.223,1.223,0,0,1,1.224,1.224" transform="translate(-58.419 -34.263)" fill="#c1775d"/>
        <path id="Trazado_999331" data-name="Trazado 999331" d="M321.727,196.468a1.239,1.239,0,1,1,.377,1.71,1.238,1.238,0,0,1-.377-1.71" transform="translate(-56.615 -34.493)" fill="#c1775d"/>
        <path id="Trazado_999332" data-name="Trazado 999332" d="M338.529,195.308c1.369,1.043,4.122,3.97.9,4.624-2.288.466-1.752-2.392-1.319-3.733.1-.321-.4-.458-.505-.138-.641,1.99-.674,5.293,2.344,4.265,3.287-1.119.477-4.223-1.16-5.47-.268-.2-.529.25-.264.452" transform="translate(-59.385 -34.301)" fill="#fea603"/>
        <path id="Trazado_999333" data-name="Trazado 999333" d="M307.486,357.152s1.469,7.481.943,8.7c-1.569,3.633-14.493,5.64-19.1,3.724-.645-.269-1.39-1.352-.233-2.937s8.245-4.235,7.432-7.313,10.961-2.173,10.961-2.173" transform="translate(-50.797 -62.865)" fill="#53424d"/>
        <path id="Trazado_999334" data-name="Trazado 999334" d="M270.731,331.71s-1.415,7.492-2.356,8.429c-2.806,2.791-15.551-.148-19.118-3.639-.5-.488-.788-1.771.874-2.813s9.229-.87,9.618-4.03,10.983,2.053,10.983,2.053" transform="translate(-43.82 -57.867)" fill="#53424d"/>
        <path id="Trazado_999335" data-name="Trazado 999335" d="M315.282,287.7l-4.98,59.042s-8.439,3.578-15.6,0l-6.262-50.207,11.182-14.256Z" transform="translate(-50.789 -49.703)" fill="#e08b03"/>
        <path id="Trazado_999336" data-name="Trazado 999336" d="M350.471,278.57s4.026,28.681-16.1,27.339-30.416-20.128-37.572-18.34-22.365,36.678-22.365,36.678-7.157,1.789-14.761-5.815c0,0,8.5-43.834,24.154-54.569s66.647,14.706,66.647,14.706" transform="translate(-45.723 -45.996)" fill="#feb801"/>
        <path id="Trazado_999337" data-name="Trazado 999337" d="M356.043,261.778c1.282-.067,51.849,1.5,56.743,6.4s-9.787,64.578-15.5,68.614-39.552,3.46-39.552,3.46Z" transform="translate(-62.692 -46.093)" fill="#4463cd"/>
        <path id="Trazado_999338" data-name="Trazado 999338" d="M341.92,270.062a11.376,11.376,0,0,1,8.808-7.934c2.786-.578,6.038-.751,8.622.555,5.708,2.883,2.06,77.58,2.06,77.58l-18.778-.029s-6.045-50.612-.711-70.172" transform="translate(-59.818 -46.079)" fill="#5a7fe5"/>
        <path id="Trazado_999339" data-name="Trazado 999339" d="M355.219,280.761c-.166,3.091-4.828,3.119-4.828,0s4.662-3.093,4.828,0c.041.773,1.248.778,1.207,0a3.621,3.621,0,1,0-3.786,3.611,3.683,3.683,0,0,0,3.786-3.611c.041-.775-1.166-.774-1.207,0" transform="translate(-61.484 -48.799)" fill="#4463cd"/>
        <path id="Trazado_999340" data-name="Trazado 999340" d="M348.4,340.622c-2.56-19.453-4.924-40.136-2.571-59.692.408-3.4,1.1-12.058,5.32-13.235,4.7-1.311,5.8,6.7,6.32,9.845,2,12.136,1.239,24.906.571,37.126-.478,8.748-1.331,17.449-2.089,26.173-.067.773,1.14.769,1.206,0,.823-9.469,1.737-18.913,2.208-28.412.625-12.614,1.949-26.963-1.587-39.289-1.476-5.145-5.8-9.993-9.988-3.932-6.169,8.92-4.052,25.627-3.658,35.658.47,11.942,1.5,23.908,3.06,35.759.1.759,1.308.769,1.207,0" transform="translate(-60.478 -46.905)" fill="#4463cd"/>
        <path id="Trazado_999341" data-name="Trazado 999341" d="M149.4,81.966H79.158a2.209,2.209,0,0,1-2.2-2.2V54.215a2.209,2.209,0,0,1,2.2-2.2H149.4a2.209,2.209,0,0,1,2.2,2.2V79.763a2.209,2.209,0,0,1-2.2,2.2" transform="translate(-13.55 -9.158)" fill="#feb801"/>
        <path id="Trazado_999342" data-name="Trazado 999342" d="M106.532,86.644V96.08L120.8,86.644Z" transform="translate(-18.758 -15.256)" fill="#feb801"/>
        <path id="Trazado_999343" data-name="Trazado 999343" d="M106.689,69.828a4.56,4.56,0,1,1-4.56-4.56,4.56,4.56,0,0,1,4.56,4.56" transform="translate(-17.18 -11.492)" fill="#e08b03"/>
        <path id="Trazado_999344" data-name="Trazado 999344" d="M125.012,69.828a4.56,4.56,0,1,1-4.56-4.56,4.56,4.56,0,0,1,4.56,4.56" transform="translate(-20.406 -11.492)" fill="#e08b03"/>
        <path id="Trazado_999345" data-name="Trazado 999345" d="M143.335,69.828a4.56,4.56,0,1,1-4.56-4.56,4.56,4.56,0,0,1,4.56,4.56" transform="translate(-23.632 -11.492)" fill="#e08b03"/>
        <path id="Trazado_999346" data-name="Trazado 999346" d="M362.255,129.476h-38.4a3.588,3.588,0,0,1-3.587-3.587V80.821a3.588,3.588,0,0,1,3.587-3.588h38.4a3.588,3.588,0,0,1,3.587,3.588v45.068a3.588,3.588,0,0,1-3.587,3.587" transform="translate(-56.393 -13.599)" fill="#fea603"/>
        <rect id="Rectángulo_455878" data-name="Rectángulo 455878" width="33.787" height="40.826" transform="translate(269.447 69.135)" fill="#faffff"/>
        <rect id="Rectángulo_455879" data-name="Rectángulo 455879" width="29.819" height="36.859" transform="translate(271.496 71.183)" fill="#8cc3fb"/>
        <path id="Trazado_999347" data-name="Trazado 999347" d="M329.516,116.128l7.551-7.039,6.4,8.191,2.815-3.072,3.584,3.072,9.47-20.477v28.284H329.516Z" transform="translate(-58.021 -17.045)" fill="#517dd8"/>
        <path id="Trazado_999348" data-name="Trazado 999348" d="M343.838,96.663a3.743,3.743,0,1,1-3.744-3.743,3.744,3.744,0,0,1,3.744,3.743" transform="translate(-59.225 -16.361)" fill="#eec259"/>
        <path id="Trazado_999349" data-name="Trazado 999349" d="M62.124,169.6a8.593,8.593,0,1,1-8.593-8.593,8.592,8.592,0,0,1,8.593,8.593" transform="translate(-7.913 -28.35)" fill="#d89551"/>
        <path id="Trazado_999350" data-name="Trazado 999350" d="M28.8,169.047H73.372s-5.91-19.947-22.286-20.44S28.8,169.047,28.8,169.047" transform="translate(-5.071 -26.165)" fill="#5b5196"/>
        <path id="Trazado_999351" data-name="Trazado 999351" d="M56.748,140.945l-2.9-.034.4-76.47,2.9.034Z" transform="translate(-9.482 -11.347)" fill="#5b5196"/>
        <rect id="Rectángulo_455880" data-name="Rectángulo 455880" width="108.533" height="38.994" transform="translate(112.872 88.97)" fill="#ffdc6b"/>
        <path id="Trazado_999352" data-name="Trazado 999352" d="M267.291,107.984h-4.419a14.866,14.866,0,0,0-14.822,14.822v30.183h34.063V122.806a14.866,14.866,0,0,0-14.822-14.822" transform="translate(-43.677 -19.014)" fill="#e4b51c"/>
        <rect id="Rectángulo_455881" data-name="Rectángulo 455881" width="106.863" height="132.744" transform="translate(97.511 107.426)" fill="#ffdc6b"/>
        <path id="Trazado_999353" data-name="Trazado 999353" d="M137.59,107.984h-4.419a14.866,14.866,0,0,0-14.822,14.822v30.183h34.063V122.806a14.866,14.866,0,0,0-14.822-14.822" transform="translate(-20.839 -19.014)" fill="#ffdc6b"/>
        <path id="Trazado_999354" data-name="Trazado 999354" d="M134.024,165.267V164.2l2.352-.7a.834.834,0,0,0,.405-.236.684.684,0,0,0,.15-.478V146.545h-4.7a.6.6,0,0,0-.4.143.628.628,0,0,0-.213.4l-.57,3.063H129.38v-5.314h18.094v5.314h-1.667l-.568-3.063a.694.694,0,0,0-.214-.414.589.589,0,0,0-.385-.128h-4.717v16.242a.644.644,0,0,0,.164.478.947.947,0,0,0,.391.236l2.352.7v1.069Z" transform="translate(-22.781 -25.503)" fill="#e4b51c"/>
        <path id="Trazado_999355" data-name="Trazado 999355" d="M189.984,147.444H166.162a1.336,1.336,0,0,1,0-2.671h23.822a1.336,1.336,0,1,1,0,2.671" transform="translate(-29.023 -25.492)" fill="#e4b51c"/>
        <path id="Trazado_999356" data-name="Trazado 999356" d="M216.049,147.444H204.194a1.336,1.336,0,1,1,0-2.671h11.855a1.336,1.336,0,0,1,0,2.671" transform="translate(-35.719 -25.492)" fill="#e4b51c"/>
        <path id="Trazado_999357" data-name="Trazado 999357" d="M234.353,147.444h-7.124a1.336,1.336,0,1,1,0-2.671h7.124a1.336,1.336,0,1,1,0,2.671" transform="translate(-39.775 -25.492)" fill="#e4b51c"/>
        <path id="Trazado_999358" data-name="Trazado 999358" d="M223.712,153.707H166.051a1.224,1.224,0,1,1,0-2.449h57.661a1.224,1.224,0,1,1,0,2.449" transform="translate(-29.023 -26.633)" fill="#e4b51c"/>
        <path id="Trazado_999359" data-name="Trazado 999359" d="M184.528,160.192H166.05a1.224,1.224,0,1,1,0-2.449h18.478a1.224,1.224,0,0,1,0,2.449" transform="translate(-29.022 -27.775)" fill="#e4b51c"/>
        <path id="Trazado_999360" data-name="Trazado 999360" d="M229.184,160.192H197.125a1.224,1.224,0,0,1,0-2.449h32.059a1.224,1.224,0,1,1,0,2.449" transform="translate(-34.494 -27.775)" fill="#e4b51c"/>
        <path id="Trazado_999361" data-name="Trazado 999361" d="M223.6,167.17H166.161a1.336,1.336,0,1,1,0-2.671H223.6a1.336,1.336,0,0,1,0,2.671" transform="translate(-29.022 -28.965)" fill="#e4b51c"/>
        <path id="Trazado_999362" data-name="Trazado 999362" d="M153.5,180.68H129.683a1.336,1.336,0,0,1,0-2.671H153.5a1.336,1.336,0,0,1,0,2.671" transform="translate(-22.599 -31.344)" fill="#e4b51c"/>
        <path id="Trazado_999363" data-name="Trazado 999363" d="M179.57,180.68H167.715a1.336,1.336,0,1,1,0-2.671H179.57a1.336,1.336,0,0,1,0,2.671" transform="translate(-29.296 -31.344)" fill="#e4b51c"/>
        <path id="Trazado_999364" data-name="Trazado 999364" d="M197.875,180.68h-7.124a1.336,1.336,0,1,1,0-2.671h7.124a1.336,1.336,0,0,1,0,2.671" transform="translate(-33.352 -31.344)" fill="#e4b51c"/>
        <path id="Trazado_999365" data-name="Trazado 999365" d="M187.233,186.943H129.572a1.225,1.225,0,1,1,0-2.45h57.661a1.225,1.225,0,0,1,0,2.45" transform="translate(-22.599 -32.485)" fill="#e4b51c"/>
        <path id="Trazado_999366" data-name="Trazado 999366" d="M148.05,193.428H129.572a1.224,1.224,0,1,1,0-2.449H148.05a1.224,1.224,0,1,1,0,2.449" transform="translate(-22.599 -33.628)" fill="#e4b51c"/>
        <path id="Trazado_999367" data-name="Trazado 999367" d="M192.705,193.428H160.646a1.224,1.224,0,1,1,0-2.449h32.059a1.224,1.224,0,1,1,0,2.449" transform="translate(-28.071 -33.628)" fill="#e4b51c"/>
        <path id="Trazado_999368" data-name="Trazado 999368" d="M187.122,200.406H129.683a1.336,1.336,0,1,1,0-2.672h57.439a1.336,1.336,0,0,1,0,2.672" transform="translate(-22.599 -34.817)" fill="#e4b51c"/>
        <rect id="Rectángulo_455882" data-name="Rectángulo 455882" width="24.934" height="18.924" transform="translate(170.98 146.665)" fill="#e4b51c"/>
        <path id="Trazado_999369" data-name="Trazado 999369" d="M166.648,213.916H129.522a1.336,1.336,0,1,1,0-2.671h37.127a1.336,1.336,0,1,1,0,2.671" transform="translate(-22.571 -37.196)" fill="#e4b51c"/>
        <path id="Trazado_999370" data-name="Trazado 999370" d="M216.049,213.916H204.194a1.336,1.336,0,1,1,0-2.671h11.855a1.336,1.336,0,0,1,0,2.671" transform="translate(-35.719 -37.196)" fill="#e4b51c"/>
        <path id="Trazado_999371" data-name="Trazado 999371" d="M234.353,213.916h-7.124a1.336,1.336,0,1,1,0-2.671h7.124a1.336,1.336,0,1,1,0,2.671" transform="translate(-39.775 -37.196)" fill="#e4b51c"/>
        <path id="Trazado_999372" data-name="Trazado 999372" d="M223.712,220.179H166.051a1.224,1.224,0,1,1,0-2.449h57.661a1.224,1.224,0,1,1,0,2.449" transform="translate(-29.023 -38.338)" fill="#e4b51c"/>
        <path id="Trazado_999373" data-name="Trazado 999373" d="M158.4,226.664H129.41a1.224,1.224,0,0,1,0-2.449H158.4a1.224,1.224,0,0,1,0,2.449" transform="translate(-22.571 -39.48)" fill="#e4b51c"/>
        <path id="Trazado_999374" data-name="Trazado 999374" d="M229.184,226.664H197.125a1.224,1.224,0,0,1,0-2.449h32.059a1.224,1.224,0,1,1,0,2.449" transform="translate(-34.494 -39.48)" fill="#e4b51c"/>
        <path id="Trazado_999375" data-name="Trazado 999375" d="M217.149,233.642H129.522a1.336,1.336,0,1,1,0-2.671h87.627a1.336,1.336,0,1,1,0,2.671" transform="translate(-22.571 -40.669)" fill="#e4b51c"/>
        <path id="Trazado_999376" data-name="Trazado 999376" d="M158.4,268.817H129.41a1.224,1.224,0,1,1,0-2.449H158.4a1.224,1.224,0,1,1,0,2.449" transform="translate(-22.571 -46.902)" fill="#e4b51c"/>
        <path id="Trazado_999377" data-name="Trazado 999377" d="M229.184,268.817H197.125a1.224,1.224,0,1,1,0-2.449h32.059a1.224,1.224,0,1,1,0,2.449" transform="translate(-34.494 -46.902)" fill="#e4b51c"/>
        <path id="Trazado_999378" data-name="Trazado 999378" d="M217.149,275.795H129.522a1.336,1.336,0,0,1,0-2.672h87.627a1.336,1.336,0,0,1,0,2.672" transform="translate(-22.571 -48.091)" fill="#e4b51c"/>
      </g>
    </g>
  </g>
</svg>
