<svg xmlns="http://www.w3.org/2000/svg" xmlns:xlink="http://www.w3.org/1999/xlink" width="183" height="183" viewBox="0 0 183 183">
  <defs>
    <clipPath id="clip-path">
      <rect id="Rectángulo_455749" data-name="Rectángulo 455749" width="48.949" height="48.949" fill="#5a5858"/>
    </clipPath>
    <clipPath id="clip-path-2">
      <rect id="Rectángulo_455753" data-name="Rectángulo 455753" width="48.799" height="48.8" fill="#5a5858"/>
    </clipPath>
  </defs>
  <g id="Grupo_1191010" data-name="Grupo 1191010" transform="translate(-305.059 -9426)">
    <g id="Grupo_1177670" data-name="Grupo 1177670" transform="translate(305.059 9426)">
      <path id="Trazado_997691" data-name="Trazado 997691" d="M91.5,0A91.5,91.5,0,1,1,0,91.5,91.5,91.5,0,0,1,91.5,0Z" transform="translate(183 0) rotate(90)" fill="#cbcbcb"/>
      <path id="Trazado_997692" data-name="Trazado 997692" d="M82.519,0A82.519,82.519,0,1,1,0,82.519,82.519,82.519,0,0,1,82.519,0Z" transform="translate(8.981 8.982)" fill="#fff"/>
      <g id="Grupo_1191029" data-name="Grupo 1191029" transform="translate(1)">
        <g id="Grupo_1191026" data-name="Grupo 1191026" transform="translate(13.85 67.025)">
          <g id="Grupo_1190992" data-name="Grupo 1190992" clip-path="url(#clip-path)">
            <path id="Trazado_999072" data-name="Trazado 999072" d="M48.949,24.475A24.474,24.474,0,1,1,24.474,0,24.474,24.474,0,0,1,48.949,24.475m-4.483,0A19.983,19.983,0,1,0,24.482,44.455,19.983,19.983,0,0,0,44.465,24.472" fill="#5a5858"/>
            <path id="Trazado_999073" data-name="Trazado 999073" d="M124.564,131.239l-7.639.041-.014-11.763-2.8-.118.012-10.024a1.581,1.581,0,0,1,1.573-1.512h9.983a1.681,1.681,0,0,1,1.662,1.715l-.015,9.846-2.747.049Z" transform="translate(-96.276 -91.008)" fill="#5a5858"/>
            <path id="Trazado_999074" data-name="Trazado 999074" d="M140.827,58.694a3.54,3.54,0,1,1-3.54-3.54,3.54,3.54,0,0,1,3.54,3.54" transform="translate(-112.846 -46.535)" fill="#5a5858"/>
          </g>
        </g>
        <g id="Grupo_1191027" data-name="Grupo 1191027" transform="translate(65.652 67.025)">
          <rect id="Rectángulo_455751" data-name="Rectángulo 455751" width="17.821" height="3.917" transform="translate(15.167 18.112)" fill="#5a5858"/>
          <rect id="Rectángulo_455752" data-name="Rectángulo 455752" width="17.821" height="3.917" transform="translate(15.167 26.126)" fill="#5a5858"/>
          <g id="Grupo_1190999" data-name="Grupo 1190999">
            <g id="Grupo_1190998" data-name="Grupo 1190998" clip-path="url(#clip-path-2)">
              <path id="Trazado_999076" data-name="Trazado 999076" d="M48.155,24.078A24.077,24.077,0,1,1,24.077,0,24.077,24.077,0,0,1,48.155,24.078m-4.411,0A19.659,19.659,0,1,0,24.085,43.735,19.659,19.659,0,0,0,43.744,24.075" fill="#5a5858"/>
            </g>
          </g>
        </g>
        <g id="Grupo_1191028" data-name="Grupo 1191028" transform="translate(117.454 67.025)">
          <g id="Grupo_1190995" data-name="Grupo 1190995" transform="translate(0)" clip-path="url(#clip-path-2)">
            <path id="Trazado_999075" data-name="Trazado 999075" d="M48.68,24.34A24.34,24.34,0,1,1,24.34,0,24.34,24.34,0,0,1,48.68,24.34M32.049,15.616,28.883,18.9a7.7,7.7,0,0,0-4.043-1.447,5.63,5.63,0,0,0-2.167.466c-.583.2-1.327,1.662-.526,2.021l21.405,9.591c2.326-9.92-1.966-18.735-10.813-23.275a20.243,20.243,0,0,0-17.466.368A21.367,21.367,0,0,0,7.714,13.53l9.162,4.116a6.482,6.482,0,0,1,2.818-3.33,9.176,9.176,0,0,1,3.417-.976l.069-3.652a17.972,17.972,0,0,1,2.836,0l.07,3.645a10.911,10.911,0,0,1,5.963,2.278M26.076,35.375l-.094,3.7-2.828,0-.044-3.687A11.133,11.133,0,0,1,15.8,32.4l3.331-3.37a7.777,7.777,0,0,0,6.042,2.176A2.678,2.678,0,0,0,27.3,29.995c.291-.567.534-2.12-.255-2.474L5.528,17.866a19.433,19.433,0,0,0,4.808,20.448,19.7,19.7,0,0,0,27.733.268,17.058,17.058,0,0,0,3.669-4.6L32.7,29.986c-.823,3.312-3.442,4.968-6.62,5.389" transform="translate(-0.269)" fill="#5a5858"/>
          </g>
        </g>
      </g>
    </g>
    <path id="Trazado_997694" data-name="Trazado 997694" d="M33.245,3.853A3.847,3.847,0,1,1,37.1,7.717a3.85,3.85,0,0,1-3.853-3.864m-16.623,0a3.853,3.853,0,1,1,3.853,3.864,3.851,3.851,0,0,1-3.853-3.864M0,3.853A3.853,3.853,0,1,1,3.853,7.717,3.856,3.856,0,0,1,0,3.853" transform="translate(478.148 9432.184) rotate(90)" fill="#5a5858"/>
    <g id="Grupo_1177672" data-name="Grupo 1177672" transform="translate(331.334 9579.908) rotate(90)">
      <path id="Trazado_997699" data-name="Trazado 997699" d="M0,11.106l2.015,1.982,8.868-9.015,8.507,9,2.054-1.943L10.923,0Z" transform="translate(0 10.846)" fill="#636363"/>
      <path id="Trazado_997700" data-name="Trazado 997700" d="M10.923,0,0,11.1l2.015,1.983,8.868-9.015,8.507,8.995,2.054-1.942Z" transform="translate(0 0)" fill="#636363"/>
    </g>
  </g>
</svg>
