<svg xmlns="http://www.w3.org/2000/svg" xmlns:xlink="http://www.w3.org/1999/xlink" width="96" height="96" viewBox="0 0 96 96">
  <defs>
    <clipPath id="clip-path">
      <rect id="Rectángulo_456050" data-name="Rectángulo 456050" width="46.985" height="53.185" fill="#12263f"/>
    </clipPath>
  </defs>
  <g id="Grupo_1191051" data-name="Grupo 1191051" transform="translate(-735.746 -9615)">
    <path id="Trazado_997400" data-name="Trazado 997400" d="M48,0A48,48,0,1,1,0,48,48,48,0,0,1,48,0Z" transform="translate(735.746 9615)" fill="#5a5858"/>
    <path id="Trazado_997743" data-name="Trazado 997743" d="M43.544,0A43.544,43.544,0,1,1,0,43.544,43.544,43.544,0,0,1,43.544,0Z" transform="translate(740.52 9619.772)" fill="#e2e2e2"/>
    <g id="Grupo_1191371" data-name="Grupo 1191371" transform="translate(758.253 9636.408)">
      <g id="Grupo_1191370" data-name="Grupo 1191370" clip-path="url(#clip-path)">
        <path id="Trazado_999971" data-name="Trazado 999971" d="M58.656,33.871l-3.439.016a1.839,1.839,0,0,1-1.94-1.879l.014-3.5a1.656,1.656,0,0,1,1.576-1.666l3.692-.023a1.732,1.732,0,0,1,1.806,1.685c.035,1.236.033,2.425,0,3.668a1.719,1.719,0,0,1-1.71,1.694m-.069-5.3H55.058V32.13h3.529Z" transform="translate(-44.424 -22.366)" fill="#12263f"/>
        <path id="Trazado_999972" data-name="Trazado 999972" d="M117.393,55.116l-9.79.008a.874.874,0,0,1-.882-.906.892.892,0,0,1,.906-.857l9.746.006a.876.876,0,0,1,.02,1.75" transform="translate(-88.986 -44.493)" fill="#12263f"/>
        <path id="Trazado_999973" data-name="Trazado 999973" d="M156.531,33.8l-6.171.024a.918.918,0,0,1-.933-.9.863.863,0,0,1,.918-.879l5.992,0c.57,0,.96.25,1.016.755a.871.871,0,0,1-.821,1.007" transform="translate(-124.595 -26.714)" fill="#12263f"/>
        <path id="Trazado_999974" data-name="Trazado 999974" d="M111.993,32.825c.168,1.443-2.484,1.05-4.379,1.011a.925.925,0,0,1-.907-.872.86.86,0,0,1,.881-.89l3.5-.009a.863.863,0,0,1,.909.759" transform="translate(-88.974 -26.737)" fill="#12263f"/>
        <path id="Trazado_999975" data-name="Trazado 999975" d="M41.634,53.173l-31.819.012a5.36,5.36,0,0,1-5.393-5.164l.006-10.278A14.116,14.116,0,0,1,4.42,17.217l0-12.066A5.329,5.329,0,0,1,9.647.007L33.715,0a4.52,4.52,0,0,1,3.392,1.294l8.461,8.463a4.483,4.483,0,0,1,1.416,3.23L46.954,48a5.252,5.252,0,0,1-5.32,5.172M22.089,39.237A14.194,14.194,0,0,1,6.22,39.224l-.009,8.614a3.509,3.509,0,0,0,3.78,3.548l31.526.009A3.558,3.558,0,0,0,45.2,47.668L45.184,12.43l-6.955-.017a3.689,3.689,0,0,1-3.69-3.943l.014-6.681-24.392-.01A3.645,3.645,0,0,0,6.182,5.652l.041,10.075A14.185,14.185,0,0,1,25.91,35.447l1.5,1.448a1.823,1.823,0,0,1,2.574.1l5.06,5.069a4.426,4.426,0,0,1,.049,6.234,4.366,4.366,0,0,1-6.221.1l-5.311-5.314a1.9,1.9,0,0,1,.037-2.439,10.27,10.27,0,0,0-1.5-1.407m16.2-28.589c1.959-.057,3.766.082,5.585-.077L36.394,3.1l-.079,5.377a1.923,1.923,0,0,0,1.973,2.173m-11.7,16.825a12.4,12.4,0,1,0-12.4,12.4,12.4,12.4,0,0,0,12.4-12.4m-1.774,9.38L23.56,38.1,24.9,39.442l1.251-1.251Zm5.452,10.385a2.555,2.555,0,0,0,3.636-.3,2.606,2.606,0,0,0-.121-3.618L28.649,38.2,24.9,41.95Z" transform="translate(0 0)" fill="#12263f"/>
        <path id="Trazado_999976" data-name="Trazado 999976" d="M42.611,111.988a10.631,10.631,0,1,1-10.631-10.631,10.631,10.631,0,0,1,10.631,10.631m-1.773,0a8.858,8.858,0,1,0-8.858,8.858,8.858,8.858,0,0,0,8.858-8.858" transform="translate(-17.802 -84.514)" fill="#12263f"/>
        <path id="Trazado_999977" data-name="Trazado 999977" d="M49.843,124.488a5.375,5.375,0,0,0-5.36,5.279.921.921,0,0,1-.821.935.9.9,0,0,1-.934-.938,7.058,7.058,0,0,1,6.849-7.021c.557-.017.962.174,1.082.7a.872.872,0,0,1-.816,1.048" transform="translate(-35.628 -102.345)" fill="#12263f"/>
      </g>
    </g>
  </g>
</svg>
