<svg xmlns="http://www.w3.org/2000/svg" xmlns:xlink="http://www.w3.org/1999/xlink" width="96" height="96" viewBox="0 0 96 96">
  <defs>
    <clipPath id="clip-path">
      <rect id="Rectángulo_456046" data-name="Rectángulo 456046" width="59.729" height="58.822" fill="#12263f"/>
    </clipPath>
  </defs>
  <g id="Grupo_1191049" data-name="Grupo 1191049" transform="translate(-735.746 -9615)">
    <path id="Trazado_997400" data-name="Trazado 997400" d="M48,0A48,48,0,1,1,0,48,48,48,0,0,1,48,0Z" transform="translate(735.746 9615)" fill="#5a5858"/>
    <path id="Trazado_997743" data-name="Trazado 997743" d="M43.544,0A43.544,43.544,0,1,1,0,43.544,43.544,43.544,0,0,1,43.544,0Z" transform="translate(740.52 9619.772)" fill="#e2e2e2"/>
    <g id="Grupo_1191363" data-name="Grupo 1191363" transform="translate(753.882 9633.905)">
      <g id="Grupo_1191361" data-name="Grupo 1191361" clip-path="url(#clip-path)">
        <path id="Trazado_999950" data-name="Trazado 999950" d="M49.331,32.025l.025,4.953A13.252,13.252,0,0,0,52,36.957a6.722,6.722,0,0,0,5.951-6.478L57.935,8.188a6.515,6.515,0,0,0-6.4-6.378l-14.38-.053a.919.919,0,0,1-.919-.824A.888.888,0,0,1,37.176,0L51.319.018a8.383,8.383,0,0,1,8.38,8.3l.029,21.833a8.561,8.561,0,0,1-8.212,8.6c-.772.039-1.424-.038-2.236.05a8.615,8.615,0,0,1-8.6,9.867,1.4,1.4,0,0,0-1,.479,44.625,44.625,0,0,1-10.679,9.263,2.072,2.072,0,0,1-3.049-2.667,27.5,27.5,0,0,0,2.405-7.031L7.826,48.575a8.177,8.177,0,0,1-7.8-8.129L0,18.4a8.5,8.5,0,0,1,7.62-8.44,27.528,27.528,0,0,0,2.817-.134,8.507,8.507,0,0,1,8.247-9.8L33.15.006c.517,0,.721.6.7.926a.842.842,0,0,1-.86.811l-14.71.111c-4.112.031-6.711,4.158-6.078,8.065l28.285-.027c4.683,0,8.792,3.378,8.812,8.146l.04,9.693a.876.876,0,0,1-.9.927.863.863,0,0,1-.843-.928L47.581,18.4a6.759,6.759,0,0,0-6.912-6.742l-31.9-.011c-3.658,0-6.973,2.652-6.979,6.448L1.757,40.235A6.693,6.693,0,0,0,8.394,46.91l19.783.072a2.019,2.019,0,0,1,1.846,2.374c-.416,2.733-1.695,4.95-2.587,7.832a38.8,38.8,0,0,0,10.924-9.163,3.407,3.407,0,0,1,2.7-1.115,6.79,6.79,0,0,0,6.536-6.848V32.023a.871.871,0,0,1,.85-.979c.559-.006.885.369.888.98" transform="translate(0 0)" fill="#12263f"/>
        <path id="Trazado_999951" data-name="Trazado 999951" d="M77.794,178.393l-30.132.01a.853.853,0,0,1-.856-.955.892.892,0,0,1,.991-.83H77.612a.908.908,0,0,1,.983.673.869.869,0,0,1-.8,1.1" transform="translate(-38.067 -143.645)" fill="#12263f"/>
        <path id="Trazado_999952" data-name="Trazado 999952" d="M77.8,157.111l-29.981.009a.889.889,0,0,1-.97-.688c-.069-.314.055-1.031.609-1.031l30.53,0c.488,0,.663.59.658.863a.87.87,0,0,1-.845.851" transform="translate(-38.087 -126.387)" fill="#12263f"/>
        <path id="Trazado_999953" data-name="Trazado 999953" d="M77.881,200.036H47.816c-.663,0-.98-.345-.985-.863a.863.863,0,0,1,.983-.879l29.993,0a.838.838,0,0,1,.82.707.852.852,0,0,1-.747,1.03" transform="translate(-38.088 -161.276)" fill="#12263f"/>
        <path id="Trazado_999954" data-name="Trazado 999954" d="M131.783,95.9c-.836-.455-.22-2.036-.607-2.463a4,4,0,0,0-1.54-.077,2.41,2.41,0,0,1-2.36-2.518l.016-2.959a2.3,2.3,0,0,1,2.348-2.254l3.553-.009a2.374,2.374,0,0,1,2.426,2.4l-.014,3.564c-.009,2.161-2.217,5.187-3.822,4.313m1.359-2.483a3.012,3.012,0,0,0,.719-2.032l.009-3.331a.638.638,0,0,0-.605-.664l-3.571-.011c-1.134,0-.57,3.223-.535,4.093,1.135.4,2.65-.26,3.478.582.332.338.329.8.506,1.363" transform="translate(-103.516 -69.634)" fill="#12263f"/>
        <path id="Trazado_999955" data-name="Trazado 999955" d="M79.7,95.893c-.823-.473-.2-2.123-.6-2.442-.415-.243-1.038-.06-1.555-.087-2.844-.147-2.365-3.183-2.317-5.445a2.307,2.307,0,0,1,2.325-2.284l3.555-.009a2.381,2.381,0,0,1,2.446,2.408l-.006,3.38c0,2.472-2.3,5.372-3.853,4.479m1.364-2.462c1.032-.869.772-3.872.76-5.394a.647.647,0,0,0-.642-.643l-3.413-.021a.747.747,0,0,0-.81.852,17.209,17.209,0,0,0,.134,3.225c1.109.458,2.617-.249,3.465.59.353.349.344.817.507,1.39" transform="translate(-61.139 -69.642)" fill="#12263f"/>
        <path id="Trazado_999956" data-name="Trazado 999956" d="M103,221.656l-14.915.01a.914.914,0,0,1-.941-.809.819.819,0,0,1,.742-.94l15.078-.017a.866.866,0,0,1,.942.794.91.91,0,0,1-.906.961" transform="translate(-70.871 -178.848)" fill="#12263f"/>
      </g>
    </g>
  </g>
</svg>
